<svg xmlns="http://www.w3.org/2000/svg" viewBox="0 0 71.57 71.62"><defs><style>.cls-1{fill:#008dd1;}</style></defs><g id="Capa_2" data-name="Capa 2"><g id="Layer_1" data-name="Layer 1"><path class="cls-1" d="M71.57,34.07a35.48,35.48,0,0,0-1.5-8.64L22.2,2.69A35.57,35.57,0,0,0,14.55,7Z"/><path class="cls-1" d="M28,.88l39.89,19A35.69,35.69,0,0,0,56.15,6.34L45.79,1.42A35.68,35.68,0,0,0,28,.88Z"/><path class="cls-1" d="M.51,29.81A35.72,35.72,0,0,0,0,37.52l57,27.09a36,36,0,0,0,5.68-5.24Z"/><path class="cls-1" d="M43.69,70.72A36.16,36.16,0,0,0,53,67.2L.61,42.32a36,36,0,0,0,3.15,9.44Z"/><path class="cls-1" d="M4.54,19.24l1.75-3.7L70.17,45.88a35.05,35.05,0,0,0,1.33-7.3L11.1,9.89A35.74,35.74,0,0,0,3.47,20.44a36.42,36.42,0,0,0-2,5.33l0-.05L65.34,56.06a37.32,37.32,0,0,0,2.81-4.9q.33-.69.63-1.41Z"/><path class="cls-1" d="M7.92,58.27A35.83,35.83,0,0,0,36,71.61Z"/></g></g></svg>