<svg xmlns="http://www.w3.org/2000/svg" viewBox="0 0 402.21 1008.04"><defs><style>.cls-1{fill:none;stroke:#009ee2;stroke-miterlimit:10;}.cls-2{fill:#ffeb00;}</style></defs><g id="Capa_2" data-name="Capa 2"><g id="Layer_1" data-name="Layer 1"><path class="cls-1" d="M401.71,1V806.94c0,110.79-89.81,200.6-200.6,200.6h0C90.31,1007.54.5,917.73.5,806.94V0"/><path class="cls-1" d="M372.46,1V806.94c0,94.48-76.87,171.35-171.35,171.35S29.75,901.42,29.75,806.94V0"/><path class="cls-1" d="M343.21.5V806.94c0,78.36-63.75,142.1-142.1,142.1S59,885.3,59,806.94L58.55,0"/><path class="cls-1" d="M314,1V806.94a112.86,112.86,0,0,1-225.71,0L88.55,0"/><path class="cls-1" d="M284.71,1V806.94a83.61,83.61,0,0,1-167.21,0L117.55,0"/><path class="cls-2" d="M83.67,939.24a17.86,17.86,0,1,0,17.86-17.86A17.86,17.86,0,0,0,83.67,939.24Z"/></g></g></svg>