<svg xmlns="http://www.w3.org/2000/svg" viewBox="0 0 651.53 469.61"><defs><style>.cls-1{fill:none;stroke:#009ee2;stroke-miterlimit:10;}.cls-2{fill:#ffeb00;}</style></defs><g id="Capa_2" data-name="Capa 2"><g id="Layer_1" data-name="Layer 1"><path class="cls-1" d="M651,468.11V325.77C651,146.13,505.41.5,325.77.5h0C146.13.5.5,146.13.5,325.77V463.61"/><path class="cls-1" d="M603.61,468.11V325.77c0-153.2-124.64-277.84-277.84-277.84S47.93,172.57,47.93,325.77V468.11"/><path class="cls-1" d="M556.18,468.11V325.77c0-127-103.36-230.41-230.41-230.41S95.35,198.72,95.35,325.77V469.61"/><path class="cls-1" d="M508.75,468.61V325.77c0-100.9-82.08-183-183-183s-183,82.09-183,183V463.61"/><path class="cls-1" d="M461.32,468.11V325.77c0-74.75-60.81-135.56-135.55-135.56S190.21,251,190.21,325.77V463.11"/><path class="cls-2" d="M172.22,95.85A17.86,17.86,0,1,0,190.07,78,17.86,17.86,0,0,0,172.22,95.85Z"/></g></g></svg>