<svg xmlns="http://www.w3.org/2000/svg" viewBox="0 0 33.7 33.72"><defs><style>.cls-1{fill:#bd0e1a;}</style></defs><g id="Capa_2" data-name="Capa 2"><g id="Layer_1" data-name="Layer 1"><path class="cls-1" d="M33.7,16A17,17,0,0,0,33,12L10.45,1.27a17,17,0,0,0-3.6,2Z"/><path class="cls-1" d="M13.16.42,31.94,9.34A16.68,16.68,0,0,0,26.44,3L21.56.67A16.65,16.65,0,0,0,13.16.42Z"/><path class="cls-1" d="M.24,14A16.53,16.53,0,0,0,0,17.67L26.88,30.42A16.76,16.76,0,0,0,29.55,28Z"/><path class="cls-1" d="M20.57,33.3A17.24,17.24,0,0,0,25,31.65L.29,19.93a16.58,16.58,0,0,0,1.48,4.44Z"/><path class="cls-1" d="M2.14,9.06,3,7.32,33,21.6a17,17,0,0,0,.63-3.43L5.23,4.66a16.61,16.61,0,0,0-3.6,5,17.3,17.3,0,0,0-.95,2.5v0L30.77,26.4a18,18,0,0,0,1.32-2.31c.11-.22.2-.44.3-.66Z"/><path class="cls-1" d="M3.73,27.44a16.91,16.91,0,0,0,5.9,4.65A16.67,16.67,0,0,0,17,33.72Z"/></g></g></svg>