<svg xmlns="http://www.w3.org/2000/svg" viewBox="0 0 473.45 600.7"><defs><style>.cls-1{fill:none;stroke:#009ee2;stroke-miterlimit:10;}.cls-2{fill:#ffeb00;}</style></defs><g id="Capa_2" data-name="Capa 2"><g id="Layer_1" data-name="Layer 1"><path class="cls-1" d="M.5,600.7V236.13C.5,106,106,.5,236.13.5h0C366.27.5,471.77,106,471.77,236.13L471.3,598.7"/><path class="cls-1" d="M34.86,598.7V236.13c0-111,90.29-201.27,201.27-201.27s201.28,90.29,201.28,201.27l-.16,363.57"/><path class="cls-1" d="M69.22,598.7V236.13c0-92,74.88-166.91,166.91-166.91s166.92,74.87,166.92,166.91V598.7"/><path class="cls-1" d="M103.57,598.7V236.13c0-73.09,59.47-132.56,132.56-132.56S368.7,163,368.7,236.13V598.7"/><path class="cls-1" d="M137.93,598.7V236.13a98.21,98.21,0,0,1,196.41,0l0,362.57"/><circle class="cls-2" cx="448.49" cy="121.74" r="24.96"/></g></g></svg>