<svg xmlns="http://www.w3.org/2000/svg" xmlns:xlink="http://www.w3.org/1999/xlink" viewBox="0 0 402.21 1069.04"><defs><style>.cls-1,.cls-3{fill:none;}.cls-2{clip-path:url(#clip-path);}.cls-3{stroke:#009ee2;stroke-miterlimit:10;}.cls-4{fill:#ffeb00;}</style><clipPath id="clip-path" transform="translate(-77.45 26.5)"><rect class="cls-1" width="362" height="1083"/></clipPath></defs><g id="Capa_2" data-name="Capa 2"><g id="Layer_1" data-name="Layer 1"><g class="cls-2"><path class="cls-3" d="M479.16,263.74v577.7c0,110.79-89.81,200.6-200.61,200.6h0C167.76,1042,78,952.23,78,841.44V-25.5" transform="translate(-77.45 26.5)"/><path class="cls-3" d="M449.91,263.74v577.7c0,94.48-76.87,171.35-171.36,171.35S107.2,935.92,107.2,841.44V-16.5" transform="translate(-77.45 26.5)"/><path class="cls-3" d="M420.66,263.74v577.7c0,78.36-63.75,142.1-142.11,142.1s-142.1-63.74-142.1-142.1V-7.5" transform="translate(-77.45 26.5)"/><path class="cls-3" d="M391.41,263.74v577.7a112.86,112.86,0,0,1-225.71,0V-26.5" transform="translate(-77.45 26.5)"/><path class="cls-3" d="M362.16,263.74v577.7a83.61,83.61,0,0,1-167.21,0L195-17.5" transform="translate(-77.45 26.5)"/><path class="cls-4" d="M161.12,973.74A17.86,17.86,0,1,0,179,955.88,17.86,17.86,0,0,0,161.12,973.74Z" transform="translate(-77.45 26.5)"/></g></g></g></svg>