<svg xmlns="http://www.w3.org/2000/svg" viewBox="0 0 171.61 191.5"><defs><style>.cls-1{fill:#7f7f7f;}</style></defs><g id="Capa_2" data-name="Capa 2"><g id="Layer_1" data-name="Layer 1"><path class="cls-1" d="M118.72,191.47l0-.91a62,62,0,0,0,10.83-.61l.14.9a61.85,61.85,0,0,1-9,.65ZM97.1,187.7l.28-.87a84.24,84.24,0,0,0,10.56,2.6l-.16.9A86.17,86.17,0,0,1,97.1,187.7Zm43-.48a43.11,43.11,0,0,0,8.74-4.55l.78-.54.53.74-.8.56a44.4,44.4,0,0,1-8.92,4.65Zm-63.24-7.89.41-.82c3.59,1.77,6.84,3.25,9.92,4.55l-.35.84C83.7,182.6,80.44,181.1,76.82,179.33Zm80.68-4.54a48.55,48.55,0,0,0,6-9l.81.42a49.36,49.36,0,0,1-6.07,9.2Zm-94.13-2.4-6-3.15.42-.8c2,1,4,2.09,6,3.15l3.69,1.95-.42.8C65.83,173.7,64.6,173,63.37,172.39ZM46.81,164c-3.15-1.49-6.24-2.84-9.19-4l.34-.85c3,1.17,6.07,2.52,9.24,4l.81.39-.39.82Zm-30.12-9.91.14-.9a85.54,85.54,0,0,1,10.73,2.4l-.25.88A85.6,85.6,0,0,0,16.69,154.05Zm150.8,1.64a72.69,72.69,0,0,0,2.33-10.61l.9.13A73.16,73.16,0,0,1,168.36,156Zm3.2-21.46c0-.56,0-1.11,0-1.66,0-3-.15-6.15-.45-9.22l.91-.09c.3,3.1.45,6.23.45,9.31,0,.56,0,1.12,0,1.67ZM166.17,102l.88-.25c1,3.53,1.83,7.13,2.51,10.69l-.89.17C168,109,167.15,105.46,166.17,102Zm-7.45-20.49.84-.37c1.51,3.35,2.9,6.77,4.14,10.16l-.86.32C161.61,88.21,160.23,84.81,158.72,81.47ZM148.41,62.25l.77-.48c1.95,3.11,3.81,6.3,5.52,9.49l-.81.43C152.19,68.52,150.35,65.35,148.41,62.25ZM135.72,44.49l.71-.57c2.31,2.85,4.54,5.79,6.64,8.73l-.74.53C140.24,50.26,138,47.33,135.72,44.49Zm-14.64-16.2.64-.64c2.6,2.58,5.15,5.25,7.58,7.93l-.68.61C126.21,33.52,123.67,30.87,121.08,28.29ZM104.81,13.72l.58-.7c2.83,2.29,5.64,4.68,8.35,7.1l-.61.68C110.44,18.39,107.64,16,104.81,13.72ZM87.24.76,87.75,0c3.06,2.07,6.07,4.19,9,6.32l-.55.73C93.29,4.93,90.29,2.81,87.24.76ZM0,152.62v.92c1.92-.21,3.89-.32,5.86-.34v-.91C3.89,152.31,1.92,152.41,0,152.62Z"/></g></g></svg>