<svg xmlns="http://www.w3.org/2000/svg" xmlns:xlink="http://www.w3.org/1999/xlink" viewBox="0 0 778.8 402.21"><defs><style>.cls-1,.cls-3{fill:none;}.cls-2{clip-path:url(#clip-path);}.cls-3{stroke:#009ee2;stroke-miterlimit:10;}.cls-4{fill:#ffeb00;}</style><clipPath id="clip-path" transform="translate(-95.4 -53.29)"><rect class="cls-1" width="963" height="271"/></clipPath></defs><g id="Capa_2" data-name="Capa 2"><g id="Layer_1" data-name="Layer 1"><g class="cls-2"><path class="cls-3" d="M874.2,455H296.51C185.72,455,95.9,365.19,95.9,254.39h0c0-110.79,89.82-200.6,200.61-200.6H874.2" transform="translate(-95.4 -53.29)"/><path class="cls-3" d="M874.2,425.75H296.51c-94.49,0-171.36-76.87-171.36-171.36S202,83,296.51,83H874.2" transform="translate(-95.4 -53.29)"/><path class="cls-3" d="M874.2,396.5H296.51c-78.36,0-142.1-63.75-142.1-142.11s63.74-142.1,142.1-142.1H874.2" transform="translate(-95.4 -53.29)"/><path class="cls-3" d="M874.2,367.25H296.51a112.86,112.86,0,0,1,0-225.71H874.2" transform="translate(-95.4 -53.29)"/><path class="cls-3" d="M874.2,338H296.51a83.61,83.61,0,0,1,0-167.21H874.2" transform="translate(-95.4 -53.29)"/></g><path class="cls-4" d="M185.62,119.24a17.86,17.86,0,1,0,17.86-17.86A17.86,17.86,0,0,0,185.62,119.24Z" transform="translate(-95.4 -53.29)"/></g></g></svg>