<svg xmlns="http://www.w3.org/2000/svg" viewBox="0 0 625.29 340.68"><defs><style>.cls-1{fill:#ffda00;}</style></defs><g id="Capa_2" data-name="Capa 2"><g id="Layer_1" data-name="Layer 1"><path class="cls-1" d="M30.46,284.28c-.73.16-1.48.24-2.22.36h0a8.48,8.48,0,0,1-3-.12c-3.76-.77-13.54-3.41-20.51-10.74-9.23-9.7-4.26-25.79,8.7-29.2a74.39,74.39,0,0,1,20.05-2.47c26.31.42,50.41,13.83,69.14,31.52,7,6.63,13.69,13.63,21.21,19.7-1-.66-1.88-1.33-2.8-2l4.51,3.45c-.59-.46-1.13-1-1.71-1.42a58.13,58.13,0,0,0,7.51,4.41c-1-.33-2-.68-3-1.09l3.52,1.43c0,.06.21.14.54.22l1,.42c-.26-.11-.5-.25-.76-.36a8,8,0,0,0,1,.12h.48l.7.14-.55.14c-1.79.42-.32.33,1,.14-.2.1-.38.21-.59.31l.82-.34a10.76,10.76,0,0,0,1.2-.22c-.2.16-.36.35-.56.51L137.7,298l.69-.29c-.08.12-.15.24-.23.35l.28-.36,1.35-.55c-.42.16-.84.27-1.25.41.13-.16.25-.33.38-.5l1.75-1.33c-.48.36-1,.66-1.48,1l2.41-3.17c-.61.8-1.27,1.53-1.94,2.26a42,42,0,0,0,2.11-3.84c-.25.76-.5,1.51-.79,2.26.69-1.69,1.37-3.39,2.06-5.08-.39,1-.82,1.9-1.27,2.82a72.65,72.65,0,0,0,2.48-10,7.7,7.7,0,0,1-.05.83c-.09.59-.17,1.09-.18,1.12a5.35,5.35,0,0,0,.18-1.12c.22-1.39.5-3.29.08-1l0,.14c0-.47,0-.93.05-1.34.15-2.54.19-5.1.09-7.65-.06-1.78-.19-3.55-.37-5.32-.1-1-.22-2-.33-3,.05.37.09.73.14,1.1.55,4-.61-5.25-.16-1.22l0,.12c-.73-5.26-1.45-10.53-2.1-15.8-2.3-18.47-2-39,9-55,12.86-18.63,32.95-27.83,55.21-29.16,20.36-1.22,40.53,5.79,57.32,17a239.52,239.52,0,0,1,29.3,23.57c4.75,4.36,10.12,13.38,17.15,18,4.52,3,11.67,2.82,13.32,2.87,2.07.06,12.84-1.54,19-10.76,4.65-7,5.14-21.69,5.61-24.39.28-1.59.52-3.19.76-4.78,0,.39-.09.77-.14,1.16-.46,4,.75-5.28.16-1.34,0,.06,0,.12,0,.18,0-.29.06-.58.1-.87.45-4.11.8-8.24,1.09-12.37,1.15-16.34,1.73-32.66,3.93-48.92,4.39-32.55,20.72-63.81,44.38-86.55C422.35,13.76,455.09-.68,489.51,0c31.36.65,61.32,12.88,86.87,30.55a340.52,340.52,0,0,1,42.56,35.29,20.9,20.9,0,0,1,.21,29.8l-.3.3a20.92,20.92,0,0,1-29.34.22A346.78,346.78,0,0,0,562,72.13c1,.72,1.93,1.42,2.89,2.15l-4.51-3.44c.54.42,1.07.87,1.62,1.29a190.78,190.78,0,0,0-38.13-22.38c.81.31,1.63.6,2.44.92l-5.09-2.06c.89.36,1.77.76,2.65,1.14a130.36,130.36,0,0,0-16.83-5.19c-2.94-.67-5.9-1.19-8.87-1.66l1,.09c3.33.32-4.49-.64-2-.26l1,.17-1.43-.14c-1.77-.16-3.55-.27-5.32-.34-3.27-.13-6.55-.1-9.82.07-1.39.07-2.78.2-4.17.33h0a1.62,1.62,0,0,0,.47-.15,1.73,1.73,0,0,1-.47.15h0c-.43,0-.86,0-1.29.1-1.59.16-1.53.21-.95.17A100.92,100.92,0,0,0,457.16,48c.74-.32,1.45-.69,2.19-1l-5.08,2.06c1-.38,1.93-.72,2.89-1.07a115.38,115.38,0,0,0-21,12c.71-.56,1.38-1.17,2.09-1.72l-4.51,3.44c.79-.6,1.62-1.14,2.42-1.72a130,130,0,0,0-19.94,20.06c.5-.7,1-1.42,1.48-2.11l-3.45,4.52c.63-.83,1.32-1.6,2-2.41a135.45,135.45,0,0,0-14.64,25.73c.38-1,.75-2.07,1.16-3.09l-2.07,5.09c.28-.68.62-1.33.91-2a126.38,126.38,0,0,0-6.07,21.34c-.34,1.83-.63,3.66-.9,5.5.05-.43.11-.87.15-1.3-.48,3.7-.58,4.48-.3,2.36.05-.33.09-.66.14-1,0,0,0,0,0-.07-.07.58-.13,1.16-.2,1.74-.46,4.28-.8,8.57-1.09,12.87-1.23,18.17-1.73,36.4-4.87,54.39s-10.26,35.51-22.82,49.14A68.81,68.81,0,0,1,338,268.89c-12.31,4.39-25.53,3.26-37.29-2.15C289.29,261.51,280,251.53,271,243.05c-7.7-7.23-15.43-14.43-23.7-21,.72.52,1.46,1,2.17,1.56l-4.51-3.44c.79.61,1.55,1.26,2.34,1.88a112.7,112.7,0,0,0-20.1-11.89c.82.29,1.66.54,2.48.86L224.55,209c.89.36,1.74.8,2.61,1.2a66.77,66.77,0,0,0-8.47-2.46c-.91-.2-1.84-.35-2.76-.52l.86.06c4,.31-5.12-.92-1.19-.13l.33.07c-1.64-.13-3.26-.26-4.91-.29-1.92,0-3.84,0-5.75.14l-.85,0c2.35-.44-1.32,0-2.26.25a10.36,10.36,0,0,1,2.26-.25l-.47.09a56.7,56.7,0,0,0-8.89,2.42c.91-.45,1.84-.87,2.78-1.27l-5.08,2.06c.75-.3,1.53-.52,2.3-.79a50.59,50.59,0,0,0-4.65,2.64c.56-.49,1.09-1,1.69-1.49l-3.88,2.95c.13-.18.23-.37.37-.55-.17.22-.33.44-.5.65l-.51.39.46-.32-2.59,3.39c.06-.15.09-.29.15-.44l-.21.53a3.92,3.92,0,0,0-.25.32l.21-.24c-.61,1.49-1.21,3-1.82,4.48.33-.76.74-1.47,1.1-2.21-.64,2-1.2,4.07-1.65,6.16,0-.5.08-1.09.12-1.8,0,.73-.15,1.46-.21,2.2a1.05,1.05,0,0,0,0,.19c-.21,1-.17,2.19,0,1.09-.09,1.54-.16,3.09-.16,4.63,0,3.3.2,6.59.51,9.86.13,1.46.29,2.91.46,4.36,0-.26-.08-.51-.12-.81.07.45.12.9.18,1.36,0,.19.05.41.09.63l.15,1.16c2.33,17,4.44,33.31,0,50.2-4.95,18.81-18.19,36.38-38.07,40.65-16,3.45-31.95-1.26-45-10.85-12.73-9.38-23-21.32-35.23-31.23.78.56,1.57,1.09,2.34,1.67l-4.52-3.44c.74.57,1.45,1.18,2.18,1.77a95.82,95.82,0,0,0-16.42-9.56c1,.36,2,.71,3,1.11L47.16,287c.7.3,1.38.64,2.07,1a70.71,70.71,0,0,0-7.82-2.42c-.83-.2-1.67-.35-2.5-.49a15.75,15.75,0,0,0-2-.39c-.36-.07-.73-.12-1.09-.2l.81.18c-.87-.07-1.74-.11-2.61-.13"/></g></g></svg>