<svg xmlns="http://www.w3.org/2000/svg" viewBox="0 0 352.99 114.51"><defs><style>.cls-1{fill:#0092d6;}.cls-2{fill:#ffdf00;}</style></defs><g id="Capa_2" data-name="Capa 2"><g id="Layer_1" data-name="Layer 1"><rect class="cls-1" y="38.44" width="5.81" height="5.81"/><rect class="cls-1" y="73.57" width="5.81" height="5.81"/><rect class="cls-1" y="108.7" width="5.81" height="5.81"/><rect class="cls-1" x="31.81" y="38.44" width="5.81" height="5.81"/><rect class="cls-1" x="31.81" y="73.57" width="5.81" height="5.81"/><rect class="cls-1" x="31.81" y="108.7" width="5.81" height="5.81"/><rect class="cls-1" x="63.62" y="38.44" width="5.81" height="5.81"/><rect class="cls-1" x="63.62" y="73.57" width="5.81" height="5.81"/><rect class="cls-1" x="63.62" y="108.7" width="5.81" height="5.81"/><rect class="cls-1" x="95.43" y="38.44" width="5.81" height="5.81"/><rect class="cls-1" x="95.43" y="73.57" width="5.81" height="5.81"/><rect class="cls-1" x="95.43" y="108.7" width="5.81" height="5.81"/><rect class="cls-1" x="127.24" y="38.44" width="5.81" height="5.81"/><rect class="cls-1" x="127.24" y="73.57" width="5.81" height="5.81"/><rect class="cls-1" x="127.24" y="108.7" width="5.81" height="5.81"/><rect class="cls-1" x="159.05" y="38.44" width="5.81" height="5.81"/><rect class="cls-1" x="159.05" y="73.57" width="5.81" height="5.81"/><rect class="cls-1" x="159.05" y="108.7" width="5.81" height="5.81"/><rect class="cls-1" x="190.85" y="38.44" width="5.81" height="5.81"/><rect class="cls-1" x="190.85" y="73.57" width="5.81" height="5.81"/><rect class="cls-1" x="190.85" y="108.7" width="5.81" height="5.81"/><rect class="cls-1" x="222.66" y="38.44" width="5.81" height="5.81"/><rect class="cls-1" x="222.66" y="73.57" width="5.81" height="5.81"/><rect class="cls-1" x="222.66" y="108.7" width="5.81" height="5.81"/><rect class="cls-1" x="254.47" y="38.44" width="5.81" height="5.81"/><rect class="cls-1" x="254.47" y="73.57" width="5.81" height="5.81"/><rect class="cls-1" x="254.47" y="108.7" width="5.81" height="5.81"/><rect class="cls-1" x="286.28" y="38.44" width="5.81" height="5.81"/><rect class="cls-1" x="286.28" y="73.57" width="5.81" height="5.81"/><rect class="cls-1" x="286.28" y="108.7" width="5.81" height="5.81"/><rect class="cls-1" x="318.09" y="38.44" width="5.81" height="5.81"/><rect class="cls-1" x="318.09" y="73.57" width="5.81" height="5.81"/><rect class="cls-1" x="318.09" y="108.7" width="5.81" height="5.81"/><circle class="cls-2" cx="322.46" cy="30.53" r="30.53" transform="translate(219.46 337.62) rotate(-76.87)"/></g></g></svg>