<svg xmlns="http://www.w3.org/2000/svg" viewBox="0 0 472.89 112.87"><g id="Capa_2" data-name="Capa 2"><g id="Layer_1" data-name="Layer 1"><path d="M20.6,8.8a62.44,62.44,0,0,1-6.12,2,62.44,62.44,0,0,0-6.12,2,30,30,0,0,0-.73,6.51,5.78,5.78,0,0,0,2.08.34,18.7,18.7,0,0,0,2.64-.28A18.46,18.46,0,0,1,15,19a5.15,5.15,0,0,1,2.7.67,4,4,0,0,1,.78,1.46.69.69,0,0,1-.39.62,7.55,7.55,0,0,0-.79.78,1.27,1.27,0,0,1-1.12.45,23.52,23.52,0,0,1-4.32.34A12.63,12.63,0,0,0,7.63,24a28.13,28.13,0,0,0-1.06,6.57A5.94,5.94,0,0,0,7,33.15Q9.65,35,16.16,34.72a1.55,1.55,0,0,0,1-.42,1.43,1.43,0,0,1,.84-.42c1-.22,1.74.56,2.07,2.36a2.21,2.21,0,0,1-.3,1.65,1.67,1.67,0,0,1-1.38.82A41.86,41.86,0,0,1,6.57,37.64,5.93,5.93,0,0,1,3.7,35.9a5,5,0,0,1-1.45-3,37.54,37.54,0,0,1,0-8.75C1.2,23.41.73,22.71.84,22q.06-.51.87-.93t.93-.87c.07-.29.22-2.07.45-5.33C1,14.5,0,13.72,0,12.56A3,3,0,0,1,2,10l3.6-1.46a26.41,26.41,0,0,1,5.22-1.91q2.74-.74,5.49-1.41a4.4,4.4,0,0,1,.68,0,7.2,7.2,0,0,1,3.53,1.18c0,.15.13.43.28.84a3.05,3.05,0,0,1,.23.9A.86.86,0,0,1,20.6,8.8Z" transform="translate(0 0)"/><path d="M33.84,2.9c0,.75-.54,1.41-1.63,2a1.16,1.16,0,0,1-.95,0l-.84-.22a1,1,0,0,0-.68.34,10.07,10.07,0,0,0-3,7.4,8.76,8.76,0,0,0,.51,3q.23.63,4.26,8.7,2.7,5.38,2.7,9.15a12.57,12.57,0,0,1-1.52,6,9.28,9.28,0,0,1-2.53,2.47,5.19,5.19,0,0,1-2.91,1.18,2.77,2.77,0,0,1-1-.17c-1.12-.49-1.68-1.11-1.68-1.85a2.7,2.7,0,0,1,.84-1.63,1.54,1.54,0,0,1,1.07-.34,1.21,1.21,0,0,0,1.12-.67,11.56,11.56,0,0,0,1.18-5q0-3.64-3.62-10.58T21.55,11.55A13.47,13.47,0,0,1,22.9,5.43,9.17,9.17,0,0,1,27.22,1,5.7,5.7,0,0,1,29.74.38a4.57,4.57,0,0,1,3.54,1.29A1.86,1.86,0,0,1,33.84,2.9Z" transform="translate(0 0)"/><path d="M52.75,3c0,1-.67,1.64-2,1.9A6.78,6.78,0,0,0,47.47,6.1q-6.28,6.63-6.28,17.12a27.25,27.25,0,0,0,1.57,9.31q1.29,3.6,1.85,4.72A9.27,9.27,0,0,0,48,41.18c.56.26,1.12.5,1.68.73a1.54,1.54,0,0,1,.9,1.4A2.55,2.55,0,0,1,50,44.94a1.23,1.23,0,0,1-1.26.56,11.75,11.75,0,0,1-2.25-.73q-2.69-1.58-5.84-6.68-.78-1.29-1.59-2.67a12,12,0,0,1-1.21-2.61,69.39,69.39,0,0,1-1-7.23,33.64,33.64,0,0,1-.22-3.82A25.59,25.59,0,0,1,42.48,4.87c2.25-2.7,4.58-4,7-4a4.75,4.75,0,0,1,2.86,1C52.62,2,52.75,2.38,52.75,3Z" transform="translate(0 0)"/><path d="M72.11,6.27a65,65,0,0,1-2.24,10.5Q67.34,25.58,67,27.43a26.52,26.52,0,0,1-4.72,10.32q-2.19,3-5,2.92c-1.68,0-2.93-1.1-3.76-3.2a33,33,0,0,1-2.13-12.4,89.62,89.62,0,0,1,.79-10.55A24.67,24.67,0,0,1,52,11q0-3.48,2.69-3.48a2.89,2.89,0,0,1,1.21.31c.43.21.85.42,1.26.65,0,1.9,0,4.71-.17,8.41-.18,4-.28,6.83-.28,8.59s.06,3.57.17,5.11a34.32,34.32,0,0,0,1,4.49,18.66,18.66,0,0,0,3.71-7c.3-1,.89-3.63,1.79-8a36.46,36.46,0,0,1,2.41-7.74,10.47,10.47,0,0,0,.68-3,11.33,11.33,0,0,1,.67-3A2.17,2.17,0,0,1,69.3,5,3.16,3.16,0,0,1,72.11,6.27Z" transform="translate(0 0)"/><path d="M89.11,3c0,1-.67,1.64-2,1.9-1.76.34-2.84.73-3.25,1.18q-6.28,6.63-6.29,17.12a27.49,27.49,0,0,0,1.57,9.31q1.29,3.6,1.86,4.72a9.19,9.19,0,0,0,3.42,3.93c.56.26,1.12.5,1.68.73a1.54,1.54,0,0,1,.9,1.4,2.55,2.55,0,0,1-.59,1.63,1.22,1.22,0,0,1-1.26.56,11.75,11.75,0,0,1-2.25-.73q-2.68-1.58-5.83-6.68c-.53-.86-1.06-1.75-1.6-2.67a12.53,12.53,0,0,1-1.21-2.61,71,71,0,0,1-.95-7.23,33.7,33.7,0,0,1-.23-3.82A25.59,25.59,0,0,1,78.84,4.87c2.25-2.7,4.59-4,7-4a4.75,4.75,0,0,1,2.86,1C89,2,89.11,2.38,89.11,3Z" transform="translate(0 0)"/><path d="M107.52,5.49a154.67,154.67,0,0,1-1.63,15.82,126.56,126.56,0,0,0-1.4,15.77c0,1.16,0,2.26.11,3.31a1.11,1.11,0,0,1-.34.76,1,1,0,0,1-.78.36,4.94,4.94,0,0,1-2.08-.28Q99.27,40,99.27,36.57c0-.44,0-1.15.08-2.1s.09-1.66.09-2.1a30.62,30.62,0,0,1,.28-3.43,30.66,30.66,0,0,0,.28-3.53,8.68,8.68,0,0,1-2.16-.23,12.09,12.09,0,0,0-2-.28,4.43,4.43,0,0,0-1.41.23q-1.35,4.43-1.57,13.07a4.12,4.12,0,0,1-3.7-.17,2.74,2.74,0,0,1-1.29-2.69c0-.3,0-.7.08-1.21s.09-.81.09-.92q.17-3,1.29-12a91.4,91.4,0,0,0,.89-11.95c0-.42.29-.68.87-.79s.91-.22,1-.34a3.09,3.09,0,0,0,1.62.68,1.5,1.5,0,0,1,1.29,1A10.22,10.22,0,0,1,95.45,13a32.76,32.76,0,0,1-.36,3.9,31.43,31.43,0,0,0-.37,4.07,3.49,3.49,0,0,0,1.69.62,10,10,0,0,0,1.91.05c1.08-.07,1.73-.11,2-.11a134.22,134.22,0,0,0,2.47-15.27c.15-1.3.62-2,1.4-2C106.13,4.06,107.26,4.48,107.52,5.49Z" transform="translate(0 0)"/><path d="M131.31,34.16a4.46,4.46,0,0,1,.34,1.57,2.55,2.55,0,0,1-1,2q-.94.84-1.29.78-2.75-.49-3.48-4.43a43.08,43.08,0,0,0-1.85-7.13l-3.81.34a6.43,6.43,0,0,0-3.43,1.35,63,63,0,0,0-1.62,6.17A41.05,41.05,0,0,1,113.35,41c-.3.67-.93.86-1.9.56-1.24-.41-1.89-1-2-1.68a13.8,13.8,0,0,1,1.24-5.73,24.42,24.42,0,0,0,1.85-5.83c0-.34-.21-.72-.73-1.13s-.79-.73-.79-.95a1,1,0,0,1,.26-.59,2.16,2.16,0,0,1,1.17-.51c.62-.13,1-.32,1-.58q1-2.8,3.2-10.44A97.82,97.82,0,0,1,120,4a1.38,1.38,0,0,1,1.41-.79,2.14,2.14,0,0,1,1.4.51,6.55,6.55,0,0,1,2,4c.22,1.53.43,3.07.62,4.6A178.07,178.07,0,0,0,131.31,34.16Zm-8.19-10.72a36.09,36.09,0,0,0-.73-4.65c-.38-1.5-.73-3-1.07-4.49q-1.68,4.65-2.91,9.31A37.07,37.07,0,0,1,123.12,23.44Z" transform="translate(0 0)"/><path d="M153.7,8.46c.08,1.09.11,2.21.11,3.37q0,3.81-.78,11.5T152.24,35c0,1,0,1.92.06,2.86a2,2,0,0,1-2.19,1.51q-2.42-.1-2.64-2.07a36.63,36.63,0,0,1-.22-4.15,104.26,104.26,0,0,1,.92-11.4,102.25,102.25,0,0,0,.93-11.33c0-1,0-1.93-.11-2.86a2,2,0,0,1,1.91-1.07,4.23,4.23,0,0,1,2.13.62.62.62,0,0,1,.34-.17c.11,0,.16.19.16.56a3.05,3.05,0,0,0,0,.79A.4.4,0,0,0,153.7,8.46Z" transform="translate(0 0)"/><path d="M168.85,2.9c0,.75-.54,1.41-1.62,2a1.18,1.18,0,0,1-1,0c-.52-.14-.8-.22-.84-.22a1,1,0,0,0-.67.34,10.07,10.07,0,0,0-3,7.4,8.76,8.76,0,0,0,.5,3q.22.63,4.27,8.7,2.69,5.38,2.69,9.15a12.45,12.45,0,0,1-1.52,6,9,9,0,0,1-2.52,2.47,5.24,5.24,0,0,1-2.92,1.18,2.71,2.71,0,0,1-.95-.17c-1.12-.49-1.69-1.11-1.69-1.85a2.73,2.73,0,0,1,.85-1.63,1.51,1.51,0,0,1,1.06-.34,1.22,1.22,0,0,0,1.13-.67,11.69,11.69,0,0,0,1.17-5q0-3.64-3.62-10.58t-3.62-11.08a13.47,13.47,0,0,1,1.35-6.12A9.17,9.17,0,0,1,162.23,1a5.71,5.71,0,0,1,2.53-.62,4.53,4.53,0,0,1,3.53,1.29A1.81,1.81,0,0,1,168.85,2.9Z" transform="translate(0 0)"/><path d="M191.47,24.73q-3.32,7.47-9.37,8.87a6.68,6.68,0,0,1-1.46.17q-3.21,0-6.46-3.48A8.67,8.67,0,0,1,172,24.17a19.58,19.58,0,0,1,2.46-8.92,13.5,13.5,0,0,1,2.59-3.48A4.89,4.89,0,0,1,180.36,10a2.57,2.57,0,0,1,1.68.67,15.53,15.53,0,0,0,4.21,1.8,6.38,6.38,0,0,1,3.82,3A14.64,14.64,0,0,1,192,22,6.62,6.62,0,0,1,191.47,24.73ZM187,21.25c-.26-2.73-1-4.35-2.19-4.88a1.51,1.51,0,0,0-.5-.11c-.45,0-1,.37-1.69,1.12a5.47,5.47,0,0,1-1.74,1.52c-.26.11-.63,0-1.12-.34a2.52,2.52,0,0,0-1-.5.38.38,0,0,0-.29.11c-1.3,1.12-2,2.86-2,5.22a7.25,7.25,0,0,0,1.12,4.09c1.05,1.54,1.93,2.3,2.64,2.3,1.65,0,3.24-1,4.77-3.08A7.76,7.76,0,0,0,187,21.25Z" transform="translate(0 0)"/><path d="M210.15,30.36q-.1.06-6.56,4.68a38.72,38.72,0,0,1-6.68,4,1.51,1.51,0,0,1-.67.17,1.85,1.85,0,0,1-1.46-1c-.67-.9-1-1.37-1.07-1.4q-.11-4.95.62-13.78.84-9.37.84-13.54c0-1.91-.07-3.71-.22-5.4a2.52,2.52,0,0,1,1.85-.73c1.42,0,2.24.53,2.47,1.57q.16,4.61-.39,13.78t-.45,13.78a28,28,0,0,0,4.09-2.36,37.85,37.85,0,0,1,4-2.52,7,7,0,0,0,1-.12,8,8,0,0,1,1-.11,1.71,1.71,0,0,1,1.62.9A1.77,1.77,0,0,1,210.15,30.36Z" transform="translate(0 0)"/><path d="M232,34.16a4.46,4.46,0,0,1,.34,1.57,2.57,2.57,0,0,1-.95,2q-1,.84-1.29.78-2.76-.49-3.48-4.43a44,44,0,0,0-1.86-7.13l-3.81.34a6.43,6.43,0,0,0-3.43,1.35,63,63,0,0,0-1.62,6.17A42.45,42.45,0,0,1,214,41c-.3.67-.94.86-1.91.56-1.24-.41-1.89-1-2-1.68a13.8,13.8,0,0,1,1.24-5.73,24.42,24.42,0,0,0,1.85-5.83c0-.34-.21-.72-.73-1.13s-.79-.73-.79-.95a1,1,0,0,1,.26-.59,2.2,2.2,0,0,1,1.18-.51c.61-.13,1-.32,1-.58q1-2.8,3.2-10.44A97.82,97.82,0,0,1,220.7,4a1.39,1.39,0,0,1,1.41-.79,2.14,2.14,0,0,1,1.4.51,6.5,6.5,0,0,1,2,4c.22,1.53.43,3.07.62,4.6A178.07,178.07,0,0,0,232,34.16Zm-8.19-10.72a36.09,36.09,0,0,0-.73-4.65c-.37-1.5-.73-3-1.07-4.49q-1.68,4.65-2.91,9.31A37.18,37.18,0,0,1,223.79,23.44Z" transform="translate(0 0)"/><path d="M262.23,1.89c-.34,1.35-1,2.14-1.91,2.36q-3.65.9-12.68,2.36-1.12,14-1.12,23.29c0,2.35,0,4.67.11,7a5,5,0,0,1-.11,1.63,1,1,0,0,1-1.13.84A3.46,3.46,0,0,1,242.7,38a5.2,5.2,0,0,1-1.18-3c-.07-1.38-.11-2.84-.11-4.37q0-3.7.51-11.73.5-7.69.44-11.73a20.19,20.19,0,0,0-4.2.28,35.32,35.32,0,0,1-4.27.45,6.72,6.72,0,0,1-4.49-1.47c-.45-1-.67-1.49-.67-1.53a1.35,1.35,0,0,1,.39-.85,38.61,38.61,0,0,1,7.35-1.13,20.42,20.42,0,0,0,7.3-1.81,13.77,13.77,0,0,0,4.49.67,18.15,18.15,0,0,0,4.82-.62,26.59,26.59,0,0,0,3.43-.78A9.41,9.41,0,0,1,259.87,0q1,0,.84.84C261.72.88,262.23,1.22,262.23,1.89Z" transform="translate(0 0)"/><path d="M261.11,8.46c.07,1.09.11,2.21.11,3.37q0,3.81-.79,11.5T259.65,35c0,1,0,1.92.06,2.86a2,2,0,0,1-2.19,1.51q-2.41-.1-2.64-2.07a36.57,36.57,0,0,1-.23-4.15,102.32,102.32,0,0,1,.93-11.4,102.25,102.25,0,0,0,.93-11.33c0-1,0-1.93-.12-2.86a2,2,0,0,1,1.91-1.07,4.23,4.23,0,0,1,2.13.62.65.65,0,0,1,.34-.17c.11,0,.17.19.17.56a2.3,2.3,0,0,0,0,.79A.36.36,0,0,0,261.11,8.46Z" transform="translate(0 0)"/><path d="M283.33,24.73Q280,32.2,274,33.6a6.68,6.68,0,0,1-1.46.17c-2.13,0-4.29-1.16-6.45-3.48a8.63,8.63,0,0,1-2.19-6.12,19.48,19.48,0,0,1,2.47-8.92,13.47,13.47,0,0,1,2.58-3.48A4.89,4.89,0,0,1,272.22,10a2.57,2.57,0,0,1,1.68.67,15.69,15.69,0,0,0,4.21,1.8,6.35,6.35,0,0,1,3.82,3,14.5,14.5,0,0,1,2,6.45A6.62,6.62,0,0,1,283.33,24.73Zm-4.49-3.48c-.26-2.73-1-4.35-2.19-4.88a1.46,1.46,0,0,0-.5-.11c-.45,0-1,.37-1.69,1.12a5.47,5.47,0,0,1-1.74,1.52c-.26.11-.63,0-1.12-.34a2.45,2.45,0,0,0-1-.5.36.36,0,0,0-.28.11q-2,1.68-2,5.22a7.25,7.25,0,0,0,1.12,4.09c1.05,1.54,1.93,2.3,2.64,2.3,1.65,0,3.24-1,4.77-3.08A7.76,7.76,0,0,0,278.84,21.25Z" transform="translate(0 0)"/><path d="M309.59,2.85q-.78,7.52-1.51,15.09a145.46,145.46,0,0,0-1,15c0,1.31,0,2.6.11,3.87a1.91,1.91,0,0,1-.64,1.57A2.24,2.24,0,0,1,305,39c-1.16,0-2.13-.78-2.92-2.35a198.48,198.48,0,0,1-8.92-22c-.08-.23-.17-.34-.28-.34s-.43.26-.51.79A144.48,144.48,0,0,0,291.41,32q0,4.26.22,8.7a2.31,2.31,0,0,1-.95,2.24,1.18,1.18,0,0,1-.84.39,2.3,2.3,0,0,1-1-.33l-1.07-.51c-.48-.15-.78-.6-.9-1.34s-.07-1.22-.11-1.86q-.17-3.14-.17-6.56,0-6,.68-14.87,1.07-13.59,1.18-15c0-.82.73-1.24,2.07-1.24.64-.07,1.57.4,2.81,1.41a87.83,87.83,0,0,1,4.43,11.11,76.62,76.62,0,0,0,4.6,11.16q.84-7.45,2.64-22.55c.11-.75.65-1.13,1.63-1.13a5.14,5.14,0,0,1,1.18.17l1.06.28A1.15,1.15,0,0,1,309.59,2.85Z" transform="translate(0 0)"/><path d="M338.49,2.9c0,.75-.54,1.41-1.63,2a1.16,1.16,0,0,1-.95,0l-.84-.22a1,1,0,0,0-.68.34,10.07,10.07,0,0,0-3,7.4,8.76,8.76,0,0,0,.51,3q.22.63,4.26,8.7,2.7,5.38,2.7,9.15a12.57,12.57,0,0,1-1.52,6,9.2,9.2,0,0,1-2.52,2.47,5.24,5.24,0,0,1-2.92,1.18,2.67,2.67,0,0,1-.95-.17c-1.13-.49-1.69-1.11-1.69-1.85a2.7,2.7,0,0,1,.84-1.63,1.54,1.54,0,0,1,1.07-.34,1.21,1.21,0,0,0,1.12-.67,11.56,11.56,0,0,0,1.18-5q0-3.64-3.62-10.58T326.2,11.55a13.47,13.47,0,0,1,1.35-6.12A9.17,9.17,0,0,1,331.87,1a5.7,5.7,0,0,1,2.52-.62,4.56,4.56,0,0,1,3.54,1.29A1.86,1.86,0,0,1,338.49,2.9Z" transform="translate(0 0)"/><path d="M370.31,1.89c-.34,1.35-1,2.14-1.91,2.36q-3.64.9-12.68,2.36-1.12,14-1.12,23.29c0,2.35,0,4.67.11,7a5,5,0,0,1-.11,1.63,1,1,0,0,1-1.13.84A3.46,3.46,0,0,1,350.78,38a5.2,5.2,0,0,1-1.18-3c-.07-1.38-.11-2.84-.11-4.37q0-3.7.51-11.73.5-7.69.44-11.73a20.19,20.19,0,0,0-4.2.28A35.32,35.32,0,0,1,342,7.9a6.72,6.72,0,0,1-4.49-1.47c-.45-1-.67-1.49-.67-1.53a1.35,1.35,0,0,1,.39-.85,38.61,38.61,0,0,1,7.35-1.13,20.42,20.42,0,0,0,7.3-1.81,13.77,13.77,0,0,0,4.49.67,18.15,18.15,0,0,0,4.82-.62,26.59,26.59,0,0,0,3.43-.78A9.39,9.39,0,0,1,368,0q1,0,.84.84C369.8.88,370.31,1.22,370.31,1.89Z" transform="translate(0 0)"/><path d="M383.05,34.16a4.65,4.65,0,0,1,.33,1.57,2.54,2.54,0,0,1-.95,2q-1,.84-1.29.78-2.75-.49-3.48-4.43a43.08,43.08,0,0,0-1.85-7.13l-3.82.34a6.36,6.36,0,0,0-3.42,1.35c-.41,1.16-.95,3.21-1.63,6.17A40.1,40.1,0,0,1,365.09,41c-.3.67-.94.86-1.91.56-1.23-.41-1.89-1-2-1.68a13.92,13.92,0,0,1,1.23-5.73,24,24,0,0,0,1.85-5.83c0-.34-.2-.72-.72-1.13s-.79-.73-.79-.95a.94.94,0,0,1,.25-.59,2.2,2.2,0,0,1,1.18-.51c.62-.13,1-.32,1-.58q1-2.8,3.2-10.44A93.19,93.19,0,0,1,371.77,4a1.37,1.37,0,0,1,1.4-.79,2.14,2.14,0,0,1,1.4.51,6.5,6.5,0,0,1,2,4c.23,1.53.43,3.07.62,4.6A177.88,177.88,0,0,0,383.05,34.16Zm-8.2-10.72a35.93,35.93,0,0,0-.72-4.65c-.38-1.5-.73-3-1.07-4.49q-1.68,4.65-2.92,9.31A37.3,37.3,0,0,1,374.85,23.44Z" transform="translate(0 0)"/><path d="M413.29,1.89c-.33,1.35-1,2.14-1.9,2.36-2.44.6-6.66,1.39-12.69,2.36q-1.11,14-1.12,23.29,0,3.52.11,7a5,5,0,0,1-.11,1.63,1,1,0,0,1-1.12.84A3.44,3.44,0,0,1,393.77,38a5.06,5.06,0,0,1-1.18-3c-.08-1.38-.12-2.84-.12-4.37q0-3.7.51-11.73.51-7.69.45-11.73a20.32,20.32,0,0,0-4.21.28A35.41,35.41,0,0,1,385,7.9a6.71,6.71,0,0,1-4.49-1.47c-.45-1-.68-1.49-.68-1.53a1.32,1.32,0,0,1,.4-.85,38.32,38.32,0,0,1,7.35-1.13,20.41,20.41,0,0,0,7.29-1.81,13.81,13.81,0,0,0,4.49.67,18.27,18.27,0,0,0,4.83-.62,26.22,26.22,0,0,0,3.42-.78A9.46,9.46,0,0,1,410.94,0q1,0,.84.84C412.79.88,413.29,1.22,413.29,1.89Z" transform="translate(0 0)"/><path d="M412.17,8.46c.08,1.09.11,2.21.11,3.37q0,3.81-.78,11.5T410.71,35c0,1,0,1.92.06,2.86a2,2,0,0,1-2.19,1.51q-2.41-.1-2.64-2.07a36.63,36.63,0,0,1-.22-4.15,104.26,104.26,0,0,1,.92-11.4,102.25,102.25,0,0,0,.93-11.33c0-1,0-1.93-.11-2.86a2,2,0,0,1,1.91-1.07,4.23,4.23,0,0,1,2.13.62.62.62,0,0,1,.34-.17c.11,0,.16.19.16.56a3.05,3.05,0,0,0,0,.79A.4.4,0,0,0,412.17,8.46Z" transform="translate(0 0)"/><path d="M434.39,24.73q-3.3,7.47-9.37,8.87a6.54,6.54,0,0,1-1.46.17q-3.19,0-6.45-3.48a8.63,8.63,0,0,1-2.19-6.12,19.48,19.48,0,0,1,2.47-8.92A13.47,13.47,0,0,1,420,11.77,4.91,4.91,0,0,1,423.28,10a2.61,2.61,0,0,1,1.69.67,15.41,15.41,0,0,0,4.2,1.8,6.35,6.35,0,0,1,3.82,3A14.54,14.54,0,0,1,435,22,6.47,6.47,0,0,1,434.39,24.73Zm-4.49-3.48c-.26-2.73-1-4.35-2.18-4.88a1.51,1.51,0,0,0-.51-.11c-.45,0-1,.37-1.68,1.12a5.47,5.47,0,0,1-1.74,1.52c-.26.11-.64,0-1.12-.34a2.46,2.46,0,0,0-1-.5.37.37,0,0,0-.28.11q-2,1.68-2,5.22a7.17,7.17,0,0,0,1.12,4.09c1.05,1.54,1.93,2.3,2.64,2.3,1.64,0,3.23-1,4.77-3.08A7.74,7.74,0,0,0,429.9,21.25Z" transform="translate(0 0)"/><path d="M460.66,2.85q-.8,7.52-1.52,15.09a145.07,145.07,0,0,0-.95,15c0,1.31,0,2.6.11,3.87a1.92,1.92,0,0,1-.65,1.57,2.23,2.23,0,0,1-1.6.67c-1.16,0-2.13-.78-2.91-2.35a198.1,198.1,0,0,1-8.93-22c-.07-.23-.16-.34-.28-.34s-.43.26-.5.79a142.28,142.28,0,0,0-1,16.89q0,4.26.23,8.7a2.31,2.31,0,0,1-.95,2.24,1.21,1.21,0,0,1-.85.39,2.3,2.3,0,0,1-1-.33l-1.06-.51c-.49-.15-.79-.6-.9-1.34s-.08-1.22-.11-1.86c-.12-2.09-.17-4.28-.17-6.56q0-6,.67-14.87,1.06-13.59,1.18-15c0-.82.73-1.24,2.08-1.24.63-.07,1.57.4,2.8,1.41a86,86,0,0,1,4.44,11.11,75.5,75.5,0,0,0,4.6,11.16q.84-7.45,2.63-22.55c.12-.75.66-1.13,1.63-1.13a5.07,5.07,0,0,1,1.18.17l1.07.28A1.2,1.2,0,0,1,460.66,2.85Z" transform="translate(0 0)"/><path d="M472.67,30.91c-1.09,5.23-1.69,8.06-1.8,8.47a41.46,41.46,0,0,1-2.69,8.08,1.37,1.37,0,0,1-1.35.67,4.85,4.85,0,0,1-2.16-.56,1.9,1.9,0,0,1-1.15-1.85,6.79,6.79,0,0,1,.45-2.08c.26-.63.5-1.27.73-1.9q1.46-5.22,1.79-6.46a50,50,0,0,0,1.18-6.62A1.72,1.72,0,0,1,468.74,27a2.56,2.56,0,0,1,1.06-.23,4.13,4.13,0,0,1,2.58.9C473,28,473,29.11,472.67,30.91Z" transform="translate(0 0)"/><path d="M20.6,76.14a62.44,62.44,0,0,1-6.12,2,62.44,62.44,0,0,0-6.12,2,30,30,0,0,0-.73,6.51,5.78,5.78,0,0,0,2.08.34,18.7,18.7,0,0,0,2.64-.28A18.46,18.46,0,0,1,15,86.35a5.15,5.15,0,0,1,2.7.67,4,4,0,0,1,.78,1.46.69.69,0,0,1-.39.62,7.11,7.11,0,0,0-.79.79,1.28,1.28,0,0,1-1.12.44,23.52,23.52,0,0,1-4.32.34,12.63,12.63,0,0,0-4.21.67,28.13,28.13,0,0,0-1.06,6.57A5.94,5.94,0,0,0,7,100.49q2.63,1.86,9.14,1.57a1.55,1.55,0,0,0,1-.42,1.43,1.43,0,0,1,.84-.42c1-.22,1.74.56,2.07,2.36a2.21,2.21,0,0,1-.3,1.65,1.67,1.67,0,0,1-1.38.82A41.86,41.86,0,0,1,6.57,105a5.93,5.93,0,0,1-2.87-1.74,5,5,0,0,1-1.45-3,37.54,37.54,0,0,1,0-8.75c-1-.71-1.52-1.41-1.41-2.08q.06-.51.87-.93t.93-.87c.07-.29.22-2.07.45-5.33C1,81.84,0,81.06,0,79.9a3,3,0,0,1,2-2.58l3.6-1.46A28.26,28.26,0,0,1,10.83,74q2.7-.74,5.44-1.4a3.37,3.37,0,0,1,.68-.06,7.2,7.2,0,0,1,3.53,1.18c0,.15.13.43.28.84a3.05,3.05,0,0,1,.23.9A.86.86,0,0,1,20.6,76.14Z" transform="translate(0 0)"/><path d="M38.05,97.7q-.12.06-6.57,4.68a38.34,38.34,0,0,1-6.68,4,1.36,1.36,0,0,1-.67.17,1.86,1.86,0,0,1-1.46-1c-.67-.9-1-1.37-1.06-1.4q-.12-5,.61-13.77.84-9.39.84-13.55c0-1.91-.07-3.71-.22-5.4a2.53,2.53,0,0,1,1.85-.73c1.42,0,2.25.53,2.47,1.57q.16,4.6-.39,13.78t-.45,13.78a28,28,0,0,0,4.1-2.36,38,38,0,0,1,4-2.52,6.83,6.83,0,0,0,1-.12,8.14,8.14,0,0,1,1-.11,1.73,1.73,0,0,1,1.63.9A1.77,1.77,0,0,1,38.05,97.7Z" transform="translate(0 0)"/><path d="M69.64,84.78A23.17,23.17,0,0,1,66,90.9l-2.58,2.58a7.29,7.29,0,0,1-3.25,1.57,13.58,13.58,0,0,0-.23,2.64c0,.71.06,1.78.17,3.22s.17,2.5.17,3.17c0,2.55-.6,4.45-1.8,5.73L56.9,109a1.77,1.77,0,0,1-1.06-1.24,53,53,0,0,1-.56-8.14q0-3,.33-8.86T56,81.8a58.18,58.18,0,0,0-.51-8c-.3.11-.58-.07-.84-.56s-.48-.77-.67-.84c.19-1.2.5-1.8,1-1.8a9.23,9.23,0,0,1,3.48.11q7.29,1.19,11,6.4a6.48,6.48,0,0,1,1.18,3.82A9.53,9.53,0,0,1,69.64,84.78ZM66,80.46a3.4,3.4,0,0,0-1.9-3.54c-.08,0-1.43-.54-4.05-1.63q.63,10.33.4,14.48Q65.44,85.06,66,80.46Z" transform="translate(0 0)"/><path d="M92.31,92.07q-3.32,7.47-9.37,8.87a6.61,6.61,0,0,1-1.46.17q-3.2,0-6.45-3.48a8.63,8.63,0,0,1-2.19-6.12,19.48,19.48,0,0,1,2.47-8.92,13.47,13.47,0,0,1,2.58-3.48,4.89,4.89,0,0,1,3.31-1.74,2.57,2.57,0,0,1,1.68.67,15.69,15.69,0,0,0,4.21,1.8,6.35,6.35,0,0,1,3.82,3,14.5,14.5,0,0,1,2,6.45A6.47,6.47,0,0,1,92.31,92.07Zm-4.49-3.48c-.26-2.73-1-4.35-2.19-4.88a1.42,1.42,0,0,0-.5-.11c-.45,0-1,.37-1.68,1.12a5.47,5.47,0,0,1-1.74,1.52c-.27.11-.64,0-1.13-.34a2.39,2.39,0,0,0-1-.5.36.36,0,0,0-.28.11q-2,1.68-2,5.22a7.18,7.18,0,0,0,1.13,4.09c1,1.54,1.92,2.3,2.63,2.3,1.65,0,3.24-1,4.78-3.08A7.79,7.79,0,0,0,87.82,88.59Z" transform="translate(0 0)"/><path d="M111.05,91.79c-.37.86-.72,1.72-1.06,2.58a9.78,9.78,0,0,1-1.46,2.42q-1.74,2.19-3.48,4.32a15.38,15.38,0,0,1-3.76,3.59c-.37.45-.79.92-1.23,1.4a1.88,1.88,0,0,1-1.35.73,2.13,2.13,0,0,1-.79-.17l-1-.39a1.39,1.39,0,0,1-.76-.73c-.11-1.57-.17-3.25-.17-5.05s.08-4.56.23-8.19.22-6.36.22-8.19c0-2.44-.09-4.66-.28-6.68L95,76.14a2,2,0,0,1-.73-1.35,1.59,1.59,0,0,1,.11-.56,1.4,1.4,0,0,1,1.24-.79c.48-.07,1-.13,1.46-.17a23.85,23.85,0,0,1,9.87,5.28,11.42,11.42,0,0,1,2.19,2.36,13.46,13.46,0,0,1,2.69,7.46A8.18,8.18,0,0,1,111.05,91.79Zm-4-6q-.49-3.54-6-6.23-.39,9.38-.22,19.87,6.33-6.34,6.34-12.07A10.38,10.38,0,0,0,107,85.79Z" transform="translate(0 0)"/><path d="M129.8,70.36c0,1-.68,1.64-2,1.9-1.76.34-2.85.73-3.26,1.18q-6.28,6.63-6.28,17.12a27.25,27.25,0,0,0,1.57,9.31q1.29,3.6,1.85,4.72a9.26,9.26,0,0,0,3.42,3.93c.56.26,1.13.5,1.69.73a1.54,1.54,0,0,1,.9,1.4,2.55,2.55,0,0,1-.59,1.63,1.24,1.24,0,0,1-1.27.56,11.94,11.94,0,0,1-2.24-.73q-2.7-1.58-5.84-6.68c-.52-.86-1.06-1.75-1.6-2.67a12.46,12.46,0,0,1-1.2-2.61,69.39,69.39,0,0,1-1-7.23,33.64,33.64,0,0,1-.22-3.82,25.53,25.53,0,0,1,5.78-16.89q3.36-4,7-4a4.73,4.73,0,0,1,2.86,1C129.67,69.31,129.8,69.72,129.8,70.36Z" transform="translate(0 0)"/><path d="M149.21,101.5a4.46,4.46,0,0,1,.34,1.57,2.57,2.57,0,0,1-1,2c-.64.56-1.07.82-1.3.78q-2.75-.5-3.47-4.43A44,44,0,0,0,142,94.26l-3.81.34A6.43,6.43,0,0,0,134.73,96a63,63,0,0,0-1.62,6.17,41.05,41.05,0,0,1-1.86,6.23c-.29.67-.93.86-1.9.56-1.24-.41-1.89-1-2-1.68a13.8,13.8,0,0,1,1.24-5.73,24.42,24.42,0,0,0,1.85-5.83c0-.34-.21-.72-.73-1.13s-.79-.73-.79-1a1,1,0,0,1,.26-.59,2.14,2.14,0,0,1,1.18-.5c.61-.14,1-.33,1-.59q1-2.8,3.2-10.44a97.82,97.82,0,0,1,3.31-10.16,1.39,1.39,0,0,1,1.41-.79,2.14,2.14,0,0,1,1.4.51,6.5,6.5,0,0,1,2,4c.22,1.53.43,3.07.62,4.6A178.07,178.07,0,0,0,149.21,101.5ZM141,90.78a36.09,36.09,0,0,0-.73-4.65c-.37-1.5-.73-3-1.07-4.49q-1.68,4.65-2.91,9.31A37.07,37.07,0,0,1,141,90.78Z" transform="translate(0 0)"/><path d="M163.19,70.24c0,.75-.55,1.41-1.63,2a1.18,1.18,0,0,1-1,.05c-.52-.14-.8-.22-.84-.22a1,1,0,0,0-.67.34,10.07,10.07,0,0,0-3,7.4,9,9,0,0,0,.5,3q.23.63,4.27,8.7,2.68,5.38,2.69,9.15a12.55,12.55,0,0,1-1.51,6,9.28,9.28,0,0,1-2.53,2.47,5.21,5.21,0,0,1-2.92,1.18,2.75,2.75,0,0,1-.95-.17c-1.12-.49-1.68-1.11-1.68-1.85a2.7,2.7,0,0,1,.84-1.63,1.51,1.51,0,0,1,1.06-.34,1.21,1.21,0,0,0,1.13-.67,11.69,11.69,0,0,0,1.17-5q0-3.64-3.61-10.58T150.9,78.89a13.47,13.47,0,0,1,1.34-6.12,9.17,9.17,0,0,1,4.32-4.43,5.88,5.88,0,0,1,2.53-.62A4.53,4.53,0,0,1,162.62,69,1.83,1.83,0,0,1,163.19,70.24Z" transform="translate(0 0)"/><path d="M195,69.23c-.33,1.35-1,2.14-1.9,2.36-2.44.6-6.66,1.39-12.69,2.36q-1.12,14-1.12,23.29,0,3.53.11,7a5,5,0,0,1-.11,1.62,1,1,0,0,1-1.12.84,3.46,3.46,0,0,1-2.7-1.37,5.12,5.12,0,0,1-1.17-3c-.08-1.38-.12-2.84-.12-4.37q0-3.7.51-11.73c.34-5.13.48-9,.45-11.73a20.28,20.28,0,0,0-4.21.28,35.32,35.32,0,0,1-4.27.45,6.74,6.74,0,0,1-4.49-1.47c-.44-1-.67-1.49-.67-1.53a1.35,1.35,0,0,1,.39-.85,38.62,38.62,0,0,1,7.36-1.13,20.41,20.41,0,0,0,7.29-1.81,13.81,13.81,0,0,0,4.49.67,18.27,18.27,0,0,0,4.83-.62,26.22,26.22,0,0,0,3.42-.78,9.46,9.46,0,0,1,3.37-.34q1,0,.84.84C194.5,68.22,195,68.56,195,69.23Z" transform="translate(0 0)"/><path d="M217.79,91.79c-.38.86-.73,1.72-1.07,2.58a9.49,9.49,0,0,1-1.46,2.42q-1.74,2.19-3.48,4.32A15.38,15.38,0,0,1,208,104.7c-.37.45-.78.92-1.23,1.4a1.88,1.88,0,0,1-1.35.73,2.08,2.08,0,0,1-.78-.17l-1-.39a1.34,1.34,0,0,1-.75-.73c-.12-1.57-.17-3.25-.17-5.05s.07-4.56.22-8.19.23-6.36.23-8.19c0-2.44-.1-4.66-.28-6.68l-1.24-1.29a2,2,0,0,1-.73-1.35,1.59,1.59,0,0,1,.11-.56,1.4,1.4,0,0,1,1.24-.79c.48-.07,1-.13,1.46-.17a23.85,23.85,0,0,1,9.87,5.28,11.42,11.42,0,0,1,2.19,2.36,13.48,13.48,0,0,1,2.7,7.46A8.34,8.34,0,0,1,217.79,91.79Zm-4-6q-.51-3.54-6-6.23-.39,9.38-.22,19.87,6.34-6.34,6.34-12.07A11.84,11.84,0,0,0,213.75,85.79Z" transform="translate(0 0)"/><path d="M240.46,76.14a61.55,61.55,0,0,1-6.12,2,62.44,62.44,0,0,0-6.12,2,29.55,29.55,0,0,0-.72,6.51,5.72,5.72,0,0,0,2.07.34,18.7,18.7,0,0,0,2.64-.28,18.7,18.7,0,0,1,2.64-.28,5.14,5.14,0,0,1,2.69.67,4.06,4.06,0,0,1,.79,1.46.7.7,0,0,1-.4.62,7.58,7.58,0,0,0-.78.79,1.3,1.3,0,0,1-1.13.44,23.52,23.52,0,0,1-4.32.34,12.52,12.52,0,0,0-4.2.67,27.71,27.71,0,0,0-1.07,6.57,6.1,6.1,0,0,0,.45,2.58c1.76,1.24,4.8,1.76,9.14,1.57a1.55,1.55,0,0,0,1-.42,1.48,1.48,0,0,1,.84-.42c1.05-.22,1.74.56,2.08,2.36a2.21,2.21,0,0,1-.31,1.65,1.67,1.67,0,0,1-1.38.82A41.89,41.89,0,0,1,226.43,105a5.9,5.9,0,0,1-2.86-1.74,5,5,0,0,1-1.46-3,37.54,37.54,0,0,1,0-8.75c-1.05-.71-1.52-1.41-1.4-2.08,0-.34.32-.65.86-.93s.85-.57.93-.87.22-2.07.45-5.33c-2.1-.41-3.12-1.19-3.09-2.35a3,3,0,0,1,2-2.58l3.59-1.46A28.26,28.26,0,0,1,230.69,74c1.8-.49,3.61-1,5.45-1.4a3.2,3.2,0,0,1,.67-.06,7.26,7.26,0,0,1,3.54,1.18,7.79,7.79,0,0,0,.28.84,3,3,0,0,1,.22.9A.86.86,0,0,1,240.46,76.14Z" transform="translate(0 0)"/><path d="M283.39,105.15c.15.75-.4,1.16-1.63,1.23a3.62,3.62,0,0,1-2.53-1.06,6.52,6.52,0,0,1-1.68-3.09,24,24,0,0,1-.67-5.55,42.61,42.61,0,0,0-.4-5.56c-.48,1.68-1.29,4.19-2.41,7.52-.67,1.83-1.08,2.88-1.23,3.14-.6,1.16-1.35,1.69-2.25,1.57a6.33,6.33,0,0,1-4.15-3,18.87,18.87,0,0,1-1.8-5,30.2,30.2,0,0,0-1.51-5Q260.71,102,258,107.79c-.27.56-1.05.52-2.36-.12a2.44,2.44,0,0,1-1.63-2.24,20.15,20.15,0,0,1,1.18-3.59q.51-1.35,3.93-13a107.15,107.15,0,0,0,2.47-14.2,7.8,7.8,0,0,0,.56-1.18,1,1,0,0,1,1-.79,3.75,3.75,0,0,1,2.64.73,39.67,39.67,0,0,0,.53,5.25,41.8,41.8,0,0,1,.53,5.47q.51,3.15,1,6.34A14.26,14.26,0,0,0,270,96.39q5.39-15,6.85-23.68c.15-.59.71-.89,1.68-.89,1.38,0,2.17.44,2.36,1.34a24.81,24.81,0,0,1,.39,4.66c0,.56,0,1.8-.11,3.7,0,1.54,0,2.79,0,3.76A124.27,124.27,0,0,0,283.39,105.15Z" transform="translate(0 0)"/><path d="M292.53,75.8c.08,1.09.12,2.21.12,3.37q0,3.81-.79,11.5t-.78,11.62c0,1,0,1.92.05,2.86a2,2,0,0,1-2.19,1.51q-2.42-.1-2.64-2.07a39.11,39.11,0,0,1-.22-4.15A102.32,102.32,0,0,1,287,89a104.19,104.19,0,0,0,.92-11.33c0-1,0-1.93-.11-2.86a2,2,0,0,1,1.91-1.07,4.23,4.23,0,0,1,2.13.62.7.7,0,0,1,.34-.17c.11,0,.17.19.17.56a2.3,2.3,0,0,0,0,.79A.35.35,0,0,0,292.53,75.8Z" transform="translate(0 0)"/><path d="M311.05,70.36c0,1-.67,1.64-2,1.9-1.76.34-2.84.73-3.25,1.18q-6.28,6.63-6.29,17.12a27.49,27.49,0,0,0,1.57,9.31q1.29,3.6,1.86,4.72a9.19,9.19,0,0,0,3.42,3.93c.56.26,1.12.5,1.68.73a1.54,1.54,0,0,1,.9,1.4,2.55,2.55,0,0,1-.59,1.63,1.22,1.22,0,0,1-1.26.56,11.75,11.75,0,0,1-2.25-.73q-2.69-1.58-5.83-6.68c-.53-.86-1.06-1.75-1.6-2.67a12,12,0,0,1-1.21-2.61,71,71,0,0,1-.95-7.23A33.7,33.7,0,0,1,295,89.1a25.59,25.59,0,0,1,5.78-16.89q3.38-4,7-4a4.75,4.75,0,0,1,2.86,1C310.92,69.31,311.05,69.72,311.05,70.36Z" transform="translate(0 0)"/></g></g></svg>