<svg xmlns="http://www.w3.org/2000/svg" viewBox="0 0 240.26 170.2"><defs><style>.cls-1{fill:none;stroke:#fff;stroke-miterlimit:10;}.cls-2{fill:#fff;}</style></defs><g id="Capa_2" data-name="Capa 2"><g id="Layer_1" data-name="Layer 1"><path class="cls-1" d="M2.23,167.65A54.81,54.81,0,0,1,.5,154.06c0-.31,0-.62,0-.93.46-25.86,19.78-49.85,45-55.81,18.31-4.33,36.42.39,54,5,18.24,4.75,35.48,9.24,50.21,2.5,10.22-4.67,18.76-14.66,26.08-30.52,2.26-4.89,4.24-9.85,6.34-15.11,3.85-9.62,7.82-19.56,13.53-28.84C205.72,13.84,220,3.16,235.11.49"/><path class="cls-2" d="M203.66,34.91c-8.25,13.41-12.77,28.73-19.37,43s-16.08,28.28-30.4,34.83c-32.7,14.95-70.8-15.18-105.79-6.9-21.27,5-37.81,25.57-38.2,47.42a47.33,47.33,0,0,0,2.9,16.92H240.26V8.74C224.79,10.08,211.83,21.66,203.66,34.91Z"/></g></g></svg>