<svg xmlns="http://www.w3.org/2000/svg" viewBox="0 0 52.16 52.16"><defs><style>.cls-1{fill:#fff;}.cls-2{fill:#e20613;}</style></defs><g id="Capa_2" data-name="Capa 2"><g id="Layer_1" data-name="Layer 1"><path class="cls-1" d="M52.16,26.08A26.08,26.08,0,1,0,26.08,52.16,26.08,26.08,0,0,0,52.16,26.08Z"/><path class="cls-2" d="M33.67,35.75H18.49a5.59,5.59,0,0,1-5.59-5.59V22a5.59,5.59,0,0,1,5.59-5.59H33.67A5.59,5.59,0,0,1,39.26,22v8.16A5.59,5.59,0,0,1,33.67,35.75ZM30.79,25,23.21,20.9a.82.82,0,0,0-1.21.73v8.21a.82.82,0,0,0,1.21.73l7.58-4.1A.82.82,0,0,0,30.79,25Z"/></g></g></svg>