<svg xmlns="http://www.w3.org/2000/svg" viewBox="0 0 114.48 168.29"><defs><style>.cls-1{fill:#fff;}</style></defs><g id="Capa_2" data-name="Capa 2"><g id="Layer_1" data-name="Layer 1"><path class="cls-1" d="M6.22,159.94A13.15,13.15,0,0,1,0,158.39v3.41a6.5,6.5,0,0,0,6.5,6.49H106.6a7.89,7.89,0,0,0,7.88-7.88v-2a13.14,13.14,0,0,1-6.21,1.55Z"/><path class="cls-1" d="M108.27,0H6.22A6.23,6.23,0,0,0,0,6.22V146.68a6.22,6.22,0,0,0,6.22,6.21H108.27a6.22,6.22,0,0,0,6.21-6.21V6.22A6.22,6.22,0,0,0,108.27,0Zm-10,56.24a8,8,0,0,1-8,8H25.5a8,8,0,0,1-8-8V19.78a8,8,0,0,1,8-8H90.33a8,8,0,0,1,8,8Z"/><path class="cls-1" d="M86.18,25.33H28.3a2.87,2.87,0,0,1-2.85-2.85h0a2.86,2.86,0,0,1,2.85-2.85H86.18A2.86,2.86,0,0,1,89,22.48h0A2.86,2.86,0,0,1,86.18,25.33Z"/><path class="cls-1" d="M86.18,38.67H28.3a2.86,2.86,0,0,1-2.85-2.85h0A2.86,2.86,0,0,1,28.3,33H86.18A2.85,2.85,0,0,1,89,35.82h0A2.86,2.86,0,0,1,86.18,38.67Z"/><path class="cls-1" d="M86.18,52H28.3a2.86,2.86,0,0,1-2.85-2.84h0a2.86,2.86,0,0,1,2.85-2.85H86.18A2.86,2.86,0,0,1,89,49.17h0A2.85,2.85,0,0,1,86.18,52Z"/></g></g></svg>