<svg xmlns="http://www.w3.org/2000/svg" viewBox="0 0 62.8 61.59"><defs><style>.cls-1{fill:#fcfcfc;}.cls-2{fill:#fff;}</style></defs><g id="Capa_2" data-name="Capa 2"><g id="Layer_1" data-name="Layer 1"><path class="cls-1" d="M55.18,45.25c-.11-.07,0-.15,0-.2.36-.41.17-.63-.23-.83s-1-.56-1.43-.84c-.84-.5-.86-.51-1.33.36-.14.25-.65.57-.25.8s.43-.39.58-.64.34-.35.68-.18c.51.26.5.53.19.91a2.46,2.46,0,0,0-.17.27c-.08.12-.1.23.05.31s.23,0,.3-.12.14-.21.2-.32c.15-.34.28-.55.73-.28s.28.47.09.74c-.07.1-.12.22-.19.33s-.23.29,0,.42.24-.07.33-.19.13-.36.34-.43c0,.28.09.57.15.94.42-.47.31-.77,0-1M30.83,30.51c.36-.18.65-.34,1-.48A9.4,9.4,0,0,1,36.43,29,7.86,7.86,0,0,1,43,40.7C41.08,43.88,38,45,34.52,45a18.18,18.18,0,0,1-8.32-2.42.52.52,0,0,1-.33-.64A34,34,0,0,0,26.16,37c0-5,0-10,0-15,0-.15,0-.3,0-.44,0-.29-.08-.37-.37-.3a34.63,34.63,0,0,1-7.11.77c-.31,0-.45.08-.45.43s.1.44.43.43a5.66,5.66,0,0,1,1,.08,1.83,1.83,0,0,1,1.81,2.15c0,2.63,0,5.25,0,7.88a.6.6,0,0,1-.41.66A30,30,0,0,1,10,36.12c-.73,0-.73,0-.54.73A22.2,22.2,0,0,0,53,29.12C52.13,19.89,47.23,13.4,38.56,10A21.82,21.82,0,0,0,14.1,16.45a18.11,18.11,0,0,0-1.74,2.39c.38,0,.45-.29.58-.46a21.62,21.62,0,0,1,25.2-7.23c.48.19.55.39.45.88A30.19,30.19,0,0,1,31.1,26.49a.75.75,0,0,0-.28.53c0,1.14,0,2.27,0,3.49m-.26,6.72a14,14,0,0,0,.52,4.07,3.26,3.26,0,0,0,3.49,2.45,3.2,3.2,0,0,0,3.47-2.45,14.41,14.41,0,0,0,0-8c-.53-1.84-1.66-2.54-3.68-2.51A3.26,3.26,0,0,0,31,33.4a14.55,14.55,0,0,0-.46,3.83M55.05,12.61a29.93,29.93,0,0,1,2,33.32c-6.71,11.19-16.9,15.9-29.79,15.12a20.49,20.49,0,0,0,4.8.54,27.69,27.69,0,0,0,12.71-3.23A30.72,30.72,0,0,0,61.14,24.89,24.54,24.54,0,0,0,55.68,13c-.15-.17-.23-.47-.63-.39M20.32,16.38a3.16,3.16,0,0,0,6.32,0,3.16,3.16,0,1,0-6.32,0m18.12-10c0-.73,0-1.33,0-1.94,0-.22.15-.54-.23-.62s-.35.24-.46.42c-.32.52-.62,1-1,1.67,0-.83,0-1.52,0-2.22,0-.22-.1-.31-.29-.32s-.17.19-.18.32c0,.85,0,1.69,0,2.54,0,.19-.08.43.24.5s.34-.18.45-.35l1-1.7c0,.68,0,1.3,0,1.92,0,.22-.1.47.22.58s.36-.16.46-.32c.43-.7.86-1.41,1.26-2.13.05-.1.38-.27,0-.44s-.33,0-.43.22c-.32.59-.66,1.17-1.06,1.87m-26.16,5.2.12-.11,1.6.9c.13.08.26.14.4,0s.07-.26,0-.39c-.16-.42-.34-.82-.48-1.24,0-.14-.25-.32,0-.44s.28.12.4.23l.81.8c.11.12.22.27.41.08s0-.29-.09-.41c-.5-.49-1-1-1.51-1.45-.21-.18-.31-.66-.71-.43s-.06.63,0,.94a9,9,0,0,1,.54,1.64c-.66-.38-1.26-.69-1.84-1a.4.4,0,0,0-.55.08c-.22.21,0,.34.08.48.49.63,1,1.27,1.48,1.9.09.11.12.42.41.21s0-.36-.09-.5c-.32-.43-.65-.85-1-1.28M28.45,57.82l-.13,0c0-.62,0-1.23,0-1.85,0-.21-.06-.33-.27-.35s-.2.22-.2.36c0,.8,0,1.6,0,2.4,0,.18-.14.44.22.49a.44.44,0,0,0,.52-.33c.26-.66.55-1.3.86-2,.22.76.41,1.43.59,2.1.06.23.12.41.44.41s.27-.24.3-.43c.1-.75.21-1.5.29-2.26,0-.17.24-.44-.1-.51s-.3.26-.33.46c-.08.54-.14,1.08-.21,1.62A11.08,11.08,0,0,1,29.82,56c0-.16-.07-.34-.3-.33s-.21.16-.27.3c-.27.6-.53,1.21-.8,1.82m-6.79-1.25c-.19-1-.35-1.79-.5-2.61a.35.35,0,0,0-.3-.35c-.26-.06-.26.16-.31.3-.3.74-.59,1.49-.88,2.23-.06.16-.24.37,0,.49s.33-.19.4-.34c.23-.55.43-1.1.71-1.81.18,1,.33,1.73.46,2.49a.46.46,0,0,0,.39.43c.25,0,.23-.21.28-.35.3-.74.6-1.49.88-2.23.07-.16.25-.34,0-.46s-.28.13-.34.25c-.24.6-.47,1.21-.76,2M19.25,6.5a.33.33,0,0,1,.34.08c.58.4,1.16.78,1.73,1.18.18.12.34.18.52.06s0-.34,0-.49c-.31-.74-.63-1.47-1-2.2-.05-.12-.06-.38-.32-.27s-.15.28-.07.46a13.35,13.35,0,0,1,.72,1.79c-.71-.49-1.37-.92-2-1.38a.47.47,0,0,0-.58,0c-.23.16,0,.32,0,.44.32.76.66,1.5,1,2.25.06.15.11.35.35.24s.11-.27.05-.42L19.25,6.5M5.4,31c-1.08,0-1.08,0-1,.78,0,.15,0,.38.23.36s.19-.2.16-.34c-.08-.3.12-.33.32-.3s.51-.19.64.19A1.17,1.17,0,0,1,5,33.18c-1,.34-1.75-.27-1.7-1.49,0-.18.11-.41-.2-.41s-.18.25-.2.39a1.71,1.71,0,0,0,2.56,1.85,1.54,1.54,0,0,0,.7-1.7c0-.52-.11-1-.76-.81m52-8.91-2.73.78c-.17.05-.13.19-.1.32s.15.15.28.11l.91-.26c.14,0,.24-.1.35.11.46.89.34,1.22-.61,1.52l-.11,0c-.19.05-.4.08-.29.36s.28.12.42.08c.75-.21,1.5-.41,2.25-.65.17-.05.57,0,.43-.36s-.41-.14-.59-.06c-.57.27-.83.13-1-.5s-.12-.87.51-.94a1.54,1.54,0,0,0,.37-.09c.12,0,.23-.09.17-.27s-.11-.23-.27-.19M34.63,56.83c-.07-.68.07-1,.56-1.13s.73.24.83.67.2,1.12.32,1.68c0,.15-.05.43.28.35s.19-.23.16-.4c-.09-.58-.17-1.17-.3-1.74a1.1,1.1,0,0,0-1.27-1,1.12,1.12,0,0,0-1.06,1.31c.05.61.18,1.21.28,1.81,0,.15,0,.35.27.31s.21-.2.18-.37c-.1-.58-.19-1.16-.25-1.52M18.22,8.93A7.19,7.19,0,0,0,17,6.69c-.08-.13-.18,0-.26.06s-.09.23,0,.36c.3.46.6.92.88,1.39s.3,1-.13,1.21-.84,0-1.1-.42-.59-.93-.88-1.39c-.09-.14-.18-.25-.35-.15s-.22.15-.11.3a9.57,9.57,0,0,0,1.37,2,1,1,0,0,0,1.12.12,1.2,1.2,0,0,0,.74-1.2M16.34,51.05a2.5,2.5,0,0,0-.77-.65c-.23-.16-.5-.64-.73-.35s.33.4.48.64.42.16.35.45a.65.65,0,0,1-1.08.39c-.16-.11-.34-.54-.58-.2s.26.33.36.52c0,0,0,0,.05,0,.31.19.45.35.15.73s-.48.27-.74,0a1.82,1.82,0,0,0-.35-.27c-.11-.08-.21-.24-.36-.06s0,.29.14.39.54.4.79.63.39.22.6-.07c.47-.64,1-1.27,1.47-1.9l.22-.31m28.53,3.61c0,.15-.11.19-.2.24l-.66.38c-.12.07-.21.15-.13.3s.21.12.32.06c.37-.21.73-.43,1.1-.62s.15-.29.06-.46l-1-1.65c-.49-.86-.5-.88-1.33-.36-.24.15-.85.19-.62.57s.58-.11.82-.26c.44-.29.54,0,.73.29s.2.51-.18.7c-.21.11-.73.16-.52.52s.47-.15.73-.2.28-.29.44-.13a3.76,3.76,0,0,1,.39.62M6.7,36.18c-.08-.36-.12-.58-.18-.81s0-.82-.29-.76c-.52.1-.1.57-.06.83.07.45,0,.58-.46.65s-.63,0-.65-.44A3.35,3.35,0,0,0,5,35.21c0-.14-.09-.24-.25-.2s-.16.12-.14.24.05.29.08.44c.07.32.16.57-.35.67s-.56-.15-.61-.51a5.54,5.54,0,0,0-.11-.56c0-.14-.16-.11-.26-.1a.14.14,0,0,0-.12.18c.09.48.17,1,.28,1.43.05.21.23.12.37.09l2.43-.44c.21,0,.45-.07.39-.27M8.77,18.72A3.35,3.35,0,0,1,8,18.28c-.21-.19.11-.34.16-.53a1.82,1.82,0,0,1,.15-.27c.09-.15.22-.3,0-.42s-.24.08-.31.2a2.38,2.38,0,0,0-.25.44c-.13.33-.3.26-.57.14s-.47-.4-.19-.74a1.52,1.52,0,0,0,.18-.33c.07-.14.25-.28,0-.43s-.27.08-.35.21c-.18.3-.34.63-.53.93s-.1.35.14.48c.73.4,1.46.83,2.19,1.24.14.08.29.24.42,0,.25-.42.49-.84.73-1.26a.18.18,0,0,0-.08-.27.19.19,0,0,0-.27.07c-.1.16-.18.34-.29.49s-.14.4-.38.49m44.75,1.7A2.08,2.08,0,0,0,54,21.64c.07.11.14.29.34.16s.09-.24,0-.36a3.62,3.62,0,0,1-.2-.33,1.13,1.13,0,0,1,.59-1.62,1.16,1.16,0,0,1,1.7.53,2.46,2.46,0,0,1,.16.48c0,.15.09.22.25.18s.14-.12.14-.24a1.75,1.75,0,0,0-1.61-1.58,1.73,1.73,0,0,0-1.82,1.56m-45,26.24a1.9,1.9,0,0,0,1.66-1.08,1.63,1.63,0,0,0-.45-1.79c-.11-.13-.23-.37-.45-.2s0,.32.14.44q.81,1,0,1.74c-.78.74-1.63.57-2.15-.44-.06-.13,0-.31-.27-.24s-.15.26-.09.41a1.7,1.7,0,0,0,1.58,1.16M53.8,17.27c0-.68,0-.89.28-.94.46-.07.61.28.72.64,0,0,0,0,0,.06s.17.16.3.12.09-.15.08-.25a1.19,1.19,0,0,0-1.18-1c-.53.06-.81.53-.69,1.2.06.39.18.82-.31,1s-.67-.28-.82-.67l0-.12c0-.13-.05-.26-.23-.21s-.19.13-.18.28a1.42,1.42,0,0,0,1.18,1.23c.62,0,.91-.46.86-1.28m-.62,30.22a1.81,1.81,0,0,0-1.35-1.64,1.6,1.6,0,0,0-1.86,1c-.07.14-.28.33,0,.47s.25-.16.32-.27c.48-.75,1-1,1.64-.62a1.24,1.24,0,0,1,.31,2.17c-.1.1-.35.16-.15.38s.3,0,.41-.09a1.73,1.73,0,0,0,.67-1.38M4.58,40l1.92-.6c1-.3,1-.31.67-1.31-.08-.25,0-.76-.36-.67s-.07.55,0,.78c.15.45.07.62-.39.74-.63.14-1.24.38-1.86.57-.16,0-.28.1-.24.3s.06.25.24.19m43-27.49.2-.19c.08-.09,0-.16,0-.21a2.54,2.54,0,0,0-.43-.37c-.5-.28-.41-.54-.07-.9s.79-.94,1.18-1.41c.1-.12.28-.22.07-.41s-.33,0-.44.13c-.53.63-1.06,1.26-1.58,1.9-.08.09-.19.29-.17.31.41.39.84.76,1.29,1.15m-36,2.88-.26-.12a.17.17,0,0,0-.22.05,3.08,3.08,0,0,0-.37.52c-.21.45-.45.39-.79.11-.5-.41-1-.78-1.57-1.17-.13-.09-.25-.23-.41,0s0,.29.14.38l2.09,1.54c.08.06.2.17.27.1.36-.43.7-.88,1.12-1.42M46.09,51.06c.08.12.16.21.23.31.38.51.74,1,1.13,1.52.12.15.19.53.5.31s0-.43-.15-.6A11.09,11.09,0,0,0,47,51.53c-.81-1.11-.81-1.11-1.89-.27-.13.09-.48.15-.25.43s.36-.06.51-.14a7.32,7.32,0,0,0,.69-.49m12.07-16c.3,0,.49.1.54-.14s-.21-.27-.37-.3c-.64-.12-1.29-.22-1.93-.32-.85-.12-.87-.11-1,.76,0,.3-.32.82,0,.88s.28-.51.33-.77c.07-.43.19-.49.6-.4.63.15,1.29.21,1.8.29M4.6,29.75h0l1.26.09c.16,0,.29,0,.3-.19s0-.28-.23-.29l-2.7-.13c-.17,0-.29,0-.29.22s.12.23.28.24l1.38.07M11.54,48.4a.52.52,0,0,0,0,1,.48.48,0,0,0,.53-.49c0-.3-.16-.51-.53-.54m44.91-8.64A.5.5,0,0,0,56,39.2a.48.48,0,0,0-.57.45.46.46,0,0,0,.45.56.5.5,0,0,0,.58-.45M33.2,4.38A.45.45,0,0,0,32.67,4a.47.47,0,0,0-.49.53.46.46,0,0,0,.54.48c.32,0,.5-.2.48-.64"/><path class="cls-2" d="M31.67,0c.12.36-.18.23-.3.23a33.26,33.26,0,0,0-8.12,1.31C11.86,4.82,4.53,12.21,1.47,23.66a29.57,29.57,0,0,0,1.4,18.83,40.33,40.33,0,0,0,2,4.56c.12.22.31.41.18.73A30.4,30.4,0,0,1,.54,36.47,30,30,0,0,1,3.13,17.33,30.36,30.36,0,0,1,23.93.77a24.53,24.53,0,0,1,4-.65c.09,0,.16,0,.19-.12Z"/><path class="cls-2" d="M62.8,10.17c-.34.43-.59.94-1.18,1.14A1.86,1.86,0,1,1,62.68,9c0,.07,0,.16.12.19Zm-.36-.55a1.5,1.5,0,1,0-3-.08,1.5,1.5,0,1,0,3,.08"/><path class="cls-2" d="M30.83,30.51c0-1.22,0-2.35,0-3.49a.75.75,0,0,1,.28-.53A30.19,30.19,0,0,0,38.59,12c.1-.49,0-.69-.45-.88a21.62,21.62,0,0,0-25.2,7.23c-.13.17-.2.43-.58.46a18.11,18.11,0,0,1,1.74-2.39A21.82,21.82,0,0,1,38.56,10C47.23,13.4,52.13,19.89,53,29.12a22.2,22.2,0,0,1-43.5,7.73c-.19-.71-.19-.7.54-.73a30.21,30.21,0,0,0,11.07-2.5A.62.62,0,0,0,21.5,33c0-2.63,0-5.25,0-7.88a1.83,1.83,0,0,0-1.81-2.15,5.66,5.66,0,0,0-1-.08c-.33,0-.43-.09-.43-.43s.14-.43.45-.43a34.63,34.63,0,0,0,7.11-.77c.29-.07.4,0,.37.3,0,.14,0,.29,0,.44,0,5,0,10,0,15.05a34,34,0,0,1-.29,4.94.52.52,0,0,0,.33.64A18.18,18.18,0,0,0,34.52,45C38,45,41.08,43.88,43,40.7A7.86,7.86,0,0,0,36.43,29,9.4,9.4,0,0,0,31.78,30c-.3.14-.59.3-1,.48"/><path class="cls-2" d="M30.57,37.23A14.43,14.43,0,0,1,31,33.41a3.26,3.26,0,0,1,3.36-2.62c2,0,3.15.67,3.68,2.51a14.41,14.41,0,0,1,0,8,3.19,3.19,0,0,1-3.47,2.45,3.26,3.26,0,0,1-3.49-2.45,14,14,0,0,1-.52-4.07"/><path class="cls-2" d="M55.05,12.61c.4-.08.48.22.63.39a24.54,24.54,0,0,1,5.46,11.89A30.72,30.72,0,0,1,44.78,58.36a27.69,27.69,0,0,1-12.71,3.23,20.49,20.49,0,0,1-4.8-.54c12.89.78,23.07-3.93,29.79-15.12a29.93,29.93,0,0,0-2-33.32"/><path class="cls-2" d="M20.32,16.38a3.16,3.16,0,1,1,6.32,0,3.16,3.16,0,0,1-6.32,0"/><path class="cls-2" d="M38.44,6.39c.4-.7.74-1.28,1.06-1.87.1-.18.2-.33.43-.22s0,.34,0,.45c-.4.71-.83,1.42-1.26,2.12-.1.16-.14.42-.46.32S38,6.83,38,6.61c0-.62,0-1.24,0-1.92l-1,1.7c-.11.17-.16.41-.45.35s-.25-.31-.24-.5c0-.85,0-1.69,0-2.54,0-.13-.06-.33.18-.32s.29.1.29.33c0,.69,0,1.38,0,2.21.36-.62.66-1.15,1-1.67.11-.18.13-.5.46-.42s.22.4.23.63c0,.6,0,1.21,0,1.93"/><path class="cls-2" d="M12.28,11.59c.33.43.66.85,1,1.28.1.14.4.27.09.5s-.32-.1-.41-.21c-.5-.63-1-1.27-1.48-1.9-.1-.14-.3-.27-.08-.48a.39.39,0,0,1,.55-.07c.58.34,1.17.66,1.84,1a9,9,0,0,0-.54-1.64c-.08-.31-.5-.66,0-.94s.5.25.71.43c.52.46,1,1,1.51,1.45.11.12.28.21.09.41s-.3,0-.41-.08c-.27-.27-.54-.54-.82-.8-.11-.11-.2-.34-.39-.23s0,.3,0,.44c.14.42.32.82.48,1.24.06.13.16.26,0,.39s-.27.05-.41,0l-1.59-.9-.12.11m1.39-1.31.18.06,0-.09a.56.56,0,0,0-.16-.07s0,.06-.06.1"/><path class="cls-2" d="M28.45,57.82c.27-.61.53-1.22.8-1.82.05-.13.09-.3.27-.3s.26.17.3.33a11.08,11.08,0,0,0,.64,1.83c.07-.54.13-1.08.21-1.62,0-.2-.05-.54.33-.46s.12.34.1.51c-.08.76-.19,1.51-.29,2.26,0,.19.06.43-.3.43s-.38-.18-.44-.41c-.18-.67-.37-1.34-.59-2.1-.31.74-.6,1.38-.86,2a.44.44,0,0,1-.52.33c-.36-.05-.21-.31-.22-.49,0-.8,0-1.6,0-2.4,0-.14-.1-.38.2-.36s.27.14.27.35c0,.62,0,1.23,0,1.85l.13,0"/><path class="cls-2" d="M21.66,56.57c.29-.75.52-1.36.76-2,.06-.12.07-.36.34-.25s.12.3,0,.46c-.28.74-.58,1.49-.88,2.23-.05.14,0,.39-.28.35a.46.46,0,0,1-.39-.43c-.13-.76-.28-1.53-.46-2.49-.28.71-.48,1.26-.71,1.81-.07.16-.07.49-.4.34s-.08-.33,0-.49c.29-.74.58-1.49.88-2.23.05-.14.05-.36.31-.3a.35.35,0,0,1,.3.35c.15.82.31,1.64.5,2.61"/><path class="cls-2" d="M19.25,6.5,20,8.23c.06.15.21.3-.05.42s-.29-.09-.35-.24c-.34-.74-.68-1.49-1-2.25-.05-.12-.27-.28,0-.43a.45.45,0,0,1,.58,0c.64.46,1.3.89,2,1.38a12.15,12.15,0,0,0-.73-1.79c-.07-.18-.19-.35.08-.46s.27.15.32.27c.34.73.66,1.46,1,2.2.07.15.28.32,0,.49s-.34.06-.52-.06c-.57-.4-1.15-.78-1.73-1.18a.33.33,0,0,0-.34-.08"/><path class="cls-2" d="M57,29.06a1.44,1.44,0,0,1-1.54-1.48,1.58,1.58,0,0,1,1.75-1.52,1.52,1.52,0,0,1,1.59,1.54A1.59,1.59,0,0,1,57,29.06m.1-2.5a1.35,1.35,0,0,0-1.17.67.79.79,0,0,0,.11.94,1.31,1.31,0,0,0,1.39.35l.06,0c.65-.2,1-.62.91-1.11s-.55-.83-1.3-.83"/><path class="cls-2" d="M8,21.2c0,.08,0,.19,0,.29-.19,1.27-.36,1.36-1.52.89l-1.59-.63c-.13-.06-.29-.07-.3-.27a2.93,2.93,0,0,1,1.08-1.79,1.82,1.82,0,0,1,1.93.4A1.51,1.51,0,0,1,8,21.2M6.17,20a1.09,1.09,0,0,0-.92.58c-.26.44-.35.78.3.94.34.08.66.29,1,.38s.54.42.78.16A1.18,1.18,0,0,0,7.55,21a1.44,1.44,0,0,0-1.38-1"/><path class="cls-2" d="M50.24,14.51a2.55,2.55,0,0,1-1.82-1.21c-.08-.2.06-.27.16-.36l1.86-1.71c.08-.07.13-.2.3-.15a2.54,2.54,0,0,1,1.16,2,1.83,1.83,0,0,1-1.66,1.4m-.09-.42a1.62,1.62,0,0,0,1.25-.93c.25-.51,0-.89-.34-1.26s-.35-.31-.61-.05c-.41.43-.86.81-1.3,1.21-.13.12-.26.2-.09.4a1.61,1.61,0,0,0,1.09.63"/><path class="cls-2" d="M5.4,31c.65-.2.72.29.76.81a1.54,1.54,0,0,1-.7,1.7A1.71,1.71,0,0,1,2.9,31.67c0-.14,0-.4.2-.39s.21.23.2.42c0,1.21.65,1.82,1.7,1.48a1.17,1.17,0,0,0,.76-1.48c-.13-.38-.43-.15-.65-.19s-.39,0-.31.3c0,.14,0,.32-.16.34s-.21-.21-.23-.36c-.09-.73-.09-.73,1-.78"/><path class="cls-2" d="M16.15,53.92a1.68,1.68,0,0,1,2.43-1.5c1,.44,1,.48.5,1.41-.31.53-.62,1.06-.94,1.58-.07.13-.08.32-.33.28a2.14,2.14,0,0,1-1.66-1.77m.45,0a1.24,1.24,0,0,0,.64,1c.31.22.53.26.73-.16s.56-1,.84-1.48c.07-.12.21-.26,0-.4-.44-.23-.87-.47-1.36-.19A1.58,1.58,0,0,0,16.6,54"/><path class="cls-2" d="M40.46,7.15a1.87,1.87,0,0,1,1.6-1.89,1.46,1.46,0,0,1,1.51,1.47,1.87,1.87,0,0,1-1.65,1.85,1.45,1.45,0,0,1-1.46-1.43m.48-.06a.92.92,0,0,0,.83,1.07c.63,0,1.26-.66,1.31-1.44a1,1,0,0,0-.87-1c-.59,0-1.23.68-1.27,1.42"/><path class="cls-2" d="M23.89,3.82a1.41,1.41,0,0,1,1.39,1,1.65,1.65,0,0,1-.38,1.86,2.2,2.2,0,0,1-.38.24c-1.12.59-1.3.51-1.63-.69-.14-.51-.25-1-.42-1.52s-.06-.55.31-.64a4.24,4.24,0,0,1,1.11-.24m-.1.4c-.77,0-.93.19-.73.9.13.46.25.93.39,1.39,0,.12,0,.3.24.31a1.37,1.37,0,0,0,1.25-1.21,1.24,1.24,0,0,0-1.15-1.39"/><path class="cls-2" d="M25.06,58.34a1.43,1.43,0,0,1-1.5-1.46A1.71,1.71,0,0,1,25.13,55a1.43,1.43,0,0,1,1.46,1.49,1.69,1.69,0,0,1-1.53,1.84m1-1.85a1,1,0,0,0-1-1.09,1.38,1.38,0,0,0-1.08,1.43A1,1,0,0,0,25,58c.61,0,1.1-.65,1.1-1.46"/><path class="cls-2" d="M39.37,57.6a1.39,1.39,0,0,1-1.46-1,1.61,1.61,0,0,1,.35-1.87,3.58,3.58,0,0,1,1.37-.63c.21-.06.29,0,.35.23.27.82.54,1.64.82,2.46.08.23,0,.35-.21.44a3.44,3.44,0,0,1-1.22.33m0-.41c.82,0,1-.18.71-.93-.14-.44-.29-.88-.44-1.32-.05-.15-.05-.33-.31-.31a1.29,1.29,0,0,0-1.12,1.25,1.19,1.19,0,0,0,1.16,1.31"/><path class="cls-2" d="M50.87,50.15a1.46,1.46,0,0,1-1.47,1.42,1.94,1.94,0,0,1-1.72-1.8,1.48,1.48,0,0,1,1.44-1.47,2,2,0,0,1,1.75,1.85M49,48.77a.93.93,0,0,0-.95.89,1.69,1.69,0,0,0,1.45,1.45.93.93,0,0,0,.91-.87A1.64,1.64,0,0,0,49,48.77"/><path class="cls-2" d="M29.39,4.71a1.46,1.46,0,0,1-1.45,1.63,1.55,1.55,0,0,1-1.5-1.75A1.5,1.5,0,0,1,27.94,3a1.53,1.53,0,0,1,1.45,1.73m-.47,0a2.83,2.83,0,0,0-.15-.59A.93.93,0,0,0,27,4.3a2.22,2.22,0,0,0,0,.63A1.08,1.08,0,0,0,28,6c.54-.06.89-.54.88-1.29"/><path class="cls-2" d="M5.35,42.16a1.78,1.78,0,0,1,1.87-1.58,1.47,1.47,0,0,1,1.46,1.51,1.84,1.84,0,0,1-1.86,1.56,1.44,1.44,0,0,1-1.47-1.49m1.38,1A1.56,1.56,0,0,0,8.27,42a1,1,0,0,0-1-.91,1.52,1.52,0,0,0-1.48,1.22.91.91,0,0,0,1,.93"/><path class="cls-2" d="M4.83,25.08a1.57,1.57,0,0,1,1.7,1.63A1.41,1.41,0,0,1,5,28.07a1.61,1.61,0,0,1-1.74-1.6,1.42,1.42,0,0,1,1.62-1.39M5,27.59c.67,0,1.12-.38,1.13-.94s-.6-1.08-1.39-1.09-1.17.4-1.16,1S4.23,27.59,5,27.59"/><path class="cls-2" d="M57.42,33.15a1.55,1.55,0,0,1-1.74-1.51,1.47,1.47,0,0,1,1.63-1.46A1.55,1.55,0,0,1,59,31.66a1.45,1.45,0,0,1-1.6,1.49m0-.5c.75,0,1.24-.39,1.24-1s-.55-1-1.29-1a1.11,1.11,0,0,0-1.27,1c0,.58.55,1,1.32,1"/><path class="cls-2" d="M57.37,22.1c.16,0,.22,0,.27.19s-.06.22-.17.27a1.66,1.66,0,0,1-.37.09c-.63.07-.65.38-.51.94s.42.77,1,.5c.18-.08.46-.28.58.06s-.25.31-.42.36c-.75.24-1.5.44-2.25.65-.14,0-.33.19-.42-.08s.1-.31.28-.36l.12,0c1-.3,1.07-.63.61-1.52-.11-.21-.21-.15-.35-.11l-.91.26c-.13,0-.25.08-.28-.11s-.07-.27.09-.32l2.74-.78"/><path class="cls-2" d="M46.74,8.21c-.05.37-.2.72-.6.8s-.38.15-.4.46a3.43,3.43,0,0,1-.27,1c0,.09,0,.29-.23.19s-.26-.16-.21-.34.18-.52.26-.78a.59.59,0,0,0-.36-.73c-.35-.17-.35.2-.48.35a4.86,4.86,0,0,0-.35.53c-.09.13-.17.12-.31,0s-.16-.18-.07-.31c.51-.77,1-1.55,1.52-2.33a.2.2,0,0,1,.2-.12,1.92,1.92,0,0,1,1.3,1.27M45,8.28a.83.83,0,0,0,.73.44.53.53,0,0,0,.56-.56.65.65,0,0,0-.64-.66c-.36,0-.42.52-.65.78"/><path class="cls-2" d="M34.63,56.83c.06.36.15.94.25,1.52,0,.17.09.33-.18.37s-.25-.16-.27-.31c-.1-.6-.23-1.2-.28-1.81a1.12,1.12,0,0,1,1.06-1.31,1.1,1.1,0,0,1,1.27,1c.13.57.21,1.16.3,1.74,0,.17.09.35-.16.4s-.25-.2-.28-.35c-.12-.56-.2-1.12-.32-1.68s-.33-.76-.83-.67-.63.45-.56,1.13"/><path class="cls-2" d="M18.22,8.93a1.2,1.2,0,0,1-.74,1.2A1,1,0,0,1,16.36,10a9.57,9.57,0,0,1-1.37-2c-.11-.15,0-.23.11-.3s.26,0,.35.15c.29.47.58.93.88,1.39s.6.68,1.1.42.47-.65.13-1.21-.58-.93-.88-1.39c-.08-.13-.19-.25,0-.36s.18-.19.26-.06a7.19,7.19,0,0,1,1.27,2.24"/><path class="cls-2" d="M16.34,51.05l-.22.31c-.49.63-1,1.26-1.47,1.9-.21.29-.36.28-.6.07s-.53-.42-.79-.63-.33-.17-.14-.39.25,0,.36.06a1.82,1.82,0,0,1,.35.27c.26.25.44.35.74,0s.16-.54-.15-.73c0,0,0,0-.05,0-.1-.19-.58-.22-.36-.52s.42.09.58.2a.65.65,0,0,0,1.08-.39c.07-.29-.25-.29-.35-.45s-.76-.3-.48-.64.5.19.73.35a2.5,2.5,0,0,1,.77.65"/><path class="cls-2" d="M44.87,54.66a3.76,3.76,0,0,0-.39-.62c-.16-.16-.29.1-.44.13s-.53.52-.73.2.31-.41.52-.52c.37-.19.4-.37.18-.7s-.29-.58-.74-.29c-.23.15-.59.64-.81.26s.38-.42.62-.57c.82-.52.84-.5,1.33.36l.94,1.65c.1.17.21.32-.05.46s-.73.41-1.1.62c-.12.06-.24.1-.32-.06s0-.23.13-.3l.66-.38c.09,0,.19-.09.2-.24"/><path class="cls-2" d="M6.7,36.18c.06.2-.18.23-.39.27l-2.43.44c-.14,0-.32.12-.37-.09-.11-.47-.19-.95-.28-1.43a.14.14,0,0,1,.12-.18c.1,0,.22,0,.26.1a5.54,5.54,0,0,1,.11.56c0,.36.1.61.61.51s.42-.35.35-.67c0-.15-.06-.29-.08-.44s0-.21.14-.24.22.06.25.2a3.35,3.35,0,0,1,.07.44c0,.46.24.51.65.44s.53-.2.46-.65c0-.26-.46-.73.06-.83.29-.06.22.48.29.76s.1.46.18.81"/><path class="cls-2" d="M55.06,45.36c-.2.07-.22.29-.33.43s-.14.29-.33.19-.09-.28,0-.42.12-.22.19-.33c.19-.27.34-.48-.09-.74s-.58-.06-.74.28c0,.11-.13.21-.19.32s-.16.2-.31.12-.12-.19,0-.31a2.46,2.46,0,0,1,.17-.27c.31-.38.32-.65-.19-.91-.34-.17-.48-.15-.68.18s-.26.83-.58.64.11-.55.25-.8c.47-.87.49-.86,1.33-.36.48.28.94.58,1.42.84s.6.42.24.83c0,.05-.11.13,0,.2v0c-.16-.07-.12.07-.15.14Z"/><path class="cls-2" d="M8.76,18.72c.25-.09.28-.32.39-.49s.19-.32.29-.49a.19.19,0,0,1,.27-.07.19.19,0,0,1,.08.27c-.24.42-.48.84-.73,1.26-.14.24-.29.08-.42,0-.73-.41-1.46-.84-2.19-1.24-.24-.13-.3-.25-.14-.48s.35-.63.53-.93c.08-.13.11-.37.35-.21s0,.29,0,.43A2.11,2.11,0,0,1,7,17.1c-.28.34-.23.55.19.74s.44.19.57-.14A2.38,2.38,0,0,1,8,17.26c.07-.12.11-.31.31-.2s.1.27,0,.42a1.82,1.82,0,0,0-.15.27c-.05.19-.37.34-.16.53a3.51,3.51,0,0,0,.75.44"/><path class="cls-2" d="M53.52,20.42a1.72,1.72,0,0,1,1.82-1.56A1.75,1.75,0,0,1,57,20.44c0,.12,0,.21-.14.24s-.22,0-.25-.18A2.46,2.46,0,0,0,56.4,20a1.16,1.16,0,0,0-1.71-.53,1.13,1.13,0,0,0-.58,1.62,3.62,3.62,0,0,0,.2.33c.09.12.18.24,0,.36s-.27-.05-.35-.16a2.13,2.13,0,0,1-.44-1.22"/><path class="cls-2" d="M8.53,46.66A1.71,1.71,0,0,1,6.94,45.5c-.05-.15-.17-.33.1-.41s.21.11.27.24c.52,1,1.37,1.18,2.15.44q.78-.75,0-1.74c-.1-.12-.4-.22-.14-.44s.34.07.45.2a1.63,1.63,0,0,1,.45,1.79,1.88,1.88,0,0,1-1.66,1.08"/><path class="cls-2" d="M53.8,17.27c.05.82-.24,1.27-.86,1.28a1.42,1.42,0,0,1-1.18-1.23c0-.15,0-.25.18-.28s.2.08.23.21l0,.12c.14.39.29.83.82.67s.37-.57.31-1c-.12-.67.16-1.14.69-1.2a1.19,1.19,0,0,1,1.18,1c0,.1.07.22-.08.26s-.26,0-.3-.13,0,0,0-.06c-.11-.36-.26-.71-.72-.64-.28.05-.33.26-.28.94"/><path class="cls-2" d="M53.17,47.49a1.69,1.69,0,0,1-.66,1.38c-.11.1-.22.3-.41.09s0-.28.15-.38a1.24,1.24,0,0,0-.31-2.17c-.65-.33-1.16-.13-1.64.62-.07.11,0,.4-.32.27s-.08-.33,0-.47a1.6,1.6,0,0,1,1.86-1,1.78,1.78,0,0,1,1.34,1.64"/><path class="cls-2" d="M4.58,40c-.18.06-.22-.05-.24-.19s.08-.25.23-.3c.63-.19,1.24-.42,1.87-.57.46-.12.54-.29.39-.73-.09-.24-.47-.66,0-.79s.28.42.36.67c.33,1,.32,1-.67,1.31L4.58,40"/><path class="cls-2" d="M47.56,12.5c-.45-.4-.88-.76-1.29-1.15,0,0,.09-.22.17-.31C47,10.4,47.49,9.77,48,9.14c.11-.13.2-.35.44-.13s0,.29-.07.41c-.39.48-.75,1-1.18,1.41s-.43.63.07.9a2.54,2.54,0,0,1,.43.37c.06.05.13.13,0,.21l-.2.19"/><path class="cls-2" d="M11.6,15.38c-.42.54-.76,1-1.12,1.42-.07.07-.19,0-.27-.1L8.12,15.16C8,15.06,7.83,15,8,14.77s.28-.09.41,0c.53.39,1.07.76,1.57,1.17.34.28.58.34.79-.11a3.08,3.08,0,0,1,.37-.52.17.17,0,0,1,.22-.05l.26.12"/><path class="cls-2" d="M46.09,51.06a5.86,5.86,0,0,1-.69.49c-.15.08-.28.42-.51.14s.12-.34.25-.43c1.08-.84,1.08-.84,1.89.27a13.13,13.13,0,0,1,.77,1.07c.11.17.51.35.15.61s-.38-.17-.5-.32c-.39-.49-.75-1-1.13-1.52-.07-.1-.15-.19-.23-.31"/><path class="cls-2" d="M58.15,35.06c-.5-.08-1.16-.14-1.79-.29-.41-.09-.53,0-.6.4,0,.26.13.86-.33.77s-.07-.58,0-.88c.13-.87.14-.88,1-.76.64.1,1.29.2,1.93.32.16,0,.44,0,.37.3s-.24.17-.55.14"/><path class="cls-2" d="M4.6,29.75l-1.38-.07c-.16,0-.29,0-.28-.24s.12-.23.29-.22l2.7.13c.19,0,.24.12.23.29s-.14.21-.31.19c-.41,0-.83-.06-1.25-.09h0"/><path class="cls-2" d="M11.53,48.4c.37,0,.55.24.54.54a.48.48,0,0,1-.53.49.52.52,0,0,1,0-1"/><path class="cls-2" d="M56.45,39.76a.5.5,0,0,1-.58.45.46.46,0,0,1-.45-.56A.48.48,0,0,1,56,39.2a.5.5,0,0,1,.46.56"/><path class="cls-2" d="M33.2,4.38c0,.44-.16.63-.48.64a.46.46,0,0,1-.54-.48A.47.47,0,0,1,32.67,4a.45.45,0,0,1,.53.37"/><path class="cls-1" d="M13.67,10.28s.05-.1.06-.1a.56.56,0,0,1,.16.07l0,.09-.18-.06"/><path class="cls-1" d="M55.19,45.23l-.14.14c0-.07,0-.21.14-.14"/><path class="cls-2" d="M61.77,10.64c-.34,0-.36-.29-.51-.46s-.2-.52-.54-.43-.12.38-.18.58,0,.26-.23.34a11.6,11.6,0,0,1,0-2c0-.15,1-.19,1.24,0s.42.63.18.8c-.53.39-.17.64,0,.95.05.08.13.16.05.3M60.9,8.77c-.19,0-.37,0-.37.31s.1.43.4.38.57,0,.56-.35-.3-.35-.59-.34"/></g></g></svg>