<svg xmlns="http://www.w3.org/2000/svg" viewBox="0 0 77.67 58.08"><defs><style>.cls-1{fill:#fff;}</style></defs><g id="Capa_2" data-name="Capa 2"><g id="Layer_1" data-name="Layer 1"><path class="cls-1" d="M51.45,57.25c-1.26.26-1.82-.23-1.67-1.54.06-.53,0-1.08,0-1.62,0-.32-.15-.52-.46-.53-.14,0-.39.12-.4.2-.07,1.22-.41,2.51.22,3.63.51.92,1.47.65,2.32.4.57.16,1.08.27,1.05-.62s0-1.94,0-2.92c0-.31,0-.71-.46-.65s-.29.38-.32.64c-.12,1,.27,2-.28,3M69.8,53.9c1.78.15,1.11,1.53,1.19,2.47.15,1.66.75,2,2.3,1.12-.47-.42-1.52,0-1.45-1.1s-.3-2.34,1.5-2.65c-1.1,0-1.31-1-1.83-1.28s-.46,1.48-1.55,1.33a.94.94,0,0,1-.16,0c-1.45-.64-.86-1.19.24-1.64-.59-.62-1.19-.55-1.51-.11-.43.59-1.08,1.72-.88,2,.84,1,.25,2,.46,2.94.09.36-.28,1,.43,1s.32-.66.39-1c.18-1-.55-2.29.87-2.94m-15-33a2,2,0,0,1,0-.24c-.5-.13-1-.3-1.5-.41a40.79,40.79,0,0,0-16.9.36C20.89,24.06,7.61,33.89,4.7,51.74A20.3,20.3,0,0,0,4.3,58a13.42,13.42,0,0,1,4-3.23A2.11,2.11,0,0,0,9.61,53a32.72,32.72,0,0,1,9.47-18.8c9.06-8.71,20-12.95,32.53-13.27,1.06,0,2.11,0,3.17,0M41.46,0c-1,1.78-1.81,3.68-3,5.37C30.71,16.84,20.07,22.63,6,21.6c-.5,0-1.14-.38-1.51.22A10.49,10.49,0,0,1,0,25.72C18.59,30.65,38.4,17.44,41.46,0M77.67,16.93a6.11,6.11,0,0,1-3.24-1.47,1.84,1.84,0,0,0-2.31-.38,19.42,19.42,0,0,1-6.74,1.19A26.47,26.47,0,0,1,44.79,7.19c-.37-.41-.58-1.2-1.47-.93C50.6,19.37,66.88,22.69,77.67,16.93m-60,1.39a4.91,4.91,0,0,0,4.95-4.84,5,5,0,0,0-5-5,4.92,4.92,0,0,0-4.91,4.88,4.84,4.84,0,0,0,5,5M58.54,6.48a3.73,3.73,0,0,0-3.78,3.69,3.75,3.75,0,0,0,7.5.06,3.72,3.72,0,0,0-3.72-3.75M54.49,46c0,.76,0,1.53,0,2.29,0,.48-.25,1.16.64,1.21s.7-.64.71-1.14c0-1,0-2.07,0-3.1s.28-1.78,1.52-1.76,1.59.74,1.59,1.8,0,2.28,0,3.42c0,.4,0,.78.56.78s.81-.17.79-.76,0-1.3,0-2c0-4.1-.06-3.86-4.12-4.11-2-.12-1.68.75-1.68,1.86,0,.48,0,1,0,1.46M46.85,35.8c0-2.91-.35-3.58-2.19-3.46-1.29.08-2-.12-1.73-1.57.06-.41-.09-.76-.63-.73a.59.59,0,0,0-.56.67q0,3.42,0,6.85c0,.43.18.74.68.72s.52-.46.53-.84c0-.92.05-1.85,0-2.77s.42-1.57,1.4-1.56,1.29.64,1.28,1.53,0,2,0,2.94c0,.45.2.73.69.69s.53-.32.53-.67c0-.6,0-1.2,0-1.8m5.37,12.75c-1.09.21-1.45-.34-1.42-1.35a16.82,16.82,0,0,0,0-2.13c-.11-1,.11-1.69,1.36-1.5.35.06.85.09.84-.47s-.46-.51-.85-.52c-.66,0-1.52.24-1.34-1,.07-.5-.08-.81-.69-.81s-.46.55-.66.85c-.65,1-1,1.81,0,2.76.14.12,0,.52,0,.79,0,.87,0,1.75,0,2.61a2.06,2.06,0,0,0,3,1.69c.33-.15.58-.33.52-.72s-.46-.29-.78-.23M32.28,30.18a2.39,2.39,0,0,0-2.57,1.5,2.14,2.14,0,0,0,1.1,2.62c.36.24.72.49,1.09.72.7.44,1.22,1,.81,1.88s-1.12.74-1.85.58c-.26-.06-.52-.16-.78-.22s-.48,0-.52.23a.85.85,0,0,0,.17.58c.71.73,3,.55,3.82-.29a2.35,2.35,0,0,0-.25-3.33c-.58-.48-1.26-.85-1.88-1.3-.4-.3-.74-.7-.53-1.25a1.24,1.24,0,0,1,1.33-.73c.26,0,.52.16.79.19s.74.56,1,0-.24-.78-.69-.91-.73-.18-1-.24m21.45,5.18c0-.6,0-1.2,0-1.79s.21-1.22-.67-1.19-.57.67-.58,1.12c0,.87,0,1.74,0,2.61s-.29,1.46-1.26,1.46-1.37-.52-1.38-1.43,0-2,0-2.94c0-.37,0-.8-.52-.83s-.73.35-.72.84c0,1.19,0,2.39.09,3.57a1.82,1.82,0,0,0,1.84,1.74c2.79.32,3.22-.06,3.22-2.84v-.32m11.44-.09c0,.65,0,1.3,0,1.95,0,.4-.14,1,.49,1,.79,0,.55-.66.57-1.09a19.27,19.27,0,0,0,0-2.28c-.07-1,.22-1.76,1.36-1.76s1.33.86,1.31,1.81,0,1.85,0,2.77a.54.54,0,0,0,.62.58c.3,0,.55-.13.55-.45A18.33,18.33,0,0,0,70,33.44a1.47,1.47,0,0,0-1.28-1.1c-2.81-.56-3.54,0-3.54,2.77v.16M43.84,46.1a14.09,14.09,0,0,0,0,1.95c.07.53-.48,1.5.69,1.44s.56-1,.62-1.52a15.41,15.41,0,0,0,0-2.45c-.08-1.23.2-2.07,1.69-1.82.5.09.7-.12.68-.61s-.23-.54-.62-.59c-2.66-.33-3.09,0-3.09,2.79ZM69.53,46c0,.87,0,1.74,0,2.61,0,.49,0,.85.66.87s.7-.33.69-.82c0-1,0-2.07,0-3.1-.05-1.2.15-2.11,1.67-1.89.44.06.77,0,.76-.55s-.29-.63-.74-.65c-3-.13-3-.13-3,3V46M39.1,33.27c.27-.27.93.72,1.09-.12s-.73-.83-1.27-.89a2.88,2.88,0,0,0-3.22,1.39,3.47,3.47,0,0,0,.15,3.73,3,3,0,0,0,3.38,1c.43-.11,1.16-.12.94-.82s-.73-.2-1.11-.1a1.75,1.75,0,0,1-2.15-.71,2.89,2.89,0,0,1-.07-2.68c.41-.88,1.27-.92,2.26-.82M54.86,56.13c1,.44.94,2,2.5,1.7a8.28,8.28,0,0,1-1.5-2.16c-.23-.9,1.14-1.15,1.35-2.05-1.22-.37-1.39,1.26-2.45,1.27,0-.81,0-1.57,0-2.32,0-.3.11-.73-.35-.78s-.58.37-.58.77c0,1.19-.07,2.4,0,3.59,0,.59-.55,1.7.52,1.69.77,0,.17-1.1.49-1.71m-10,1c1-1.34,1.82-2.53,2.66-3.73.26-.38.72-1.1.16-1.21a7.72,7.72,0,0,0-3.76.06l0,.41,2.9.18c-1,1.43-1.91,2.65-2.76,3.9-.24.36-.68,1.07,0,1.14a9.06,9.06,0,0,0,4.18-.24C47,57,46,57.45,44.85,57.11m18.09-1.73c0,.84,0,1.38,0,1.93,0,.26,0,.56.38.59s.53-.26.54-.62c0-.71,0-1.42,0-2.13s.17-1,.79-1a.9.9,0,0,1,1.1.91c.06.71,0,1.42,0,2.13,0,.3-.08.71.39.74s.43-.38.44-.69c0-.66,0-1.31,0-2,.05-1.45-.68-1.74-2-1.8-1.92-.09-1.79,1-1.65,1.93m-1.29.41c0-.54,0-1.08,0-1.63,0-.25,0-.58-.35-.6s-.54.26-.54.63c0,.71,0,1.42,0,2.12,0,.54-.11,1-.78,1s-1-.22-1.07-.9,0-1.53,0-2.29a.5.5,0,0,0-.48-.54c-.36,0-.42.25-.41.54,0,.92,0,1.85,0,2.77,0,.69.53,1,1.21,1.1,2.13.31,2.43.06,2.42-2.18m-6-21.65c0,1.14,0,2.28,0,3.42,0,.33.06.67.5.69s.54-.29.54-.64c0-2.28,0-4.57,0-6.85,0-.33-.06-.68-.49-.69s-.55.43-.55.8q0,1.64,0,3.27M39.53,55.66h0c0,.43,0,.87,0,1.3s-.18.87.39.9.37-.52.41-.85c.09-.85-.38-1.92.22-2.51.83-.83-.54-.43-.32-.79-.52-.26-.68,0-.7.49s0,1,0,1.46m33-17.16a.81.81,0,0,0,.86-.79c0-.62-.35-.89-.9-.91a.76.76,0,0,0-.86.77c0,.58.35.86.9.93m0-6.17c-.49,0-.89.14-.91.7a.79.79,0,0,0,.73.92c.56,0,1-.19,1-.8a.77.77,0,0,0-.83-.82"/><path class="cls-1" d="M54.78,20.88c-1.06,0-2.11,0-3.17,0-12.52.32-23.48,4.56-32.52,13.27A32.67,32.67,0,0,0,9.61,53a2.11,2.11,0,0,1-1.35,1.8A13.42,13.42,0,0,0,4.3,58a20,20,0,0,1,.41-6.24c2.9-17.85,16.18-27.68,31.72-31.15a40.74,40.74,0,0,1,16.89-.36c.5.11,1,.28,1.5.41,0,.08,0,.16,0,.24"/><path class="cls-1" d="M41.46,0C38.4,17.44,18.59,30.65,0,25.72a10.49,10.49,0,0,0,4.5-3.9c.37-.6,1-.25,1.51-.22,14.06,1,24.7-4.76,32.49-16.23,1.15-1.69,1.93-3.59,3-5.37"/><path class="cls-1" d="M77.67,16.93C66.88,22.69,50.6,19.37,43.32,6.26c.89-.27,1.1.52,1.47.93a26.47,26.47,0,0,0,20.59,9.08,19.42,19.42,0,0,0,6.74-1.19,1.87,1.87,0,0,1,2.32.37,6,6,0,0,0,3.23,1.48"/><path class="cls-1" d="M17.63,18.32a4.84,4.84,0,0,1-5-5,4.92,4.92,0,0,1,4.91-4.88,5,5,0,0,1,5,5,4.91,4.91,0,0,1-4.95,4.85"/><path class="cls-1" d="M58.54,6.48a3.72,3.72,0,0,1,3.72,3.75,3.75,3.75,0,0,1-7.5-.06,3.73,3.73,0,0,1,3.78-3.69"/><path class="cls-1" d="M61.86,46.17c0-2.53,1.65-4.05,3.91-3.62a2.86,2.86,0,0,1,2.3,2.8c0,.66-.21.89-.84.87q-1.4,0-2.79,0c-.39,0-.93-.23-1.11.36a1.35,1.35,0,0,0,.45,1.34,2.71,2.71,0,0,0,2.89.52c.32-.08.87-.6,1,.19.1.52-.32.69-.78.84-2.79.88-5-.58-5-3.3m3-.84c.53-.39,1.6.52,1.66-.67,0-.81-.71-1.14-1.48-1.16s-1.65.4-1.66,1.21c0,1.08,1,.23,1.48.62"/><path class="cls-1" d="M30.11,44.9a10.73,10.73,0,0,1,0-2.27c.19-.84-.9-2.32,1.16-2.34,3.12,0,4.31.51,4.5,2.3s-.75,3.19-2.48,3.11c-1.89-.08-2,.8-1.87,2.19,0,.32,0,.65,0,1,0,.52-.26.63-.71.64s-.65-.24-.64-.71c0-1.3,0-2.6,0-3.9M31.37,43c.42.6-.65,1.9,1.05,1.82,1.23-.05,2-.52,2-1.83s-.93-1.71-2.07-1.75c-1.57-.05-.54,1.2-1,1.76"/><path class="cls-1" d="M54.49,46c0-.49,0-1,0-1.47,0-1.1-.36-2,1.68-1.85,4.06.25,4.12,0,4.12,4.11,0,.65,0,1.3,0,2s-.26.76-.79.76-.56-.38-.56-.78c0-1.14,0-2.28,0-3.42s-.36-1.79-1.59-1.8-1.58.64-1.52,1.76,0,2.07,0,3.1c0,.5.21,1.18-.71,1.14s-.62-.73-.64-1.22c0-.76,0-1.52,0-2.28"/><path class="cls-1" d="M41.94,46.6c0,3.09-.25,3.32-3.47,3-1-.08-1.86-.4-2-1.53a2,2,0,0,1,1.41-2.29c.66-.26,1.33-.47,2-.67.47-.13.85-.3.75-.87s-.47-.7-1-.75a4.68,4.68,0,0,0-1.77.24c-.27.08-.7.62-.92,0-.17-.5.12-.75.6-1,2.65-1.12,4.39,0,4.39,2.85v1M40.59,47c-.14-.24.41-1.09-.48-.91s-2.1.21-2.29,1.44c-.13.83.56,1.11,1.27,1.1,1,0,1.75-.3,1.5-1.63"/><path class="cls-1" d="M46.85,35.8c0,.6,0,1.2,0,1.8,0,.35-.11.64-.53.67s-.68-.24-.69-.69c0-1,0-2,0-2.94s-.32-1.53-1.28-1.54-1.46.53-1.4,1.57,0,1.85,0,2.77c0,.38,0,.81-.53.84s-.68-.29-.68-.72c0-2.29,0-4.57,0-6.86A.58.58,0,0,1,42.3,30c.54,0,.69.32.63.73-.24,1.45.44,1.65,1.73,1.57,1.84-.12,2.19.55,2.19,3.46"/><path class="cls-1" d="M52.22,48.54c.32-.06.7-.27.78.24s-.19.56-.52.71a2.06,2.06,0,0,1-3-1.68c-.06-.86,0-1.74,0-2.61,0-.27.12-.67,0-.8-1-.94-.66-1.79,0-2.75.2-.31,0-.85.66-.85s.76.31.69.81c-.18,1.21.68,1,1.34,1,.39,0,.84,0,.85.51s-.49.54-.84.48c-1.25-.19-1.47.46-1.36,1.5a16.66,16.66,0,0,1,0,2.12c0,1,.33,1.57,1.42,1.35"/><path class="cls-1" d="M58.29,35.37c0-1.78.77-2.82,2.28-3.1a2.35,2.35,0,0,1,2.84,1.37c.61,1.35.26,1.91-1.2,1.93a7.32,7.32,0,0,0-1.15,0c-.51.09-1.34-.38-1.4.6-.06.8.57,1.13,1.23,1.32a2.4,2.4,0,0,0,1.45-.06c.34-.11.78-.38.91.21s-.36.59-.72.71a3,3,0,0,1-4.24-3M61,34.68c.43-.18,1.24.33,1.24-.58,0-.71-.61-1-1.26-1s-1.4.35-1.32,1.13.88.29,1.34.47"/><path class="cls-1" d="M32.28,30.18c.27.06.64.13,1,.24s.89.39.69.91-.64.06-1,0-.53-.19-.79-.19a1.24,1.24,0,0,0-1.33.73c-.21.55.13,1,.54,1.25.61.45,1.29.81,1.87,1.3a2.34,2.34,0,0,1,.25,3.33c-.84.84-3.11,1-3.81.29a.82.82,0,0,1-.18-.58c0-.25.29-.29.52-.23s.52.16.78.22c.73.16,1.49.18,1.86-.58S32.6,35.46,31.9,35l-1.09-.72a2.12,2.12,0,0,1-1.09-2.62,2.37,2.37,0,0,1,2.56-1.5"/><path class="cls-1" d="M53.73,35.36v.32c0,2.78-.42,3.16-3.23,2.84a1.8,1.8,0,0,1-1.82-1.74c-.09-1.18-.07-2.38-.1-3.57,0-.49.12-.88.72-.84s.52.46.52.83c0,1,0,2,0,2.94s.43,1.44,1.38,1.43,1.32-.53,1.26-1.46,0-1.74,0-2.61c0-.45-.17-1.09.58-1.12s.64.69.67,1.19,0,1.19,0,1.79"/><path class="cls-1" d="M65.17,35.27v-.16c0-2.77.73-3.33,3.54-2.77A1.47,1.47,0,0,1,70,33.44a18.31,18.31,0,0,1,.12,4.38c0,.32-.25.45-.55.45a.54.54,0,0,1-.62-.58c0-.92,0-1.85,0-2.77s-.12-1.82-1.31-1.82-1.43.75-1.36,1.77a19.27,19.27,0,0,1,0,2.28c0,.43.22,1.11-.57,1.09-.63,0-.47-.62-.49-1,0-.65,0-1.3,0-1.95"/><path class="cls-1" d="M43.84,46.1v-.81c0-2.74.43-3.12,3.09-2.79.39,0,.6.19.62.59s-.18.7-.68.61c-1.49-.25-1.77.59-1.69,1.82a15.41,15.41,0,0,1,0,2.45c-.06.54.48,1.46-.62,1.52s-.62-.91-.69-1.44a14.09,14.09,0,0,1,0-1.95"/><path class="cls-1" d="M69.53,46v-.49c0-3.17,0-3.17,3-3,.45,0,.74.17.74.65s-.32.61-.76.55c-1.52-.22-1.72.69-1.67,1.89,0,1,0,2.06,0,3.1,0,.49,0,.85-.69.82s-.67-.38-.66-.87c0-.87,0-1.74,0-2.61"/><path class="cls-1" d="M39.09,33.27c-1-.1-1.84-.06-2.25.82a2.86,2.86,0,0,0,.07,2.68,1.75,1.75,0,0,0,2.15.71c.38-.1.93-.5,1.11.1s-.51.71-.94.82a3,3,0,0,1-3.38-1,3.49,3.49,0,0,1-.15-3.73,2.88,2.88,0,0,1,3.22-1.39c.54.06,1.43.05,1.27.89s-.82-.15-1.1.12"/><path class="cls-1" d="M33.44,54.93a8,8,0,0,0,0,1c.17,1.3,0,2.23-1.72,2.09-1.52-.12-2.26-.62-2.32-2.06s.66-2.57,2.1-2.46c1,.07,1.09-.22,1-1,0-.34.07-.7.48-.7s.4.42.41.72c0,.81,0,1.62,0,2.43m-.9.8c-.08-.64.29-1.56-.82-1.6s-1.4.7-1.41,1.6.22,1.51,1.24,1.56c1.31.08.9-.89,1-1.56"/><path class="cls-1" d="M54.86,56.13c-.32.61.28,1.7-.49,1.7-1.07,0-.48-1.09-.53-1.68-.09-1.19,0-2.4,0-3.59,0-.4,0-.83.58-.77s.34.48.35.78c0,.75,0,1.5,0,2.32,1.06,0,1.23-1.64,2.45-1.27-.21.9-1.58,1.15-1.35,2a8.32,8.32,0,0,0,1.5,2.17c-1.56.35-1.54-1.26-2.5-1.7"/><path class="cls-1" d="M38.37,57.62a2.9,2.9,0,0,1-3.13-.07,2.27,2.27,0,0,1-.44-3.1,1.89,1.89,0,0,1,2.53-.86,1.56,1.56,0,0,1,1.07,1.8c-.11.84-.88.33-1.32.5s-1.55-.52-1.55.48,1,1,1.79.89c.29,0,.62-.32,1,.36m-3-2.26c.83-.31,1.58.25,2.08-.44.18-.26-.14-.6-.48-.72-.75-.26-1.23,0-1.6,1.16"/><path class="cls-1" d="M44.85,57.11c1.13.34,2.19-.13,3.44.51a9,9,0,0,1-4.17.24c-.73-.07-.29-.78,0-1.14.85-1.25,1.74-2.47,2.76-3.9l-2.9-.18,0-.41a7.6,7.6,0,0,1,3.76-.06c.56.11.1.83-.16,1.21-.84,1.2-1.7,2.39-2.66,3.73"/><path class="cls-1" d="M62.94,55.38c-.14-1-.27-2,1.65-1.93,1.36.06,2.09.35,2,1.8,0,.66,0,1.31,0,2,0,.31.06.71-.44.69s-.38-.44-.39-.74c0-.71,0-1.42,0-2.13a.9.9,0,0,0-1.1-.91c-.62.06-.8.44-.78,1s0,1.42,0,2.13c0,.36-.1.65-.54.62s-.38-.33-.39-.59c0-.55,0-1.09,0-1.93"/><path class="cls-1" d="M61.66,55.79c0,2.24-.3,2.49-2.43,2.18-.68-.09-1.16-.41-1.21-1.1C58,56,58,55,58,54.1c0-.28,0-.57.41-.54a.5.5,0,0,1,.48.54c0,.76,0,1.53,0,2.29s.4.93,1.07.9.79-.44.78-1c0-.7,0-1.41,0-2.12,0-.37.12-.65.54-.63s.34.35.35.6c0,.55,0,1.09,0,1.63"/><path class="cls-1" d="M69.8,53.75a.94.94,0,0,0,.16,0c1.09.15.9-1.65,1.55-1.33s.73,1.26,1.83,1.28c-1.8.31-1.44,1.55-1.5,2.65s1,.68,1.45,1.1c-1.55.89-2.15.54-2.3-1.12-.08-.94.59-2.32-1.19-2.47Z"/><path class="cls-1" d="M69.8,53.75v.15c-1.42.65-.69,1.93-.87,2.94-.07.38.27,1-.39,1s-.34-.63-.43-1c-.21-1,.38-2-.46-2.94-.2-.23.45-1.36.88-2,.32-.44.92-.51,1.51.11-1.1.45-1.69,1-.24,1.64"/><path class="cls-1" d="M55.69,34.13c0-1.08,0-2.17,0-3.26,0-.37,0-.82.55-.8s.49.36.49.69c0,2.28,0,4.57,0,6.85,0,.35-.1.67-.54.64s-.5-.36-.5-.69c0-1.14,0-2.28,0-3.43"/><path class="cls-1" d="M51.47,57.79c-.85.25-1.81.52-2.32-.4-.63-1.12-.29-2.41-.22-3.63,0-.08.26-.21.4-.2.31,0,.46.21.46.53,0,.54.05,1.09,0,1.62-.15,1.31.41,1.8,1.68,1.54v.54"/><path class="cls-1" d="M51.47,57.79v-.54c.54-1,.15-2,.27-3,0-.26,0-.6.32-.64s.46.34.46.65c0,1,0,2,0,2.92s-.48.78-1.05.62"/><path class="cls-1" d="M39.53,55.66c0-.49,0-1,0-1.46s.18-.75.71-.49c-.23.36,1.14,0,.31.79-.6.59-.13,1.66-.22,2.51,0,.33.19.88-.41.85s-.36-.56-.39-.9,0-.87,0-1.3Z"/><path class="cls-1" d="M72.53,38.5c-.55-.07-.93-.35-.9-.93a.76.76,0,0,1,.86-.77c.55,0,1,.29.91.91a.82.82,0,0,1-.87.79"/><path class="cls-1" d="M72.55,32.33a.77.77,0,0,1,.83.82c0,.61-.45.85-1,.8a.79.79,0,0,1-.73-.92c0-.56.42-.71.91-.7"/></g></g></svg>