<svg xmlns="http://www.w3.org/2000/svg" viewBox="0 0 263.74 43.55"><defs><style>.cls-1{fill:#fff;}.cls-2{fill:none;stroke:#727376;stroke-miterlimit:22.93;stroke-width:0.22px;}</style></defs><g id="Capa_2" data-name="Capa 2"><g id="Layer_1" data-name="Layer 1"><rect class="cls-1" x="22.44" y="11.12" width="21.12" height="10.75"/><rect class="cls-1" x="11.12" y="22.44" width="10.75" height="21.12"/><rect class="cls-1" x="22.44" width="21.12" height="10.56"/><rect class="cls-1" y="22.44" width="10.56" height="21.12"/><rect class="cls-1" x="11.12" y="11.12" width="10.75" height="10.75"/><rect class="cls-1" x="11.12" width="10.75" height="10.56"/><rect class="cls-1" y="11.12" width="10.56" height="10.75"/><rect class="cls-1" width="10.56" height="10.56"/><rect class="cls-1" x="22.44" y="22.44" width="21.12" height="21.12"/><rect class="cls-1" x="197.68" y="10.75" width="4.05" height="15.74"/><rect class="cls-1" x="197.68" y="10.75" width="4.05" height="15.74"/><rect class="cls-2" x="197.68" y="10.75" width="4.05" height="15.74"/><path class="cls-1" d="M188,21c2.23,0,2.56.68,2.56,2.73a11.24,11.24,0,0,0,.24,2.76h4.85V26c-.56,0-.5-.7-.5-2.76,0-3.17-.94-3.56-2.48-4.17,1.71-.51,2.46-2,2.46-3.85,0-3.06-1.61-4.48-6.48-4.48h-6.9V26.49h4.79V21Zm-1.46-6.58h2.23c1.12,0,1.93.52,1.93,1.64s-.79,1.49-2.27,1.49h-1.89Z"/><path class="cls-1" d="M171.7,10.33c-4.55,0-7.66,3.21-7.66,8.16,0,5.35,3.07,8.41,7.66,8.41,4.32,0,7.67-3,7.67-8.37,0-4.15-2.46-8.2-7.67-8.2m0,3.85c2.11-.07,2.92,2.21,2.92,4.35,0,2.6-.81,4.52-2.88,4.52-2.3,0-2.87-2.51-2.87-4.52s.65-4.35,2.83-4.35"/><path class="cls-1" d="M162,15.32c-.34-2.76-2.19-5-6.25-5-3.66,0-6.34,1.68-6.34,5,0,6,8.41,4.37,8.41,6.75,0,.75-.79,1.16-2,1.16a2.48,2.48,0,0,1-1.36-.39,1.78,1.78,0,0,1-.79-1.25h-4.59c.1,2.85,2.62,5.27,6.48,5.27s6.84-1.77,6.84-5.42c0-5.73-8.41-4.26-8.41-6.62,0-.57.47-.9,1.52-.9a2.45,2.45,0,0,1,1.24.29,1.35,1.35,0,0,1,.69,1.07Z"/><path class="cls-1" d="M147.33,15.32c-.34-2.76-2.19-5-6.25-5-3.65,0-6.33,1.68-6.33,5,0,6,8.4,4.37,8.4,6.75,0,.75-.79,1.16-2,1.16a2.53,2.53,0,0,1-1.36-.39,1.81,1.81,0,0,1-.79-1.25h-4.59c.1,2.85,2.62,5.27,6.48,5.27,4,0,6.84-1.77,6.84-5.42,0-5.73-8.4-4.26-8.4-6.62,0-.57.46-.9,1.52-.9a2.47,2.47,0,0,1,1.24.29,1.37,1.37,0,0,1,.69,1.07Z"/><polygon class="cls-1" points="133 26.6 133 22.93 124.35 22.9 124.35 20.43 131.86 20.43 131.86 16.76 124.35 16.76 124.35 14.5 132.76 14.53 132.76 10.86 120.27 10.83 120.27 26.57 133 26.6"/><polygon class="cls-1" points="104.88 14.16 109.36 14.16 109.36 26.6 113.63 26.6 113.63 14.16 118.36 14.13 118.36 10.83 104.88 10.86 104.88 14.16"/><polygon class="cls-1" points="93.54 10.86 89.58 10.86 89.58 26.6 93.64 26.6 93.64 21.61 93.46 18.03 98.67 26.6 103.16 26.6 103.16 10.86 99.19 10.86 99.2 19.45 93.54 10.86"/><path class="cls-1" d="M79.62,10.33c-4.55,0-7.66,3.21-7.66,8.16,0,5.35,3.07,8.41,7.66,8.41,4.32,0,7.67-3,7.67-8.37,0-4.15-2.45-8.2-7.67-8.2m0,3.85c2.11-.07,2.92,2.21,2.92,4.35,0,2.6-.81,4.52-2.88,4.52-2.3,0-2.86-2.51-2.86-4.52s.65-4.35,2.82-4.35"/><polygon class="cls-1" points="55.94 26.63 56.1 15.47 59.13 26.53 62.66 26.63 65.53 15.38 65.72 26.63 69.67 26.63 69.67 10.89 63.62 10.89 60.92 20.7 58.23 10.89 52.18 10.89 52.18 26.63 55.94 26.63"/><path class="cls-1" d="M53.72,30.94H52.56V43.17h1.16ZM65.06,43.17H66.4V30.94H65.25V41.62h0L58.15,30.94H56.84V43.17H58V32.5h0Zm3-11.25h3.88V43.17h1.15V31.92h3.88v-1H68ZM86.89,43.17v-1H79.74V37.32H86v-1h-6.3V31.92h7v-1H78.58V43.17Zm3.21-6.54V31.92h3.67c1.55,0,3,.44,3,2.28s-1.32,2.43-3,2.43Zm3.64,1c1.15,0,2.15.17,2.42,1.5.19.93.07,3.22.55,4.06H98v-.12c-.3-.24-.46-.75-.51-2.6,0-1.29-.12-2.82-1.56-3.31a2.88,2.88,0,0,0,2-3c0-2.25-1.48-3.2-4.16-3.2H89V43.17H90.1V37.61Zm14.74,5.56h1.34V30.94h-1.15V41.62h0l-7.06-10.68h-1.31V43.17h1.15V32.5h0Zm4.15,0,1.44-3.84h5.57l1.41,3.84h1.19l-4.69-12.23h-1.31l-4.8,12.23Zm4.22-11.25,2.4,6.42h-4.79Zm4.37,0h3.87V43.17h1.16V31.92h3.87v-1h-8.9Zm12.11-1h-1.15V43.17h1.15ZM136,37.07c0,3.51,1.92,6.42,5.69,6.42s5.7-2.91,5.7-6.42-1.93-6.46-5.75-6.46c-3.66,0-5.66,2.89-5.64,6.46m5.7,5.43c-3.19,0-4.55-2.55-4.55-5.43s1.38-5.47,4.52-5.47c2.82,0,4.57,2.07,4.57,5.47,0,2.85-1.36,5.43-4.54,5.43m16.17.67h1.35V30.94h-1.16V41.62h0L151,30.94h-1.31V43.17h1.16V32.5h0Zm4.15,0,1.44-3.84h5.58l1.41,3.84h1.18L167,30.94h-1.31l-4.81,12.23Zm4.23-11.25,2.39,6.42h-4.79ZM181,43.17v-1h-6.55V30.94H173.3V43.17Zm16.33-8.69a4.4,4.4,0,0,0-4.74-3.87c-3.25,0-5.69,1.77-5.69,6.44,0,3.47,1.49,6.44,5.26,6.44,3.28,0,4.76-2,5.3-4.35h-1.2a3.92,3.92,0,0,1-3.87,3.36c-3.33,0-4.34-2.75-4.34-5.48,0-2.89,1.28-5.42,4.23-5.42,2.09,0,3.38.8,3.86,2.88Zm1.92,2.59c0,3.51,1.92,6.42,5.69,6.42s5.71-2.91,5.71-6.42-1.94-6.46-5.76-6.46c-3.65,0-5.66,2.89-5.64,6.46M205,42.5c-3.2,0-4.56-2.55-4.56-5.43s1.38-5.47,4.52-5.47c2.82,0,4.57,2.07,4.57,5.47,0,2.85-1.36,5.43-4.53,5.43m15.69.67v-1H214.1V30.94H213V43.17Zm9.45,0v-1h-6.56V30.94h-1.16V43.17Zm10,0v-1H233V37.32h6.31v-1H233V31.92h7v-1h-8.13V43.17Zm11.4-5.34a5.57,5.57,0,0,1-.52,2.53,4,4,0,0,1-3.69,2.14c-2.8,0-4.43-2.36-4.43-5.06,0-3.46,1.36-5.84,4.58-5.84a3.76,3.76,0,0,1,3.84,2.88h1.19c-.53-2.61-2.55-3.87-5.11-3.87-3.86,0-5.66,2.79-5.66,6.37,0,4.35,2.26,6.51,5.35,6.51a4.75,4.75,0,0,0,4.57-2.41v2.09h1V36.85h-5.23v1Zm12.2,5.34v-1h-7.15V37.32h6.3v-1h-6.3V31.92h7v-1h-8.14V43.17Z"/></g></g></svg>