<svg xmlns="http://www.w3.org/2000/svg" viewBox="0 0 54 69.35"><defs><style>.cls-1{fill:#fff;}</style></defs><g id="Capa_2" data-name="Capa 2"><g id="Layer_1" data-name="Layer 1"><path class="cls-1" d="M7.1,69.35a.42.42,0,0,0,0-.1l.65,0a.08.08,0,0,1,0,.08Z"/><path class="cls-1" d="M12.34,14.89c0,.74.08,1.48.13,2.3.33-.29.42-.71.76-.88a8.9,8.9,0,0,0,3.45.11c.14,0,.18-.13.19-.26V14.8a3.24,3.24,0,0,0-.12,1.11c0,.32-.12.42-.42.42-1,0-2.06,0-3.09,0a5,5,0,0,1,3.44-1.86,7.38,7.38,0,0,1,1.24-.08A4,4,0,0,1,22,17.06c0,.11.09.22.14.33s.09-.05.1-.08c1.2-2.43,3.37-3,5.79-2.94a4.49,4.49,0,0,1,4.21,4.13c0,.37.08.73.13,1.16.27-.54.47-1,.75-1.48a7.94,7.94,0,0,1,6.55-3.74,9.65,9.65,0,0,1,4.83.74,1.1,1.1,0,0,1,.81,1.25,20.42,20.42,0,0,0,0,2.07c-.22.08-.3-.1-.42-.17a6,6,0,0,0-4.5-.91,3.93,3.93,0,0,0-3.12,3.3,11.46,11.46,0,0,0,0,5.43,3.11,3.11,0,0,0,3.24,2.59,9.56,9.56,0,0,0,4.75-1.12v2.92c0,.22-.17.29-.33.37a9.89,9.89,0,0,1-10.08-.64,6.46,6.46,0,0,1-2.5-3.38c0,.23-.05.37-.05.5,0,1.16,0,2.31,0,3.46,0,.45-.08.62-.58.6-1.17,0-2.34,0-3.51,0-.46,0-.6-.1-.59-.58,0-3.49-.09-7,0-10.48.08-2.18-1.69-2.88-3.31-2.32a3.87,3.87,0,0,0-1.8,1.39,1.1,1.1,0,0,0-.15.74c0,3.54,0,7.07,0,10.61,0,.54-.15.66-.66.64-1.15,0-2.31,0-3.46,0-.5,0-.57-.16-.57-.6,0-3.55,0-7.11,0-10.66a2.07,2.07,0,0,0-2.46-2.3,3.78,3.78,0,0,0-1.7.51,2,2,0,0,0-1.12,2c.07,3.47,0,7,0,10.43,0,.49-.07.69-.63.67-1.33-.06-2.66,0-4,0,0-.68,0-1.35,0-2q0-6.54,0-13.09c0-.32,0-.64,0-1A7.5,7.5,0,0,0,10,15.06c0-.06,0-.11,0-.17H7.93v-.22H10.2l.48,0c.11.27.23.27.35,0l.24-.06.84,0c0,.14.1.19.23.19"/><path class="cls-1" d="M7.91,16.32q0,6.54,0,13.09c0,.68,0,1.35,0,2-.08,1.21-.08,1.21,1.1,1.21H53.35c.21,0,.56-.19.63.22s0,.6-.52.6c-3.49,0-7,0-10.48,0q-17.19,0-34.37,0c-.58,0-.72.13-.72.71q0,17.19,0,34.38c0,.24.11.51-.11.73l-.65,0c0-.26,0-.51,0-.77q0-17.18,0-34.36c0-.56-.16-.68-.69-.67-1.7,0-3.41,0-5.12,0-.27,0-.53.07-.55-.38s.28-.43.57-.43c1.71,0,3.42,0,5.12,0,.57,0,.74-.17.66-.69,0-.18,0-.36,0-.54,0-1.54,0-3.09,0-4.64q0-5.11,0-10.24v-.35c0-.32,0-.63,0-1,.56-.11.78.12.7.68a.41.41,0,0,0,.09.38"/><path class="cls-1" d="M7.09,0c.26.15.55,0,.83.09l.81.05a8.39,8.39,0,0,1,1.71.69l.12.13h0a.92.92,0,0,0,.6.36h0c0,.08.21.21,0,.23a1,1,0,0,0-.66.12,7,7,0,0,1,1.59.88c.16.38,0,.85.35,1.17-.1.3-.21.56.27.71a.74.74,0,0,1,.37.94c-.32.38-.31.43.14.64.18.08.38.14.42.44A1,1,0,0,1,12.83,6c-.34-.54-1-.43-1.44-.7-.22-.13-.35.12-.38.42a5.08,5.08,0,0,0,.29,2.12c-.08.42-.46,0-.62.22a1.53,1.53,0,0,0-2.1-.53A1.14,1.14,0,0,1,8,7.68c-.51,0-1,.35-1.5.14.53.29.52.25,1.23.12.21,0,.65-.13.77.31S8.25,9,8,9.29c-.64,1-1.11,1-1.89.15a2.68,2.68,0,0,0-.95-.68v0c-.06-.13-.13-.26-.19-.38s-.15-.53-.23-.8c-.32,0-.64.49-.93,0a1.28,1.28,0,0,1,1.1-.93c.31,0,.68.1.88-.29l.09,0c.1.16.17.37.42.33s.33-.14.28-.37A1,1,0,0,0,7.09,6c.11-.17.47-.25.23-.56s-.48-.06-.71.08A.45.45,0,0,0,6.39,6H6.27c-.12-.12-.4,0-.36-.37s-.2-.08-.32-.09a1.66,1.66,0,0,1-.16-.37A2.64,2.64,0,0,0,4.56,3c.44-.16.17-.74.52-1,.17.08,0,.5.37.33.19-.1.21-.28.12-.51-.28-.8-.2-.88.62-.8,0,0,.06,0,.12-.08L5.82.74c.22-.18.51-.27.42-.6L7.09,0m3.59,2.86a2.31,2.31,0,0,0-1.36.56c-.11.12-.24.23-.17.41a.36.36,0,0,0,.44.23,11.52,11.52,0,0,0,1.29-.44.47.47,0,0,0,.25-.5c0-.23-.23-.25-.45-.26"/><path class="cls-1" d="M24.48,35.19c0,.46-.16,1,.21,1.44-.51,0-1,0-1.43,0s-.39-.31-.57-.47-.29-.65-.58-.45-.13.6.17.89h-1a2.93,2.93,0,0,0,0-2.16,5.09,5.09,0,0,1,1.69.11c.53.21.6.55.17.91-.17.14-.21.2-.06.35s.07.1.12.14c.22.2.34.64.71.51s.17-.53.17-.81.16-.84-.22-1.16c1.08-.36,1.34.75,2.07,1.17a2.9,2.9,0,0,0-.07-1.07c.35-.13.48,0,.46.37,0,.59,0,1.19,0,1.8l-1.63-1.69-.19.12M22,35c0,.17-.05.38.24.36s.52-.06.51-.36-.26-.32-.48-.34S22,34.84,22,35"/><path class="cls-1" d="M41.93,34.45h1a2.22,2.22,0,0,0-.19,1.74c0,.33.48.14.75.11.1,0,.18-.2.3-.07a.31.31,0,0,1,0,.22c0,.2-.18.17-.32.17H40.79c0-.19.24-.38,0-.51a1.35,1.35,0,0,0-.93,0,.22.22,0,0,0-.13.37c.15.2,0,.18-.12.18s-.39,0-.67,0a6.27,6.27,0,0,0,.93-1.48c.16-.25.17-.69.55-.69s.36.43.51.67.34.67.52,1,.21.41.47.37.27-.32.25-.52c0-.5.18-1-.25-1.52m-1.3,1.29c-.12-.26-.15-.46-.35-.59a1.27,1.27,0,0,0-.27.59Z"/><path class="cls-1" d="M13.74,39.66c.48-.35.67-1.21,1.52-.9a3.41,3.41,0,0,0,0,2.12h-.9c.35-.45.14-1,.2-1.47a1.46,1.46,0,0,0-.64.61c-.23.33-.39.29-.6,0a8,8,0,0,0-.62-.7c0,.61-.19,1.11.19,1.56a2,2,0,0,1-.77,0,3.2,3.2,0,0,0,0-2.14c.76-.06.76-.06,1.68.9"/><path class="cls-1" d="M20.39,45.22a2.33,2.33,0,0,0,0-2.15c1.08-.36,1.33.75,2.06,1.16,0-.43.17-.84-.26-1.2h.86c-.45.74-.07,1.55-.25,2.3l-1.73-1.77c-.06.68-.18,1.17.14,1.66Z"/><path class="cls-1" d="M36.53,40.88c-.54.09-1.05.15-1.38-.45-.12-.2-.27-.64-.58-.41s-.15.58.22.87h-1a3.18,3.18,0,0,0,0-2.15,4.63,4.63,0,0,1,1.65.1c.54.2.63.56.19.9-.21.17-.18.27,0,.4s.39.79,1,.61Zm-2-1.6c0,.18-.08.43.26.4s.47-.06.48-.32S35,39,34.8,39s-.32.08-.3.3"/><path class="cls-1" d="M38.3,35.63c.09-.77.09-.77-.17-1.16a2.26,2.26,0,0,1,.82,0c-.43.73-.07,1.54-.24,2.27-.54-.55-1.09-1.1-1.63-1.66l-.17.09c0,.49-.15,1,.18,1.46a2.17,2.17,0,0,1-.72,0,3.24,3.24,0,0,0,0-2.15c1-.32,1.26.76,1.95,1.16"/><path class="cls-1" d="M34.61,34.4A1.24,1.24,0,0,1,36,35.56a1.29,1.29,0,0,1-1.37,1.13,1.32,1.32,0,0,1-1.42-1.15,1.27,1.27,0,0,1,1.41-1.14m-.72,1c0,.67.27,1,.73,1s.69-.4.7-.86-.27-.89-.74-.87a.67.67,0,0,0-.69.75"/><path class="cls-1" d="M32,41a1.29,1.29,0,0,1-1.4-1.15A1.23,1.23,0,0,1,32,38.69,1.17,1.17,0,1,1,32,41m.7-1.27c0-.36-.15-.73-.7-.75s-.75.32-.73.88.17.82.7.86.73-.32.73-1"/><path class="cls-1" d="M17,38.69a1.28,1.28,0,0,1,1.42,1.12A1.29,1.29,0,0,1,17,41a1.28,1.28,0,0,1-1.39-1.17A1.25,1.25,0,0,1,17,38.69m.73,1c0-.36-.13-.74-.68-.77s-.75.31-.75.87.17.83.69.87.74-.31.74-1"/><path class="cls-1" d="M15.88,43a1.23,1.23,0,0,1,1.37,1.16,1.26,1.26,0,0,1-1.36,1.13,1.28,1.28,0,0,1-1.41-1.14A1.25,1.25,0,0,1,15.88,43m-.72,1.16c0,.47.17.82.7.85s.76-.35.73-.89-.16-.83-.71-.85-.73.32-.72.89"/><path class="cls-1" d="M18.77,38.75c1-.29,1.27.78,2,1.18a2.7,2.7,0,0,0,.05-.8c0-.11-.22-.3.11-.3s.28.06.27.27c0,.65,0,1.3,0,1.94l-1.79-1.75c-.07.64-.2,1.12.15,1.61h-.74a3.51,3.51,0,0,0,0-2.15"/><path class="cls-1" d="M13.52,34.46c1-.31,1.26.78,2,1.17.14-.25,0-.52.07-.78,0-.1-.25-.29.1-.31s.28.11.28.32c0,.63,0,1.26,0,2l-1.64-1.74-.17.1a1.94,1.94,0,0,0,.17,1.46h-.73a3.57,3.57,0,0,0,0-2.17"/><path class="cls-1" d="M29.4,36.6h-1c0-.18.23-.4,0-.5a1.17,1.17,0,0,0-1,0c-.26.13,0,.32,0,.49h-.83a9.14,9.14,0,0,0,1.07-1.78c.1-.16.12-.4.39-.39s.25.23.34.37a8.49,8.49,0,0,0,1.06,1.8m-1.51-1.47a1.13,1.13,0,0,0-.3.57.71.71,0,0,0,.59,0l-.29-.57"/><path class="cls-1" d="M20.91,36.14c.05.27.13.49-.24.49H19a3.17,3.17,0,0,0,0-2.19h1.63c.3,0,.3,0,.32.47a1.81,1.81,0,0,0-.78-.23c-.27,0-.45,0-.42.38s.34.28.48.23c.54-.21.42.11.39.42-.3-.06-.6-.27-.83,0-.09.11-.09.49,0,.55a1,1,0,0,0,1.14-.11"/><path class="cls-1" d="M26.1,40.45c.12.33.06.48-.29.47-.55,0-1.1,0-1.61,0a3.32,3.32,0,0,0,0-2.2h1.61c.13,0,.3-.06.34.14s0,.23,0,.27-.19-.07-.3-.09c-.29,0-.61-.22-.84.1a.32.32,0,0,0,0,.39.65.65,0,0,0,.56,0c.08,0,.18-.15.24,0a.69.69,0,0,1,0,.35c0,.17-.13.05-.21,0s-.47-.16-.6,0a.65.65,0,0,0,0,.56c.12.22.4.07.6.11s.33-.12.53-.2"/><path class="cls-1" d="M30.35,38.86c-.16.31-.31.48-.64.2a.38.38,0,0,0-.61.11c-.1.24.21.28.37.37a5.09,5.09,0,0,0,.54.22c.24.09.43.23.43.51a.66.66,0,0,1-.44.59,2.5,2.5,0,0,1-1.53,0c.15-.36.3-.53.68-.21a.44.44,0,0,0,.71-.14c.13-.3-.21-.31-.39-.4s-.33-.13-.49-.21-.5-.28-.45-.62.32-.45.59-.5a2.35,2.35,0,0,1,1.23.09"/><path class="cls-1" d="M26.32,40.84c.16-.26.26-.59.63-.22a.5.5,0,0,0,.56.07.33.33,0,0,0,.24-.24c0-.14-.09-.22-.21-.27s-.55-.22-.81-.35a.53.53,0,0,1-.35-.51.54.54,0,0,1,.44-.5,2.27,2.27,0,0,1,1.34,0c-.22.39-.23.4-.54.23a.56.56,0,0,0-.45-.07c-.11,0-.25.09-.24.23s.11.16.18.2c.25.13.51.23.76.34s.43.23.42.51a.63.63,0,0,1-.44.58,2.43,2.43,0,0,1-1.53,0"/><path class="cls-1" d="M25.61,43.65c-.49-.32-.92-.67-1.37-.15a1.08,1.08,0,0,0,.05,1.28c.44.43.83.14,1.21-.13.17.47.15.52-.26.58a2,2,0,0,1-.65,0,1.21,1.21,0,0,1-1.19-1.17A1.18,1.18,0,0,1,24.67,43c.36,0,1-.27.94.65"/><path class="cls-1" d="M17.46,43h1a2.65,2.65,0,0,0-.15,1.57c0,.33.33.36.59.36s.56-.06.57-.39a4.11,4.11,0,0,0-.06-1.4c.29-.1.49-.08.45.33,0,.23,0,.47,0,.71,0,.76-.32,1.07-1.08,1.06s-1.06-.31-1.08-1.08c0-.38.14-.8-.25-1.16"/><path class="cls-1" d="M14.19,44.6c.16.74-.35.65-.7.66A1.32,1.32,0,0,1,12,44.14c0-.7.65-1.19,1.57-1.15.37,0,.82,0,.63.62-.44-.23-.91-.68-1.35-.08a1,1,0,0,0,0,1.22c.42.5.85.16,1.31-.15"/><path class="cls-1" d="M22.23,40.92a2.17,2.17,0,0,0,.18-1.78c-.08-.41-.51,0-.78.07-.13-.31-.16-.5.26-.49s1.11,0,1.66,0c.32,0,.31,0,.33.45a4.25,4.25,0,0,0-.53-.19c-.11,0-.3-.05-.29.12a3.35,3.35,0,0,0,.15,1.76,3.46,3.46,0,0,1-1,.05"/><path class="cls-1" d="M16.36,34.88c-.17-.51.18-.45.47-.45,2.1,0,1.87-.1,1.8.45-.18-.06-.36-.14-.54-.18s-.29,0-.28.13c0,.59-.18,1.2.17,1.78H17c.39-.55.16-1.16.21-1.74,0-.21-.18-.19-.3-.17s-.36.12-.55.18"/><path class="cls-1" d="M30.93,36.61h-1c.37-.58.15-1.19.18-1.78,0-.2-.22-.15-.33-.12a2.15,2.15,0,0,0-.48.18c-.18-.53.17-.45.47-.46,1.79,0,1.79,0,1.79.44-.18.05-.27-.14-.42-.16s-.43,0-.44.33c0,.92,0,1.21.24,1.57"/><path class="cls-1" d="M27.3,45.21a2.81,2.81,0,0,0,0-2.17h1c-.32.53-.13,1.11-.17,1.67,0,.3.22.2.37.23a1.14,1.14,0,0,0,.68-.19c.1.29.09.48-.28.46H27.3"/><path class="cls-1" d="M32,34.45h.88a3.12,3.12,0,0,0,0,2.15h-.85a3.3,3.3,0,0,0,0-2.15"/><path class="cls-1" d="M13,36.59h-.83a3,3,0,0,0,0-2.14h.91A3.21,3.21,0,0,0,13,36.59"/><path class="cls-1" d="M26,45.17A3.3,3.3,0,0,0,26,43h.89a3.18,3.18,0,0,0,0,2.13Z"/><path class="cls-1" d="M36.53,40.88v-.13a3.06,3.06,0,0,0-.1-2h.94a3,3,0,0,0-.12,2s0,.09,0,.14h-.71"/><path class="cls-1" d="M37.24,40.88c0-.05,0-.09,0-.14s.17,0,.14.13-.1.06-.15,0"/><path class="cls-1" d="M12.1,14.7l.13,0v0l.1.07a.49.49,0,0,1,0,.12.2.2,0,0,1-.23-.19"/><path class="cls-1" d="M12.32,14.77l-.1-.07c.07,0,.11,0,.1.07"/><path class="cls-1" d="M7.12,15.26c0,.31,0,.63,0,1-.28,0-.57-.09-.86-.12s-.38,0-.39.25.22.21.37.22.59,0,.88,0c0,3.41,0,6.83,0,10.24,0,1.55,0,3.1,0,4.64-1.19,0-2.38,0-3.57,0-.43,0-.57-.09-.57-.55,0-4.7,0-9.4,0-14.1a12.32,12.32,0,0,0,0-1.49c-.05-.53.14-.72.66-.64a1.91,1.91,0,0,0,.41,0H7.09ZM4.66,16.53l0-.06H3.29v.06Z"/><path class="cls-1" d="M6.24.14c.09.33-.2.42-.41.6L6.31,1c-.06.05-.09.08-.12.08-.82-.08-.9,0-.62.8.09.23.07.41-.12.51-.34.17-.2-.25-.37-.33-.35.22-.08.8-.52,1s-.42.5-.69.69c-.11-.53-.39-.63-.78-.32a1.13,1.13,0,0,0-.46.53l-.19.23c-.37.28-.38.72-.47,1.12.17.12-.07.34.11.45C2.1,5.87,2,6,1.86,6a1.7,1.7,0,0,1-.18-1.81,1.27,1.27,0,0,0,.17-.73C2,3,2.51,2.6,2.48,2A6.4,6.4,0,0,1,6.24.14"/><path class="cls-1" d="M1.85,3.45a1.27,1.27,0,0,1-.17.73A1.68,1.68,0,0,0,1.86,6c-.49.16-.43.59-.49,1,0,.22.14.48-.27.6-.17,0-.17.48,0,.63s.36,0,.43-.22.13-.15.18-.23c.53-.77.94-.79,1.46-.08l.15.19c-.42.15-.35.59-.52.89H2.7c-.35-.56-.75-.46-1.29-.21s-.35.66-.58,1a1.33,1.33,0,0,1-.14-.19,7.09,7.09,0,0,1,.21-5A2.15,2.15,0,0,1,1,4c.37-.06.55-.37.81-.58M1.26,6l0-.13L1.13,6c0,.06,0,.12.05.11s.06-.08.08-.11"/><path class="cls-1" d="M1.85,3.45C1.59,3.66,1.41,4,1,4A5.24,5.24,0,0,1,2.48,2c0,.57-.46.93-.63,1.42"/><path class="cls-1" d="M7.94,14.43c0,.08,0,.16,0,.24v.22c0,.16,0,.32,0,.48,0,.31,0,.63,0,1a.41.41,0,0,1-.09-.38c.08-.56-.14-.79-.7-.68l0-.6,0-.65a2.55,2.55,0,0,1,.87,0v.46"/><path class="cls-1" d="M8,15.37c0-.16,0-.32,0-.48H10c0,.06,0,.11,0,.17A7.9,7.9,0,0,1,8,15.37"/><path class="cls-1" d="M13.24,16.3c1,0,2.06,0,3.09,0,.3,0,.44-.1.42-.42a3.24,3.24,0,0,1,.12-1.11v1.36c0,.13-.05.25-.19.26a8.9,8.9,0,0,1-3.45-.11h0"/><path class="cls-1" d="M10.68,14.7H11c-.12.26-.24.26-.35,0"/><path class="cls-1" d="M7.08,16.56c-.29,0-.58,0-.88,0s-.39.06-.37-.22.21-.26.39-.25.58.08.86.12v.35"/><path class="cls-1" d="M7.93,14a2.83,2.83,0,0,0-.87,0,7.08,7.08,0,0,1-2.94-.85A.22.22,0,0,0,3.88,13h0c-.07-.69-.6-.63-1.07-.67a6.15,6.15,0,0,1-2-2.85c.23-.29.12-.73.58-1s.94-.35,1.29.22a.18.18,0,0,0,.08.07l.05,0c0,.47,0,1.05.62,1S4.61,9.71,4.77,9c.06-.22.15-.37.41-.28v0a3,3,0,0,0,1.5,1.33A.94.94,0,0,0,7.88,10c.25-.26.41-.09.42.23s-.06.54-.09.81a2.3,2.3,0,0,0,.26,1.67c.31.39.47.65.23,1.08L7.93,14"/><path class="cls-1" d="M8.3,10.24c0-.32-.17-.49-.42-.23a.94.94,0,0,1-1.19.08,3,3,0,0,1-1.5-1.33,2.68,2.68,0,0,1,.95.68c.78.87,1.25.81,1.89-.15.22-.33.51-.61.48-1,.33-.27.53.08.77.18a1.08,1.08,0,0,0,1.4-.35c.16-.22.54.2.62-.22.34.2.78-.18,1,.12s.41.11.59-.06a1.33,1.33,0,0,0,.49-.85,1,1,0,0,0,.79.3,5,5,0,0,1-.44,2,6.6,6.6,0,0,0-1.28.15c-.62.21-1.36,0-1.87.59-.25.29-.58.46-1,.06-.13-.15-.38-.11-.56,0a2.27,2.27,0,0,1-.82.08"/><path class="cls-1" d="M3.31,7.84l-.15-.19c-.52-.71-.93-.69-1.46.08-.05.08-.15.14-.18.23s-.28.37-.43.22-.16-.58,0-.63c.41-.12.24-.38.27-.6.06-.38,0-.81.49-1,.14,0,.24-.11.22-.27.81,0,.94-.26.95-1.63l-.2.34c-.06-.17-.13-.34-.2-.51a1.13,1.13,0,0,1,.46-.53c.39-.31.67-.21.78.32.27-.19.38-.55.69-.69a2.65,2.65,0,0,1,.87,2.12,1.66,1.66,0,0,0,.16.37c-.26.36.23.51.22.81-.2.38-.57.25-.88.28-.27-.4-.61-.08-.91-.08a.15.15,0,0,0-.17.18c0,.44-.31.82-.21,1.27-.14,0-.23,0-.33-.12"/><path class="cls-1" d="M13.43,7.07a1.29,1.29,0,0,1-.49.85c-.18.17-.3.39-.59.06s-.71.08-1-.12A5.08,5.08,0,0,1,11,5.74c0-.3.16-.55.38-.42.46.27,1.1.16,1.44.7a1,1,0,0,0,.79.42c0-.3-.24-.36-.42-.44-.45-.21-.46-.26-.14-.64a.74.74,0,0,0-.37-.94c-.48-.15-.37-.41-.27-.71a1.08,1.08,0,0,0,0-1.16l.09-.09c.32.16.43.51.67.74a5.55,5.55,0,0,0,.7,1.45,7.6,7.6,0,0,1,.1.8c.06.53.36,1,.24,1.58-.37.07-.61-.41-1-.23.09.1.17.18.24.27"/><path class="cls-1" d="M10.68,8.08a1.07,1.07,0,0,1-1.4.35C9,8.33,8.84,8,8.51,8.25c-.12-.44-.56-.35-.77-.31-.71.12-.7.17-1.23-.12C7,8,7.5,7.69,8,7.68a1.24,1.24,0,0,0,.57-.12,1.52,1.52,0,0,1,2.1.52"/><path class="cls-1" d="M5.18,8.73c-.26-.09-.35.06-.41.28-.16.7-.82.78-1.32.82s-.62-.53-.62-1c.25,0,.51-.4.75,0,0,0,.11,0,.11-.07s-.18-.17,0-.19A.82.82,0,0,1,4,8.71c0,.2-.09.52.22.51s.28-.31.26-.55l0-.29c.16-.25.34-.07.52,0s.13.25.19.38"/><path class="cls-1" d="M5,8.35c-.18,0-.36-.22-.52,0L4,8.71A.82.82,0,0,0,3.7,8.6c-.19,0,0,.12,0,.19s-.09.11-.11.07c-.24-.43-.51,0-.75,0l-.05,0a.2.2,0,0,0,0-.07c.17-.31.1-.75.52-.9.1.07.19.17.33.12s.06-.32.19-.44c.29.52.61.06.93,0,.08.27.15.54.23.8"/><path class="cls-1" d="M10.68,2.86c.22,0,.41,0,.45.26a.47.47,0,0,1-.25.5,11.52,11.52,0,0,1-1.29.44.36.36,0,0,1-.44-.23c-.07-.18.06-.29.17-.41a2.31,2.31,0,0,1,1.36-.56"/><path class="cls-1" d="M11.72,1.56c.23.33.61.52.79.9l-.09.09c-.12,0-.23-.1-.35,0a7,7,0,0,0-1.59-.88,1,1,0,0,1,.66-.12c.22,0,0-.15,0-.23s.24.07.36.11l.13.11a.19.19,0,0,0,.08,0"/><path class="cls-1" d="M6.39,6a.48.48,0,0,1,.22-.46c.23-.13.45-.39.71-.07s-.12.39-.23.56a1,1,0,0,1-.49.31c-.12-.09,0-.29-.21-.34"/><path class="cls-1" d="M3.83,7.52c-.13.12,0,.36-.19.44-.1-.45.26-.83.21-1.27A.15.15,0,0,1,4,6.51c.3,0,.64-.32.91.08a1.28,1.28,0,0,0-1.1.93"/><path class="cls-1" d="M12.07,2.54c.12-.09.23,0,.35,0a1.08,1.08,0,0,1,0,1.16c-.34-.32-.19-.79-.35-1.17"/><path class="cls-1" d="M5.81,6.31c0-.3-.48-.45-.22-.81.12,0,.34-.14.32.09s.24.25.36.37l-.37.38-.09,0"/><path class="cls-1" d="M5.9,6.34,6.27,6h.12c.17,0,.09.25.21.34s-.07.33-.28.37S6,6.5,5.9,6.34"/><path class="cls-1" d="M10.55,1c.28,0,.51.06.6.36a.92.92,0,0,1-.6-.36"/><path class="cls-1" d="M10.44.83c.06,0,.13,0,.12.13L10.44.83"/><path class="cls-1" d="M11.64,1.53l-.13-.11.13.11"/><path class="cls-1" d="M4.66,16.53H3.29v-.06H4.71l0,.06"/><path class="cls-1" d="M2.83,4.42,3,4.08c0,1.37-.14,1.6-.95,1.63-.18-.11.06-.33-.11-.45H2.2c.35.4.49.09.58-.2a2.25,2.25,0,0,0,.05-.64"/><path class="cls-1" d="M2.83,4.42a2.25,2.25,0,0,1-.05.64c-.09.29-.23.6-.58.2a.82.82,0,0,0,.24-1.12l.19-.23c.07.17.14.34.2.51"/><path class="cls-1" d="M2.44,4.14A.82.82,0,0,1,2.2,5.26H2c.09-.4.1-.84.47-1.12"/><path class="cls-1" d="M1.26,6s-.05.11-.08.11S1.1,6.1,1.13,6l.1-.13,0,.13"/><path class="cls-1" d="M2.79,8.74a.2.2,0,0,1,0,.07.18.18,0,0,1-.08-.07h.09"/><path class="cls-1" d="M3.89,13c-.39-.05-.59-.42-1-.51l-.12-.16c.47,0,1,0,1.07.67"/><path class="cls-1" d="M9.6,13.52a3.24,3.24,0,0,1-.9.28c.24-.43.08-.69-.23-1.08a2.3,2.3,0,0,1-.26-1.67c0-.26.08-.53.09-.81a2.27,2.27,0,0,0,.82-.08c.18-.07.43-.11.56,0,.37.4.7.23,1-.06.51-.6,1.25-.38,1.87-.59a5.91,5.91,0,0,1,1.28-.14A6.57,6.57,0,0,1,10,13.34c-.07-.22-.14-.45-.23-.66s-.21-.24-.28,0-.33.63.09.88"/><path class="cls-1" d="M4.12,13.15,3.88,13a.22.22,0,0,1,.24.17"/><path class="cls-1" d="M14.22,7v.34a1,1,0,0,1-.79-.3c-.07-.09-.15-.17-.24-.27.42-.18.66.3,1,.23"/><path class="cls-1" d="M4,8.71l.45-.33,0,.29c0,.24,0,.54-.26.55S4,8.91,4,8.71"/><path class="cls-1" d="M9.6,13.52c-.42-.25-.18-.59-.09-.88s.22-.11.28,0,.16.44.23.66c-.11.14-.27.14-.42.18"/><path class="cls-1" d="M14.4,7.21A7.2,7.2,0,1,1,7.2,0a7.2,7.2,0,0,1,7.2,7.2"/></g></g></svg>