<svg id="Capa_1" data-name="Capa 1" xmlns="http://www.w3.org/2000/svg" viewBox="0 0 1200 1200"><defs><style>.cls-1,.cls-5,.cls-7,.cls-9{fill:none;}.cls-1,.cls-7{stroke:#010000;}.cls-1,.cls-7,.cls-9{stroke-miterlimit:22.93;}.cls-1{stroke-width:10.37px;}.cls-2,.cls-6{fill:#e30613;}.cls-2,.cls-3,.cls-4{fill-rule:evenodd;}.cls-4,.cls-8{fill:#fbffff;}.cls-5,.cls-9{stroke:#e30613;}.cls-5{stroke-linecap:round;stroke-miterlimit:10;stroke-width:12.86px;}.cls-7,.cls-9{stroke-width:20.74px;}</style></defs><polygon class="cls-1" points="208.82 807.61 233.07 820.67 238.46 860.86 153.69 900.1 199.5 971.43 182.5 1074.04 417.62 965.81 422.97 964.71 419.4 938.23 442.31 933.33 614.18 1025.88 769.34 936.33 781.28 939.19 776.9 966.36 782.24 967.18 1017.37 1075 1000.09 974.59 1046.73 901.06 960.1 861.62 966.32 822.64 1010.02 797.42 1009.88 785.75 208.82 807.61"/><path class="cls-1" d="M207.28,269.85l1.56-62.16s390.95-192.42,794.07,9.79l1.61,130.91Z"/><path class="cls-2" d="M217.61,203.57c21.22-10.12,45.21-18.74,67.43-26.18A1012,1012,0,0,1,458.7,136.12c183.76-27.06,367.86-3.79,535.91,77.24l8.5,4.1,7.1,579.95L614.37,1025.87,204.28,805.06,209,207.67Z"/><path class="cls-3" d="M224.16,217.31S598.05,39.06,988,227.07l6.88,561.61L614.11,1008.44,219.58,796Z"/><polygon class="cls-4" points="331.97 266.14 480.92 201.53 283.8 253.93 274.63 752.05 554.29 908.95 338.86 749.61 331.97 266.14"/><polygon class="cls-4" points="889.27 266.14 740.33 201.53 937.45 253.93 946.62 752.05 666.96 908.95 882.39 749.61 889.27 266.14"/><path class="cls-2" d="M610.5,247.83l-3.27,708.11L338.85,749.61,332,266.14S464.42,178,607.23,190.24Z"/><path class="cls-3" d="M607.23,247.83V955.94L883,749.61l7-483.47s-132.91-91.84-282.76-75.9Z"/><polygon points="783.28 959.02 1010.46 1063.39 994.74 971.15 1036.66 905.38 809.49 801.01 783.28 959.02"/><polygon class="cls-5" points="783.28 959.02 1010.46 1063.39 994.74 971.15 1036.66 905.38 809.49 801.01 783.28 959.02"/><polygon class="cls-6" points="936.09 982.4 783.28 959.02 800.44 855.56 936.09 982.4"/><polygon class="cls-5" points="936.09 982.4 783.28 959.02 800.44 855.55 936.09 982.4"/><polygon points="416.99 957.56 189.81 1061.93 205.53 969.69 163.6 903.91 390.78 799.54 416.99 957.56"/><polygon class="cls-5" points="416.99 957.56 189.81 1061.93 205.53 969.69 163.6 903.91 390.79 799.54 416.99 957.56"/><polygon class="cls-6" points="264.18 980.94 416.99 957.56 399.83 854.09 264.18 980.94"/><polygon class="cls-5" points="264.18 980.94 416.99 957.56 399.83 854.09 264.18 980.94"/><path d="M935.47,981C711,886.12,488.12,886.12,263.62,981q-16.23-98.82-32.49-197.64,368.48-156.87,736.83,0Q951.73,882.16,935.47,981Z"/><path class="cls-5" d="M935.47,981C711,886.12,488.12,886.12,263.62,981q-16.23-98.82-32.49-197.64,368.48-156.87,736.83,0Q951.73,882.16,935.47,981Z"/><path class="cls-3" d="M912.17,848.16,966,883.09,941.79,977.7c-.25,1-8.65-8.37-27.92-16.12Z"/><path class="cls-3" d="M286.18,854.79l-55.39,27.44,21.55,100.42c.21,1,7.67-10.55,27.31-16.71Z"/><polygon class="cls-3" points="762.71 361.45 785.95 338.06 986.02 338.06 1069.98 422.33 1069.98 564.04 886.74 564.04 886.74 573.46 1069.98 573.46 1069.98 712.72 985.97 796.72 786.04 796.72 762.62 773.33 629.05 773.33 629.05 796.72 398.99 796.72 398.99 755.54 379.54 787.7 360.09 755.54 360.09 796.72 130.02 796.72 130.02 630.6 152.7 630.6 152.7 504.17 130.02 504.17 130.02 338.06 314.9 338.06 379.54 445.9 444.18 338.06 629.05 338.06 629.05 361.45 762.71 361.45"/><polygon class="cls-7" points="762.71 361.45 785.95 338.06 986.02 338.06 1069.98 422.33 1069.98 564.04 886.74 564.04 886.74 573.46 1069.98 573.46 1069.98 712.72 985.97 796.72 786.04 796.72 762.62 773.33 629.05 773.33 629.05 796.72 398.99 796.72 398.99 755.54 379.54 787.7 360.09 755.54 360.09 796.72 130.02 796.72 130.02 630.6 152.7 630.6 152.7 504.17 130.02 504.17 130.02 338.06 314.9 338.06 379.54 445.9 444.18 338.06 629.05 338.06 629.05 361.45 762.71 361.45"/><polygon class="cls-8" points="379.54 709.58 296.99 573.06 296.99 671.03 319.67 671.03 319.67 756.3 170.45 756.3 170.45 671.03 193.13 671.03 193.13 463.75 170.45 463.75 170.45 378.48 292 378.48 379.54 524.53 467.07 378.48 588.63 378.48 588.63 463.75 565.95 463.75 565.95 671.03 588.63 671.03 588.63 756.3 439.41 756.3 439.41 671.03 462.08 671.03 462.08 573.06 379.54 709.58"/><polygon class="cls-9" points="379.54 709.58 296.99 573.06 296.99 671.03 319.67 671.03 319.67 756.3 170.45 756.3 170.45 671.03 193.13 671.03 193.13 463.75 170.45 463.75 170.45 378.48 292 378.48 379.54 524.53 467.07 378.48 588.63 378.48 588.63 463.75 565.95 463.75 565.95 671.03 588.63 671.03 588.63 756.3 439.41 756.3 439.41 671.03 462.08 671.03 462.08 573.06 379.54 709.58"/><polygon class="cls-8" points="731.85 732.9 601.11 732.9 601.11 658.19 620.97 658.19 620.97 476.58 601.11 476.58 601.11 401.88 731.85 401.88 731.85 476.58 711.98 476.58 711.98 658.19 731.85 658.19 731.85 732.9"/><polygon class="cls-9" points="731.85 732.9 601.11 732.9 601.11 658.19 620.97 658.19 620.97 476.58 601.11 476.58 601.11 401.88 731.85 401.88 731.85 476.58 711.98 476.58 711.98 658.19 731.85 658.19 731.85 732.9"/><polygon class="cls-8" points="1029.55 523.62 925.69 523.62 925.69 475.92 913.89 463.75 858.56 463.75 846.31 476 846.31 659.24 858.56 671.03 913.89 671.03 925.69 659.24 925.69 613.88 1029.55 613.88 1029.55 695.97 969.23 756.3 802.77 756.3 742.45 696.05 742.45 439.18 802.77 378.48 969.23 378.48 1029.55 439.03 1029.55 523.62"/><polygon class="cls-9" points="1029.55 523.62 925.69 523.62 925.69 475.92 913.89 463.75 858.56 463.75 846.31 476 846.31 659.24 858.56 671.03 913.89 671.03 925.69 659.24 925.69 613.88 1029.55 613.88 1029.55 695.97 969.23 756.3 802.77 756.3 742.45 696.05 742.45 439.18 802.77 378.48 969.23 378.48 1029.55 439.03 1029.55 523.62"/><path class="cls-8" d="M767.19,878.61a28.77,28.77,0,0,1-7.67-1.05,25.86,25.86,0,0,1-7.22-3.26,27,27,0,0,1-9.27-10,27.76,27.76,0,0,1-3.32-13.41h18.65A8.11,8.11,0,0,0,759.8,856a10.42,10.42,0,0,0,2.54,2.48,8.43,8.43,0,0,0,4.3,1.44,9.72,9.72,0,0,0,4.53-.89,7.26,7.26,0,0,0,2.48-1.65,9.18,9.18,0,0,0,1.44-1.93,5.32,5.32,0,0,0,.6-1.82,10.89,10.89,0,0,0,.11-1.44,10.65,10.65,0,0,0-.11-1.43,5.76,5.76,0,0,0-.6-1.88,7.35,7.35,0,0,0-1.44-1.93,9.15,9.15,0,0,0-2.48-1.71,24.69,24.69,0,0,0-2.6-1c-.92-.29-1.89-.62-2.92-1q-2.76-.88-5.74-2a31.89,31.89,0,0,1-6-3,23.28,23.28,0,0,1-6.51-6.07,24,24,0,0,1-3.81-7.83,24.43,24.43,0,0,1-.77-8.67,22.85,22.85,0,0,1,2.48-8.55,24.34,24.34,0,0,1,5-6.51,23.61,23.61,0,0,1,6.62-4.36,24,24,0,0,1,7.84-1.93,25.7,25.7,0,0,1,8.49.77,24.61,24.61,0,0,1,7.58,3.14,24,24,0,0,1,5.87,5.19,21.9,21.9,0,0,1,3.79,6.79,23.42,23.42,0,0,1,1.32,7.84H773.26a3.84,3.84,0,0,0-1.59-3.54,11.15,11.15,0,0,0-2.82-1.32,7.74,7.74,0,0,1-1.05-.17,5.32,5.32,0,0,0-1.87,0,6.58,6.58,0,0,0-2.16.78,4.32,4.32,0,0,0-1.76,1.93,4.94,4.94,0,0,0-.33,3.7,5.32,5.32,0,0,0,2.2,3,24.26,24.26,0,0,0,3.43,1.6c1.25.48,2.57.94,4,1.38s2.52.77,3.81,1.22,2.57,1,3.89,1.54A26,26,0,0,1,790.33,838a26.48,26.48,0,0,1,0,28.37A27.45,27.45,0,0,1,773.16,878a29.51,29.51,0,0,1-6,.61M723.37,814.7H690V827h27v18.66H690v12.8h33.33v18.65h-52v-80.9l52-.11Zm-90.52-18.76h19.21l4.74,81.12H638.15l-2-33.11-11.25,33.11H606.25l-11.92-34.43-2.2,34.43H573.36l5.19-81.12h19.21l17.77,50.77Zm-111.7,52.65h13.13l-6.4-19.65Zm22.29,28.47-3.2-9.82H514.75l-3.31,9.82H491.68l27.59-81h17.66l26.16,81ZM478.09,831.7v45.36H459.33v-2a34.44,34.44,0,0,1-6.34,1.6,43,43,0,0,1-6.46.49,41.16,41.16,0,0,1-15.34-3,39.47,39.47,0,0,1-13.47-8.94,39,39,0,0,1-8.88-13.41,41.45,41.45,0,0,1-2.93-15.28,41.88,41.88,0,0,1,2.93-15.34,38.92,38.92,0,0,1,8.88-13.47,39.76,39.76,0,0,1,13.47-8.94,41,41,0,0,1,30.68,0,39.76,39.76,0,0,1,13.47,8.94L462.09,821a20.9,20.9,0,0,0-7.28-4.8,22.1,22.1,0,0,0-16.56,0A20.9,20.9,0,0,0,431,821a21.92,21.92,0,0,0,0,31.12,21.48,21.48,0,0,0,6.45,4.47,22,22,0,0,0,7.4,1.88,23,23,0,0,0,7.56-.72,20.89,20.89,0,0,0,6.95-3.31v-4.09H443.11V831.7Z"/><polygon class="cls-3" points="261.64 270.17 310.45 270.06 310.45 315.52 305.34 315.52 305.34 320.69 310.45 320.69 310.45 366.12 149.41 366.12 149.41 315.25 136.88 315.25 136.88 269.83 207.47 269.83 207.47 270.1 261.64 270.1 261.64 270.17"/><path class="cls-8" d="M295.3,300.37h-27v9.95H290.2v15.13H268.26v10.39h27V351H253.12V285.33l42.18-.09Zm-63.94-15.13H246.5V351H231.36v-24.8h-19V351H197.24V285.24h15.14V311h19Zm-39-.27v15.14H179.69V351H164.56V300.11H152V285Z"/></svg>