<svg id="Capa_1" data-name="Capa 1" xmlns="http://www.w3.org/2000/svg" viewBox="0 0 1200 1200"><defs><style>.cls-1,.cls-10,.cls-7,.cls-9{fill:none;}.cls-1,.cls-9{stroke:#010000;}.cls-1,.cls-10,.cls-9{stroke-miterlimit:22.93;}.cls-1{stroke-width:10.37px;}.cls-2,.cls-8{fill:#fbffff;}.cls-2,.cls-3,.cls-4,.cls-5,.cls-6{fill-rule:evenodd;}.cls-4{fill:#e30613;}.cls-5{fill:#ffec00;}.cls-6{fill:#009fe3;}.cls-10,.cls-7{stroke:#fbffff;}.cls-7{stroke-linecap:round;stroke-miterlimit:10;stroke-width:12.86px;}.cls-10,.cls-9{stroke-width:20.74px;}</style></defs><polygon class="cls-1" points="208.82 809.27 233.07 822.32 238.46 862.51 153.69 901.75 199.51 973.09 182.5 1075.69 417.62 967.46 422.97 966.36 419.41 939.89 442.31 934.98 614.18 1027.53 769.34 937.98 781.29 940.85 776.89 968.01 782.24 968.83 1017.38 1076.65 1000.09 976.24 1046.73 902.71 960.1 863.27 966.32 824.3 1010.02 799.08 1009.88 787.4 208.82 809.27"/><path class="cls-1" d="M207.28,271.5l1.56-62.16s390.95-192.41,794.07,9.79L1004.52,350Z"/><path class="cls-2" d="M217.43,205.2c21.22-10.12,45.21-18.73,67.43-26.18a1013,1013,0,0,1,173.66-41.27C642.28,110.69,826.37,134,994.42,215l8.5,4.1L1010,799,614.19,1027.49,204.1,806.69l4.74-597.39Z"/><path class="cls-3" d="M224,218.94s373.88-178.25,763.82,9.77l6.88,561.6L613.93,1010.06,219.4,797.63Z"/><polygon class="cls-2" points="889.09 267.77 740.14 203.16 937.26 255.57 946.43 753.68 666.77 910.58 882.21 751.24 889.09 267.77"/><path class="cls-4" d="M607,249.46V957.57L882.82,751.24l7-483.47S756.9,175.94,607,191.87Z"/><polygon class="cls-2" points="337.28 267.77 486.22 203.16 289.11 255.57 279.93 753.68 559.59 910.58 344.16 751.24 337.28 267.77"/><path class="cls-5" d="M618.34,249.46V957.57L342.57,751.24l-7-483.47s132.91-91.83,282.76-75.9Z"/><path class="cls-6" d="M490.83,201.76s108.39-43.62,229.7-3.18l4.17,670.14L612.46,960,489.39,866.63Z"/><polygon points="783.15 960.7 1010.33 1065.07 994.61 972.83 1036.53 907.05 809.35 802.69 783.15 960.7"/><polygon class="cls-7" points="783.15 960.7 1010.33 1065.07 994.61 972.83 1036.53 907.05 809.35 802.69 783.15 960.7"/><polygon class="cls-8" points="935.96 984.08 783.15 960.7 800.31 857.23 935.96 984.08"/><polygon class="cls-7" points="935.96 984.08 783.15 960.7 800.31 857.23 935.96 984.08"/><polygon points="416.86 959.24 189.68 1063.6 205.4 971.36 163.48 905.59 390.65 801.23 416.86 959.24"/><polygon class="cls-7" points="416.86 959.24 189.68 1063.6 205.4 971.36 163.48 905.59 390.65 801.22 416.86 959.24"/><polygon class="cls-8" points="264.06 982.62 416.86 959.24 399.7 855.77 264.06 982.62"/><polygon class="cls-7" points="264.06 982.62 416.86 959.24 399.7 855.77 264.06 982.62"/><path d="M935.34,982.66c-224.5-94.87-447.35-94.87-671.85,0Q247.26,883.83,231,785q368.46-156.85,736.82,0Q951.6,883.84,935.34,982.66Z"/><path class="cls-7" d="M935.34,982.65c-224.5-94.86-447.35-94.86-671.85,0Q247.26,883.83,231,785q368.46-156.85,736.82,0Q951.6,883.84,935.34,982.65Z"/><path class="cls-3" d="M912,849.78l53.84,34.93L941.6,979.32c-.24,1-8.64-8.37-27.92-16.12Z"/><path class="cls-3" d="M286,856.41l-55.39,27.44,21.56,100.42c.21,1,7.66-10.55,27.3-16.71Z"/><polygon class="cls-3" points="762.71 363.11 785.96 339.71 986.02 339.71 1069.98 423.99 1069.98 565.7 886.74 565.7 886.74 575.11 1069.98 575.11 1069.98 714.37 985.97 798.37 786.04 798.37 762.62 774.98 629.05 774.98 629.05 798.37 398.98 798.37 398.98 757.19 379.54 789.36 360.09 757.19 360.09 798.37 130.02 798.37 130.02 632.26 152.7 632.26 152.7 505.82 130.02 505.82 130.02 339.71 314.9 339.71 379.54 447.55 444.18 339.71 629.05 339.71 629.05 363.11 762.71 363.11"/><polygon class="cls-9" points="762.71 363.11 785.96 339.71 986.02 339.71 1069.98 423.99 1069.98 565.7 886.74 565.7 886.74 575.11 1069.98 575.11 1069.98 714.37 985.97 798.37 786.04 798.37 762.62 774.98 629.05 774.98 629.05 798.37 398.98 798.37 398.98 757.19 379.54 789.36 360.09 757.19 360.09 798.37 130.02 798.37 130.02 632.26 152.7 632.26 152.7 505.82 130.02 505.82 130.02 339.71 314.9 339.71 379.54 447.55 444.18 339.71 629.05 339.71 629.05 363.11 762.71 363.11"/><polygon points="379.54 711.23 296.99 574.71 296.99 672.68 319.67 672.68 319.67 757.95 170.45 757.95 170.45 672.68 193.13 672.68 193.13 465.4 170.45 465.4 170.45 380.13 292 380.13 379.54 526.18 467.07 380.13 588.63 380.13 588.63 465.4 565.95 465.4 565.95 672.68 588.63 672.68 588.63 757.95 439.41 757.95 439.41 672.68 462.08 672.68 462.08 574.71 379.54 711.23"/><polygon class="cls-10" points="379.54 711.23 296.99 574.71 296.99 672.68 319.67 672.68 319.67 757.95 170.45 757.95 170.45 672.68 193.13 672.68 193.13 465.4 170.45 465.4 170.45 380.13 292 380.13 379.54 526.18 467.07 380.13 588.63 380.13 588.63 465.4 565.95 465.4 565.95 672.68 588.63 672.68 588.63 757.95 439.41 757.95 439.41 672.68 462.08 672.68 462.08 574.71 379.54 711.23"/><polygon points="731.85 734.55 601.11 734.55 601.11 659.84 620.98 659.84 620.98 478.24 601.11 478.24 601.11 403.53 731.85 403.53 731.85 478.24 711.98 478.24 711.98 659.84 731.85 659.84 731.85 734.55"/><polygon class="cls-10" points="731.85 734.55 601.11 734.55 601.11 659.84 620.98 659.84 620.98 478.24 601.11 478.24 601.11 403.53 731.85 403.53 731.85 478.24 711.98 478.24 711.98 659.84 731.85 659.84 731.85 734.55"/><polygon points="1029.55 525.27 925.69 525.27 925.69 477.57 913.89 465.4 858.56 465.4 846.32 477.65 846.32 660.89 858.56 672.68 913.89 672.68 925.69 660.89 925.69 615.53 1029.55 615.53 1029.55 697.63 969.23 757.95 802.77 757.95 742.45 697.7 742.45 440.84 802.77 380.13 969.23 380.13 1029.55 440.69 1029.55 525.27"/><polygon class="cls-10" points="1029.55 525.27 925.69 525.27 925.69 477.57 913.89 465.4 858.56 465.4 846.32 477.65 846.32 660.89 858.56 672.68 913.89 672.68 925.69 660.89 925.69 615.53 1029.55 615.53 1029.55 697.63 969.23 757.95 802.77 757.95 742.45 697.7 742.45 440.84 802.77 380.13 969.23 380.13 1029.55 440.69 1029.55 525.27"/><path class="cls-8" d="M767,880.23a28.77,28.77,0,0,1-7.67-1.05,25.76,25.76,0,0,1-7.23-3.25,27.23,27.23,0,0,1-9.27-10,27.7,27.7,0,0,1-3.31-13.41h18.65a8.13,8.13,0,0,0,1.43,5.13,10.7,10.7,0,0,0,2.55,2.49,8.32,8.32,0,0,0,4.3,1.43,9.82,9.82,0,0,0,4.52-.88,7.43,7.43,0,0,0,2.49-1.66,9,9,0,0,0,1.43-1.93,5.22,5.22,0,0,0,.61-1.82,9.42,9.42,0,0,0,0-2.87,5.79,5.79,0,0,0-.61-1.88,7.7,7.7,0,0,0-1.43-1.93A9.86,9.86,0,0,0,771,846.9a22.49,22.49,0,0,0-2.59-1c-.92-.3-1.89-.63-2.92-1-1.85-.58-3.76-1.25-5.74-2a32.2,32.2,0,0,1-6-3,23.32,23.32,0,0,1-6.52-6.07,24.21,24.21,0,0,1-4.58-16.5,23,23,0,0,1,2.49-8.56,24.31,24.31,0,0,1,5-6.51A23.64,23.64,0,0,1,764.58,796a26,26,0,0,1,8.5.77,24.62,24.62,0,0,1,7.58,3.15,23.59,23.59,0,0,1,5.87,5.19,22.08,22.08,0,0,1,3.79,6.79,23.41,23.41,0,0,1,1.32,7.83H773.08a3.81,3.81,0,0,0-1.6-3.53,11.18,11.18,0,0,0-2.81-1.33,7.11,7.11,0,0,1-1-.16,5.38,5.38,0,0,0-1.88,0,6.65,6.65,0,0,0-2.15.77,4.39,4.39,0,0,0-1.77,1.93,5,5,0,0,0-.33,3.7,5.27,5.27,0,0,0,2.21,3,24.66,24.66,0,0,0,3.42,1.61c1.25.47,2.58.93,4,1.37s2.52.78,3.81,1.22,2.58,1,3.9,1.54a26,26,0,0,1,15.47,24A25.62,25.62,0,0,1,790.15,868,27.54,27.54,0,0,1,773,879.63a30.13,30.13,0,0,1-6,.6Zm-43.83-63.9H689.85v12.25h27v18.65h-27V860h33.33v18.66h-52v-80.9l52-.11Zm-90.51-18.76h19.21l4.74,81.12H638l-2-33.11-11.25,33.11H606.07l-11.92-34.44L592,878.69H573.18l5.19-81.12h19.2l17.77,50.77ZM521,850.21H534.1l-6.4-19.64Zm22.29,28.48-3.2-9.82H514.57l-3.31,9.82H491.5l27.59-81h17.66l26.16,81Zm-65.35-45.36v45.36H459.15v-2a34.34,34.34,0,0,1-6.35,1.6,42.86,42.86,0,0,1-6.45.5,41.13,41.13,0,0,1-15.34-3,39.67,39.67,0,0,1-13.47-8.94,39.16,39.16,0,0,1-8.88-13.41,41.49,41.49,0,0,1,0-30.63,38.88,38.88,0,0,1,8.88-13.46,39.55,39.55,0,0,1,13.47-9,41.1,41.1,0,0,1,30.68,0,39.51,39.51,0,0,1,13.46,9l-13.24,13.24a21.18,21.18,0,0,0-7.28-4.8,22.22,22.22,0,0,0-16.56,0,21.31,21.31,0,0,0-7.29,4.8,21.94,21.94,0,0,0,0,31.12,21.29,21.29,0,0,0,6.46,4.47,21.83,21.83,0,0,0,7.4,1.88,23,23,0,0,0,7.56-.72,20.7,20.7,0,0,0,6.95-3.31V852H442.93V833.33Z"/><polygon class="cls-3" points="261.46 271.8 310.26 271.7 310.26 317.15 305.16 317.15 305.16 322.32 310.26 322.32 310.26 367.75 149.24 367.75 149.24 316.88 136.7 316.88 136.7 271.46 207.29 271.46 207.29 271.73 261.46 271.73 261.46 271.8"/><path class="cls-8" d="M295.12,302h-27V312H290v15.13H268.08v10.39h27V352.6H252.94V287l42.18-.09Zm-63.94-15.14h15.14V352.6H231.18V327.8h-19v24.8H197.07V286.87H212.2v25.79h19Zm-39-.26v15.13H179.51V352.6H164.38V301.74H151.84V286.61Z"/></svg>