<svg id="Capa_1" data-name="Capa 1" xmlns="http://www.w3.org/2000/svg" viewBox="0 0 1200 1200"><defs><style>.cls-1,.cls-5,.cls-7,.cls-9{fill:none;}.cls-1,.cls-7{stroke:#010000;}.cls-1,.cls-7,.cls-9{stroke-miterlimit:22.93;}.cls-1{stroke-width:10.37px;}.cls-2,.cls-6{fill:#009fe3;}.cls-2,.cls-3,.cls-4{fill-rule:evenodd;}.cls-4,.cls-8{fill:#fbffff;}.cls-5,.cls-9{stroke:#009fe3;}.cls-5{stroke-linecap:round;stroke-miterlimit:10;stroke-width:12.86px;}.cls-7,.cls-9{stroke-width:20.74px;}</style></defs><polygon class="cls-1" points="208.83 807.61 233.07 820.67 238.47 860.86 153.69 900.1 199.51 971.43 182.5 1074.04 417.62 965.81 422.97 964.71 419.41 938.24 442.31 933.33 614.18 1025.88 769.34 936.33 781.29 939.19 776.9 966.36 782.25 967.18 1017.38 1075 1000.09 974.58 1046.73 901.05 960.11 861.62 966.32 822.64 1010.02 797.42 1009.88 785.75 208.83 807.61"/><path class="cls-1" d="M207.29,269.85l1.55-62.16s390.95-192.42,794.08,9.79l1.6,130.91Z"/><path class="cls-2" d="M217.51,203.58c21.22-10.11,45.21-18.73,67.43-26.18A1013,1013,0,0,1,458.6,136.13c183.76-27.06,367.85-3.78,535.9,77.25l8.5,4.09,7.1,579.95L614.26,1025.87,204.18,805.07l4.74-597.39Z"/><path class="cls-3" d="M224.06,217.32S598,39.07,987.89,227.09l6.88,561.6L614,1008.45,219.47,796Z"/><polygon class="cls-4" points="331.87 266.16 480.82 201.54 283.7 253.95 274.53 752.06 554.18 908.96 338.75 749.62 331.87 266.16"/><polygon class="cls-4" points="889.17 266.16 740.22 201.54 937.34 253.95 946.51 752.06 666.86 908.96 882.29 749.62 889.17 266.16"/><path class="cls-2" d="M610.39,247.84,607.12,956,338.75,749.62l-6.88-483.46S464.32,178,607.12,190.25Z"/><path class="cls-3" d="M607.12,247.84V956L882.89,749.62l7-483.46S757,174.32,607.12,190.25Z"/><polygon points="783.33 959.03 1010.51 1063.4 994.79 971.15 1036.71 905.38 809.54 801.02 783.33 959.03"/><polygon class="cls-5" points="783.33 959.03 1010.51 1063.4 994.79 971.15 1036.72 905.38 809.54 801.02 783.33 959.03"/><polygon class="cls-6" points="936.14 982.41 783.33 959.03 800.49 855.56 936.14 982.41"/><polygon class="cls-5" points="936.14 982.41 783.33 959.03 800.49 855.56 936.14 982.41"/><polygon points="417.04 957.57 189.85 1061.93 205.57 969.69 163.65 903.92 390.83 799.55 417.04 957.57"/><polygon class="cls-5" points="417.04 957.57 189.85 1061.93 205.57 969.69 163.65 903.92 390.83 799.55 417.04 957.57"/><polygon class="cls-6" points="264.23 980.95 417.04 957.57 399.88 854.1 264.23 980.95"/><polygon class="cls-5" points="264.23 980.95 417.04 957.57 399.88 854.1 264.23 980.95"/><path d="M935.53,981c-224.5-94.86-447.36-94.86-671.86,0q-16.23-98.82-32.49-197.64,368.48-156.86,736.83,0Q951.78,882.18,935.53,981Z"/><path class="cls-5" d="M935.53,981c-224.5-94.86-447.36-94.86-671.86,0q-16.23-98.82-32.49-197.64,368.48-156.86,736.83,0Q951.78,882.18,935.53,981Z"/><path class="cls-3" d="M912.06,848.17l53.85,34.92L941.68,977.7c-.25,1-8.64-8.36-27.92-16.12Z"/><path class="cls-3" d="M286.07,854.8l-55.38,27.44,21.55,100.41c.21,1,7.67-10.55,27.31-16.71Z"/><polygon class="cls-3" points="762.71 361.46 785.96 338.07 986.01 338.07 1069.97 422.34 1069.97 564.05 886.74 564.05 886.74 573.46 1069.97 573.46 1069.97 712.72 985.97 796.72 786.05 796.72 762.63 773.33 629.05 773.33 629.05 796.72 398.98 796.72 398.98 755.54 379.54 787.7 360.09 755.54 360.09 796.72 130.03 796.72 130.03 630.6 152.71 630.6 152.71 504.18 130.03 504.18 130.03 338.07 314.9 338.07 379.54 445.9 444.17 338.07 629.05 338.07 629.05 361.46 762.71 361.46"/><polygon class="cls-7" points="762.71 361.46 785.96 338.07 986.01 338.07 1069.97 422.34 1069.97 564.05 886.74 564.05 886.74 573.46 1069.97 573.46 1069.97 712.72 985.97 796.72 786.05 796.72 762.63 773.33 629.05 773.33 629.05 796.72 398.98 796.72 398.98 755.54 379.54 787.7 360.09 755.54 360.09 796.72 130.03 796.72 130.03 630.6 152.71 630.6 152.71 504.18 130.03 504.18 130.03 338.07 314.9 338.07 379.54 445.9 444.17 338.07 629.05 338.07 629.05 361.46 762.71 361.46"/><polygon class="cls-8" points="379.54 709.58 296.99 573.06 296.99 671.03 319.67 671.03 319.67 756.3 170.45 756.3 170.45 671.03 193.13 671.03 193.13 463.75 170.45 463.75 170.45 378.49 292 378.49 379.54 524.53 467.07 378.49 588.62 378.49 588.62 463.75 565.95 463.75 565.95 671.03 588.62 671.03 588.62 756.3 439.4 756.3 439.4 671.03 462.08 671.03 462.08 573.06 379.54 709.58"/><polygon class="cls-9" points="379.54 709.58 296.99 573.06 296.99 671.03 319.67 671.03 319.67 756.3 170.45 756.3 170.45 671.03 193.13 671.03 193.13 463.75 170.45 463.75 170.45 378.49 292 378.49 379.54 524.53 467.07 378.49 588.62 378.49 588.62 463.75 565.95 463.75 565.95 671.03 588.62 671.03 588.62 756.3 439.4 756.3 439.4 671.03 462.08 671.03 462.08 573.06 379.54 709.58"/><polygon class="cls-8" points="731.85 732.9 601.11 732.9 601.11 658.19 620.98 658.19 620.98 476.59 601.11 476.59 601.11 401.88 731.85 401.88 731.85 476.59 711.98 476.59 711.98 658.19 731.85 658.19 731.85 732.9"/><polygon class="cls-9" points="731.85 732.9 601.11 732.9 601.11 658.19 620.98 658.19 620.98 476.59 601.11 476.59 601.11 401.88 731.85 401.88 731.85 476.59 711.98 476.59 711.98 658.19 731.85 658.19 731.85 732.9"/><polygon class="cls-8" points="1029.55 523.62 925.69 523.62 925.69 475.93 913.89 463.75 858.56 463.75 846.32 476 846.32 659.24 858.56 671.03 913.89 671.03 925.69 659.24 925.69 613.88 1029.55 613.88 1029.55 695.97 969.23 756.3 802.77 756.3 742.45 696.05 742.45 439.19 802.77 378.49 969.23 378.49 1029.55 439.04 1029.55 523.62"/><polygon class="cls-9" points="1029.55 523.62 925.69 523.62 925.69 475.93 913.89 463.75 858.56 463.75 846.32 476 846.32 659.24 858.56 671.03 913.89 671.03 925.69 659.24 925.69 613.88 1029.55 613.88 1029.55 695.97 969.23 756.3 802.77 756.3 742.45 696.05 742.45 439.19 802.77 378.49 969.23 378.49 1029.55 439.04 1029.55 523.62"/><polygon class="cls-3" points="261.54 270.18 310.34 270.08 310.34 315.53 305.24 315.53 305.24 320.7 310.34 320.7 310.34 366.13 149.31 366.13 149.31 315.26 136.78 315.26 136.78 269.84 207.36 269.84 207.36 270.11 261.54 270.11 261.54 270.18"/><path class="cls-8" d="M295.19,300.39h-27v9.94h21.94v15.13H268.15v10.39h27V351H253V285.34l42.17-.08Zm-63.93-15.13h15.13V351H231.26v-24.8h-19V351H197.14V285.26h15.13V311h19Zm-39-.27v15.13H179.59V351H164.46V300.12H151.92V285Z"/><path class="cls-8" d="M767.08,878.61a28.75,28.75,0,0,1-7.67-1,26,26,0,0,1-7.22-3.26,27.1,27.1,0,0,1-9.28-10,27.81,27.81,0,0,1-3.31-13.41h18.66a8.12,8.12,0,0,0,1.43,5.14,10.42,10.42,0,0,0,2.54,2.48,8.32,8.32,0,0,0,4.3,1.43,9.71,9.71,0,0,0,4.53-.88,7.14,7.14,0,0,0,2.48-1.66,9,9,0,0,0,1.43-1.93,5,5,0,0,0,.61-1.82,10.76,10.76,0,0,0,.11-1.43,10.89,10.89,0,0,0-.11-1.44,5.51,5.51,0,0,0-.61-1.87,7.56,7.56,0,0,0-1.43-1.94,9.61,9.61,0,0,0-2.48-1.71,27.1,27.1,0,0,0-2.6-1c-.92-.29-1.89-.62-2.92-1-1.84-.59-3.76-1.25-5.74-2a31.89,31.89,0,0,1-6-3,23.15,23.15,0,0,1-6.51-6.07,24.06,24.06,0,0,1-3.81-7.84,24.36,24.36,0,0,1-.77-8.66,22.85,22.85,0,0,1,2.48-8.55,24.14,24.14,0,0,1,5-6.51,23.61,23.61,0,0,1,6.62-4.36,24,24,0,0,1,7.84-1.93,25.7,25.7,0,0,1,8.49.77,24.61,24.61,0,0,1,7.58,3.14,24,24,0,0,1,5.87,5.19,22,22,0,0,1,3.79,6.79,23.41,23.41,0,0,1,1.32,7.83H773.15a3.82,3.82,0,0,0-1.6-3.53,11,11,0,0,0-2.81-1.32,7.74,7.74,0,0,1-1-.17,5.38,5.38,0,0,0-1.88,0,6.53,6.53,0,0,0-2.15.78,4.27,4.27,0,0,0-1.76,1.93,5,5,0,0,0-.34,3.69,5.32,5.32,0,0,0,2.21,3,24.26,24.26,0,0,0,3.43,1.6c1.25.48,2.57.94,4,1.38s2.52.77,3.8,1.21,2.58,1,3.9,1.55a26,26,0,0,1,15.47,24,25.5,25.5,0,0,1-4.12,14.12,26.06,26.06,0,0,1-11.35,9.72A26.41,26.41,0,0,1,773,878a30.05,30.05,0,0,1-6,.6m-43.82-63.9H689.93V827h27v18.65h-27v12.81h33.33v18.65h-52v-80.9l52-.11ZM632.75,796H652l4.75,81.12H638l-2-33.11L624.8,877.07H606.15l-11.92-34.44L592,877.07H573.26L578.45,796h19.2l17.77,50.77ZM521.05,848.6h13.13L527.78,829Zm22.29,28.47-3.2-9.82h-25.5l-3.31,9.82H491.58l27.59-81h17.66l26.15,81ZM478,831.71v45.36H459.23v-2a33.76,33.76,0,0,1-6.35,1.6,42.86,42.86,0,0,1-6.45.5,41.13,41.13,0,0,1-15.34-3,39.57,39.57,0,0,1-13.47-8.94,39,39,0,0,1-8.88-13.41,41.5,41.5,0,0,1-2.93-15.29,42,42,0,0,1,2.93-15.34,38.88,38.88,0,0,1,8.88-13.46,39.57,39.57,0,0,1,13.47-8.94,41,41,0,0,1,30.68,0,39.63,39.63,0,0,1,13.46,8.94L462,821a21.22,21.22,0,0,0-7.29-4.8,22.2,22.2,0,0,0-16.55,0,21.31,21.31,0,0,0-7.29,4.8,22,22,0,0,0,0,31.13,21.65,21.65,0,0,0,6.46,4.47,22,22,0,0,0,7.4,1.87,22.71,22.71,0,0,0,7.55-.71,21.14,21.14,0,0,0,7-3.31v-4.09H443V831.71Z"/></svg>