<svg id="Capa_1" data-name="Capa 1" xmlns="http://www.w3.org/2000/svg" viewBox="0 0 1200 1200"><defs><style>.cls-1,.cls-5,.cls-7,.cls-9{fill:none;}.cls-1,.cls-7{stroke:#010000;}.cls-1,.cls-7,.cls-8,.cls-9{stroke-miterlimit:22.93;}.cls-1{stroke-width:10.37px;}.cls-2{fill:#ffec00;}.cls-2,.cls-3,.cls-4{fill-rule:evenodd;}.cls-10,.cls-4,.cls-8{fill:#fbffff;}.cls-5,.cls-8,.cls-9{stroke:#ffec00;}.cls-5{stroke-linecap:round;stroke-miterlimit:10;stroke-width:12.86px;}.cls-6{fill:#f8e80e;}.cls-7,.cls-9{stroke-width:20.74px;}</style></defs><polygon class="cls-1" points="208.82 807.61 233.07 820.67 238.46 860.86 153.69 900.1 199.51 971.43 182.5 1074.04 417.62 965.81 422.97 964.71 419.41 938.23 442.31 933.33 614.18 1025.88 769.34 936.33 781.29 939.19 776.9 966.35 782.25 967.18 1017.38 1075 1000.09 974.59 1046.73 901.05 960.11 861.62 966.32 822.64 1010.02 797.42 1009.88 785.75 208.82 807.61"/><path class="cls-1" d="M207.28,269.85l1.56-62.16s390.95-192.41,794.07,9.79l1.61,130.91Z"/><path class="cls-2" d="M217.6,203.56c21.22-10.11,45.21-18.72,67.43-26.17a1012,1012,0,0,1,173.66-41.27c183.76-27.07,367.86-3.79,535.91,77.24l8.49,4.1,7.11,579.95L614.35,1025.87,204.27,805.06,209,207.66Z"/><path class="cls-3" d="M224.15,217.31S598,39.06,988,227.07l6.88,561.61L614.1,1008.44,219.56,796Z"/><polygon class="cls-4" points="331.96 266.14 480.91 201.53 283.79 253.93 274.62 752.05 554.28 908.95 338.84 749.61 331.96 266.14"/><polygon class="cls-4" points="889.27 266.14 740.32 201.53 937.43 253.93 946.61 752.05 666.95 908.95 882.38 749.61 889.27 266.14"/><path class="cls-2" d="M610.48,247.83l-3.26,708.11L338.84,749.61,332,266.14S464.41,178,607.22,190.24Z"/><path class="cls-3" d="M607.22,247.83V955.94L883,749.61l7-483.47s-132.91-91.84-282.76-75.9Z"/><polygon points="783.25 959.02 1010.43 1063.39 994.72 971.15 1036.64 905.38 809.46 801.01 783.25 959.02"/><polygon class="cls-5" points="783.25 959.02 1010.43 1063.39 994.72 971.15 1036.64 905.38 809.46 801.01 783.25 959.02"/><polygon class="cls-6" points="936.06 982.4 783.25 959.02 800.41 855.55 936.06 982.4"/><polygon class="cls-5" points="936.06 982.4 783.25 959.02 800.41 855.55 936.06 982.4"/><polygon points="416.97 957.56 189.78 1061.93 205.5 969.69 163.58 903.91 390.76 799.54 416.97 957.56"/><polygon class="cls-5" points="416.97 957.56 189.78 1061.93 205.5 969.69 163.58 903.91 390.76 799.54 416.97 957.56"/><polygon class="cls-6" points="264.16 980.94 416.97 957.56 399.8 854.09 264.16 980.94"/><polygon class="cls-5" points="264.16 980.94 416.97 957.56 399.81 854.09 264.16 980.94"/><path d="M935.45,981c-224.5-94.87-447.36-94.87-671.86,0q-16.23-98.84-32.48-197.64,368.46-156.87,736.82,0Q951.7,882.16,935.45,981Z"/><path class="cls-5" d="M935.45,981c-224.5-94.87-447.36-94.87-671.86,0q-16.23-98.84-32.48-197.64,368.46-156.87,736.82,0Q951.7,882.16,935.45,981Z"/><path class="cls-3" d="M912.16,848.16,966,883.09,941.78,977.7c-.25,1-8.65-8.37-27.92-16.12Z"/><path class="cls-3" d="M286.16,854.79l-55.38,27.44,21.55,100.42c.21,1,7.66-10.55,27.31-16.72Z"/><polygon class="cls-3" points="762.71 361.45 785.96 338.06 986.02 338.06 1069.97 422.33 1069.97 564.04 886.74 564.04 886.74 573.45 1069.97 573.45 1069.97 712.72 985.97 796.72 786.04 796.72 762.62 773.32 629.05 773.32 629.05 796.72 398.99 796.72 398.99 755.54 379.54 787.7 360.09 755.54 360.09 796.72 130.03 796.72 130.03 630.61 152.71 630.61 152.71 504.17 130.03 504.17 130.03 338.06 314.9 338.06 379.54 445.9 444.18 338.06 629.05 338.06 629.05 361.45 762.71 361.45"/><polygon class="cls-7" points="762.71 361.45 785.96 338.06 986.02 338.06 1069.97 422.33 1069.97 564.04 886.74 564.04 886.74 573.45 1069.97 573.45 1069.97 712.72 985.97 796.72 786.04 796.72 762.62 773.32 629.05 773.32 629.05 796.72 398.99 796.72 398.99 755.54 379.54 787.7 360.09 755.54 360.09 796.72 130.03 796.72 130.03 630.61 152.71 630.61 152.71 504.17 130.03 504.17 130.03 338.06 314.9 338.06 379.54 445.9 444.18 338.06 629.05 338.06 629.05 361.45 762.71 361.45"/><polygon class="cls-8" points="379.54 709.58 296.99 573.06 296.99 671.02 319.67 671.02 319.67 756.29 170.45 756.29 170.45 671.02 193.13 671.02 193.13 463.75 170.45 463.75 170.45 378.48 292 378.48 379.54 524.53 467.08 378.48 588.63 378.48 588.63 463.75 565.95 463.75 565.95 671.02 588.63 671.02 588.63 756.29 439.41 756.29 439.41 671.02 462.09 671.02 462.09 573.06 379.54 709.58"/><polygon class="cls-9" points="379.54 709.58 296.99 573.06 296.99 671.02 319.67 671.02 319.67 756.29 170.45 756.29 170.45 671.02 193.13 671.02 193.13 463.75 170.45 463.75 170.45 378.48 292 378.48 379.54 524.53 467.08 378.48 588.63 378.48 588.63 463.75 565.95 463.75 565.95 671.02 588.63 671.02 588.63 756.29 439.41 756.29 439.41 671.02 462.09 671.02 462.09 573.06 379.54 709.58"/><polygon class="cls-8" points="731.85 732.9 601.11 732.9 601.11 658.19 620.98 658.19 620.98 476.58 601.11 476.58 601.11 401.88 731.85 401.88 731.85 476.58 711.98 476.58 711.98 658.19 731.85 658.19 731.85 732.9"/><polygon class="cls-9" points="731.85 732.9 601.11 732.9 601.11 658.19 620.98 658.19 620.98 476.58 601.11 476.58 601.11 401.88 731.85 401.88 731.85 476.58 711.98 476.58 711.98 658.19 731.85 658.19 731.85 732.9"/><polygon class="cls-8" points="1029.55 523.62 925.69 523.62 925.69 475.92 913.89 463.75 858.56 463.75 846.32 476 846.32 659.23 858.56 671.02 913.89 671.02 925.69 659.23 925.69 613.88 1029.55 613.88 1029.55 695.97 969.23 756.29 802.77 756.29 742.45 696.05 742.45 439.18 802.77 378.48 969.23 378.48 1029.55 439.03 1029.55 523.62"/><polygon class="cls-9" points="1029.55 523.62 925.69 523.62 925.69 475.92 913.89 463.75 858.56 463.75 846.32 476 846.32 659.23 858.56 671.02 913.89 671.02 925.69 659.23 925.69 613.88 1029.55 613.88 1029.55 695.97 969.23 756.29 802.77 756.29 742.45 696.05 742.45 439.18 802.77 378.48 969.23 378.48 1029.55 439.03 1029.55 523.62"/><polygon class="cls-3" points="261.63 270.17 310.43 270.06 310.43 315.52 305.33 315.52 305.33 320.69 310.43 320.69 310.43 366.12 149.4 366.12 149.4 315.25 136.86 315.25 136.86 269.83 207.45 269.83 207.45 270.1 261.63 270.1 261.63 270.17"/><path class="cls-10" d="M295.29,300.37H268.24v9.94h21.94v15.14H268.24v10.39h27.05V351H253.11V285.33l42.18-.09Zm-63.94-15.13h15.13V351H231.35v-24.8h-19V351H197.23V285.24h15.14V311h19Zm-39-.27v15.14H179.68V351H164.55V300.11H152V285Z"/><path class="cls-10" d="M767.19,878.61a28.78,28.78,0,0,1-7.68-1.05,26.15,26.15,0,0,1-7.22-3.26,27,27,0,0,1-9.28-10,27.81,27.81,0,0,1-3.31-13.41h18.66a8.12,8.12,0,0,0,1.43,5.14,10.42,10.42,0,0,0,2.54,2.48,8.32,8.32,0,0,0,4.3,1.43,9.71,9.71,0,0,0,4.53-.88,7.26,7.26,0,0,0,2.48-1.65,9.18,9.18,0,0,0,1.44-1.93,5.3,5.3,0,0,0,.6-1.83,10.76,10.76,0,0,0,.11-1.43,10.89,10.89,0,0,0-.11-1.44,5.78,5.78,0,0,0-.6-1.87,7.19,7.19,0,0,0-1.44-1.93,9.15,9.15,0,0,0-2.48-1.71,25.37,25.37,0,0,0-2.59-1c-.92-.29-1.9-.62-2.93-1q-2.76-.88-5.74-2a31.89,31.89,0,0,1-6-3,23.42,23.42,0,0,1-6.51-6.07,24,24,0,0,1-4.58-16.5,22.85,22.85,0,0,1,2.48-8.55,24.34,24.34,0,0,1,5-6.51,23.61,23.61,0,0,1,6.62-4.36,24,24,0,0,1,7.84-1.93,25.5,25.5,0,0,1,8.5.77,24.65,24.65,0,0,1,7.57,3.14,23.64,23.64,0,0,1,5.87,5.19,21.9,21.9,0,0,1,3.79,6.79,23.42,23.42,0,0,1,1.33,7.83H773.26a3.82,3.82,0,0,0-1.61-3.53,11,11,0,0,0-2.81-1.32,7.74,7.74,0,0,1-1.05-.17,5.32,5.32,0,0,0-1.87,0,6.58,6.58,0,0,0-2.16.78,4.27,4.27,0,0,0-1.76,1.93,4.92,4.92,0,0,0-.33,3.69,5.28,5.28,0,0,0,2.21,3,23.61,23.61,0,0,0,3.42,1.6c1.25.48,2.57.94,4,1.38s2.52.77,3.81,1.21,2.57,1,3.9,1.55A26.09,26.09,0,0,1,790.33,838a26.48,26.48,0,0,1,0,28.37A26.16,26.16,0,0,1,779,876.07a26.66,26.66,0,0,1-5.84,1.93,29.31,29.31,0,0,1-5.95.61M723.36,814.7H690V827h27v18.66H690v12.8h33.33v18.65h-52v-80.9l52-.11Zm-90.52-18.76h19.21l4.75,81.12H638.14l-2-33.11L624.9,877.06H606.25l-11.92-34.43-2.21,34.43H573.35l5.19-81.12h19.21l17.77,50.77Zm-111.7,52.65h13.13l-6.4-19.65Zm22.29,28.47-3.2-9.82H514.74l-3.31,9.82H491.67l27.59-81h17.66l26.16,81ZM478.09,831.7v45.36H459.32v-2a35.26,35.26,0,0,1-6.34,1.6,43.07,43.07,0,0,1-6.46.49,41.13,41.13,0,0,1-15.34-3,39.47,39.47,0,0,1-13.47-8.94,39,39,0,0,1-8.88-13.41,41.45,41.45,0,0,1-2.93-15.28,41.88,41.88,0,0,1,2.93-15.34,38.83,38.83,0,0,1,8.88-13.47,39.76,39.76,0,0,1,13.47-8.94,41,41,0,0,1,30.68,0,39.63,39.63,0,0,1,13.46,8.94L462.08,821a21.18,21.18,0,0,0-7.28-4.8,22.22,22.22,0,0,0-16.56,0A21.18,21.18,0,0,0,431,821a21.92,21.92,0,0,0,0,31.13,21.48,21.48,0,0,0,6.45,4.47,21.75,21.75,0,0,0,7.4,1.87,22.77,22.77,0,0,0,7.56-.71,21.09,21.09,0,0,0,6.95-3.31v-4.09H443.1V831.7Z"/></svg>