<svg xmlns="http://www.w3.org/2000/svg" viewBox="0 0 157.29 153.36"><defs><style>.cls-1{fill:#fff;}</style></defs><g id="Capa_2" data-name="Capa 2"><g id="Layer_1" data-name="Layer 1"><path class="cls-1" d="M24.18,66.61V109.1a2.74,2.74,0,0,1-3.07,2.74,24.19,24.19,0,0,1,0-48A2.75,2.75,0,0,1,24.18,66.61Z"/><path class="cls-1" d="M31.51,114.32h0a3.82,3.82,0,0,1-3.81-3.81V65.2a3.82,3.82,0,0,1,3.81-3.81h0a3.82,3.82,0,0,1,3.81,3.81v45.31A3.82,3.82,0,0,1,31.51,114.32Z"/><path class="cls-1" d="M141,62.34c0,1.59-.06,3.16-.17,4.73h-6c.14-1.56.21-3.14.21-4.73a56.51,56.51,0,0,0-1.83-14.28h-5.29a51.32,51.32,0,0,0-98.57,0H24.07a56.51,56.51,0,0,0-1.82,14.28c0,1.59.06,3.17.2,4.73h-6c-.11-1.57-.17-3.14-.17-4.73a62.34,62.34,0,1,1,124.67,0Z"/><path class="cls-1" d="M133.11,66.61V109.1a2.74,2.74,0,0,0,3.07,2.74,24.19,24.19,0,0,0,0-48A2.75,2.75,0,0,0,133.11,66.61Z"/><path class="cls-1" d="M125.78,114.32h0a3.82,3.82,0,0,0,3.81-3.81V65.2a3.82,3.82,0,0,0-3.81-3.81h0A3.81,3.81,0,0,0,122,65.2v45.31A3.81,3.81,0,0,0,125.78,114.32Z"/><path class="cls-1" d="M86.86,59.7H70.43a1.75,1.75,0,0,1,0-3.5H86.86a1.75,1.75,0,0,1,0,3.5Z"/><path class="cls-1" d="M83.1,52.47H74.2a1.75,1.75,0,0,1,0-3.5h8.9a1.75,1.75,0,0,1,0,3.5Z"/><path class="cls-1" d="M91.33,66.93H66a1.75,1.75,0,1,1,0-3.5H91.33a1.75,1.75,0,0,1,0,3.5Z"/><path class="cls-1" d="M91.33,74.37H66a1.75,1.75,0,1,1,0-3.5H91.33a1.75,1.75,0,0,1,0,3.5Z"/><path class="cls-1" d="M48.94,84.94h-4a2.19,2.19,0,0,1-2.19-2.18h0a2.19,2.19,0,0,1,2.19-2.19h4a2.19,2.19,0,0,1,2.18,2.19h0A2.19,2.19,0,0,1,48.94,84.94Z"/><path class="cls-1" d="M112.09,84.94h-4a2.19,2.19,0,0,1-2.18-2.18h0A2.19,2.19,0,0,1,108,80.57h4a2.19,2.19,0,0,1,2.19,2.19h0A2.19,2.19,0,0,1,112.09,84.94Z"/><path class="cls-1" d="M78.65,43.36A20,20,0,0,1,98.57,63.29V98a19.93,19.93,0,1,1-39.85,0V63.29A20,20,0,0,1,78.65,43.36m0-3.5h0A23.43,23.43,0,0,0,55.22,63.29V98a23.43,23.43,0,0,0,23.43,23.43h0A23.43,23.43,0,0,0,102.07,98V63.29A23.43,23.43,0,0,0,78.65,39.86Z"/><path class="cls-1" d="M78.65,39.86A23.43,23.43,0,0,0,55.22,63.29V98a23.43,23.43,0,0,0,46.85,0V63.29A23.43,23.43,0,0,0,78.65,39.86ZM98.58,98a19.93,19.93,0,1,1-39.86,0V63.29a19.93,19.93,0,1,1,39.86,0Z"/><path class="cls-1" d="M107.72,80.64V97.46a29.07,29.07,0,1,1-58.14,0V80.64h-4.9V97.46a34,34,0,0,0,67.93,0V80.64Z"/><path class="cls-1" d="M102.07,80.6V98a23.43,23.43,0,0,1-46.85,0V80.6Z"/><rect class="cls-1" x="74.2" y="131.13" width="8.9" height="13.15"/><path class="cls-1" d="M65.08,150.07h0a3.3,3.3,0,0,1,3.29-3.29H88.92a3.29,3.29,0,0,1,3.29,3.29h0a3.29,3.29,0,0,1-3.29,3.29H68.37A3.29,3.29,0,0,1,65.08,150.07Z"/></g></g></svg>