<svg xmlns="http://www.w3.org/2000/svg" viewBox="0 0 498.84 202.96"><defs><style>.cls-1{fill:none;stroke:#009ee2;stroke-miterlimit:10;}.cls-2{fill:#009ee2;}.cls-3{fill:#ffeb00;}</style></defs><g id="Capa_2" data-name="Capa 2"><g id="Layer_1" data-name="Layer 1"><circle class="cls-1" cx="425.19" cy="129.31" r="73.15" transform="translate(228.91 528.04) rotate(-80.71)"/><rect class="cls-2" y="126.59" width="5.81" height="5.81"/><rect class="cls-2" y="161.72" width="5.81" height="5.81"/><rect class="cls-2" y="196.85" width="5.81" height="5.81"/><rect class="cls-2" x="31.81" y="126.59" width="5.81" height="5.81"/><rect class="cls-2" x="31.81" y="161.72" width="5.81" height="5.81"/><rect class="cls-2" x="31.81" y="196.85" width="5.81" height="5.81"/><rect class="cls-2" x="63.62" y="126.59" width="5.81" height="5.81"/><rect class="cls-2" x="63.62" y="161.72" width="5.81" height="5.81"/><rect class="cls-2" x="63.62" y="196.85" width="5.81" height="5.81"/><rect class="cls-2" x="95.43" y="126.59" width="5.81" height="5.81"/><rect class="cls-2" x="95.43" y="161.72" width="5.81" height="5.81"/><rect class="cls-2" x="95.43" y="196.85" width="5.81" height="5.81"/><rect class="cls-2" x="127.24" y="126.59" width="5.81" height="5.81"/><rect class="cls-2" x="127.24" y="161.72" width="5.81" height="5.81"/><rect class="cls-2" x="127.24" y="196.85" width="5.81" height="5.81"/><rect class="cls-2" x="159.05" y="126.59" width="5.81" height="5.81"/><rect class="cls-2" x="159.05" y="161.72" width="5.81" height="5.81"/><rect class="cls-2" x="159.05" y="196.85" width="5.81" height="5.81"/><rect class="cls-2" x="190.85" y="126.59" width="5.81" height="5.81"/><rect class="cls-2" x="190.85" y="161.72" width="5.81" height="5.81"/><rect class="cls-2" x="190.85" y="196.85" width="5.81" height="5.81"/><rect class="cls-2" x="222.66" y="126.59" width="5.81" height="5.81"/><rect class="cls-2" x="222.66" y="161.72" width="5.81" height="5.81"/><rect class="cls-2" x="222.66" y="196.85" width="5.81" height="5.81"/><rect class="cls-2" x="254.47" y="126.59" width="5.81" height="5.81"/><rect class="cls-2" x="254.47" y="161.72" width="5.81" height="5.81"/><rect class="cls-2" x="254.47" y="196.85" width="5.81" height="5.81"/><rect class="cls-2" x="286.28" y="126.59" width="5.81" height="5.81"/><rect class="cls-2" x="286.28" y="161.72" width="5.81" height="5.81"/><rect class="cls-2" x="286.28" y="196.85" width="5.81" height="5.81"/><rect class="cls-2" x="318.09" y="126.59" width="5.81" height="5.81"/><rect class="cls-2" x="318.09" y="161.72" width="5.81" height="5.81"/><rect class="cls-2" x="318.09" y="196.85" width="5.81" height="5.81"/><circle class="cls-3" cx="369.03" cy="73.15" r="73.15" transform="translate(213.94 415.91) rotate(-76.87)"/></g></g></svg>