<svg xmlns="http://www.w3.org/2000/svg" xmlns:xlink="http://www.w3.org/1999/xlink" viewBox="0 0 1021.34 527.24"><defs><style>.cls-1,.cls-3{fill:none;}.cls-2{clip-path:url(#clip-path);}.cls-3{stroke:#009ee2;stroke-miterlimit:10;}.cls-4{fill:#ffeb00;}</style><clipPath id="clip-path" transform="translate(-116.47 -70.05)"><rect class="cls-1" width="1263.1" height="355.45" transform="translate(1263.1 355.45) rotate(-180)"/></clipPath></defs><g id="Capa_2" data-name="Capa 2"><g id="Layer_1" data-name="Layer 1"><g class="cls-2"><path class="cls-3" d="M116.47,596.79H874.19c145.32,0,263.12-117.8,263.12-263.12h0c0-145.32-117.8-263.12-263.12-263.12H116.47" transform="translate(-116.47 -70.05)"/><path class="cls-3" d="M116.47,558.43H874.19c123.93,0,224.75-100.83,224.75-224.76S998.12,108.91,874.19,108.91H116.47" transform="translate(-116.47 -70.05)"/><path class="cls-3" d="M116.47,520.06H874.19c102.77,0,186.39-83.61,186.39-186.39S977,147.28,874.19,147.28H116.47" transform="translate(-116.47 -70.05)"/><path class="cls-3" d="M116.47,481.69H874.19c81.62,0,148-66.4,148-148s-66.4-148-148-148H116.47" transform="translate(-116.47 -70.05)"/><path class="cls-3" d="M116.47,443.33H874.19a109.66,109.66,0,0,0,0-219.32H116.47" transform="translate(-116.47 -70.05)"/></g><path class="cls-4" d="M1019.64,156.4A23.43,23.43,0,1,1,996.21,133,23.43,23.43,0,0,1,1019.64,156.4Z" transform="translate(-116.47 -70.05)"/></g></g></svg>