<svg xmlns="http://www.w3.org/2000/svg" viewBox="0 0 384.73 72.11"><defs><style>.cls-1{fill:#e20613;fill-rule:evenodd;}</style></defs><g id="Capa_2" data-name="Capa 2"><g id="Layer_1" data-name="Layer 1"><path d="M41.31,68.26h-10L25.78,29.72H25.6L20,68.26H10L0,3.57H10.07l5.64,42.88h.19L21.44,3.57h8.69l5.54,42.88h.19L41.49,3.57h9.8Z"/><path d="M79.29,23.75H65.1V38.39H76.56v7.24H65.1V61H79.29v7.25h-22V16.51h22Z"/><path d="M134.33,68.26h-10l-2.13-14.7H111.41l-2.13,14.7H99.49L110.67,3.57h12.47ZM116.68,17.43l-4,27.26h8.23l-4-27.26Z"/><path d="M158,68.26l-6.21-21.89h-3.63V68.26H140.3V16.51h11.31c8.43,0,13,4.58,13,13.08v3.7c0,5.47-1.92,9.31-5.55,11.38l7.18,23.59Zm-9.84-44.51V39.13h3.18c3.77,0,5.47-2,5.47-6.36V30.11c0-4.36-1.7-6.36-5.47-6.36Z"/><path d="M194,23.75H179.78V38.39h11.45v7.24H179.78V61H194v7.25h-22V16.51h22Z"/><path class="cls-1" d="M384.73,27.61V11.54L373.19,0H341.46L329.92,11.54v49l11.54,11.54h31.73l11.54-11.54V45H364.85v8.65l-2.27,2.27H352.07l-2.37-2.37v-35L352,16.28h10.61l2.27,2.26v9.07ZM363,14.52H351.66l-3.61,3.61V54l3.61,3.6H363L366.6,54V46.66H383v13.5l-10.2,10.2h-30.6l-10.5-10.51V12l10.19-10.3h30.8L383,12V26.06H366.6V18.13Z"/><path class="cls-1" d="M253.28,27.92,236.49,0H213.42V16.28h4.32V55.94h-4.32V72.11h28.43V55.94h-4.33V37.19l15.76,26.06,15.66-26.06V55.94h-4.22V72.11h28.43V55.94h-4.33V16.28h4.33V0H270ZM291.4,1.75V14.52h-4.33V57.58h4.33V70.36h-25V57.58h4.33V30.49L253.28,60.88,235.77,31.52V57.58h4.33V70.36H215.17V57.58h4.22V14.52h-4.22V1.75h20.91l17.2,28.64,17.1-28.64Z"/><polygon class="cls-1" points="368.86 23.69 380.81 23.69 380.81 13.49 371.34 4.02 343.42 4.02 333.94 13.49 333.94 58.61 343.42 68.09 371.54 68.09 381.02 58.61 381.02 48.83 368.86 48.83 368.86 55.32 364.33 59.85 350.22 59.85 345.79 55.42 345.79 16.69 350.22 12.26 364.33 12.26 368.86 16.79 368.86 23.69"/><path class="cls-1" d="M297.47,16.28h4.33V55.94h-4.33V72.11h28.44V55.94h-4.33V16.28h4.33V0H297.47Zm1.76-14.53h24.93V14.52h-4.43V57.69h4.43V70.36H299.23V57.69h4.32V14.52h-4.32Z"/><polygon class="cls-1" points="305.72 59.85 301.49 59.85 301.49 68.09 321.99 68.09 321.99 59.85 317.67 59.85 317.67 12.26 321.99 12.26 321.99 4.02 301.49 4.02 301.49 12.26 305.72 12.26 305.72 59.85"/><polygon class="cls-1" points="253.23 34.4 252.97 34.4 234.92 4.01 232.89 4.01 232.89 4.02 217.43 4.02 217.43 12.26 221.66 12.26 221.66 59.85 217.43 59.85 217.43 68.09 237.93 68.09 237.93 59.85 233.61 59.85 233.61 23.59 253.28 56.45 272.96 23.59 272.96 59.85 268.63 59.85 268.63 68.09 289.23 68.09 289.23 59.85 284.8 59.85 284.8 12.26 289.23 12.26 289.23 4.02 273.06 4.02 273.06 4.03 271.26 4.03 253.23 34.38 253.23 34.4"/></g></g></svg>