<svg xmlns="http://www.w3.org/2000/svg" viewBox="0 0 31.72 31.72"><defs><style>.cls-1,.cls-2,.cls-3,.cls-4{fill-rule:evenodd;}.cls-2{fill:#009de1;}.cls-3{fill:#ffea00;}.cls-4{fill:#e30613;}</style></defs><g id="Capa_2" data-name="Capa 2"><g id="Layer_1" data-name="Layer 1"><polygon class="cls-1" points="16.34 15.93 31.72 15.93 31.72 8.1 16.34 8.1 16.34 15.93 16.34 15.93"/><polygon class="cls-1" points="8.1 31.72 15.93 31.72 15.93 16.34 8.1 16.34 8.1 31.72 8.1 31.72"/><polygon class="cls-1" points="16.34 7.69 31.72 7.69 31.72 0 16.34 0 16.34 7.69 16.34 7.69"/><polygon class="cls-1" points="0 31.72 7.69 31.72 7.69 16.34 0 16.34 0 31.72 0 31.72"/><polygon class="cls-2" points="8.1 15.93 15.93 15.93 15.93 8.1 8.1 8.1 8.1 15.93 8.1 15.93"/><polygon class="cls-1" points="8.1 7.69 15.93 7.69 15.93 0 8.1 0 8.1 7.69 8.1 7.69"/><polygon class="cls-1" points="0 15.93 7.69 15.93 7.69 8.1 0 8.1 0 15.93 0 15.93"/><polygon class="cls-3" points="0 7.69 7.69 7.69 7.69 0 0 0 0 7.69 0 7.69"/><polygon class="cls-4" points="16.34 31.72 31.72 31.72 31.72 16.34 16.34 16.34 16.34 31.72 16.34 31.72"/></g></g></svg>