<svg xmlns="http://www.w3.org/2000/svg" viewBox="0 0 18.1 18.2"><defs><style>.cls-1,.cls-2{fill:#e20613;}.cls-1{opacity:0.28;}</style></defs><g id="Capa_2" data-name="Capa 2"><g id="Layer_1" data-name="Layer 1"><path class="cls-1" d="M7.27,2.13a5,5,0,1,0,5,5A5,5,0,0,0,7.27,2.13ZM4.88,9a.35.35,0,0,1-.27-.56L8.14,4.05a.33.33,0,0,1,.47,0,.34.34,0,0,1,.06.48L5.15,8.91A.37.37,0,0,1,4.88,9ZM10.15,6,6.62,10.38a.3.3,0,0,1-.26.13.31.31,0,0,1-.21-.07A.34.34,0,0,1,6.09,10L9.61,5.53a.34.34,0,0,1,.54.42Z"/><path class="cls-2" d="M17.49,15.74l-.08-.07-1.84,1.84,0,0,.49.49c.32.31,1,.16,1.49-.35s.67-1.18.35-1.49l-.45-.46Z"/><polygon class="cls-2" points="16.96 15.23 15.12 17.07 15.57 17.51 17.41 15.67 17.36 15.62 17.36 15.62 16.96 15.23"/><path class="cls-2" d="M7.17,0a7.17,7.17,0,1,0,4,13.14l4,3.92L17,15.23l-4-3.9A7.17,7.17,0,0,0,7.17,0Zm.1,12.21a5,5,0,1,1,5-5A5,5,0,0,1,7.27,12.21Z"/><path class="cls-2" d="M8.14,4.05,4.61,8.48A.35.35,0,0,0,4.88,9a.37.37,0,0,0,.27-.13L8.67,4.48A.34.34,0,0,0,8.61,4,.33.33,0,0,0,8.14,4.05Z"/><path class="cls-2" d="M9.61,5.53,6.09,10a.34.34,0,0,0,.06.48.31.31,0,0,0,.21.07.3.3,0,0,0,.26-.13L10.15,6a.34.34,0,0,0-.54-.42Z"/></g></g></svg>