<svg xmlns="http://www.w3.org/2000/svg" viewBox="0 0 56.8 56.88"><defs><style>.cls-1{fill:#727270;fill-rule:evenodd;}</style></defs><g id="Capa_2" data-name="Capa 2"><g id="Layer_1" data-name="Layer 1"><path class="cls-1" d="M28.44,0a27.69,27.69,0,0,1,20,8.33A28.39,28.39,0,0,1,56.8,28.44a28,28,0,0,1-8.34,20,28.13,28.13,0,0,1-20,8.42A28.74,28.74,0,0,1,8.16,48.46,28.24,28.24,0,0,1,0,28.44,28.61,28.61,0,0,1,8.16,8.33,28.29,28.29,0,0,1,28.44,0Zm3.18,16.5a.31.31,0,0,1,.51,0l2.58,2.57-9.19,9v.52l9.19,9.2L32.13,40.3a.32.32,0,0,1-.51,0L19.93,28.61v-.52L31.62,16.5Z"/></g></g></svg>