<svg xmlns="http://www.w3.org/2000/svg" xmlns:xlink="http://www.w3.org/1999/xlink" viewBox="0 0 651.53 1440.45"><defs><style>.cls-1,.cls-3{fill:none;}.cls-2{clip-path:url(#clip-path);}.cls-3{stroke:#009ee2;stroke-miterlimit:10;}.cls-4{fill:#ffeb00;}</style><clipPath id="clip-path" transform="translate(-124.9 -32.89)"><rect class="cls-1" width="866" height="501"/></clipPath></defs><g id="Capa_2" data-name="Capa 2"><g id="Layer_1" data-name="Layer 1"><g class="cls-2"><path class="cls-3" d="M775.94,1473.34V358.66C775.94,179,630.31,33.39,450.67,33.39h0C271,33.39,125.4,179,125.4,358.66v805.68" transform="translate(-124.9 -32.89)"/><path class="cls-3" d="M728.51,1473.34V358.66c0-153.2-124.64-277.84-277.84-277.84S172.83,205.46,172.83,358.66v805.68" transform="translate(-124.9 -32.89)"/><path class="cls-3" d="M681.08,1473.34V358.66c0-127-103.36-230.41-230.41-230.41S220.26,231.61,220.26,358.66v805.68" transform="translate(-124.9 -32.89)"/><path class="cls-3" d="M633.65,1473.34V358.66c0-100.9-82.08-183-183-183s-183,82.08-183,183v805.68" transform="translate(-124.9 -32.89)"/><path class="cls-3" d="M586.23,1473.34V358.66c0-74.75-60.81-135.56-135.56-135.56S315.11,283.91,315.11,358.66v805.68" transform="translate(-124.9 -32.89)"/><path class="cls-4" d="M297.12,128.74A17.86,17.86,0,1,0,315,110.88,17.86,17.86,0,0,0,297.12,128.74Z" transform="translate(-124.9 -32.89)"/></g></g></g></svg>