<svg xmlns="http://www.w3.org/2000/svg" viewBox="0 0 56.8 56.88"><defs><style>.cls-1{fill:#727270;fill-rule:evenodd;}</style></defs><g id="Capa_2" data-name="Capa 2"><g id="Layer_1" data-name="Layer 1"><path class="cls-1" d="M28.35,0A28.33,28.33,0,0,1,48.64,8.33,28.65,28.65,0,0,1,56.8,28.44a28.28,28.28,0,0,1-8.16,20,28.78,28.78,0,0,1-20.29,8.42,28.1,28.1,0,0,1-20-8.42A28,28,0,0,1,0,28.44,28.39,28.39,0,0,1,8.34,8.33,27.66,27.66,0,0,1,28.35,0ZM25.18,16.5h0L36.86,28.09v.52L25.18,40.3a.33.33,0,0,1-.52,0l-2.58-2.49,9.2-9.2v-.52l-9.2-9,2.58-2.57a.32.32,0,0,1,.52,0Z"/></g></g></svg>