<svg xmlns="http://www.w3.org/2000/svg" xmlns:xlink="http://www.w3.org/1999/xlink" viewBox="0 0 472.27 914.7"><defs><style>.cls-1,.cls-3{fill:none;}.cls-2{clip-path:url(#clip-path);}.cls-3{stroke:#009ee2;stroke-miterlimit:10;}.cls-4{fill:#ffeb00;}</style><clipPath id="clip-path" transform="translate(-98.02 -91.8)"><rect class="cls-1" width="642" height="663"/></clipPath></defs><g id="Capa_2" data-name="Capa 2"><g id="Layer_1" data-name="Layer 1"><g class="cls-2"><path class="cls-3" d="M98.52,1006.5V327.93C98.52,197.8,204,92.3,334.16,92.3h0c130.14,0,235.63,105.5,235.63,235.63l-.47,339.88" transform="translate(-98.02 -91.8)"/><path class="cls-3" d="M132.88,1006.5V327.93c0-111,90.29-201.27,201.28-201.27S535.43,217,535.43,327.93l-.15,333.72" transform="translate(-98.02 -91.8)"/><path class="cls-3" d="M167.24,1006.5V327.93c0-92,74.88-166.91,166.92-166.91S501.08,235.9,501.08,327.93V647.16" transform="translate(-98.02 -91.8)"/><path class="cls-3" d="M201.6,1006.5V327.93c0-73.09,59.46-132.55,132.56-132.55s132.56,59.46,132.56,132.55V650.78" transform="translate(-98.02 -91.8)"/><path class="cls-3" d="M236,1006.5V327.93a98.2,98.2,0,1,1,196.4,0l.05,313.8" transform="translate(-98.02 -91.8)"/><circle class="cls-4" cx="438.49" cy="104.74" r="24.96"/></g></g></g></svg>