<svg xmlns="http://www.w3.org/2000/svg" viewBox="0 0 402.91 257"><defs><style>.cls-1{fill:#c92d26;}</style></defs><g id="Capa_2" data-name="Capa 2"><g id="Layer_1" data-name="Layer 1"><path class="cls-1" d="M54.43,177.28c-.69-.82-.89-1.31-1.19-1.37-7-1.47-8.62-6.09-8.42-12.73.32-10.14-.35-20.3-.32-30.45,0-2.59-.75-3.88-3.1-4.74-2.95-1.08-5.69-2.78-8.68-3.63-4-1.15-5.78-3.65-6-7.63-.65-10.4-1.46-20.79-2-31.19A18.14,18.14,0,0,1,26,78.85c1.22-3.46,3.31-5.43,7.61-5.38,21.73.23,43.46.1,65.55.1-4.33-3.88-2.06-8.77-3.42-13.4l5.73-.47c1.68-7.18-.27-24.64-4-36.47-4.23-.7-7.57-5.54-6.42-9.69A4.68,4.68,0,0,1,93.62,11C102.49,7.45,111.4,3.94,120.36.6a16.21,16.21,0,0,1,5.5-.58q120.79,0,241.6,0c19.11,0,31.26,10,34.49,29a58.74,58.74,0,0,1-2.87,31.66c-3.68,9.44-14.12,20-27.88,18.89-3.82-.32-7.7,0-12.1,0l-.85,7.24-5.49.69c0,7.36-.06,14.88,0,22.39,0,4-1.06,9,.91,11.68,1.61,2.21,7,1.66,10.68,2.36a12,12,0,0,1,1.45.48v12.31l-6.61.41c-.3,5.92-1,11.86-.74,17.75.21,4.18-2.56,9.2,2.69,12.6.83.54.23,3.26.31,5,.07,1.54.16,3.07.25,4.91h21.2v17.57a3.69,3.69,0,0,1-.87.49c-7.93,1-8.49,1-9.33,8.84-1,9.6-1.07,19.31-1.38,29-.12,3.82,1.77,5.72,5.85,5.11a40.55,40.55,0,0,1,5.76-.05v18.25h-5.72q-112.65,0-225.29,0c-36.33,0-72.67-.23-109,.5-14,.28-24.28-5.82-32.93-15.35-16.57-18.27-12.11-43.44,9.7-57.19,7.6-4.79,15.54-8.44,25-7.23C47.72,177.61,50.83,177.28,54.43,177.28Zm307.72,18.24H92.26c-8,0-14.4,4.24-15.75,12.25a57.77,57.77,0,0,0,.19,19.41c1.37,7.62,6.82,11,14.6,11H353c1.48,0,3-.13,4.67-.21C355.52,223.45,357.82,209.87,362.15,195.52ZM144.67,60.78c.21,0,1.46.16,2.72.17q110,0,220,.06c5.31,0,8.92-2.34,10.77-6.9,3.68-9.08,4-18.43.19-27.56-2.26-5.38-6.22-8.24-12.66-8.23q-110.43.24-220.86.1h-4.17C142,32.62,143.3,46.33,144.67,60.78Zm201.6,76.14L79.65,141.53v29.32l266.62-4.29ZM85.12,123.07l255.52-6.88V87.38c-1.34,0-2.6,0-3.86,0q-97.95,2.78-195.9,5.54c-17.15.49-34.3.87-51.45,1.3-2,0-4.28-.23-4.3,2.77C85.09,105.52,85.12,114.05,85.12,123.07Zm-12.2-.46c0-7,0-13.27,0-19.55.09-9.47.17-9.69-9.07-12-8.5-2.14-17.14-3.73-27-5.84,0,9.43-.08,17.38.1,25.32A3.72,3.72,0,0,0,39.24,113C50.31,116.27,61.44,119.37,72.92,122.61ZM109.47,61c5.5,0,11.44-.16,17.37.06,3,.11,4.34-.84,4.74-3.9,1.63-12.35.26-24.49-2.28-36.55a3.66,3.66,0,0,0-2.88-2c-6.9.59-13.77,1.47-19.87,2.16C107.55,34.41,108.48,47.28,109.47,61Zm-52.2,74.1c0,8.59,0,16.38.07,24.17a3.34,3.34,0,0,0,1.4,2.39c2.73,1.65,5.6,3.08,8.92,4.85,0-8.76.08-16.74-.09-24.72a4.43,4.43,0,0,0-2-3.13A80.28,80.28,0,0,0,57.27,135.06Z"/></g></g></svg>