<svg xmlns="http://www.w3.org/2000/svg" viewBox="0 0 115.03 115.03"><defs><style>.cls-1{fill:#0092d6;}</style></defs><g id="Capa_2" data-name="Capa 2"><g id="Layer_1" data-name="Layer 1"><path class="cls-1" d="M57.51,0A57.52,57.52,0,1,0,115,57.51,57.51,57.51,0,0,0,57.51,0ZM96.22,96.22A54.74,54.74,0,0,1,18.81,18.81l.74-.71a6.57,6.57,0,0,1-.74,1.69c-.82,1.21-2.18,1.7-3,2.84a11.58,11.58,0,0,0-1.69,3.77c-.31,1.26-.12,2.79-.56,4C13,32,11.94,33,12.13,34.84c2.23.66,1.26-3.29,3.13-3.5.6,1.48.21,4.22,0,5.83-.23,2.21-.66,2.76.66,4.66,1,1.5,1.39,2.51,3.41,2.74,1.86.22,2.63,1.06,3.4,2.85,1.43.3,2.3.54,2.48,2.12a17.37,17.37,0,0,0,2.44,1.64c.95.25,2.54-1.1,3.43-.06,1.5,1.74-1.89,6.28-2.5,7.85-.88,2.29-1,5.67,1.16,7.31,1.12.85,2.3,1.26,2.67,2.79s.07,2.6.7,3.94c1,2.1,3.23,2.79,4.83,4.39,2.09,2.1,2,4.83,2,7.8s1.18,5.48,1.6,8.33,1.28,5.67,1.9,8.51c.47,2.14,2.31,5.37,5,4.93.19-1-.86-1.8-1-2.81s.13-1.86-.05-2.83c-.36-1.93-.34-3.07.94-4.75.45-.59,1.07-1.08,1.54-1.68.91-1.15.21-.81.18-2.07-.05-1.58.43-.8,1.38-1.29a8,8,0,0,0,1.42-1.42,23,23,0,0,0,2.75-2.92c.72-1.15.63-2.76,1.37-4,.85-1.36,2-1.37,3.23-2.26,1.54-1.15.91-2.36,1.19-3.94a18,18,0,0,1,3.33-7.67c2.1-2.65,3-4.9.45-7.45-1.26-1.25-1.92-.92-3.6-1.36-1.27-.33-2.42-1.26-3.72-1.42-.78-.1-1.24.18-1.95,0s-.58-.58-1.28-.57c-1,0-2.5,2.18-3.37.79-.49-.77,1-2.91.93-3.95-.09-1.27-.56-3.34-1.81-4-.47-.26-1.52-.3-2.09-.52a11.29,11.29,0,0,1-2-1.07c-.79-.51-2.33-1.4-2.68-2.31-1,0-1.63-.58-2.63-.56a15.64,15.64,0,0,1-2.44.31c-.84-.09-1.75-.76-2.66-.63a8.19,8.19,0,0,0-2,1.16,14.21,14.21,0,0,1-4.4,1.64c-2.37.44-2.79-.46-2.65-2.66L26.46,46c.88-2.45-.71-2.62-2.45-3.22-.25-1.74,1.9-3,1-4.9-1.81-.09-3.79,5-5.33,2.8-1-1.46.53-5.54,1.42-6.77s4.17-3.5,5.71-3.69a2.47,2.47,0,0,1,2.7,1.42c.51,1.15-.15,2.23,0,3.53,1.54-.36,1.14-2.3,1.07-3.35-.11-1.74.8-1.61,1.7-2.87s.93-2.45,1.94-3.56c.79-.86,1.71-1.77,2.57-2.56s2.1-.83,3.11-1.5c1.54-1-.49-2.9,1.77-2.76.8,0,.4.56,1.47.31a15.81,15.81,0,0,0,1.76-.71c2.16-.88.63-1.11-.36-2.26-1.26-1.45.52-1.19,1.82-1.41,1-.16.76-.48,1.6.09s.3,1.15,1.37,1.11c2-.07.63-2.12.18-2.8-.78-1.16-1-2-2.63-2a2.6,2.6,0,0,0,0-1.72c-1.39.18-1.63-.82-2.68-1.22-1.77-.67-1.48.78-2.21,1.77s-2.16.84-2.71,2.08,0,2.28-2.11,1.93a6.72,6.72,0,0,0,.14-2.61,9.59,9.59,0,0,1-1.72-.41c0-2.08,2.31-2.25,3.87-2.45,1.75-.22,2.32-2,3.89-2.3s2.51,2.08,4.31.71c1-.78.55-1.24.17-2-.1-.2-.62-.65-.75-.84l0-.06c1.4-.27,2.81-.48,4.23-.64A13.41,13.41,0,0,0,52.38,5.4c.23.4.67.66.85,1.1s-.28,1.1.34,1.44c1,.51,3.77-2.84,4.44-3.38.85-.69,1.39-1.07,1.18-1.74a55,55,0,0,1,13.16,2c.34.42.69.86,1,1.34.75,1,1.22,2,2.57,2.43.78.27,3.27.22,2.23,2s-2-.51-2.49-1c-.67-.71-2.64-1.51-2.58.14.09,2.44,5.6,2.05,4.42,4.74.66.39,2,1,1.75,2-.26,1.19-1.81.43-1.78,1.95a3.52,3.52,0,0,0,4.57,3.15c2.33-.83.58-4.06,3.24-4.39a3.13,3.13,0,0,1,2.61.92c.77.61,1.26,2,2.32,1.88.11-.66-.39-1.12-.47-1.73a6.86,6.86,0,0,1,2.93,1.94c.71,1.08.64,2.63,2.37,1.24-.26-.21-.39-.69-.53-.86a4.86,4.86,0,0,1,4.73,2.85c2.13,4.3-3.1.89-3.36,3.13-1.29-.41-1.86-1.45-3-2.07-.53-.29-1.51-.13-1.92-.43-.56-.41-.42-1.16-.91-1.56-1.94-1.59-6.35,1-8.12,2-.49.27-1,.3-1.33.83-.56.89.23,1.12,0,1.95-.25,1.19-1.8,1.74-2.27,2.7-1.13,2.29,1.16,5.57.85,8.12-.17,1.41-1.69,2.94-1.11,4.12.25.51,1.13.94,1.47,1.54a16.26,16.26,0,0,0,.83,1.83,72.44,72.44,0,0,0,4.71,5.58,3.35,3.35,0,0,0,3.36,1A18.39,18.39,0,0,0,92.26,51c1.34-.64,1.51-1.55,2.92-.94,1.12.49,2.1,1.92,3.41.73,1.08,1.06-.12,2.89-.36,4.06A5.1,5.1,0,0,0,99.44,59c1.11,1.53,1.37,1.8,1.14,3.85a44.24,44.24,0,0,1-.92,4.64c-.33,1.51-1.29,2.66-1.24,4.26s.69,2.67.49,4.25a34.47,34.47,0,0,1-.62,4.43c-.37,1.41-1.36,2.65-1.78,4.08a4.75,4.75,0,0,0,.67,4.25c1,1.17,2,.5,3.15-.38,2.29-1.74,3.34-4.71,4.87-7.06a45.75,45.75,0,0,0,4.17-7.09c.22-.53.49-1,.76-1.57A54.6,54.6,0,0,1,96.22,96.22Z"/></g></g></svg>