<svg xmlns="http://www.w3.org/2000/svg" viewBox="0 0 249.45 328.17"><defs><style>.cls-1{fill:#e20613;}.cls-2{fill:#fff;}</style></defs><g id="Capa_2" data-name="Capa 2"><g id="Layer_1" data-name="Layer 1"><path class="cls-1" d="M212,198.21c-7.33-2-15.44-13.88-15.45-14.23,0,0-12.4,15.14-28.51-5s-15.7-25-4.29-31.72l-8.08-4.59s-2.16-25-19.06-33.2-46.12,7.24-56.33-7.32C74,93.08,52.36,60.76,37,37.66l3.46-2.32a6.35,6.35,0,1,0-2.59-3.85L34.38,33.8l-5.31-8,3.43-2.3a6.35,6.35,0,1,0-2.59-3.85L26.5,22c-3.66-5.49-5.92-8.9-5.92-8.9s6.9-3.14,5.94-6S13-3.42,5.33,1.75-.09,21.41,2.18,23.38,10,20.16,10,20.16L16,29l-3.42,2.29a6.36,6.36,0,1,0,2.58,3.85l3.43-2.29,5.36,7.94-3.45,2.32A6.36,6.36,0,1,0,23,47l3.46-2.32C42,67.69,63.68,100,69.65,109.3c9.57,15-15.86,36.11-14.66,54.87s23.45,30.25,23.45,30.25l1.18,9.23c10.57-8,15.19-6.54,27.69,16s-6.2,28.28-6.2,28.28c.32.13,8.25,12.17,7.28,19.69-1,8,2.41,43,39.25,56.54s65.82-11.79,65.82-11.79S247.92,295.23,249.4,256,219.8,200.29,212,198.21Z"/><path class="cls-2" d="M121.15,201.31a10,10,0,0,0-1.55-.57,5.2,5.2,0,0,0-3.24-.09,2.44,2.44,0,0,0-1.41,1.64,5.35,5.35,0,0,0-.06,2.29,20.43,20.43,0,0,0,1.47,4.69,44.69,44.69,0,0,0,2.42,4.85c.93,1.62,1.9,3.29,3,4.93s2.17,3.29,3.14,5a54.84,54.84,0,0,1,5,10.26,23.6,23.6,0,0,1,1.19,5,9.34,9.34,0,0,1-.49,4.45,4.32,4.32,0,0,1-2.57,2.5,4.25,4.25,0,0,1-2.89-.12l-.5-.24a1.84,1.84,0,0,0,1.36-.28,1.88,1.88,0,0,0-2.09-3.13,1.86,1.86,0,0,0-.62,2.35l-.27-.29s.14.19.36.52l0,0,0,0h0a4.89,4.89,0,0,0,1.57,1.3,4.64,4.64,0,0,0,5.06-.46,6,6,0,0,0,1.42-1.81,10.49,10.49,0,0,0,.86-4.95,20.86,20.86,0,0,0-1-5.4,49.37,49.37,0,0,0-5-10.68c-1-1.74-2.14-3.35-3.22-5s-2.11-3.21-3.06-4.78c-1.88-3.14-3.61-6.17-4.24-9-.33-1.36-.18-2.72.79-3.19a4.86,4.86,0,0,1,2.9-.16c.44.08.82.17,1.16.26a2,2,0,0,0-.67.28,1.87,1.87,0,0,0-.51,2.6,1.88,1.88,0,1,0,3.12-2.09A1.86,1.86,0,0,0,121.15,201.31Z"/><path class="cls-2" d="M145.83,184.77a11.07,11.07,0,0,1,.06-1.65,5.29,5.29,0,0,1,1.15-3,2.48,2.48,0,0,1,2.05-.68,5.24,5.24,0,0,1,2.14.82,20.26,20.26,0,0,1,3.78,3.14,46.52,46.52,0,0,1,3.57,4.08c1.15,1.48,2.32,3,3.42,4.64s2.22,3.25,3.4,4.79a55.56,55.56,0,0,0,7.58,8.53,23.56,23.56,0,0,0,4.2,3,9.5,9.5,0,0,0,4.3,1.24,4.37,4.37,0,0,0,3.29-1.43,4.2,4.2,0,0,0,1-2.72,4.68,4.68,0,0,0,0-.55,1.87,1.87,0,0,1-3.39.63,1.87,1.87,0,0,1,.52-2.6,1.84,1.84,0,0,1,2.4.31l-.17-.35.35.53,0,0,0,0h0a4.79,4.79,0,0,1-.2,5.07,4.81,4.81,0,0,1-1.54,1.38,5.77,5.77,0,0,1-2.21.62,10.47,10.47,0,0,1-4.9-1.08,21,21,0,0,1-4.62-3,49.86,49.86,0,0,1-8-8.67c-1.21-1.62-2.27-3.25-3.38-4.87s-2.16-3.18-3.26-4.66c-2.18-2.92-4.33-5.68-6.66-7.32-1.14-.81-2.45-1.2-3.25-.48a4.83,4.83,0,0,0-1.25,2.62c-.09.44-.16.83-.2,1.17a2,2,0,0,1,.5-.51,1.88,1.88,0,0,1,2.61.52,1.88,1.88,0,1,1-3.3.41Z"/></g></g></svg>