<svg xmlns="http://www.w3.org/2000/svg" viewBox="0 0 187.08 187.07"><defs><style>.cls-1{fill:#f5e24e;}</style></defs><g id="Capa_2" data-name="Capa 2"><g id="Layer_1" data-name="Layer 1"><path class="cls-1" d="M59.22,6.53c-1.71,3.76-3.57,7.46-5.11,11.29A128.27,128.27,0,0,0,45.2,65.61c0,2.69.14,5.39.16,8.09a1.15,1.15,0,0,1-.51.91c-4.13,1.65-8.29,3.27-12.43,4.88a5,5,0,0,1-.51.14,61.75,61.75,0,0,0-23-26c1.43-2.63,2.76-5.27,4.27-7.81A92.67,92.67,0,0,1,41.37,15.9,90.5,90.5,0,0,1,56,7.89a8.05,8.05,0,0,0,.91-.5Z"/><path class="cls-1" d="M4.4,122.15c-.53-2-1.14-3.9-1.56-5.88-.75-3.54-1.4-7.1-2-10.66a1.14,1.14,0,0,1,.38-.93A234.36,234.36,0,0,1,27.65,90.26a54.22,54.22,0,0,1,1.6,27.56A45.55,45.55,0,0,1,14.5,143.63c-.89-1.5-1.79-2.88-2.54-4.33-1.48-2.88-2.86-5.81-4.29-8.72-.13-.25-.29-.49-.43-.73Z"/><path class="cls-1" d="M76.32,73.26c.59,3,1,5.81,1.69,8.54a44.83,44.83,0,0,0,9.24,17.68c6.52,7.87,14.67,13.65,23.71,18.25,11.81,6,24.39,9.66,37.35,12.11A198.47,198.47,0,0,0,177.08,133l1,.09c-.35.83-.64,1.63-1,2.38a92.71,92.71,0,0,1-37.72,39.55A91.72,91.72,0,0,1,116,184.29a1.89,1.89,0,0,1-1.29-.31,126.11,126.11,0,0,1-29.89-27.35A142.2,142.2,0,0,1,67.18,128.1,148,148,0,0,1,53.84,80.77c0-.28-.05-.56-.09-1.13Z"/><path class="cls-1" d="M84.4,71.73A221.77,221.77,0,0,1,121,67.59c20.25-.55,40.15,1.63,59.55,7.69,1.43.45,2.83,1,4.26,1.39a1.25,1.25,0,0,1,1,1.2,93.63,93.63,0,0,1-4,46.78c-.16.47-.33.72-.91.7-17.11-.49-33.94-2.75-50.27-8-9.7-3.14-18.93-7.28-27.19-13.37A49.71,49.71,0,0,1,89.11,88.41a35.85,35.85,0,0,1-4.72-16C84.38,72.18,84.39,72,84.4,71.73Z"/><path class="cls-1" d="M183.48,68C151,57.91,118.16,57.67,85,63.59c.23-1,.4-2,.63-2.86,2-7.91,6-14.83,11-21.2A110.76,110.76,0,0,1,120.7,17.28c4-2.76,8.12-5.22,12.17-7.84a1.28,1.28,0,0,1,1.47-.06,93.6,93.6,0,0,1,49,58C183.39,67.52,183.41,67.67,183.48,68Z"/><path class="cls-1" d="M104.38,186.46A93.33,93.33,0,0,1,57,179.64c-17.13-7.2-30.44-19.17-37.79-29.41C38,132.53,41.78,111.2,35,86.93l11.07-4.44a157,157,0,0,0,18.57,58A142.17,142.17,0,0,0,104.38,186.46Z"/><path class="cls-1" d="M53.06,72c0-3.77,0-7.23.1-10.68a117.55,117.55,0,0,1,11-46.81c1.75-3.67,3.9-7.14,5.83-10.72A2.25,2.25,0,0,1,71.62,2.6,94.72,94.72,0,0,1,94.37,0a93.16,93.16,0,0,1,29.09,4.94c.27.09.53.2,1,.37-1.25.81-2.38,1.53-3.5,2.27-11.06,7.28-21.24,15.58-29.6,25.94C85,41.42,80,50.08,77.68,60.08c-.33,1.46-.57,2.93-.78,4.41a1,1,0,0,1-.89,1q-9.86,2.59-19.7,5.29C55.31,71,54.34,71.48,53.06,72Z"/><path class="cls-1" d="M0,95.83A92.66,92.66,0,0,1,5.81,61.16c5.66,2.47,16.26,14.69,18.8,21.55Z"/></g></g></svg>