<svg xmlns="http://www.w3.org/2000/svg" viewBox="0 0 129.55 93.74"><defs><style>.cls-1{fill:#c92d26;}</style></defs><g id="Capa_2" data-name="Capa 2"><g id="Layer_1" data-name="Layer 1"><g id="vaUNw0.tif"><path class="cls-1" d="M1.38,29C3.23,21.36,7.9,15.7,14,11.07,22.24,4.89,31.68,2,41.7.63A78.83,78.83,0,0,1,54.35,0C59.62.14,64.4,1.74,68.21,5.62a16.09,16.09,0,0,1,3,5.09c2.6,6,4.64,12.27,7.51,18.17.07.15.13.31.2.46,1.82,3.61,1.84,3.64-1.36,6a110.27,110.27,0,0,0-15.8,14,15.62,15.62,0,0,0-2.61,3.78,2.93,2.93,0,0,1-3.33,1.89c-5.08-.36-9.39,1.27-12.28,5.84A48.29,48.29,0,0,0,38.21,74c-.77,2.75-1.35,5.57-3.23,7.9-.6.75-1.13,1-1.95.49a83.85,83.85,0,0,1-13-8.71C12,66.89,5.35,59,2,48.76,0,42.92-1,35.77,1.38,29ZM14.43,39.08a8,8,0,0,0,9.3-5.19,7.58,7.58,0,0,0-5-9.32,7.43,7.43,0,0,0-9.43,5.08C8.13,33.54,10.12,37.54,14.43,39.08Zm37.29-21.3a7.14,7.14,0,0,0-5.13-9.39c-4.25-1.12-7.55.91-9,5a7.3,7.3,0,0,0,4.9,9.29C46.16,23.87,51.26,21.41,51.72,17.78ZM27.53,67.24c3.46,1.48,8-.65,9.21-5.08a7.12,7.12,0,0,0-5-8.9C27.91,52,23.58,54.15,22.7,58,21.64,62.68,23.18,66,27.53,67.24Z"/><path class="cls-1" d="M128,63.65c-2.89,10.38-9,16.81-17,21.68s-17,7.2-26.29,8.07a77.27,77.27,0,0,1-15.28-.09c-5.26-.56-10.5-1.13-15.55-2.82-.6-.2-1.46-.17-1.56-1s.72-1,1.26-1.37a29.1,29.1,0,0,0,8.95-9.06,55,55,0,0,0,3.89-7.4,5.26,5.26,0,0,1,4-3.41c4.3-.85,8-3.22,11.59-5.51a170.18,170.18,0,0,0,20.35-15.21q5.52-4.76,10.64-9.9a2.32,2.32,0,0,1,2.2-.89c5,1.25,9.5,3.42,11.79,8.4a26.3,26.3,0,0,1,2,10.5C129,58.72,128.79,61.81,128,63.65ZM93.73,79.76c1.78-4.3-1.39-8.24-4.76-9.22a7.24,7.24,0,0,0-9.18,5c-1.37,4.81,1.07,8,5.1,9.5C88.36,86.37,92.63,83.62,93.73,79.76Z"/><path class="cls-1" d="M60.34,56.62c1.37-3.92,4.09-6.76,7-9.39A173.3,173.3,0,0,1,95.06,26.52c9.14-5.46,18.58-10.32,28.2-14.85,3.18-1.5,5.61-.51,6.22,2.4.39,1.82-.86,3-1.82,4.05-5.69,6.49-11.4,13-17.63,19A190.88,190.88,0,0,1,91.27,53.21,122.93,122.93,0,0,1,74.51,64.05a22.93,22.93,0,0,1-6.21,2.13C63.54,67.08,58.63,60.33,60.34,56.62Z"/><path class="cls-1" d="M34.1,88.62A1.35,1.35,0,0,1,33,87.75c-.18-.67.43-.79.81-1.08a15.45,15.45,0,0,0,4.71-6C40.77,76,41.61,70.81,43.56,66c1.73-4.23,4.33-7.51,9.17-8.37a9.69,9.69,0,0,1,3,.11c.77.09,1,.69,1.14,1.42a12.09,12.09,0,0,0,6.51,9.21,1.72,1.72,0,0,1,.85,2.49c-3.63,7.6-8,14.53-16.71,17.17A28.39,28.39,0,0,1,34.1,88.62Z"/></g></g></g></svg>