<svg xmlns="http://www.w3.org/2000/svg" viewBox="0 0 81.99 117.76"><defs><style>.cls-1{fill:#ffea00;}.cls-2{fill:#fff;}</style></defs><g id="Capa_2" data-name="Capa 2"><g id="Layer_1" data-name="Layer 1"><path class="cls-1" d="M11.93,73.31C14.44,72.47,17,68.15,17,68s4.64,5,9.84-2.34,4.94-9,.82-11.15l2.73-1.77s.22-8.74,5.94-12,16.23,1.55,19.48-3.73c2-3.3,8.88-15,13.76-23.39l-1.25-.74a2.22,2.22,0,1,1,.82-1.39l1.25.73c.61-1,1.17-2,1.69-2.89l-1.25-.73a2.2,2.2,0,0,1-2.49.17,2.22,2.22,0,1,1,3.31-1.57L72.9,8l1.88-3.23s-2.47-1-2.2-2,4.48-3.94,7.28-2.3S82.16,7.23,81.41,8s-2.79-1-2.79-1l-1.9,3.22,1.24.72a2.22,2.22,0,1,1-.82,1.4l-1.24-.73L74.2,14.5l1.25.73a2.22,2.22,0,1,1-.82,1.4l-1.25-.74C68.45,24.24,61.58,36,59.69,39.33,56.67,44.75,66,51.58,66,58.15s-7.55,11-7.55,11l-.21,3.24c-3.85-2.56-5.43-2-9.32,6.17s2.76,9.73,2.76,9.73-2.62,4.41-2.13,7,.07,15-12.49,20.53-23.19-2.73-23.19-2.73S1.46,107.88.12,94.24,9.26,74.19,11.93,73.31Z"/><path class="cls-2" d="M43.67,72.48a4.13,4.13,0,0,1,.53-.23,1.85,1.85,0,0,1,1.13-.1.83.83,0,0,1,.52.54,1.66,1.66,0,0,1,.07.8,7.06,7.06,0,0,1-.41,1.66,15.11,15.11,0,0,1-.74,1.74c-.29.59-.6,1.19-.94,1.78s-.68,1.2-1,1.8a19.81,19.81,0,0,0-1.53,3.68A8.32,8.32,0,0,0,41,85.93a3.29,3.29,0,0,0,.27,1.54,1.5,1.5,0,0,0,.94.82,1.46,1.46,0,0,0,1-.11.91.91,0,0,0,.17-.09.63.63,0,0,1-.48-.07.65.65,0,1,1,.66-1.13.66.66,0,0,1,.27.8l.08-.1-.11.18v0h0a1.55,1.55,0,0,1-.52.49,1.63,1.63,0,0,1-1.1.22,1.69,1.69,0,0,1-.67-.28,1.93,1.93,0,0,1-.53-.6,3.55,3.55,0,0,1-.4-1.7A7.44,7.44,0,0,1,40.8,84a17.93,17.93,0,0,1,1.51-3.83c.33-.62.68-1.21,1-1.8s.67-1.16,1-1.73a11.77,11.77,0,0,0,1.29-3.21c.08-.48,0-1-.34-1.1a1.68,1.68,0,0,0-1,0l-.4.11a.63.63,0,0,1,.24.09.65.65,0,1,1-.66,1.13.67.67,0,0,1-.24-.9A.64.64,0,0,1,43.67,72.48Z"/><path class="cls-2" d="M34.72,67.23a3.37,3.37,0,0,0,0-.57,1.82,1.82,0,0,0-.47-1,.84.84,0,0,0-.73-.2,2.09,2.09,0,0,0-.73.33,7.64,7.64,0,0,0-1.25,1.18,16.27,16.27,0,0,0-1.15,1.49c-.37.54-.75,1.1-1.1,1.69s-.71,1.18-1.08,1.74A19.57,19.57,0,0,1,25.69,75a8.14,8.14,0,0,1-1.4,1.14,3.23,3.23,0,0,1-1.47.52,1.43,1.43,0,0,1-1.58-1.36v-.19a.59.59,0,0,0,.3.38.64.64,0,0,0,.89-.23.65.65,0,0,0-1.06-.74l.05-.12-.11.19h0a1.7,1.7,0,0,0-.18.69,1.75,1.75,0,0,0,.35,1.08,2,2,0,0,0,.57.45,2.17,2.17,0,0,0,.78.17,3.68,3.68,0,0,0,1.69-.49,7.48,7.48,0,0,0,1.55-1.13,17.74,17.74,0,0,0,2.6-3.19c.38-.59.72-1.18,1.07-1.77s.69-1.15,1-1.69A11.56,11.56,0,0,1,32.94,66c.38-.31.83-.48,1.12-.24a1.72,1.72,0,0,1,.5.88c0,.16.07.29.09.41a.63.63,0,0,0-.19-.17.65.65,0,1,0,.24.9A.65.65,0,0,0,34.72,67.23Z"/></g></g></svg>