<svg xmlns="http://www.w3.org/2000/svg" viewBox="0 0 55.62 77.47"><defs><style>.cls-1{fill:#009de1;}.cls-2{fill:#fff;}</style></defs><g id="Capa_2" data-name="Capa 2"><g id="Layer_1" data-name="Layer 1"><path class="cls-1" d="M47.45,47.74C45.77,47.22,44,44.38,44,44.3s-3,3.4-6.56-1.42S34,37,36.74,35.5L34.9,34.36s-.27-5.8-4.11-7.86-10.75,1.25-13-2.21C16.42,22.13,11.71,14.45,8.35,9l.83-.51a1.44,1.44,0,0,0,1.65.08A1.47,1.47,0,1,0,9.29,6a1.49,1.49,0,0,0-.68,1.52L7.79,8,6.63,6.14l.82-.5A1.47,1.47,0,0,0,9.59,3.69a1.48,1.48,0,0,0-2.71,1l-.81.5L4.78,3.11s1.63-.66,1.43-1.33S3.19-.78,1.35.35s-1.43,4.5-.92,5,1.83-.67,1.83-.67l1.31,2.1-.81.5A1.48,1.48,0,1,0,2.64,9.7a1.49,1.49,0,0,0,.68-1.52l.81-.5c.36.57.75,1.21,1.17,1.89l-.82.5A1.49,1.49,0,0,0,2.82,10a1.48,1.48,0,1,0,2.23,1l.82-.51C9.25,16,14,23.63,15.27,25.85c2.09,3.55-4,8.22-3.89,12.58s5.16,7.22,5.16,7.22l.18,2.14c2.53-1.75,3.58-1.37,6.27,4s-1.69,6.49-1.69,6.49,1.8,2.9,1.51,4.63a13.43,13.43,0,0,0,8.57,13.45c8.41,3.48,15.36-2.13,15.36-2.13s8.14-3.66,8.84-12.73A13.44,13.44,0,0,0,47.45,47.74Z"/><path class="cls-2" d="M26.37,47.63c-.1,0-.21-.1-.36-.15a1.29,1.29,0,0,0-.75,0,.57.57,0,0,0-.34.37,1.18,1.18,0,0,0,0,.53,4.2,4.2,0,0,0,.3,1.1,10.39,10.39,0,0,0,.51,1.15c.2.38.41.78.65,1.16s.47.79.68,1.18a13.15,13.15,0,0,1,1.07,2.42,5.84,5.84,0,0,1,.23,1.18,2.26,2.26,0,0,1-.16,1,1,1,0,0,1-.62.55.94.94,0,0,1-.67-.05L26.77,58a.45.45,0,0,0,.32-.05.44.44,0,0,0-.46-.75.44.44,0,0,0-.16.54l-.06-.07.08.12h0a1.12,1.12,0,0,0,.35.32,1.14,1.14,0,0,0,.74.13,1.2,1.2,0,0,0,.44-.19,1.52,1.52,0,0,0,.34-.41,2.51,2.51,0,0,0,.25-1.14,5.06,5.06,0,0,0-.19-1.26,12.13,12.13,0,0,0-1.05-2.52c-.23-.41-.47-.79-.71-1.18s-.46-.76-.66-1.14a7.59,7.59,0,0,1-.9-2.11c-.06-.32,0-.63.21-.73a1.1,1.1,0,0,1,.67,0l.27.07a.52.52,0,0,0-.16.06.43.43,0,0,0-.14.6.45.45,0,0,0,.6.14.44.44,0,0,0,.14-.6A.42.42,0,0,0,26.37,47.63Z"/><path class="cls-2" d="M32.23,44a3.14,3.14,0,0,1,0-.38,1.28,1.28,0,0,1,.3-.69.57.57,0,0,1,.48-.14,1.26,1.26,0,0,1,.49.21,4.94,4.94,0,0,1,.84.76,9.66,9.66,0,0,1,.79,1c.25.35.51.72.75,1.11s.49.77.75,1.14a12.55,12.55,0,0,0,1.67,2,5.31,5.31,0,0,0,1,.74,2.32,2.32,0,0,0,1,.33,1,1,0,0,0,.77-.31.92.92,0,0,0,.25-.62.56.56,0,0,0,0-.13.42.42,0,0,1-.19.26.43.43,0,0,1-.6-.14.43.43,0,0,1,.7-.5l0-.09.08.13h0a1.18,1.18,0,0,1,.12.45,1.06,1.06,0,0,1-.22.72,1.1,1.1,0,0,1-.36.31,1.52,1.52,0,0,1-.52.12,2.48,2.48,0,0,1-1.13-.3,4.78,4.78,0,0,1-1-.73,11.51,11.51,0,0,1-1.77-2.08c-.27-.39-.5-.78-.74-1.16s-.47-.76-.71-1.11A7.85,7.85,0,0,0,33.4,43.2c-.26-.2-.56-.3-.75-.14a1.12,1.12,0,0,0-.31.6,1.68,1.68,0,0,0-.06.27.46.46,0,0,1,.12-.12.44.44,0,1,1-.14.6A.42.42,0,0,1,32.23,44Z"/></g></g></svg>