<svg xmlns="http://www.w3.org/2000/svg" viewBox="0 0 203 203"><defs><style>.cls-1{fill:#4395d4;}</style></defs><g id="Capa_2" data-name="Capa 2"><g id="Layer_1" data-name="Layer 1"><path class="cls-1" d="M101.54,0A101.5,101.5,0,1,1,0,101.36,101.42,101.42,0,0,1,101.54,0Zm45.74,152.71a53,53,0,0,0,15.12-2.58,71.66,71.66,0,0,0,12.95-5.75,5.46,5.46,0,0,0,2.45-2.51,233,233,0,0,0,9.77-23.38,171,171,0,0,0,5.85-21.43,1.57,1.57,0,0,0-.15-.9,53.17,53.17,0,0,0-19.79-21.75,2,2,0,0,0-1.78-.24q-8.5,2.34-17,4.65Q147.14,80.88,139.6,83a1.38,1.38,0,0,0-.83.81c-1.8,5.38-3.55,10.78-5.3,16.19-2.52,7.79-5,15.59-7.57,23.37a1.55,1.55,0,0,0,.22,1.56c3.24,4.71,6.45,9.44,9.67,14.16,2.69,3.93,5.46,7.81,8,11.81C144.8,152.38,145.82,153.19,147.28,152.71Zm-91.81,0c.64,0,1.28.05,1.9,0a1.34,1.34,0,0,0,.86-.43q4.05-5.83,8-11.71L72.79,131c1.46-2.15,2.93-4.28,4.37-6.44a1.14,1.14,0,0,0,.11-.85c-.44-1.46-.93-2.91-1.4-4.36-3.73-11.49-7.48-23-11.17-34.48a2.77,2.77,0,0,0-2.16-2.15q-15.37-4.14-30.7-8.43a3.05,3.05,0,0,0-2.73.43A54.92,54.92,0,0,0,16.37,86,51.73,51.73,0,0,0,9.81,96.12a1.72,1.72,0,0,0-.09,1A156.75,156.75,0,0,0,15.34,118a217.47,217.47,0,0,0,9.86,23.72,5.42,5.42,0,0,0,2.68,2.76c1.83.86,3.57,1.9,5.4,2.76A55.66,55.66,0,0,0,55.47,152.73Zm46,32.14,0-.24a149.83,149.83,0,0,0,22.18-1.76,4.45,4.45,0,0,0,2.9-1.48c2.31-2.65,4.81-5.15,7-7.92a51.94,51.94,0,0,0,8.91-18.05,1.81,1.81,0,0,0-.23-1.34c-2.51-3.74-5.07-7.44-7.6-11.16q-5.46-8-10.9-16a1.17,1.17,0,0,0-1.2-.6c-3.11.26-6.22.61-9.34.68-6.21.15-12.43.27-18.64.16-4.67-.08-9.34-.55-14-.81a1.32,1.32,0,0,0-1,.41c-.78,1-1.47,2.07-2.19,3.12q-5.05,7.44-10.12,14.89c-2.11,3.1-4.22,6.21-6.36,9.3a1.6,1.6,0,0,0-.22,1.51,57.84,57.84,0,0,0,4.49,11,56.81,56.81,0,0,0,12.35,15.61,2.1,2.1,0,0,0,1,.48c2.22.34,4.44.73,6.68.93C90.54,184.08,96,184.45,101.43,184.87ZM100,38.38c0-5.23,0-10.46,0-15.69a1.39,1.39,0,0,0-.51-1c-1.41-1-2.85-2-4.32-2.88A49.55,49.55,0,0,0,73.74,12a1.06,1.06,0,0,0-.58.11c-2,.93-4.08,1.77-6,2.85-4.3,2.41-8.62,4.81-12.76,7.48a118.51,118.51,0,0,0-10.57,7.67c-3.61,2.91-7,6.14-10.46,9.19a2.94,2.94,0,0,0-1,1.74c-.69,3.53-1.55,7-2,10.61a47.5,47.5,0,0,0,1.24,18.64,1.25,1.25,0,0,0,1,1c4.9,1.32,9.8,2.67,14.69,4q8.13,2.25,16.25,4.5c.88.25,1.67.37,2.27-.54a4.83,4.83,0,0,1,.71-.63A157,157,0,0,1,83.79,64.5a131.5,131.5,0,0,1,15.42-9.45,1.28,1.28,0,0,0,.81-1.33C100,48.61,100,43.5,100,38.38Zm3.08-.07c0,5,0,10.06,0,15.09a1.79,1.79,0,0,0,1.13,1.84c2.95,1.63,5.89,3.29,8.78,5a108,108,0,0,1,13.4,9.37c3.82,3.21,7.55,6.52,11.29,9.83a1.31,1.31,0,0,0,1.43.39c7.78-2.16,15.57-4.28,23.35-6.42,2.76-.75,5.51-1.5,8.26-2.29a1.21,1.21,0,0,0,.72-.68,33.92,33.92,0,0,0,.88-3.61A49.78,49.78,0,0,0,173,53.42a64.88,64.88,0,0,0-2.37-12.74,1.52,1.52,0,0,0-.43-.69c-.42-.38-.92-.67-1.34-1.05-2.29-2.08-4.47-4.29-6.86-6.23q-5.31-4.32-10.87-8.32a117.89,117.89,0,0,0-21.21-12,2.49,2.49,0,0,0-1.24-.15A58.9,58.9,0,0,0,118,14.41a45.6,45.6,0,0,0-14.25,7.12,1.66,1.66,0,0,0-.64,1.09C103.06,27.85,103.08,33.08,103.08,38.31ZM61.65,191.72l0,.27q39.89,16.71,79.76-.13a27.82,27.82,0,0,0-3-1.35c-3.73-1.38-7.46-2.78-11.21-4.11a5.57,5.57,0,0,0-2.57-.48,162.51,162.51,0,0,1-19.33,1.72,149.83,149.83,0,0,1-26-1.62,5.32,5.32,0,0,0-2.45,0c-4.16,1.47-8.28,3.05-12.41,4.59ZM3.43,92.07l-.25.11c-2,24.79,4.07,47.35,18.65,67.61A2.39,2.39,0,0,0,22,159Q22.6,152,23.15,145a1.91,1.91,0,0,0-.21-.89c-1.5-3.21-3.12-6.37-4.49-9.64-1.91-4.51-3.71-9.08-5.4-13.67A150.58,150.58,0,0,1,6.94,99.3a11.47,11.47,0,0,0-.67-3.11A38.18,38.18,0,0,0,3.43,92.07Zm177.62,67.72c14.74-20.26,20.89-42.83,18.73-67.7a37.3,37.3,0,0,0-2.53,3.39A4.72,4.72,0,0,0,196.6,97c-.59,2.59-1.06,5.2-1.69,7.78a172.39,172.39,0,0,1-6.26,20A186.15,186.15,0,0,1,181,142.4a7,7,0,0,0-.93,4.45c.29,1.82.29,3.69.43,5.53C180.66,154.85,180.86,157.32,181.05,159.79ZM129.19,6.7c.83,1.6,1.62,2.9,3.31,3.44a22.78,22.78,0,0,1,3.07,1.39,138.32,138.32,0,0,1,36.28,26,1,1,0,0,0,.4.3c1.8.33,3.6.64,5.4.95A98,98,0,0,0,129.19,6.7Zm-104,32.14c1.6-.28,2.94-.53,4.3-.75A2.77,2.77,0,0,0,31,37.3c4.07-3.67,8-7.45,12.33-10.86A125.33,125.33,0,0,1,70.63,9.85C72.54,9,73.15,8.37,73.7,6.71A99.7,99.7,0,0,0,25.18,38.84Z"/></g></g></svg>