<svg xmlns="http://www.w3.org/2000/svg" viewBox="0 0 241.75 267.16"><defs><style>.cls-1{fill:#ffdf00;}.cls-2{fill:#d60613;}</style></defs><g id="Capa_2" data-name="Capa 2"><g id="Layer_1" data-name="Layer 1"><circle class="cls-1" cx="5.88" cy="5.88" r="5.88"/><path class="cls-1" d="M88.42,5.88A5.88,5.88,0,1,1,82.54,0,5.88,5.88,0,0,1,88.42,5.88Z"/><circle class="cls-1" cx="159.21" cy="5.88" r="5.88"/><circle class="cls-1" cx="235.88" cy="5.88" r="5.88"/><circle class="cls-1" cx="5.88" cy="81.88" r="5.88"/><path class="cls-1" d="M88.42,81.88A5.88,5.88,0,1,1,82.54,76,5.87,5.87,0,0,1,88.42,81.88Z"/><circle class="cls-1" cx="159.21" cy="81.88" r="5.88"/><circle class="cls-1" cx="235.88" cy="81.88" r="5.88"/><circle class="cls-1" cx="5.88" cy="157.88" r="5.88"/><path class="cls-1" d="M88.42,157.88A5.88,5.88,0,1,1,82.54,152,5.87,5.87,0,0,1,88.42,157.88Z"/><circle class="cls-1" cx="159.21" cy="157.88" r="5.88"/><circle class="cls-1" cx="235.88" cy="157.88" r="5.88"/><circle class="cls-1" cx="5.88" cy="233.88" r="5.88"/><path class="cls-1" d="M88.42,233.88A5.88,5.88,0,1,1,82.54,228,5.87,5.87,0,0,1,88.42,233.88Z"/><circle class="cls-1" cx="159.21" cy="233.88" r="5.88"/><circle class="cls-1" cx="235.88" cy="233.88" r="5.88"/><circle class="cls-2" cx="78.77" cy="242.2" r="24.96"/></g></g></svg>