<svg xmlns="http://www.w3.org/2000/svg" viewBox="0 0 361.16 59.64"><defs><style>.cls-1,.cls-2,.cls-3,.cls-4{fill-rule:evenodd;}.cls-2{fill:#449ad9;}.cls-3{fill:#f8e74f;}.cls-4{fill:#cd2e26;}.cls-5{fill:#666;}.cls-6{fill:none;stroke:#727376;stroke-miterlimit:22.93;stroke-width:0.22px;}.cls-7{fill:#727376;}</style></defs><g id="Capa_2" data-name="Capa 2"><g id="Layer_1" data-name="Layer 1"><polygon class="cls-1" points="30.72 29.95 59.64 29.95 59.64 15.23 30.72 15.23 30.72 29.95 30.72 29.95"/><polygon class="cls-1" points="15.23 59.64 29.95 59.64 29.95 30.72 15.23 30.72 15.23 59.64 15.23 59.64"/><polygon class="cls-1" points="30.72 14.46 59.64 14.46 59.64 0 30.72 0 30.72 14.46 30.72 14.46"/><polygon class="cls-1" points="0 59.64 14.46 59.64 14.46 30.72 0 30.72 0 59.64 0 59.64"/><polygon class="cls-2" points="15.23 29.95 29.95 29.95 29.95 15.23 15.23 15.23 15.23 29.95 15.23 29.95"/><polygon class="cls-1" points="15.23 14.46 29.95 14.46 29.95 0 15.23 0 15.23 14.46 15.23 14.46"/><polygon class="cls-1" points="0 29.95 14.46 29.95 14.46 15.23 0 15.23 0 29.95 0 29.95"/><polygon class="cls-3" points="0 14.46 14.46 14.46 14.46 0 0 0 0 14.46 0 14.46"/><polygon class="cls-4" points="30.72 59.64 59.64 59.64 59.64 30.72 30.72 30.72 30.72 59.64 30.72 59.64"/><polygon class="cls-5" points="270.7 36.27 276.25 36.27 276.25 14.72 270.7 14.72 270.7 36.27 270.7 36.27"/><polygon class="cls-6" points="270.7 36.27 276.25 36.27 276.25 14.72 270.7 14.72 270.7 36.27 270.7 36.27"/><path class="cls-7" d="M257.43,28.76c3.06,0,3.51.92,3.51,3.74a15,15,0,0,0,.33,3.77h6.64v-.66c-.77,0-.69-1-.69-3.77,0-4.34-1.28-4.88-3.39-5.72,2.33-.69,3.36-2.78,3.36-5.27,0-4.19-2.19-6.13-8.87-6.13h-9.45V36.27h6.56V28.76Zm-2-9h3.06c1.53,0,2.64.71,2.64,2.24s-1.08,2-3.11,2h-2.59V19.75Z"/><path class="cls-7" d="M235.12,14.15c-6.23,0-10.48,4.4-10.48,11.16,0,7.34,4.2,11.53,10.48,11.53,5.92,0,10.51-4.13,10.51-11.47,0-5.68-3.37-11.22-10.51-11.22Zm-.06,5.27c2.89-.09,4,3,4,5.95,0,3.57-1.12,6.2-3.95,6.2-3.14,0-3.92-3.44-3.92-6.2s.89-5.95,3.86-5.95Z"/><path class="cls-7" d="M221.83,21c-.47-3.77-3-6.82-8.56-6.82-5,0-8.68,2.3-8.68,6.88,0,8.24,11.51,6,11.51,9.25,0,1-1.08,1.59-2.72,1.59a3.43,3.43,0,0,1-1.87-.54,2.49,2.49,0,0,1-1.08-1.71h-6.28c.14,3.9,3.58,7.22,8.87,7.22,5.5,0,9.36-2.43,9.36-7.42,0-7.85-11.5-5.84-11.5-9.08,0-.77.63-1.22,2.08-1.22a3.44,3.44,0,0,1,1.7.39A1.88,1.88,0,0,1,215.6,21Z"/><path class="cls-7" d="M201.76,21c-.48-3.77-3-6.82-8.56-6.82-5,0-8.68,2.3-8.68,6.88,0,8.24,11.51,6,11.51,9.25,0,1-1.08,1.59-2.72,1.59a3.43,3.43,0,0,1-1.87-.54,2.49,2.49,0,0,1-1.08-1.71h-6.28c.14,3.9,3.58,7.22,8.86,7.22,5.51,0,9.37-2.43,9.37-7.42,0-7.85-11.51-5.84-11.51-9.08,0-.77.64-1.22,2.09-1.22a3.44,3.44,0,0,1,1.7.39,1.88,1.88,0,0,1,.94,1.46Z"/><polygon class="cls-7" points="182.13 36.42 182.13 31.4 170.29 31.36 170.29 27.97 180.57 27.97 180.57 22.95 170.29 22.95 170.29 19.86 181.8 19.9 181.8 14.87 164.69 14.83 164.69 36.39 182.13 36.42 182.13 36.42"/><polygon class="cls-7" points="143.63 19.39 149.76 19.39 149.76 36.42 155.61 36.42 155.61 19.39 162.08 19.35 162.08 14.83 143.63 14.87 143.63 19.39 143.63 19.39"/><polygon class="cls-7" points="128.09 14.87 122.68 14.87 122.67 36.42 128.23 36.42 128.23 29.6 127.98 24.69 135.13 36.42 141.27 36.42 141.27 14.87 135.83 14.87 135.84 26.64 128.09 14.87 128.09 14.87"/><path class="cls-7" d="M109,14.15c-6.23,0-10.48,4.4-10.48,11.16,0,7.34,4.2,11.53,10.48,11.53,5.92,0,10.51-4.13,10.51-11.47,0-5.68-3.37-11.22-10.51-11.22ZM109,19.42c2.89-.09,4,3,4,5.95,0,3.57-1.12,6.2-4,6.2-3.14,0-3.92-3.44-3.92-6.2s.89-5.95,3.86-5.95Z"/><polygon class="cls-7" points="76.6 36.47 76.83 21.18 80.97 36.33 85.81 36.47 89.74 21.06 90 36.47 95.4 36.47 95.4 14.91 87.12 14.91 83.43 28.35 79.74 14.91 71.45 14.91 71.45 36.47 76.6 36.47 76.6 36.47"/><path class="cls-7" d="M73.56,59.11V42.36H72V59.11Zm15.54,0h1.83V42.36H89.35V57h0L79.63,42.36H77.84V59.11h1.58V44.5h0L89.1,59.11Zm4.07-15.4h5.3v15.4h1.58V43.71h5.31V42.36H93.17v1.35ZM119,59.11V57.76h-9.8V51.11h8.63V49.76h-8.63v-6h9.56V42.36H107.61V59.11Zm4.39-9V43.71h5c2.11,0,4.07.6,4.07,3.12,0,2.35-1.82,3.32-4.17,3.32Zm5,1.35c1.58,0,3,.24,3.33,2,.25,1.28.09,4.42.74,5.56h1.75V59c-.42-.33-.63-1-.7-3.56,0-1.77-.16-3.86-2.14-4.54a3.93,3.93,0,0,0,2.72-4.09c0-3.1-2-4.4-5.7-4.4H121.8V59.11h1.58V51.5Zm20.19,7.61h1.84V42.36h-1.58V57h-.05l-9.68-14.63h-1.79V59.11h1.59V44.5h0l9.63,14.61Zm5.68,0,2-5.26h7.62l1.94,5.26h1.62L161,42.36h-1.79L152.6,59.11ZM160,43.71l3.28,8.79h-6.56L160,43.71Zm6,0h5.3v15.4h1.58V43.71h5.31V42.36H166v1.35Zm16.58,15.4V42.36H181V59.11Zm3.68-8.35c0,4.81,2.63,8.79,7.79,8.79s7.82-4,7.82-8.79-2.65-8.84-7.89-8.84c-5,0-7.74,3.95-7.72,8.84Zm7.82,7.44c-4.38,0-6.24-3.49-6.24-7.44s1.89-7.49,6.19-7.49c3.86,0,6.26,2.84,6.26,7.49,0,3.91-1.86,7.44-6.21,7.44Zm22.14.91h1.84V42.36h-1.58V57h0l-9.68-14.63H205V59.11h1.58V44.5h.05l9.63,14.61Zm5.68,0,2-5.26h7.63l1.93,5.26h1.63l-6.42-16.75h-1.79l-6.58,16.75Zm5.79-15.4L231,52.5h-6.56l3.28-8.79Zm20.19,15.4V57.76h-9V42.36h-1.58V59.11Zm22.35-11.89c-.53-3.46-3-5.3-6.49-5.3-4.44,0-7.79,2.42-7.79,8.82,0,4.74,2.05,8.81,7.21,8.81,4.49,0,6.52-2.72,7.26-5.95h-1.65c-.63,2.65-2.42,4.6-5.31,4.6-4.55,0-5.93-3.77-5.93-7.51,0-4,1.75-7.42,5.8-7.42,2.86,0,4.62,1.09,5.28,3.95Zm2.63,3.54c0,4.81,2.63,8.79,7.8,8.79s7.81-4,7.81-8.79-2.65-8.84-7.88-8.84c-5,0-7.75,3.95-7.73,8.84Zm7.82,7.44c-4.37,0-6.24-3.49-6.24-7.44s1.89-7.49,6.19-7.49c3.86,0,6.26,2.84,6.26,7.49,0,3.91-1.86,7.44-6.21,7.44Zm21.49.91V57.76h-9V42.36h-1.58V59.11Zm12.94,0V57.76h-9V42.36h-1.59V59.11Zm13.74,0V57.76h-9.79V51.11h8.63V49.76h-8.63v-6h9.56V42.36H317.48V59.11Zm15.61-7.31a7.69,7.69,0,0,1-.72,3.47,5.49,5.49,0,0,1-5.05,2.93c-3.84,0-6.07-3.23-6.07-6.93,0-4.75,1.86-8,6.28-8a5.15,5.15,0,0,1,5.26,3.95h1.63c-.72-3.58-3.49-5.3-7-5.3-5.28,0-7.75,3.81-7.75,8.72,0,6,3.09,8.91,7.33,8.91,3.3,0,5.09-1.3,6.25-3.3v2.86H346V50.46h-7.16V51.8Zm16.7,7.31V57.76h-9.79V51.11H360V49.76h-8.63v-6h9.56V42.36H349.79V59.11Z"/></g></g></svg>