<?xml version="1.0" standalone="no"?>
<!DOCTYPE svg PUBLIC "-//W3C//DTD SVG 1.1//EN" "http://www.w3.org/Graphics/SVG/1.1/DTD/svg11.dtd" >
<svg xmlns="http://www.w3.org/2000/svg" xmlns:xlink="http://www.w3.org/1999/xlink" version="1.1">
<metadata>
Created by FontForge 20170731 at Tue Dec  9 20:07:47 2003
 By Aleksey,,,
Copyright 1990-2003 Bitstream Inc. All rights reserved.
</metadata>
<defs>
<font id="Geometric212BT-HeavyCondensed" horiz-adv-x="1024" >
  <font-face 
    font-family="Geometr212 BkCn BT"
    font-weight="700"
    font-stretch="condensed"
    units-per-em="2048"
    panose-1="2 11 8 3 2 2 4 2 2 4"
    ascent="1556"
    descent="-492"
    x-height="1237"
    cap-height="1587"
    bbox="-342 -483 3152 2068"
    underline-thickness="236"
    underline-position="-569"
    unicode-range="U+0020-F002"
  />
<missing-glyph horiz-adv-x="1229" 
d="M102 -362v1806h1024v-1806h-1024zM217 -248h795v1577h-795v-1577z" />
    <glyph glyph-name=".notdef" horiz-adv-x="1229" 
d="M102 -362v1806h1024v-1806h-1024zM217 -248h795v1577h-795v-1577z" />
    <glyph glyph-name=".null" horiz-adv-x="0" 
 />
    <glyph glyph-name="nonmarkingreturn" horiz-adv-x="555" 
 />
    <glyph glyph-name="space" unicode=" " horiz-adv-x="555" 
 />
    <glyph glyph-name="exclam" unicode="!" horiz-adv-x="649" 
d="M494 1587v-1061h-338v1061h338zM324 -16q-86 0 -144.5 58.5t-58.5 143.5t59 145t144 60q84 0 144 -60t60 -145q0 -84 -59.5 -143t-144.5 -59z" />
    <glyph glyph-name="quotedbl" unicode="&#x22;" horiz-adv-x="678" 
d="M406 1438h192v-559h-192v559zM80 1438h192v-559h-192v559z" />
    <glyph glyph-name="numbersign" unicode="#" horiz-adv-x="1575" 
d="M709 848l-88 -244h251l86 244h-249zM709 1464h221l-146 -415h242l148 415h221l-148 -415h283l-74 -201h-280l-84 -242h290l-71 -200h-291l-148 -416h-221l148 416h-244l-149 -416h-220l146 416h-287l76 200h282l86 242h-299l74 201h297z" />
    <glyph glyph-name="dollar" unicode="$" horiz-adv-x="1110" 
d="M615 219q94 10 143 57.5t49 129.5q0 65 -46 113t-147 87zM492 1266q-83 -13 -125.5 -54t-42.5 -108q0 -53 42 -98t126 -80v340zM635 885q239 -90 337.5 -193t98.5 -258q0 -181 -120 -294t-337 -134v-178h-143v180q-145 11 -259 65.5t-198 153.5l158 160
q70 -81 143.5 -120.5t155.5 -39.5v422q-228 91 -321 186.5t-93 233.5q0 169 115.5 278.5t319.5 135.5v147h143v-147q119 -12 212 -53.5t167 -114.5l-144 -176q-53 59 -110.5 89.5t-124.5 34.5v-378z" />
    <glyph glyph-name="percent" unicode="%" horiz-adv-x="2228" 
d="M1442 412q0 -103 71 -174.5t173 -71.5q101 0 173 71.5t72 174.5t-71.5 174t-173.5 71q-103 0 -173.5 -71t-70.5 -174zM1241 412q0 90 33.5 170.5t97.5 144.5t144.5 97.5t169.5 33.5q88 0 169 -33.5t146 -97.5q64 -64 97.5 -145t33.5 -170q0 -90 -33.5 -170t-97.5 -144
q-65 -63 -146 -97t-169 -34q-90 0 -170.5 33.5t-143.5 95.5q-64 65 -97.5 145t-33.5 171zM575 -33l910 1626h166l-912 -1626h-164zM295 1147q0 -102 71.5 -173t174.5 -71q102 0 173.5 71t71.5 173q0 103 -71 174.5t-174 71.5t-174.5 -71.5t-71.5 -174.5zM94 1147
q0 91 33.5 171t97.5 144q63 63 145 97t171 34q88 0 169 -33.5t146 -97.5q63 -63 96 -143.5t33 -171.5q0 -90 -33 -170t-96 -143q-65 -64 -146 -98t-169 -34q-90 0 -171.5 33.5t-144.5 95.5q-64 65 -97.5 145t-33.5 171z" />
    <glyph glyph-name="ampersand" unicode="&#x26;" horiz-adv-x="1536" 
d="M616 678q-97 -51 -144.5 -112t-47.5 -134q0 -84 58 -139t147 -55q65 0 131 28.5t127 83.5zM670 1008q102 56 146 111t44 124q0 70 -42 116t-105 46q-68 0 -112 -45t-44 -115q0 -52 28 -110.5t85 -126.5zM1155 0l-115 143q-122 -89 -241 -132.5t-242 -43.5
q-214 0 -349.5 127.5t-135.5 327.5q0 151 87.5 266.5t266.5 200.5q-76 75 -113 156t-37 176q0 179 118.5 290t310.5 111q191 0 307 -104t116 -273q0 -128 -66 -229t-208 -191l231 -274q44 42 91 95.5t112 133.5l199 -182q-51 -72 -108 -137t-119 -123l282 -338h-387z" />
    <glyph glyph-name="quotesingle" unicode="'" horiz-adv-x="352" 
d="M80 1438h192v-559h-192v559z" />
    <glyph glyph-name="parenleft" unicode="(" horiz-adv-x="868" 
d="M879 1620q-185 -203 -278 -427.5t-93 -465.5t93 -465.5t278 -427.5h-326q-169 195 -253.5 419t-84.5 474t84.5 474t253.5 419h326z" />
    <glyph glyph-name="parenright" unicode=")" horiz-adv-x="868" 
d="M2 -166q184 203 277.5 427.5t93.5 465.5t-93.5 465.5t-277.5 427.5h328q167 -194 251.5 -417.5t84.5 -475.5t-84.5 -475.5t-251.5 -417.5h-328z" />
    <glyph glyph-name="asterisk" unicode="*" horiz-adv-x="967" 
d="M481 1079l-168 -350l-194 141l278 271l-379 51l72 229l340 -182l-68 383l240 -2l-67 -381l339 182l74 -227l-383 -53l281 -271l-197 -141z" />
    <glyph glyph-name="plus" unicode="+" horiz-adv-x="1706" 
d="M752 1221h202v-510h498v-199h-498v-512h-202v512h-498v199h498v510z" />
    <glyph glyph-name="comma" unicode="," horiz-adv-x="555" 
d="M-45 -180l238 674h339l-313 -674h-264z" />
    <glyph glyph-name="hyphen" unicode="-" horiz-adv-x="750" 
d="M86 487v277h578v-277h-578z" />
    <glyph glyph-name="period" unicode="." horiz-adv-x="555" 
d="M276 -16q-85 0 -143.5 58.5t-58.5 143.5t59 145t143 60q85 0 145 -60t60 -145q0 -84 -59.5 -143t-145.5 -59z" />
    <glyph glyph-name="slash" unicode="/" horiz-adv-x="659" 
d="M72 -190h-193l660 1812h192z" />
    <glyph glyph-name="zero" unicode="0" horiz-adv-x="1110" 
d="M555 250q79 0 115.5 125.5t36.5 404.5q0 280 -36 404.5t-116 124.5t-117 -125.5t-37 -403.5q0 -277 37 -403.5t117 -126.5zM66 780q0 379 131 596t358 217q229 0 358 -214.5t129 -598.5q0 -383 -129 -598t-356 -215q-228 0 -359.5 216.5t-131.5 596.5z" />
    <glyph glyph-name="one" unicode="1" horiz-adv-x="1110" 
d="M424 0v1284h-258v277h557v-1561h-299z" />
    <glyph glyph-name="two" unicode="2" horiz-adv-x="1110" 
d="M12 0q51 68 147 193q533 701 533 933q0 89 -40.5 139t-112.5 50q-87 0 -128.5 -66.5t-41.5 -206.5v-10h-287q0 9 -1 24.5t-1 22.5q0 239 122.5 376.5t334.5 137.5t337 -127t125 -344q0 -187 -109.5 -389t-352.5 -461h489v-272h-1014z" />
    <glyph glyph-name="three" unicode="3" horiz-adv-x="1110" 
d="M791 811q115 -52 174 -146t59 -229q0 -209 -132.5 -339t-346.5 -130q-208 0 -339 126t-147 341h287q4 -89 54 -137.5t137 -48.5q85 0 132.5 53.5t47.5 151.5q0 107 -55 162t-162 55q-17 0 -25 -0.5t-16 -1.5v262q7 -1 15 -1.5t24 -0.5q104 0 163.5 56t59.5 153
q0 83 -46 130.5t-126 47.5q-74 0 -116.5 -42.5t-47.5 -121.5h-285q11 207 129 324.5t314 117.5q209 0 335 -115t126 -304q0 -135 -53.5 -225.5t-159.5 -137.5z" />
    <glyph glyph-name="four" unicode="4" horiz-adv-x="1110" 
d="M664 627l24 673l-407 -673h383zM643 0v379h-606v227l592 955h307v-934h129v-248h-129v-379h-293z" />
    <glyph glyph-name="five" unicode="5" horiz-adv-x="1110" 
d="M106 410q62 -74 142.5 -113t171.5 -39q119 0 193.5 72.5t74.5 187.5q0 121 -80 192.5t-215 71.5q-57 0 -111.5 -13.5t-109.5 -41.5l-39 25l148 809h682v-273h-451l-47 -260q11 1 24.5 1.5t38.5 0.5q224 0 352 -132t128 -363q0 -256 -148.5 -412t-390.5 -156
q-103 0 -203 27.5t-203 83.5z" />
    <glyph glyph-name="six" unicode="6" horiz-adv-x="1110" 
d="M561 233q83 0 131.5 65t48.5 175q0 109 -49 173.5t-131 64.5t-131 -65t-49 -173q0 -110 49 -175t131 -65zM537 963q10 1 21 1.5t32 0.5q207 0 330.5 -134.5t123.5 -361.5q0 -221 -132.5 -362.5t-340.5 -141.5q-216 0 -355.5 148.5t-139.5 380.5q0 110 38.5 233.5
t112.5 249.5l346 584h357z" />
    <glyph glyph-name="seven" unicode="7" horiz-adv-x="1110" 
d="M133 0l533 1290h-572v271h963l-598 -1561h-326z" />
    <glyph glyph-name="eight" unicode="8" horiz-adv-x="1110" 
d="M371 449q0 -105 49 -166.5t133 -61.5q83 0 132.5 61.5t49.5 166.5q0 104 -49.5 166.5t-132.5 62.5t-132.5 -62t-49.5 -167zM381 1141q0 -100 47 -158.5t125 -58.5t125 59t47 158q0 98 -47 156.5t-125 58.5q-79 0 -125.5 -58t-46.5 -157zM821 819q103 -63 158 -162.5
t55 -222.5q0 -98 -36.5 -185t-104.5 -153q-65 -63 -151 -96t-187 -33t-187 33t-151 96q-69 66 -106 153.5t-37 184.5q0 123 55 222.5t158 162.5q-87 61 -129.5 145t-42.5 195q0 190 124 312t316 122t316 -122t124 -312q0 -110 -43 -194t-131 -146z" />
    <glyph glyph-name="nine" unicode="9" horiz-adv-x="1110" 
d="M545 1325q-83 0 -130.5 -63.5t-47.5 -174.5q0 -109 48 -173t130 -64q81 0 130.5 64.5t49.5 172.5q0 110 -49 174t-131 64zM571 596q-9 -1 -20.5 -1.5t-32.5 -0.5q-208 0 -332.5 135.5t-124.5 362.5q0 220 133.5 360.5t342.5 140.5q216 0 354.5 -148t138.5 -380
q0 -112 -38 -234.5t-111 -246.5l-349 -584h-354z" />
    <glyph glyph-name="colon" unicode=":" horiz-adv-x="649" 
d="M324 727q-86 0 -144.5 59t-58.5 144t59 145t144 60q84 0 144 -60.5t60 -144.5q0 -85 -59.5 -144t-144.5 -59zM324 -16q-86 0 -144.5 58.5t-58.5 143.5t59 145t144 60q84 0 144 -60t60 -145q0 -84 -59.5 -143t-144.5 -59z" />
    <glyph glyph-name="semicolon" unicode=";" horiz-adv-x="649" 
d="M-57 -180l239 674h340l-315 -674h-264zM344 727q-86 0 -145.5 59t-59.5 144q0 84 60.5 144.5t144.5 60.5q85 0 145 -60.5t60 -144.5q0 -85 -59.5 -144t-145.5 -59z" />
    <glyph glyph-name="less" unicode="&#x3c;" horiz-adv-x="1706" 
d="M1442 1194v-219l-893 -365l893 -364v-219l-1178 485v199z" />
    <glyph glyph-name="equal" unicode="=" horiz-adv-x="1706" 
d="M254 496h1198v-199h-1198v199zM254 926h1198v-199h-1198v199z" />
    <glyph glyph-name="greater" unicode="&#x3e;" horiz-adv-x="1706" 
d="M264 1194l1178 -483v-199l-1178 -485v219l895 364l-895 365v219z" />
    <glyph glyph-name="question" unicode="?" horiz-adv-x="1233" 
d="M354 526l1 406q11 -1 25 -1.5t40 -0.5q158 0 237.5 57t79.5 170q0 81 -47 128.5t-127 47.5q-75 0 -120.5 -42.5t-51.5 -119.5h-319v13q0 200 139 319t373 119q227 0 363 -126t136 -337q0 -187 -102 -301t-291 -137v-195h-336zM520 -16q-85 0 -145 59t-60 143
q0 85 60.5 145t144.5 60q85 0 145 -60t60 -145q0 -84 -59.5 -143t-145.5 -59z" />
    <glyph glyph-name="at" unicode="@" horiz-adv-x="2048" 
d="M1167 272q-55 -84 -127 -123.5t-170 -39.5q-158 0 -240.5 86t-82.5 254q0 239 139.5 401t343.5 162q80 0 139 -33t97 -98l53 98h178l-147 -598q-3 -11 -5 -22.5t-2 -18.5q0 -35 24 -52.5t71 -17.5q39 0 81.5 20t79.5 56q86 80 130.5 187t44.5 235q0 240 -185.5 394.5
t-478.5 154.5q-141 0 -262.5 -34t-220.5 -101q-170 -114 -261.5 -285t-91.5 -375q0 -307 207 -490.5t553 -183.5q162 0 316.5 49t287.5 142l82 -117q-153 -115 -324.5 -173t-357.5 -58q-192 0 -353 48.5t-286 143.5q-155 121 -232 279t-77 358q0 167 52.5 318.5t154.5 275.5
q148 181 356 274t463 93q169 0 317.5 -45.5t258.5 -128.5q135 -105 201.5 -239.5t66.5 -303.5q0 -165 -65.5 -304.5t-188.5 -238.5q-70 -56 -152.5 -85.5t-171.5 -29.5q-106 0 -159.5 42t-55.5 124zM1217 700q-13 81 -57.5 123.5t-117.5 42.5q-114 0 -198 -124t-84 -298
q0 -92 40.5 -140t117.5 -48q83 0 151.5 63t93.5 164z" />
    <glyph glyph-name="A" unicode="A" horiz-adv-x="1561" 
d="M512 303l-84 -303h-358l516 1587h387l516 -1587h-356l-84 303h-537zM561 555h410l-203 750z" />
    <glyph glyph-name="B" unicode="B" horiz-adv-x="1540" 
d="M244 0v1587h495q170 0 252.5 -10.5t128.5 -34.5q96 -50 142.5 -133t46.5 -205q0 -115 -42 -193t-132 -134q150 -52 223.5 -150t73.5 -248q0 -251 -146 -365t-467 -114h-575zM594 690v-426h225q138 0 199 50t61 163q0 112 -61 162.5t-199 50.5h-225zM596 1327v-389h135
q124 0 182 47t58 148q0 103 -55.5 148.5t-184.5 45.5h-135z" />
    <glyph glyph-name="C" unicode="C" horiz-adv-x="1358" 
d="M1282 111q-93 -73 -204.5 -108.5t-250.5 -35.5q-158 0 -291 55t-229 160q-105 116 -158 269t-53 340q0 125 23.5 237t68.5 203q96 193 251 292t364 99q123 0 232 -30t210 -91v-368q-66 85 -155.5 127.5t-202.5 42.5q-194 0 -311 -138.5t-117 -369.5q0 -236 118.5 -372
t323.5 -136q115 0 210.5 41.5t170.5 124.5v-342z" />
    <glyph glyph-name="D" unicode="D" horiz-adv-x="1745" 
d="M741 1276h-145v-963h145q244 0 366 121t122 363q0 241 -121 360t-367 119zM244 0v1587h458q181 0 308 -20.5t204 -63.5q185 -103 281 -282.5t96 -421.5q0 -241 -89.5 -417t-266.5 -282q-88 -53 -223 -76.5t-361 -23.5h-407z" />
    <glyph glyph-name="E" unicode="E" horiz-adv-x="1640" 
d="M244 0v1587h1206v-313h-852v-307h797v-295h-797v-359h852v-313h-1206z" />
    <glyph glyph-name="F" unicode="F" horiz-adv-x="1470" 
d="M244 0v1587h1136v-313h-782v-307h725v-295h-725v-672h-354z" />
    <glyph glyph-name="G" unicode="G" horiz-adv-x="1626" 
d="M1525 854q3 -43 4 -64.5t1 -37.5q0 -111 -17 -203t-51 -162q-100 -212 -255 -316t-373 -104q-159 0 -294.5 59.5t-236.5 172.5q-104 118 -155.5 266t-51.5 330t52 332.5t155 267.5q98 112 234.5 169.5t304.5 57.5q187 0 329.5 -77t251.5 -236l-260 -201
q-60 105 -139.5 155t-185.5 50q-176 0 -280.5 -140.5t-104.5 -377.5q0 -238 108 -379.5t287 -141.5q136 0 228.5 85t99.5 214h-369v281h718z" />
    <glyph glyph-name="H" unicode="H" horiz-adv-x="1726" 
d="M244 0v1587h354v-606h528v606h355v-1587h-355v668h-528v-668h-354z" />
    <glyph glyph-name="I" unicode="I" horiz-adv-x="842" 
d="M244 0v1587h354v-1587h-354z" />
    <glyph glyph-name="J" unicode="J" horiz-adv-x="1186" 
d="M240 502q48 -113 101 -168t114 -55q72 0 102.5 52t30.5 181v1075h352v-1102q0 -265 -106 -392.5t-328 -127.5q-189 0 -323.5 97.5t-198.5 281.5z" />
    <glyph glyph-name="K" unicode="K" horiz-adv-x="1593" 
d="M244 0v1587h354v-719l573 719h408l-629 -768l658 -819h-426l-584 741v-741h-354z" />
    <glyph glyph-name="L" unicode="L" horiz-adv-x="1374" 
d="M244 0v1587h354v-1274h803v-313h-1157z" />
    <glyph glyph-name="M" unicode="M" horiz-adv-x="2138" 
d="M936 0l-293 958l-1 4q-50 168 -69 265v-29q0 -46 -4 -104.5t-12 -132.5l-108 -961h-308l234 1587h348l287 -928q19 -60 34 -124t25 -129q10 65 24 128t33 125l291 928h346l234 -1587h-307l-109 961q-9 73 -12.5 129t-3.5 110v27q-11 -56 -26.5 -117t-43.5 -152l-295 -958
h-264z" />
    <glyph glyph-name="N" unicode="N" horiz-adv-x="1688" 
d="M1139 0l-521 874q-22 38 -43.5 97t-39.5 134q9 -94 13.5 -178.5t4.5 -156.5v-770h-309v1587h307l498 -842q39 -65 64.5 -131.5t39.5 -136.5q-10 100 -15 184.5t-5 149.5v776h311v-1587h-305z" />
    <glyph glyph-name="O" unicode="O" horiz-adv-x="1561" 
d="M782 281q143 0 230.5 139t87.5 373q0 236 -88 375t-236 139q-142 0 -228.5 -139.5t-86.5 -372.5q0 -237 87 -375.5t234 -138.5zM784 -33q-154 0 -278 56t-215 167q-98 121 -146.5 272t-48.5 333q0 183 49.5 334.5t147.5 271.5q87 109 211.5 165t277.5 56q152 0 275.5 -56
t212.5 -165q96 -119 144 -271t48 -337q0 -183 -47.5 -333.5t-142.5 -269.5q-89 -109 -212.5 -166t-275.5 -57z" />
    <glyph glyph-name="P" unicode="P" horiz-adv-x="1563" 
d="M598 881h160q183 0 252 49t69 170q0 125 -63 172t-258 47h-160v-438zM598 612v-612h-354v1587h663q260 0 397.5 -122t137.5 -353q0 -244 -143 -372t-416 -128h-285z" />
    <glyph glyph-name="Q" unicode="Q" horiz-adv-x="1561" 
d="M868 299l-198 262l239 98l131 -182q31 55 45.5 125.5t14.5 165.5q0 255 -86 397t-238 142q-142 0 -228.5 -139.5t-86.5 -372.5t86 -373.5t225 -140.5q18 0 42 4.5t54 13.5zM1077 35q-68 -34 -141 -51t-156 -17q-150 0 -276 57t-213 164q-98 119 -146.5 270.5t-48.5 336.5
q0 182 49 334t146 272q88 108 213 164.5t276 56.5t275 -56.5t213 -164.5q97 -119 145.5 -271t48.5 -337q0 -179 -46 -325.5t-142 -272.5l196 -250l-235 -111z" />
    <glyph glyph-name="R" unicode="R" horiz-adv-x="1569" 
d="M244 0v1587h563q306 0 456 -116.5t150 -354.5q0 -188 -97 -299t-296 -149l502 -668h-410l-450 639h-74v-639h-344zM588 895h137q188 0 259 48t71 165q0 121 -66 168t-264 47h-137v-428z" />
    <glyph glyph-name="S" unicode="S" horiz-adv-x="1200" 
d="M764 909q174 -84 248.5 -185.5t74.5 -252.5q0 -225 -142 -364.5t-372 -139.5q-144 0 -264.5 56.5t-226.5 173.5l172 223q70 -82 148.5 -125t158.5 -43q89 0 144 52.5t55 137.5q0 60 -32.5 100t-129.5 89l-166 84q-173 88 -245 188t-72 248q0 202 138.5 336.5t348.5 134.5
q147 0 261 -55t196 -166l-197 -201q-59 71 -120 104t-134 33q-71 0 -117.5 -45.5t-46.5 -115.5q0 -58 34 -102t104 -79z" />
    <glyph glyph-name="T" unicode="T" horiz-adv-x="1442" 
d="M92 1280v307h1258v-307h-453v-1280h-352v1280h-453z" />
    <glyph glyph-name="U" unicode="U" horiz-adv-x="1663" 
d="M240 1587h352v-878q0 -224 58 -327t181 -103q124 0 182 103t58 327v878h352v-889q0 -359 -150 -545t-442 -186q-291 0 -441 186t-150 545v889z" />
    <glyph glyph-name="V" unicode="V" horiz-adv-x="1579" 
d="M621 0l-566 1587h373l297 -917q19 -60 35.5 -131t30.5 -152q9 67 26 137t41 146l305 917h361l-572 -1587h-331z" />
    <glyph glyph-name="W" unicode="W" horiz-adv-x="2066" 
d="M401 1587l189 -901q20 -95 29.5 -170t11.5 -143q4 53 13.5 118t29.5 162l186 934h344l189 -934q16 -83 26 -151.5t15 -128.5q1 64 11.5 139.5t31.5 173.5l186 901h305l-369 -1587h-329l-201 950q-14 65 -23 136t-14 148q-7 -95 -16 -162t-21 -122l-200 -950h-328
l-371 1587h305z" />
    <glyph glyph-name="X" unicode="X" horiz-adv-x="1540" 
d="M1133 0l-385 590l-367 -590h-389l553 827l-504 760h405l336 -512l332 512h379l-506 -753l561 -834h-415z" />
    <glyph glyph-name="Y" unicode="Y" horiz-adv-x="1518" 
d="M580 0v725l-596 862h401l375 -598l381 598h391l-598 -862v-725h-354z" />
    <glyph glyph-name="Z" unicode="Z" horiz-adv-x="1290" 
d="M41 0l645 1284h-549v303h1086l-643 -1284h612v-303h-1151z" />
    <glyph glyph-name="bracketleft" unicode="[" horiz-adv-x="868" 
d="M240 -166v1753h616v-141h-332v-1471h330v-141h-614z" />
    <glyph glyph-name="backslash" unicode="\" horiz-adv-x="659" 
d="M-121 1622h193l659 -1812h-192z" />
    <glyph glyph-name="bracketright" unicode="]" horiz-adv-x="868" 
d="M12 -166v141h332v1471h-332v141h615v-1753h-615z" />
    <glyph glyph-name="asciicircum" unicode="^" horiz-adv-x="2048" 
d="M897 1460h252l481 -561h-235l-371 371l-373 -371h-235z" />
    <glyph glyph-name="underscore" unicode="_" 
d="M0 -279h1024v-204h-1024v204z" />
    <glyph glyph-name="grave" unicode="`" 
d="M219 1751h258l197 -371h-142z" />
    <glyph glyph-name="a" unicode="a" horiz-adv-x="1186" 
d="M575 262q84 0 129.5 92t45.5 262t-45.5 261.5t-129.5 91.5q-83 0 -129.5 -92t-46.5 -261t46.5 -261.5t129.5 -92.5zM1049 0h-276q2 77 9 150t17 141q-51 -155 -135 -233t-199 -78q-177 0 -288 176t-111 462q0 298 103.5 467.5t283.5 169.5q97 0 174 -63t121 -180
q-11 56 -17.5 113t-7.5 112h326v-1237z" />
    <glyph glyph-name="b" unicode="b" horiz-adv-x="1186" 
d="M608 262q83 0 128.5 92t45.5 262t-45 261.5t-129 91.5t-130 -92t-46 -261t46.5 -261.5t129.5 -92.5zM133 0v1612h326v-332q0 -74 -6.5 -141.5t-18.5 -126.5q44 117 120.5 180t174.5 63q180 0 283.5 -169.5t103.5 -467.5q0 -286 -111 -462t-288 -176q-116 0 -199.5 78
t-134.5 233q10 -68 16.5 -140.5t9.5 -150.5h-276z" />
    <glyph glyph-name="c" unicode="c" horiz-adv-x="1100" 
d="M993 868q-53 60 -122 89.5t-154 29.5q-149 0 -235.5 -97t-86.5 -265q0 -171 88.5 -269t243.5 -98q76 0 140 26.5t126 84.5v-318q-59 -42 -142 -64t-183 -22q-280 0 -441 175.5t-161 480.5q0 295 159.5 473t425.5 178q97 0 183.5 -23.5t158.5 -68.5v-312z" />
    <glyph glyph-name="d" unicode="d" horiz-adv-x="1186" 
d="M575 262q84 0 129.5 92t45.5 262t-45.5 261.5t-129.5 91.5q-83 0 -129.5 -92t-46.5 -261t46.5 -261.5t129.5 -92.5zM1049 0h-276q2 77 9 150t17 141q-51 -155 -135 -233t-199 -78q-177 0 -288 176t-111 462q0 298 103.5 467.5t283.5 169.5q97 0 174 -63t121 -180
q-13 59 -19 126.5t-6 141.5v332h326v-1612z" />
    <glyph glyph-name="e" unicode="e" horiz-adv-x="1133" 
d="M373 539v-15q0 -142 56.5 -225.5t152.5 -83.5q58 0 103 36t73 105l266 -116q-64 -131 -180.5 -202t-268.5 -71q-241 0 -377.5 173.5t-136.5 480.5q0 300 135 474.5t365 174.5q251 0 377.5 -171.5t126.5 -510.5v-49h-692zM377 727h379q-9 156 -59.5 242t-131.5 86
t-130 -85.5t-58 -242.5z" />
    <glyph glyph-name="f" unicode="f" horiz-adv-x="739" 
d="M711 1341q-24 17 -47 24t-48 7q-54 0 -84 -35t-30 -100v-184h209v-238h-209v-815h-328v815h-166v238h166v186q0 192 85 282.5t265 90.5q57 0 102.5 -7.5t84.5 -23.5v-240z" />
    <glyph glyph-name="g" unicode="g" horiz-adv-x="1180" 
d="M1047 1237v-1057q0 -278 -129.5 -417.5t-387.5 -139.5q-185 0 -300 72t-134 199h336q8 -33 36 -49.5t75 -16.5q96 0 133 58t37 257v140q-41 -103 -107 -154t-155 -51q-169 0 -277 160.5t-108 418.5q0 269 110 431.5t287 162.5q103 0 183.5 -71.5t125.5 -202.5
q-12 69 -18 134t-6 126h299zM565 356q78 0 124 84t46 228q0 143 -46 228t-122 85q-77 0 -123.5 -84.5t-46.5 -228.5t46 -228t122 -84z" />
    <glyph glyph-name="h" unicode="h" horiz-adv-x="1233" 
d="M764 0v725q0 169 -25 215.5t-92 46.5q-96 0 -135 -88t-39 -330v-569h-338v1612h338v-369q0 -43 -5 -99t-15 -122q52 119 132.5 178.5t188.5 59.5q157 0 241.5 -103.5t84.5 -296.5v-860h-336z" />
    <glyph glyph-name="i" unicode="i" horiz-adv-x="592" 
d="M502 1468q0 -70 -53.5 -107.5t-153.5 -37.5t-153.5 37.5t-53.5 107.5t53 107t154 37q100 0 153.5 -37t53.5 -107zM131 0v1165h328v-1165h-328z" />
    <glyph glyph-name="j" unicode="j" horiz-adv-x="592" 
d="M502 1468q0 -70 -53.5 -107.5t-153.5 -37.5t-153.5 37.5t-53.5 107.5t53 107t154 37q100 0 153.5 -37t53.5 -107zM131 -375v1540h328v-1540h-328z" />
    <glyph glyph-name="k" unicode="k" horiz-adv-x="1110" 
d="M133 0v1612h318v-975l282 600h348l-288 -573l344 -664h-371l-315 608v-608h-318z" />
    <glyph glyph-name="l" unicode="l" horiz-adv-x="592" 
d="M131 0v1612h328v-1612h-328z" />
    <glyph glyph-name="m" unicode="m" horiz-adv-x="1808" 
d="M135 0v1237h293q-3 -80 -9 -153.5t-15 -138.5q58 158 147 236.5t211 78.5q104 0 178.5 -56t114.5 -164q59 112 136 166t179 54q150 0 230.5 -103t80.5 -297v-860h-327v725q0 176 -25 219t-94 43q-87 0 -124.5 -89.5t-37.5 -305.5v-23v-569h-330v725q0 176 -24.5 219
t-93.5 43q-89 0 -125.5 -90t-36.5 -328v-569h-328z" />
    <glyph glyph-name="n" unicode="n" horiz-adv-x="1233" 
d="M764 0v725q0 169 -25 215.5t-92 46.5q-96 0 -135 -88t-39 -330v-569h-338v1237h293q-3 -79 -9 -151.5t-15 -140.5q59 157 152 236t220 79q157 0 240.5 -103t83.5 -297v-860h-336z" />
    <glyph glyph-name="o" unicode="o" horiz-adv-x="1143" 
d="M571 227q81 0 124.5 101.5t43.5 289.5t-43.5 290t-124.5 102q-80 0 -124 -101.5t-44 -290.5q0 -188 44 -289.5t124 -101.5zM66 618q0 298 137.5 475t367.5 177t367 -177t137 -475q0 -297 -137 -474t-367 -177t-367.5 177t-137.5 474z" />
    <glyph glyph-name="p" unicode="p" horiz-adv-x="1186" 
d="M612 266q81 0 127.5 90t46.5 248q0 181 -44 275t-130 94q-83 0 -128.5 -91.5t-45.5 -260.5q0 -170 45.5 -262.5t128.5 -92.5zM387 946q50 154 135 232.5t201 78.5q176 0 286.5 -176.5t110.5 -464.5q0 -298 -103 -467t-282 -169q-97 0 -174 63t-121 180q13 -60 19 -126.5
t6 -139.5v-332h-328v1610h276q-3 -77 -9.5 -148.5t-16.5 -140.5z" />
    <glyph glyph-name="q" unicode="q" horiz-adv-x="1186" 
d="M575 266q84 0 129.5 92.5t45.5 262.5q0 169 -45.5 260.5t-129.5 91.5q-83 0 -129.5 -92t-46.5 -260q0 -170 46.5 -262.5t129.5 -92.5zM723 -375v332q0 73 6 139.5t19 126.5q-44 -117 -121 -180t-174 -63q-180 0 -283.5 169.5t-103.5 466.5q0 288 111 464.5t288 176.5
q115 0 199 -78t135 -233q-10 69 -17 141t-9 148h276v-1610h-326z" />
    <glyph glyph-name="r" unicode="r" horiz-adv-x="858" 
d="M133 0v1237h288q0 -68 -5 -144t-15 -169q62 169 150 250t209 81q10 0 21.5 -0.5t37.5 -3.5v-370q-38 18 -75.5 27.5t-73.5 9.5q-113 0 -161 -69.5t-48 -238.5v-610h-328z" />
    <glyph glyph-name="s" unicode="s" horiz-adv-x="1034" 
d="M686 932q-38 51 -81 76.5t-93 25.5q-64 0 -99.5 -31.5t-35.5 -87.5q0 -82 190 -151q14 -5 22 -8q216 -76 290.5 -162t74.5 -238q0 -177 -120.5 -283t-323.5 -106q-163 0 -283.5 63t-163.5 169l228 135q44 -60 96.5 -89.5t114.5 -29.5q69 0 111 34t42 89q0 83 -164 148
q-45 18 -69 28q-204 86 -275 169.5t-71 217.5q0 166 118 267.5t312 101.5q143 0 249 -58t167 -170z" />
    <glyph glyph-name="t" unicode="t" horiz-adv-x="758" 
d="M543 1587v-350h202v-238h-202v-999h-328v999h-205v238h205v350h328z" />
    <glyph glyph-name="u" unicode="u" horiz-adv-x="1219" 
d="M455 1237v-772q0 -111 38.5 -168t114.5 -57q77 0 115.5 56.5t38.5 168.5v772h328v-766q0 -237 -127.5 -370.5t-354.5 -133.5q-228 0 -354.5 132.5t-126.5 371.5v766h328z" />
    <glyph glyph-name="v" unicode="v" horiz-adv-x="1044" 
d="M322 1237l141 -563q4 -16 12 -49q39 -148 47 -244q12 89 27 163.5t33 139.5l151 553h311l-389 -1237h-272l-383 1237h322z" />
    <glyph glyph-name="w" unicode="w" horiz-adv-x="1630" 
d="M946 1237l129 -645l4 -18q38 -198 47 -320q5 73 17.5 159t34.5 189l131 635h293l-316 -1237h-307l-115 526q-8 40 -21.5 128t-27.5 194q-14 -106 -27.5 -194t-21.5 -128l-117 -526h-305l-317 1237h292l134 -635q19 -94 31.5 -181.5t17.5 -166.5q9 110 45 296q5 28 8 42
l127 645h264z" />
    <glyph glyph-name="x" unicode="x" horiz-adv-x="1026" 
d="M707 0l-215 412l-197 -412h-313l350 631l-336 606h334l194 -373l181 373h309l-328 -594l358 -643h-337z" />
    <glyph glyph-name="y" unicode="y" horiz-adv-x="1055" 
d="M170 -375l182 508l-346 1104h326l127 -510q17 -68 32 -144.5t29 -162.5q12 64 26 125.5t29 120.5l160 571h324l-563 -1612h-326z" />
    <glyph glyph-name="z" unicode="z" horiz-adv-x="969" 
d="M6 0l453 985h-414v252h875l-453 -985h453v-252h-914z" />
    <glyph glyph-name="braceleft" unicode="{" 
d="M883 1477v-209q-9 0 -25 1t-22 1q-101 0 -136.5 -38.5t-35.5 -162.5v-240q0 -148 -45 -210t-162 -89q117 -27 162 -88t45 -209v-241q0 -123 35 -161t137 -38q6 0 22 1t25 1v-209q-14 0 -39 -1t-37 -1q-100 0 -167 12t-114 37q-57 34 -80.5 91.5t-23.5 199.5v252
q0 137 -51 194.5t-172 57.5q-6 0 -20 -1t-21 -1v209q7 0 21 -1t20 -1q120 0 171.5 58t51.5 196v250q0 143 23.5 201t80.5 92q47 25 114 37t167 12q12 0 37 -1t39 -1z" />
    <glyph glyph-name="bar" unicode="|" 
d="M410 1565h206v-2048h-206v2048z" />
    <glyph glyph-name="braceright" unicode="}" 
d="M143 1477h68q110 0 177 -12t112 -38q57 -32 80.5 -91.5t23.5 -198.5v-252q0 -137 51 -194.5t172 -57.5q6 0 20 1t21 1v-209h-37q-125 0 -176 -56t-51 -194v-252q0 -143 -23.5 -201t-80.5 -90q-47 -25 -114 -37t-167 -12q-12 0 -37 1t-39 1v209q9 0 25 -1t22 -1
q101 0 136.5 38.5t35.5 160.5v239q0 150 45 211.5t162 87.5q-117 27 -162 89t-45 210v242q0 122 -35.5 160.5t-136.5 38.5q-6 0 -22 -1t-25 -1v209z" />
    <glyph glyph-name="asciitilde" unicode="~" horiz-adv-x="1706" 
d="M1530 803v-221q-104 -71 -196.5 -104.5t-182.5 -33.5q-46 0 -92 8t-92 23q-24 8 -71 25q-219 75 -333 75q-85 0 -177.5 -37.5t-207.5 -119.5v221q107 72 204 107.5t183 35.5q117 0 291 -58l4 -1q18 -6 55 -19q155 -55 240 -55t175 37t200 117z" />
    <glyph glyph-name="Euro" horiz-adv-x="1110" 
d="M61 719h129q-1 11 -1.5 23.5t-0.5 37.5v58h-176l49 151h140q29 287 163 445.5t355 158.5q108 0 197 -34t167 -107v-375q-63 119 -137 175.5t-166 56.5q-104 0 -166 -81t-79 -239h497l-49 -151h-457q0 -10 -1 -28t-1 -28q0 -11 1 -32t1 -31h418l-49 -152h-358
q13 -153 75.5 -235t167.5 -82q93 0 166.5 55.5t136.5 173.5v-373q-71 -72 -158.5 -105.5t-207.5 -33.5q-222 0 -354 155t-162 445h-189z" />
    <glyph glyph-name="Euro" unicode="&#x20ac;" horiz-adv-x="1110" 
d="M61 719h129q-1 11 -1.5 23.5t-0.5 37.5v58h-176l49 151h140q29 287 163 445.5t355 158.5q108 0 197 -34t167 -107v-375q-63 119 -137 175.5t-166 56.5q-104 0 -166 -81t-79 -239h497l-49 -151h-457q0 -10 -1 -28t-1 -28q0 -11 1 -32t1 -31h418l-49 -152h-358
q13 -153 75.5 -235t167.5 -82q93 0 166.5 55.5t136.5 173.5v-373q-71 -72 -158.5 -105.5t-207.5 -33.5q-222 0 -354 155t-162 445h-189z" />
    <glyph glyph-name="nonbreakingspace" unicode="&#xa0;" horiz-adv-x="1110" 
 />
    <glyph glyph-name="exclamdown" unicode="&#xa1;" horiz-adv-x="649" 
d="M326 1587q85 0 143.5 -58.5t58.5 -144.5q0 -84 -59 -144t-143 -60q-85 0 -145 60t-60 144q0 85 59.5 144t145.5 59zM156 -16v1060h338v-1060h-338z" />
    <glyph glyph-name="cent" unicode="&#xa2;" horiz-adv-x="1110" 
d="M721 983q-7 1 -16 1.5t-27 0.5q-128 0 -204.5 -87.5t-76.5 -235.5q0 -91 29 -159t88 -114zM641 326q30 -8 48.5 -11.5t33.5 -3.5q71 0 143.5 38t143.5 112v-320q-67 -57 -158.5 -89t-189.5 -32q-32 0 -62.5 4t-58.5 11l-88 -248h-172l106 297q-147 76 -226 220.5
t-79 336.5q0 282 161.5 451.5t430.5 169.5q35 0 114 -8l7 -1l84 240h170l-101 -291l62 -28v-326q-38 32 -75 57t-75 43z" />
    <glyph glyph-name="sterling" unicode="&#xa3;" horiz-adv-x="1110" 
d="M750 1151q-2 87 -37.5 129.5t-106.5 42.5q-65 0 -103 -41t-38 -113q0 -49 30 -221q7 -42 11 -65h342v-217h-313q0 -9 1 -24t1 -21q0 -92 -18.5 -165t-57.5 -134q64 -52 121.5 -76.5t113.5 -24.5q83 0 125.5 48.5t45.5 146.5h231v-13q0 -206 -93 -321t-260 -115
q-100 0 -194 35t-180 104q-59 -69 -136 -103t-178 -34v287q106 11 155.5 75.5t49.5 190.5q0 20 -2.5 53.5t-7.5 89.5l-195 1v217h170q-22 109 -31.5 171.5t-9.5 102.5q0 194 117 315t303 121q194 0 305 -115.5t111 -316.5v-10h-272z" />
    <glyph glyph-name="currency" unicode="&#xa4;" horiz-adv-x="1110" 
d="M61 719h129q-1 11 -1.5 23.5t-0.5 37.5v58h-176l49 151h140q29 287 163 445.5t355 158.5q108 0 197 -34t167 -107v-375q-63 119 -137 175.5t-166 56.5q-104 0 -166 -81t-79 -239h497l-49 -151h-457q0 -10 -1 -28t-1 -28q0 -11 1 -32t1 -31h418l-49 -152h-358
q13 -153 75.5 -235t167.5 -82q93 0 166.5 55.5t136.5 173.5v-373q-71 -72 -158.5 -105.5t-207.5 -33.5q-222 0 -354 155t-162 445h-189z" />
    <glyph glyph-name="yen" unicode="&#xa5;" horiz-adv-x="1518" 
d="M598 0v639h-516v156h461l-127 200h-334v156h233l-264 410h357l354 -613l360 613h344l-266 -410h236v-156h-332l-135 -200h467v-156h-516v-639h-322z" />
    <glyph glyph-name="brokenbar" unicode="&#xa6;" 
d="M410 408h206v-758h-206v758zM410 1432h206v-758h-206v758z" />
    <glyph glyph-name="section" unicode="&#xa7;" horiz-adv-x="1110" 
d="M686 526q59 0 96 36.5t37 92.5q0 41 -27 81t-79 77q-86 59 -161.5 91t-131.5 32q-59 0 -95 -36.5t-36 -94.5q0 -41 27.5 -82t78.5 -76q86 -58 161.5 -89.5t129.5 -31.5zM152 14l155 127q61 -81 120.5 -118t129.5 -37q67 0 111.5 42t44.5 105q0 48 -29 84t-102 76
l-220 119q-144 78 -204 156t-60 182q0 106 60.5 180.5t181.5 116.5q-74 58 -108.5 120.5t-34.5 137.5q0 136 104 226.5t262 90.5q110 0 202 -49.5t167 -149.5l-160 -123q-48 77 -104.5 114.5t-122.5 37.5q-67 0 -108.5 -36.5t-41.5 -94.5q0 -53 35.5 -93.5t124.5 -86.5
l180 -97q153 -78 213 -154t60 -185q0 -111 -59.5 -186.5t-168.5 -102.5q74 -64 106 -126.5t32 -142.5q0 -152 -104.5 -244.5t-276.5 -92.5q-123 0 -220.5 51.5t-164.5 152.5z" />
    <glyph glyph-name="dieresis" unicode="&#xa8;" 
d="M563 1567q0 51 39.5 90t91.5 39q54 0 92.5 -38t38.5 -91q0 -58 -36.5 -94.5t-94.5 -36.5q-55 0 -93 37.5t-38 93.5zM199 1567q0 51 39.5 90t91.5 39q53 0 91 -38t38 -91q0 -58 -36 -94.5t-93 -36.5q-56 0 -93.5 37.5t-37.5 93.5z" />
    <glyph glyph-name="copyright" unicode="&#xa9;" horiz-adv-x="1706" 
d="M1212 897h-188q-8 70 -53 108.5t-119 38.5q-91 0 -143 -81.5t-52 -227.5q0 -147 52 -224t151 -77q73 0 117 42t53 119l193 1q-8 -139 -109 -223t-260 -84q-186 0 -293.5 118t-107.5 322q0 206 109.5 328.5t293.5 122.5q152 0 250.5 -78t105.5 -205zM854 1356
q-128 0 -239.5 -46t-198.5 -134q-89 -90 -136 -203.5t-47 -237.5q0 -125 47 -237t136 -201q88 -88 201 -135t237 -47t237.5 47t204.5 137q88 86 133.5 197t45.5 239q0 126 -46.5 238.5t-134.5 200.5q-89 89 -201 135.5t-239 46.5zM852 1479q152 0 287.5 -56t242.5 -163
q105 -105 160 -240.5t55 -286.5q0 -152 -54.5 -284t-160.5 -236q-111 -108 -248 -165.5t-282 -57.5q-147 0 -280.5 56.5t-241.5 164.5q-107 106 -163 240.5t-56 281.5q0 149 56 284.5t163 244.5q105 106 238 161.5t284 55.5z" />
    <glyph glyph-name="ordfeminine" unicode="&#xaa;" horiz-adv-x="889" 
d="M432 907q63 0 97 64.5t34 183.5t-34 182.5t-97 63.5t-98 -64t-35 -182t35 -183t98 -65zM786 723h-206q1 53 6.5 104.5t13.5 98.5q-39 -109 -102 -163t-150 -54q-132 0 -215.5 123t-83.5 323q0 209 78 328t213 119q72 0 130 -44.5t91 -125.5q-7 39 -12 79t-6 78h243v-866z
" />
    <glyph glyph-name="guillemotleft" unicode="&#xab;" horiz-adv-x="1139" 
d="M1130 1081l-315 -479l315 -479h-256l-317 479l317 479h256zM641 1081l-317 -479l317 -479h-258l-317 479l317 479h258z" />
    <glyph glyph-name="logicalnot" unicode="&#xac;" horiz-adv-x="1706" 
d="M254 864h1198v-502h-199v306h-999v196z" />
    <glyph glyph-name="sfthyphen" unicode="&#xad;" horiz-adv-x="750" 
d="M86 487v277h578v-277h-578z" />
    <glyph glyph-name="registered" unicode="&#xae;" horiz-adv-x="1706" 
d="M745 1034v-239h99q88 0 129 28t41 88q0 63 -44 93t-136 30h-89zM545 1161h323q176 0 264.5 -59.5t88.5 -177.5q0 -82 -48 -140t-133 -79l185 -369h-224l-157 338h-99v-338h-200v825zM854 1356q-127 0 -236 -44.5t-196 -131.5q-91 -91 -140 -206.5t-49 -238.5
q0 -124 46 -235.5t133 -198.5q89 -91 203 -139.5t237 -48.5q120 0 233.5 47t206.5 135q87 84 135 196t48 232q0 133 -44.5 245t-132.5 201q-90 93 -202.5 140t-241.5 47zM852 1479q154 0 290.5 -57.5t243.5 -166.5q103 -104 157 -238t54 -284q0 -152 -56 -287.5t-163 -238.5
q-107 -105 -243.5 -161t-282.5 -56q-149 0 -285 58t-243 167q-104 105 -158.5 238.5t-54.5 279.5q0 102 27 198.5t81 188.5q101 170 267 264.5t366 94.5z" />
    <glyph glyph-name="macron" unicode="&#xaf;" 
d="M225 1485v155h574v-155h-574z" />
    <glyph glyph-name="degree" unicode="&#xb0;" horiz-adv-x="674" 
d="M338 1335q-73 0 -124.5 -51t-51.5 -123q0 -74 51 -125t125 -51q72 0 123 52t51 124t-51 123t-123 51zM338 1464q126 0 214.5 -89.5t88.5 -215.5q0 -125 -89 -214t-216 -89q-126 0 -213.5 88t-87.5 215t88.5 216t214.5 89z" />
    <glyph glyph-name="plusminus" unicode="&#xb1;" horiz-adv-x="1706" 
d="M254 197h1198v-199h-1198v199zM752 1223h202v-326h498v-199h-498v-325h-202v325h-498v199h498v326z" />
    <glyph glyph-name="twosuperior" unicode="&#xb2;" horiz-adv-x="733" 
d="M8 623q34 40 96 114q353 422 353 561q0 53 -27 83t-74 30q-57 0 -84.5 -40t-27.5 -124v-6h-191v29q0 143 81 226t220 83q140 0 222.5 -76.5t82.5 -206.5q0 -113 -72.5 -234.5t-232.5 -275.5h324v-163h-670z" />
    <glyph glyph-name="threesuperior" unicode="&#xb3;" horiz-adv-x="733" 
d="M522 1110q77 -32 115.5 -88.5t38.5 -136.5q0 -126 -87 -204.5t-229 -78.5q-136 0 -223 76t-98 205h190q2 -53 34.5 -82t90.5 -29q57 0 88 32t31 91q0 64 -36 96.5t-107 32.5h-27v156h25q69 0 108 33t39 92q0 49 -30 77.5t-83 28.5q-48 0 -76.5 -26t-31.5 -72h-188
q7 124 85 195t207 71q138 0 221 -69t83 -183q0 -81 -35 -135.5t-105 -81.5z" />
    <glyph glyph-name="acute" unicode="&#xb4;" 
d="M805 1751l-313 -371h-142l197 371h258z" />
    <glyph glyph-name="mu" unicode="&#xb5;" horiz-adv-x="1249" 
d="M205 1092h289l-76 -435q-15 -80 -23 -151.5t-8 -116.5q0 -93 42 -138.5t128 -45.5q100 0 155.5 82t92.5 291l90 514h289l-193 -1092h-268l18 117q-42 -78 -93.5 -114t-121.5 -36q-67 0 -119 29.5t-94 91.5l-90 -526h-286z" />
    <glyph glyph-name="paragraph" unicode="&#xb6;" 
d="M983 1479v-111h-113v-1368h-151v1368h-158v-1368h-153v784q-167 6 -267 101t-100 245q0 158 107 253.5t284 95.5h551z" />
    <glyph glyph-name="glyph122" unicode="&#xb7;" horiz-adv-x="555" 
d="M276 588q-78 0 -134 57t-56 135q0 79 55.5 135t134.5 56q80 0 135.5 -55.5t55.5 -135.5q0 -79 -56 -135.5t-135 -56.5z" />
    <glyph glyph-name="cedilla" unicode="&#xb8;" 
d="M293 -397v116q86 -21 146 -29.5t112 -8.5q40 0 61 17t21 50q0 34 -25.5 48t-89.5 14q-8 0 -25 -1.5t-28 -1.5v193h96v-82h14q110 0 167 -44.5t57 -129.5q0 -88 -62 -134t-180 -46q-55 0 -121.5 9.5t-142.5 29.5z" />
    <glyph glyph-name="onesuperior" unicode="&#xb9;" horiz-adv-x="733" 
d="M279 623v770h-170v166h368v-936h-198z" />
    <glyph glyph-name="ordmasculine" unicode="&#xba;" horiz-adv-x="858" 
d="M428 883q61 0 94 70t33 202q0 133 -33 204t-94 71q-60 0 -92.5 -71t-32.5 -204q0 -131 32.5 -201.5t92.5 -70.5zM49 1155q0 208 103.5 332.5t275.5 124.5q173 0 276 -124t103 -333q0 -208 -103 -331.5t-276 -123.5q-172 0 -275.5 124t-103.5 331z" />
    <glyph glyph-name="guillemotright" unicode="&#xbb;" horiz-adv-x="1139" 
d="M506 121l317 479l-317 479h258l317 -479l-317 -479h-258zM16 121l316 479l-316 479h258l316 -479l-316 -479h-258z" />
    <glyph glyph-name="onequarter" unicode="&#xbc;" horiz-adv-x="1741" 
d="M1458 350l17 379l-258 -379h241zM1446 0v213h-383v127l373 534h194v-524h82v-137h-82v-213h-184zM516 -33h-160l867 1626h157zM266 686v719h-164v156h353v-875h-189z" />
    <glyph glyph-name="onehalf" unicode="&#xbd;" horiz-adv-x="1741" 
d="M1049 0q34 41 98 115q330 386 330 516q0 50 -26 78t-71 28q-54 0 -81 -38t-27 -115v-6h-180v26q0 135 76.5 212t209.5 77t212 -71.5t79 -192.5q0 -106 -69 -219.5t-222 -257.5h310v-152h-639zM516 -33h-160l867 1626h157zM266 686v719h-164v156h353v-875h-189z" />
    <glyph glyph-name="threequarters" unicode="&#xbe;" horiz-adv-x="1741" 
d="M1458 350l17 379l-258 -379h241zM1446 0v213h-383v127l373 534h194v-524h82v-137h-82v-213h-184zM516 -33h-160l867 1626h157zM498 1141q73 -29 110 -82t37 -129q0 -117 -83 -189.5t-218 -72.5q-131 0 -213.5 70.5t-93.5 191.5l180 -1q3 -49 34.5 -76.5t86.5 -27.5
q54 0 84.5 30t30.5 85q0 60 -35 90.5t-103 30.5h-26v145h24q67 0 104.5 31t37.5 86q0 46 -29.5 73t-79.5 27q-47 0 -74 -24t-31 -68h-178q7 115 81.5 181.5t197.5 66.5q131 0 211 -64.5t80 -171.5q0 -75 -34 -125.5t-101 -76.5z" />
    <glyph glyph-name="questiondown" unicode="&#xbf;" horiz-adv-x="1233" 
d="M696 1622q85 0 144 -59.5t59 -145.5q0 -85 -59.5 -145t-143.5 -60t-144 60.5t-60 144.5q0 85 59.5 145t144.5 60zM860 1079v-405q-12 1 -25.5 1.5t-39.5 0.5q-158 0 -237 -57t-79 -170q0 -81 47.5 -130t126.5 -49q76 0 121 42.5t51 119.5h318v-12q0 -201 -138 -318.5
t-372 -117.5q-228 0 -365 126.5t-137 335.5q0 188 102 301t291 136v196h336z" />
    <glyph glyph-name="Agrave" unicode="&#xc0;" horiz-adv-x="1561" 
d="M512 303l-84 -303h-358l516 1587h387l516 -1587h-356l-84 303h-537zM561 555h410l-203 750zM485 2068h258l197 -371h-142z" />
    <glyph glyph-name="Aacute" unicode="&#xc1;" horiz-adv-x="1561" 
d="M512 303l-84 -303h-358l516 1587h387l516 -1587h-356l-84 303h-537zM561 555h410l-203 750zM1071 2068l-313 -371h-142l197 371h258z" />
    <glyph glyph-name="Acircumflex" unicode="&#xc2;" horiz-adv-x="1561" 
d="M512 303l-84 -303h-358l516 1587h387l516 -1587h-356l-84 303h-537zM561 555h410l-203 750zM463 1697l196 371h238l196 -371h-141l-174 219l-176 -219h-139z" />
    <glyph glyph-name="Atilde" unicode="&#xc3;" horiz-adv-x="1561" 
d="M512 303l-84 -303h-358l516 1587h387l516 -1587h-356l-84 303h-537zM561 555h410l-203 750zM1095 2019q-26 -125 -77 -184.5t-131 -59.5q-17 0 -35.5 3t-38.5 9l-88 25q-29 8 -41.5 10t-24.5 2q-33 0 -54 -19t-34 -61h-110q24 122 74 179t130 57q25 0 45.5 -3t40.5 -9
l92 -27q10 -3 21.5 -4.5t34.5 -1.5q33 0 54 21t32 63h110z" />
    <glyph glyph-name="Adieresis" unicode="&#xc4;" horiz-adv-x="1561" 
d="M512 303l-84 -303h-358l516 1587h387l516 -1587h-356l-84 303h-537zM561 555h410l-203 750zM829 1884q0 51 39.5 90t91.5 39q54 0 92.5 -38t38.5 -91q0 -58 -36.5 -94.5t-94.5 -36.5q-55 0 -93 37.5t-38 93.5zM465 1884q0 51 39.5 90t91.5 39q53 0 91 -38t38 -91
q0 -58 -36 -94.5t-93 -36.5q-56 0 -93.5 37.5t-37.5 93.5z" />
    <glyph glyph-name="Aring" unicode="&#xc5;" horiz-adv-x="1561" 
d="M682 1755q0 -35 24.5 -59.5t61.5 -24.5t61.5 24.5t24.5 59.5q0 39 -24.5 64.5t-61.5 25.5t-61.5 -25.5t-24.5 -64.5zM512 303l-84 -303h-358l516 1554h106q-66 29 -99.5 79.5t-33.5 123.5q0 92 60.5 155.5t148.5 63.5q89 0 151 -64t62 -155q0 -67 -38.5 -123.5
t-100.5 -79.5h131l516 -1554h-356l-84 303h-537zM561 555h410l-203 750z" />
    <glyph glyph-name="AE" unicode="&#xc6;" horiz-adv-x="2114" 
d="M578 563h403v744h-111zM475 289l-113 -289h-358l705 1587h1239v-313h-629v-320h575v-292h-575v-349h629v-313h-965v289h-508z" />
    <glyph glyph-name="Ccedilla" unicode="&#xc7;" horiz-adv-x="1358" 
d="M1282 111q-93 -73 -204.5 -108.5t-250.5 -35.5q-158 0 -291 55t-229 160q-105 116 -158 269t-53 340q0 125 23.5 237t68.5 203q96 193 251 292t364 99q123 0 232 -30t210 -91v-368q-66 85 -155.5 127.5t-202.5 42.5q-194 0 -311 -138.5t-117 -369.5q0 -236 118.5 -372
t323.5 -136q115 0 210.5 41.5t170.5 124.5v-342zM586 -397v116q86 -21 146 -29.5t112 -8.5q40 0 61 17t21 50q0 34 -25.5 48t-89.5 14q-8 0 -25 -1.5t-28 -1.5v193h96v-82h14q110 0 167 -44.5t57 -129.5q0 -88 -62 -134t-180 -46q-55 0 -121.5 9.5t-142.5 29.5z" />
    <glyph glyph-name="Egrave" unicode="&#xc8;" horiz-adv-x="1640" 
d="M244 0v1587h1206v-313h-852v-307h797v-295h-797v-359h852v-313h-1206zM551 2068h258l197 -371h-142z" />
    <glyph glyph-name="Eacute" unicode="&#xc9;" horiz-adv-x="1640" 
d="M244 0v1587h1206v-313h-852v-307h797v-295h-797v-359h852v-313h-1206zM1137 2068l-313 -371h-142l197 371h258z" />
    <glyph glyph-name="Ecircumflex" unicode="&#xca;" horiz-adv-x="1640" 
d="M244 0v1587h1206v-313h-852v-307h797v-295h-797v-359h852v-313h-1206zM529 1697l196 371h238l196 -371h-141l-174 219l-176 -219h-139z" />
    <glyph glyph-name="Edieresis" unicode="&#xcb;" horiz-adv-x="1640" 
d="M244 0v1587h1206v-313h-852v-307h797v-295h-797v-359h852v-313h-1206zM895 1884q0 51 39.5 90t91.5 39q54 0 92.5 -38t38.5 -91q0 -58 -36.5 -94.5t-94.5 -36.5q-55 0 -93 37.5t-38 93.5zM531 1884q0 51 39.5 90t91.5 39q53 0 91 -38t38 -91q0 -58 -36 -94.5t-93 -36.5
q-56 0 -93.5 37.5t-37.5 93.5z" />
    <glyph glyph-name="Igrave" unicode="&#xcc;" horiz-adv-x="842" 
d="M244 0v1587h354v-1587h-354zM125 2068h258l197 -371h-142z" />
    <glyph glyph-name="Iacute" unicode="&#xcd;" horiz-adv-x="842" 
d="M244 0v1587h354v-1587h-354zM711 2068l-313 -371h-142l197 371h258z" />
    <glyph glyph-name="Icircumflex" unicode="&#xce;" horiz-adv-x="842" 
d="M244 0v1587h354v-1587h-354zM103 1697l196 371h238l196 -371h-141l-174 219l-176 -219h-139z" />
    <glyph glyph-name="Idieresis" unicode="&#xcf;" horiz-adv-x="842" 
d="M244 0v1587h354v-1587h-354zM469 1884q0 51 39.5 90t91.5 39q54 0 92.5 -38t38.5 -91q0 -58 -36.5 -94.5t-94.5 -36.5q-55 0 -93 37.5t-38 93.5zM105 1884q0 51 39.5 90t91.5 39q53 0 91 -38t38 -91q0 -58 -36 -94.5t-93 -36.5q-56 0 -93.5 37.5t-37.5 93.5z" />
    <glyph glyph-name="Eth" unicode="&#xd0;" horiz-adv-x="1753" 
d="M606 1276v-340h338v-227h-338v-396h146q243 0 364 120.5t121 363.5q0 241 -121 360t-366 119h-144zM250 0v709h-250v227h250v651h461q181 0 308 -20.5t204 -63.5q184 -103 280 -282.5t96 -421.5q0 -241 -89.5 -417t-266.5 -282q-88 -53 -222.5 -76.5t-358.5 -23.5h-412z
" />
    <glyph glyph-name="Ntilde" unicode="&#xd1;" horiz-adv-x="1688" 
d="M1139 0l-521 874q-22 38 -43.5 97t-39.5 134q9 -94 13.5 -178.5t4.5 -156.5v-770h-309v1587h307l498 -842q39 -65 64.5 -131.5t39.5 -136.5q-10 100 -15 184.5t-5 149.5v776h311v-1587h-305zM1159 2019q-26 -125 -77 -184.5t-131 -59.5q-17 0 -35.5 3t-38.5 9l-88 25
q-29 8 -41.5 10t-24.5 2q-33 0 -54 -19t-34 -61h-110q24 122 74 179t130 57q25 0 45.5 -3t40.5 -9l92 -27q10 -3 21.5 -4.5t34.5 -1.5q33 0 54 21t32 63h110z" />
    <glyph glyph-name="Ograve" unicode="&#xd2;" horiz-adv-x="1561" 
d="M782 281q143 0 230.5 139t87.5 373q0 236 -88 375t-236 139q-142 0 -228.5 -139.5t-86.5 -372.5q0 -237 87 -375.5t234 -138.5zM784 -33q-154 0 -278 56t-215 167q-98 121 -146.5 272t-48.5 333q0 183 49.5 334.5t147.5 271.5q87 109 211.5 165t277.5 56q152 0 275.5 -56
t212.5 -165q96 -119 144 -271t48 -337q0 -183 -47.5 -333.5t-142.5 -269.5q-89 -109 -212.5 -166t-275.5 -57zM485 2068h258l197 -371h-142z" />
    <glyph glyph-name="Oacute" unicode="&#xd3;" horiz-adv-x="1561" 
d="M782 281q143 0 230.5 139t87.5 373q0 236 -88 375t-236 139q-142 0 -228.5 -139.5t-86.5 -372.5q0 -237 87 -375.5t234 -138.5zM784 -33q-154 0 -278 56t-215 167q-98 121 -146.5 272t-48.5 333q0 183 49.5 334.5t147.5 271.5q87 109 211.5 165t277.5 56q152 0 275.5 -56
t212.5 -165q96 -119 144 -271t48 -337q0 -183 -47.5 -333.5t-142.5 -269.5q-89 -109 -212.5 -166t-275.5 -57zM1071 2068l-313 -371h-142l197 371h258z" />
    <glyph glyph-name="Ocircumflex" unicode="&#xd4;" horiz-adv-x="1561" 
d="M782 281q143 0 230.5 139t87.5 373q0 236 -88 375t-236 139q-142 0 -228.5 -139.5t-86.5 -372.5q0 -237 87 -375.5t234 -138.5zM784 -33q-154 0 -278 56t-215 167q-98 121 -146.5 272t-48.5 333q0 183 49.5 334.5t147.5 271.5q87 109 211.5 165t277.5 56q152 0 275.5 -56
t212.5 -165q96 -119 144 -271t48 -337q0 -183 -47.5 -333.5t-142.5 -269.5q-89 -109 -212.5 -166t-275.5 -57zM463 1697l196 371h238l196 -371h-141l-174 219l-176 -219h-139z" />
    <glyph glyph-name="Otilde" unicode="&#xd5;" horiz-adv-x="1561" 
d="M782 281q143 0 230.5 139t87.5 373q0 236 -88 375t-236 139q-142 0 -228.5 -139.5t-86.5 -372.5q0 -237 87 -375.5t234 -138.5zM784 -33q-154 0 -278 56t-215 167q-98 121 -146.5 272t-48.5 333q0 183 49.5 334.5t147.5 271.5q87 109 211.5 165t277.5 56q152 0 275.5 -56
t212.5 -165q96 -119 144 -271t48 -337q0 -183 -47.5 -333.5t-142.5 -269.5q-89 -109 -212.5 -166t-275.5 -57zM1095 2019q-26 -125 -77 -184.5t-131 -59.5q-17 0 -35.5 3t-38.5 9l-88 25q-29 8 -41.5 10t-24.5 2q-33 0 -54 -19t-34 -61h-110q24 122 74 179t130 57
q25 0 45.5 -3t40.5 -9l92 -27q10 -3 21.5 -4.5t34.5 -1.5q33 0 54 21t32 63h110z" />
    <glyph glyph-name="Odieresis" unicode="&#xd6;" horiz-adv-x="1561" 
d="M782 281q143 0 230.5 139t87.5 373q0 236 -88 375t-236 139q-142 0 -228.5 -139.5t-86.5 -372.5q0 -237 87 -375.5t234 -138.5zM784 -33q-154 0 -278 56t-215 167q-98 121 -146.5 272t-48.5 333q0 183 49.5 334.5t147.5 271.5q87 109 211.5 165t277.5 56q152 0 275.5 -56
t212.5 -165q96 -119 144 -271t48 -337q0 -183 -47.5 -333.5t-142.5 -269.5q-89 -109 -212.5 -166t-275.5 -57zM829 1884q0 51 39.5 90t91.5 39q54 0 92.5 -38t38.5 -91q0 -58 -36.5 -94.5t-94.5 -36.5q-55 0 -93 37.5t-38 93.5zM465 1884q0 51 39.5 90t91.5 39q53 0 91 -38
t38 -91q0 -58 -36 -94.5t-93 -36.5q-56 0 -93.5 37.5t-37.5 93.5z" />
    <glyph glyph-name="multiply" unicode="&#xd7;" horiz-adv-x="1706" 
d="M416 1202l450 -450l451 450l141 -139l-450 -453l450 -450l-141 -140l-451 451l-450 -451l-140 140l451 450l-451 453z" />
    <glyph glyph-name="Oslash" unicode="&#xd8;" horiz-adv-x="1561" 
d="M580 375q36 -47 85.5 -70.5t112.5 -23.5q148 0 234 137t86 377q0 68 -6.5 124.5t-20.5 102.5zM487 565l488 647q-36 49 -85 73t-112 24q-145 0 -234 -141t-89 -375q0 -74 8 -129t24 -99zM1311 1339q75 -116 112 -251t37 -295q0 -182 -48.5 -333t-145.5 -272
q-88 -109 -212 -165t-276 -56q-115 0 -216.5 34t-188.5 101l-123 -159h-238l232 305q-76 116 -113 251t-37 296q0 182 49 334t146 272q88 108 213 164.5t276 56.5q120 0 221 -34.5t185 -104.5l106 143h240z" />
    <glyph glyph-name="Ugrave" unicode="&#xd9;" horiz-adv-x="1663" 
d="M240 1587h352v-878q0 -224 58 -327t181 -103q124 0 182 103t58 327v878h352v-889q0 -359 -150 -545t-442 -186q-291 0 -441 186t-150 545v889zM536 2068h258l197 -371h-142z" />
    <glyph glyph-name="Uacute" unicode="&#xda;" horiz-adv-x="1663" 
d="M240 1587h352v-878q0 -224 58 -327t181 -103q124 0 182 103t58 327v878h352v-889q0 -359 -150 -545t-442 -186q-291 0 -441 186t-150 545v889zM1122 2068l-313 -371h-142l197 371h258z" />
    <glyph glyph-name="Ucircumflex" unicode="&#xdb;" horiz-adv-x="1663" 
d="M240 1587h352v-878q0 -224 58 -327t181 -103q124 0 182 103t58 327v878h352v-889q0 -359 -150 -545t-442 -186q-291 0 -441 186t-150 545v889zM514 1697l196 371h238l196 -371h-141l-174 219l-176 -219h-139z" />
    <glyph glyph-name="Udieresis" unicode="&#xdc;" horiz-adv-x="1663" 
d="M240 1587h352v-878q0 -224 58 -327t181 -103q124 0 182 103t58 327v878h352v-889q0 -359 -150 -545t-442 -186q-291 0 -441 186t-150 545v889zM880 1884q0 51 39.5 90t91.5 39q54 0 92.5 -38t38.5 -91q0 -58 -36.5 -94.5t-94.5 -36.5q-55 0 -93 37.5t-38 93.5zM516 1884
q0 51 39.5 90t91.5 39q53 0 91 -38t38 -91q0 -58 -36 -94.5t-93 -36.5q-56 0 -93.5 37.5t-37.5 93.5z" />
    <glyph glyph-name="Yacute" unicode="&#xdd;" horiz-adv-x="1518" 
d="M580 0v725l-596 862h401l375 -598l381 598h391l-598 -862v-725h-354zM1049 2068l-313 -371h-142l197 371h258z" />
    <glyph glyph-name="Thorn" unicode="&#xde;" horiz-adv-x="1563" 
d="M598 1309h309q259 0 397 -123.5t138 -354.5q0 -244 -143 -371.5t-416 -127.5h-285v-332h-354v1587h354v-278zM598 1038v-436h160q184 0 252.5 48.5t68.5 168.5q0 125 -63 172t-258 47h-160z" />
    <glyph glyph-name="germandbls" unicode="&#xdf;" horiz-adv-x="1204" 
d="M850 862q135 -44 203.5 -149.5t68.5 -270.5q0 -225 -100.5 -350t-282.5 -125q-45 0 -88.5 10t-85.5 29l37 248q21 -14 39.5 -21.5t32.5 -7.5q60 0 89.5 60.5t29.5 183.5q0 113 -47.5 176.5t-131.5 63.5h-8v262h8q53 0 85 52.5t32 141.5q0 94 -37.5 147.5t-101.5 53.5
q-62 0 -96.5 -57.5t-34.5 -161.5v-1147h-326v1092q0 259 113.5 389.5t339.5 130.5q212 0 336.5 -112.5t124.5 -303.5q0 -118 -49.5 -201.5t-149.5 -132.5z" />
    <glyph glyph-name="agrave" unicode="&#xe0;" horiz-adv-x="1186" 
d="M575 262q84 0 129.5 92t45.5 262t-45.5 261.5t-129.5 91.5q-83 0 -129.5 -92t-46.5 -261t46.5 -261.5t129.5 -92.5zM1049 0h-276q2 77 9 150t17 141q-51 -155 -135 -233t-199 -78q-177 0 -288 176t-111 462q0 298 103.5 467.5t283.5 169.5q97 0 174 -63t121 -180
q-11 56 -17.5 113t-7.5 112h326v-1237zM323 1751h258l197 -371h-142z" />
    <glyph glyph-name="aacute" unicode="&#xe1;" horiz-adv-x="1186" 
d="M575 262q84 0 129.5 92t45.5 262t-45.5 261.5t-129.5 91.5q-83 0 -129.5 -92t-46.5 -261t46.5 -261.5t129.5 -92.5zM1049 0h-276q2 77 9 150t17 141q-51 -155 -135 -233t-199 -78q-177 0 -288 176t-111 462q0 298 103.5 467.5t283.5 169.5q97 0 174 -63t121 -180
q-11 56 -17.5 113t-7.5 112h326v-1237zM909 1751l-313 -371h-142l197 371h258z" />
    <glyph glyph-name="acircumflex" unicode="&#xe2;" horiz-adv-x="1186" 
d="M575 262q84 0 129.5 92t45.5 262t-45.5 261.5t-129.5 91.5q-83 0 -129.5 -92t-46.5 -261t46.5 -261.5t129.5 -92.5zM1049 0h-276q2 77 9 150t17 141q-51 -155 -135 -233t-199 -78q-177 0 -288 176t-111 462q0 298 103.5 467.5t283.5 169.5q97 0 174 -63t121 -180
q-11 56 -17.5 113t-7.5 112h326v-1237zM301 1380l196 371h238l196 -371h-141l-174 219l-176 -219h-139z" />
    <glyph glyph-name="atilde" unicode="&#xe3;" horiz-adv-x="1186" 
d="M575 262q84 0 129.5 92t45.5 262t-45.5 261.5t-129.5 91.5q-83 0 -129.5 -92t-46.5 -261t46.5 -261.5t129.5 -92.5zM1049 0h-276q2 77 9 150t17 141q-51 -155 -135 -233t-199 -78q-177 0 -288 176t-111 462q0 298 103.5 467.5t283.5 169.5q97 0 174 -63t121 -180
q-11 56 -17.5 113t-7.5 112h326v-1237zM933 1702q-26 -125 -77 -184.5t-131 -59.5q-17 0 -35.5 3t-38.5 9l-88 25q-29 8 -41.5 10t-24.5 2q-33 0 -54 -19t-34 -61h-110q24 122 74 179t130 57q25 0 45.5 -3t40.5 -9l92 -27q10 -3 21.5 -4.5t34.5 -1.5q33 0 54 21t32 63h110z
" />
    <glyph glyph-name="adieresis" unicode="&#xe4;" horiz-adv-x="1186" 
d="M575 262q84 0 129.5 92t45.5 262t-45.5 261.5t-129.5 91.5q-83 0 -129.5 -92t-46.5 -261t46.5 -261.5t129.5 -92.5zM1049 0h-276q2 77 9 150t17 141q-51 -155 -135 -233t-199 -78q-177 0 -288 176t-111 462q0 298 103.5 467.5t283.5 169.5q97 0 174 -63t121 -180
q-11 56 -17.5 113t-7.5 112h326v-1237zM667 1567q0 51 39.5 90t91.5 39q54 0 92.5 -38t38.5 -91q0 -58 -36.5 -94.5t-94.5 -36.5q-55 0 -93 37.5t-38 93.5zM303 1567q0 51 39.5 90t91.5 39q53 0 91 -38t38 -91q0 -58 -36 -94.5t-93 -36.5q-56 0 -93.5 37.5t-37.5 93.5z" />
    <glyph glyph-name="aring" unicode="&#xe5;" horiz-adv-x="1186" 
d="M510 1587q0 -52 35 -86.5t88 -34.5q52 0 87.5 35t35.5 86t-36 87t-87 36q-52 0 -87.5 -35.5t-35.5 -87.5zM367 1589q0 111 77 188.5t189 77.5q111 0 188.5 -77.5t77.5 -188.5q0 -112 -77 -189t-189 -77t-189 77t-77 189zM575 262q84 0 129.5 92t45.5 262t-45.5 261.5
t-129.5 91.5q-83 0 -129.5 -92t-46.5 -261t46.5 -261.5t129.5 -92.5zM1049 0h-276q2 77 9 150t17 141q-51 -155 -135 -233t-199 -78q-177 0 -288 176t-111 462q0 298 103.5 467.5t283.5 169.5q97 0 174 -63t121 -180q-11 56 -17.5 113t-7.5 112h326v-1237z" />
    <glyph glyph-name="ae" unicode="&#xe6;" horiz-adv-x="1667" 
d="M514 209q74 0 119 47.5t45 126.5q0 78 -45 126t-119 48q-72 0 -117 -48t-45 -126t45 -126t117 -48zM957 713h337q-9 161 -52.5 248.5t-115.5 87.5t-116 -87t-53 -249zM1573 231q-66 -128 -175 -197t-245 -69q-116 0 -210.5 48t-164.5 143q-72 -98 -158.5 -143.5
t-197.5 -45.5q-164 0 -265.5 113t-101.5 297q0 176 98.5 285.5t254.5 109.5q68 0 133 -24.5t129 -73.5v96q0 121 -53 180.5t-162 59.5q-67 0 -135 -17.5t-138 -52.5v266q67 32 143 48t160 16q113 0 194 -36t150 -116q58 77 134 114.5t178 37.5q222 0 336 -173t114 -511v-51
h-637v-27q0 -131 51.5 -213t131.5 -82q52 0 92.5 33t79.5 106z" />
    <glyph glyph-name="ccedilla" unicode="&#xe7;" horiz-adv-x="1100" 
d="M993 868q-53 60 -122 89.5t-154 29.5q-149 0 -235.5 -97t-86.5 -265q0 -171 88.5 -269t243.5 -98q76 0 140 26.5t126 84.5v-318q-59 -42 -142 -64t-183 -22q-280 0 -441 175.5t-161 480.5q0 295 159.5 473t425.5 178q97 0 183.5 -23.5t158.5 -68.5v-312zM395 -397v116
q86 -21 146 -29.5t112 -8.5q40 0 61 17t21 50q0 34 -25.5 48t-89.5 14q-8 0 -25 -1.5t-28 -1.5v193h96v-82h14q110 0 167 -44.5t57 -129.5q0 -88 -62 -134t-180 -46q-55 0 -121.5 9.5t-142.5 29.5z" />
    <glyph glyph-name="egrave" unicode="&#xe8;" horiz-adv-x="1133" 
d="M373 539v-15q0 -142 56.5 -225.5t152.5 -83.5q58 0 103 36t73 105l266 -116q-64 -131 -180.5 -202t-268.5 -71q-241 0 -377.5 173.5t-136.5 480.5q0 300 135 474.5t365 174.5q251 0 377.5 -171.5t126.5 -510.5v-49h-692zM377 727h379q-9 156 -59.5 242t-131.5 86
t-130 -85.5t-58 -242.5zM274 1751h258l197 -371h-142z" />
    <glyph glyph-name="eacute" unicode="&#xe9;" horiz-adv-x="1133" 
d="M373 539v-15q0 -142 56.5 -225.5t152.5 -83.5q58 0 103 36t73 105l266 -116q-64 -131 -180.5 -202t-268.5 -71q-241 0 -377.5 173.5t-136.5 480.5q0 300 135 474.5t365 174.5q251 0 377.5 -171.5t126.5 -510.5v-49h-692zM377 727h379q-9 156 -59.5 242t-131.5 86
t-130 -85.5t-58 -242.5zM860 1751l-313 -371h-142l197 371h258z" />
    <glyph glyph-name="ecircumflex" unicode="&#xea;" horiz-adv-x="1133" 
d="M373 539v-15q0 -142 56.5 -225.5t152.5 -83.5q58 0 103 36t73 105l266 -116q-64 -131 -180.5 -202t-268.5 -71q-241 0 -377.5 173.5t-136.5 480.5q0 300 135 474.5t365 174.5q251 0 377.5 -171.5t126.5 -510.5v-49h-692zM377 727h379q-9 156 -59.5 242t-131.5 86
t-130 -85.5t-58 -242.5zM252 1380l196 371h238l196 -371h-141l-174 219l-176 -219h-139z" />
    <glyph glyph-name="edieresis" unicode="&#xeb;" horiz-adv-x="1133" 
d="M373 539v-15q0 -142 56.5 -225.5t152.5 -83.5q58 0 103 36t73 105l266 -116q-64 -131 -180.5 -202t-268.5 -71q-241 0 -377.5 173.5t-136.5 480.5q0 300 135 474.5t365 174.5q251 0 377.5 -171.5t126.5 -510.5v-49h-692zM377 727h379q-9 156 -59.5 242t-131.5 86
t-130 -85.5t-58 -242.5zM618 1567q0 51 39.5 90t91.5 39q54 0 92.5 -38t38.5 -91q0 -58 -36.5 -94.5t-94.5 -36.5q-55 0 -93 37.5t-38 93.5zM254 1567q0 51 39.5 90t91.5 39q53 0 91 -38t38 -91q0 -58 -36 -94.5t-93 -36.5q-56 0 -93.5 37.5t-37.5 93.5z" />
    <glyph glyph-name="igrave" unicode="&#xec;" horiz-adv-x="592" 
d="M131 0v1165h328v-1165h-328zM4 1751h258l197 -371h-142z" />
    <glyph glyph-name="iacute" unicode="&#xed;" horiz-adv-x="592" 
d="M131 0v1165h328v-1165h-328zM590 1751l-313 -371h-142l197 371h258z" />
    <glyph glyph-name="icircumflex" unicode="&#xee;" horiz-adv-x="592" 
d="M131 0v1165h328v-1165h-328zM-18 1380l196 371h238l196 -371h-141l-174 219l-176 -219h-139z" />
    <glyph glyph-name="idieresis" unicode="&#xef;" horiz-adv-x="592" 
d="M131 0v1165h328v-1165h-328zM348 1567q0 51 39.5 90t91.5 39q54 0 92.5 -38t38.5 -91q0 -58 -36.5 -94.5t-94.5 -36.5q-55 0 -93 37.5t-38 93.5zM-16 1567q0 51 39.5 90t91.5 39q53 0 91 -38t38 -91q0 -58 -36 -94.5t-93 -36.5q-56 0 -93.5 37.5t-37.5 93.5z" />
    <glyph glyph-name="eth" unicode="&#xf0;" horiz-adv-x="1143" 
d="M587 1166l-69 106l-252 -72l-39 135l201 58l-68 88l205 123l123 -138l223 64l39 -135l-164 -47q154 -188 223.5 -370t69.5 -396q0 -286 -137.5 -453.5t-370.5 -167.5q-229 0 -366 163.5t-137 440.5q0 178 62 317t177 220q49 34 103.5 51.5t113.5 17.5q16 0 31.5 -1.5
t31.5 -3.5zM403 573q0 -167 43.5 -256.5t124.5 -89.5q80 0 124 90.5t44 255.5t-44 256t-124 91t-124 -90t-44 -257z" />
    <glyph glyph-name="ntilde" unicode="&#xf1;" horiz-adv-x="1233" 
d="M764 0v725q0 169 -25 215.5t-92 46.5q-96 0 -135 -88t-39 -330v-569h-338v1237h293q-3 -79 -9 -151.5t-15 -140.5q59 157 152 236t220 79q157 0 240.5 -103t83.5 -297v-860h-336zM946 1702q-26 -125 -77 -184.5t-131 -59.5q-17 0 -35.5 3t-38.5 9l-88 25q-29 8 -41.5 10
t-24.5 2q-33 0 -54 -19t-34 -61h-110q24 122 74 179t130 57q25 0 45.5 -3t40.5 -9l92 -27q10 -3 21.5 -4.5t34.5 -1.5q33 0 54 21t32 63h110z" />
    <glyph glyph-name="ograve" unicode="&#xf2;" horiz-adv-x="1143" 
d="M571 227q81 0 124.5 101.5t43.5 289.5t-43.5 290t-124.5 102q-80 0 -124 -101.5t-44 -290.5q0 -188 44 -289.5t124 -101.5zM66 618q0 298 137.5 475t367.5 177t367 -177t137 -475q0 -297 -137 -474t-367 -177t-367.5 177t-137.5 474zM278 1751h258l197 -371h-142z" />
    <glyph glyph-name="oacute" unicode="&#xf3;" horiz-adv-x="1143" 
d="M571 227q81 0 124.5 101.5t43.5 289.5t-43.5 290t-124.5 102q-80 0 -124 -101.5t-44 -290.5q0 -188 44 -289.5t124 -101.5zM66 618q0 298 137.5 475t367.5 177t367 -177t137 -475q0 -297 -137 -474t-367 -177t-367.5 177t-137.5 474zM864 1751l-313 -371h-142l197 371
h258z" />
    <glyph glyph-name="ocircumflex" unicode="&#xf4;" horiz-adv-x="1143" 
d="M571 227q81 0 124.5 101.5t43.5 289.5t-43.5 290t-124.5 102q-80 0 -124 -101.5t-44 -290.5q0 -188 44 -289.5t124 -101.5zM66 618q0 298 137.5 475t367.5 177t367 -177t137 -475q0 -297 -137 -474t-367 -177t-367.5 177t-137.5 474zM256 1380l196 371h238l196 -371h-141
l-174 219l-176 -219h-139z" />
    <glyph glyph-name="otilde" unicode="&#xf5;" horiz-adv-x="1143" 
d="M571 227q81 0 124.5 101.5t43.5 289.5t-43.5 290t-124.5 102q-80 0 -124 -101.5t-44 -290.5q0 -188 44 -289.5t124 -101.5zM66 618q0 298 137.5 475t367.5 177t367 -177t137 -475q0 -297 -137 -474t-367 -177t-367.5 177t-137.5 474zM888 1702q-26 -125 -77 -184.5
t-131 -59.5q-17 0 -35.5 3t-38.5 9l-88 25q-29 8 -41.5 10t-24.5 2q-33 0 -54 -19t-34 -61h-110q24 122 74 179t130 57q25 0 45.5 -3t40.5 -9l92 -27q10 -3 21.5 -4.5t34.5 -1.5q33 0 54 21t32 63h110z" />
    <glyph glyph-name="odieresis" unicode="&#xf6;" horiz-adv-x="1143" 
d="M571 227q81 0 124.5 101.5t43.5 289.5t-43.5 290t-124.5 102q-80 0 -124 -101.5t-44 -290.5q0 -188 44 -289.5t124 -101.5zM66 618q0 298 137.5 475t367.5 177t367 -177t137 -475q0 -297 -137 -474t-367 -177t-367.5 177t-137.5 474zM622 1567q0 51 39.5 90t91.5 39
q54 0 92.5 -38t38.5 -91q0 -58 -36.5 -94.5t-94.5 -36.5q-55 0 -93 37.5t-38 93.5zM258 1567q0 51 39.5 90t91.5 39q53 0 91 -38t38 -91q0 -58 -36 -94.5t-93 -36.5q-56 0 -93.5 37.5t-37.5 93.5z" />
    <glyph glyph-name="divide" unicode="&#xf7;" horiz-adv-x="1706" 
d="M854 369q62 0 107 -45t45 -107q0 -61 -45 -105t-107 -44q-63 0 -107.5 43t-44.5 106t44.5 107.5t107.5 44.5zM254 711h1198v-199h-1198v199zM854 1155q62 0 107 -44.5t45 -106.5q0 -63 -44.5 -107.5t-107.5 -44.5t-107.5 44.5t-44.5 107.5t44.5 107t107.5 44z" />
    <glyph glyph-name="oslash" unicode="&#xf8;" horiz-adv-x="1151" 
d="M745 815l-313 -508q27 -47 63 -71.5t76 -24.5q92 0 142.5 101t50.5 284q0 43 -4.5 97.5t-14.5 121.5zM711 918q-25 52 -60.5 80t-79.5 28q-92 0 -142 -105.5t-50 -302.5q0 -28 4.5 -78t13.5 -124zM178 172q-58 95 -86.5 204t-28.5 242q0 301 138 476.5t372 175.5
q75 0 142 -21.5t131 -64.5l88 153h201l-168 -286q55 -95 81.5 -202t26.5 -231q0 -300 -135 -475.5t-367 -175.5q-88 0 -152 19.5t-114 60.5l-88 -147h-203z" />
    <glyph glyph-name="ugrave" unicode="&#xf9;" horiz-adv-x="1219" 
d="M455 1237v-772q0 -111 38.5 -168t114.5 -57q77 0 115.5 56.5t38.5 168.5v772h328v-766q0 -237 -127.5 -370.5t-354.5 -133.5q-228 0 -354.5 132.5t-126.5 371.5v766h328zM317 1751h258l197 -371h-142z" />
    <glyph glyph-name="uacute" unicode="&#xfa;" horiz-adv-x="1219" 
d="M455 1237v-772q0 -111 38.5 -168t114.5 -57q77 0 115.5 56.5t38.5 168.5v772h328v-766q0 -237 -127.5 -370.5t-354.5 -133.5q-228 0 -354.5 132.5t-126.5 371.5v766h328zM903 1751l-313 -371h-142l197 371h258z" />
    <glyph glyph-name="ucircumflex" unicode="&#xfb;" horiz-adv-x="1219" 
d="M455 1237v-772q0 -111 38.5 -168t114.5 -57q77 0 115.5 56.5t38.5 168.5v772h328v-766q0 -237 -127.5 -370.5t-354.5 -133.5q-228 0 -354.5 132.5t-126.5 371.5v766h328zM295 1380l196 371h238l196 -371h-141l-174 219l-176 -219h-139z" />
    <glyph glyph-name="udieresis" unicode="&#xfc;" horiz-adv-x="1219" 
d="M455 1237v-772q0 -111 38.5 -168t114.5 -57q77 0 115.5 56.5t38.5 168.5v772h328v-766q0 -237 -127.5 -370.5t-354.5 -133.5q-228 0 -354.5 132.5t-126.5 371.5v766h328zM661 1567q0 51 39.5 90t91.5 39q54 0 92.5 -38t38.5 -91q0 -58 -36.5 -94.5t-94.5 -36.5
q-55 0 -93 37.5t-38 93.5zM297 1567q0 51 39.5 90t91.5 39q53 0 91 -38t38 -91q0 -58 -36 -94.5t-93 -36.5q-56 0 -93.5 37.5t-37.5 93.5z" />
    <glyph glyph-name="yacute" unicode="&#xfd;" horiz-adv-x="1055" 
d="M170 -375l182 508l-346 1104h326l127 -510q17 -68 32 -144.5t29 -162.5q12 64 26 125.5t29 120.5l160 571h324l-563 -1612h-326zM821 1751l-313 -371h-142l197 371h258z" />
    <glyph glyph-name="thorn" unicode="&#xfe;" horiz-adv-x="1186" 
d="M465 1278q0 -74 -6 -141.5t-19 -126.5q44 117 121 181t174 64q179 0 282 -170.5t103 -468.5t-103 -467t-282 -169q-98 0 -174.5 62.5t-120.5 180.5q13 -60 19 -126.5t6 -139.5v-332h-338v1987h338v-334zM612 266q84 0 129 92.5t45 262.5q0 169 -45 260.5t-129 91.5
q-83 0 -128.5 -91.5t-45.5 -260.5q0 -170 45.5 -262.5t128.5 -92.5z" />
    <glyph glyph-name="ydieresis" unicode="&#xff;" horiz-adv-x="1055" 
d="M170 -375l182 508l-346 1104h326l127 -510q17 -68 32 -144.5t29 -162.5q12 64 26 125.5t29 120.5l160 571h324l-563 -1612h-326zM579 1567q0 51 39.5 90t91.5 39q54 0 92.5 -38t38.5 -91q0 -58 -36.5 -94.5t-94.5 -36.5q-55 0 -93 37.5t-38 93.5zM215 1567q0 51 39.5 90
t91.5 39q53 0 91 -38t38 -91q0 -58 -36 -94.5t-93 -36.5q-56 0 -93.5 37.5t-37.5 93.5z" />
    <glyph glyph-name="Cacute" unicode="&#x106;" horiz-adv-x="1358" 
d="M1282 111q-93 -73 -204.5 -108.5t-250.5 -35.5q-158 0 -291 55t-229 160q-105 116 -158 269t-53 340q0 125 23.5 237t68.5 203q96 193 251 292t364 99q123 0 232 -30t210 -91v-368q-66 85 -155.5 127.5t-202.5 42.5q-194 0 -311 -138.5t-117 -369.5q0 -236 118.5 -372
t323.5 -136q115 0 210.5 41.5t170.5 124.5v-342zM1090 2068l-313 -371h-142l197 371h258z" />
    <glyph glyph-name="cacute" unicode="&#x107;" horiz-adv-x="1100" 
d="M993 868q-53 60 -122 89.5t-154 29.5q-149 0 -235.5 -97t-86.5 -265q0 -171 88.5 -269t243.5 -98q76 0 140 26.5t126 84.5v-318q-59 -42 -142 -64t-183 -22q-280 0 -441 175.5t-161 480.5q0 295 159.5 473t425.5 178q97 0 183.5 -23.5t158.5 -68.5v-312zM938 1751
l-313 -371h-142l197 371h258z" />
    <glyph glyph-name="Ccaron" unicode="&#x10c;" horiz-adv-x="1358" 
d="M1282 111q-93 -73 -204.5 -108.5t-250.5 -35.5q-158 0 -291 55t-229 160q-105 116 -158 269t-53 340q0 125 23.5 237t68.5 203q96 193 251 292t364 99q123 0 232 -30t210 -91v-368q-66 85 -155.5 127.5t-202.5 42.5q-194 0 -311 -138.5t-117 -369.5q0 -236 118.5 -372
t323.5 -136q115 0 210.5 41.5t170.5 124.5v-342zM1110 2068l-196 -371h-238l-196 371h141l176 -219l174 219h139z" />
    <glyph glyph-name="ccaron" unicode="&#x10d;" horiz-adv-x="1100" 
d="M993 868q-53 60 -122 89.5t-154 29.5q-149 0 -235.5 -97t-86.5 -265q0 -171 88.5 -269t243.5 -98q76 0 140 26.5t126 84.5v-318q-59 -42 -142 -64t-183 -22q-280 0 -441 175.5t-161 480.5q0 295 159.5 473t425.5 178q97 0 183.5 -23.5t158.5 -68.5v-312zM958 1751
l-196 -371h-238l-196 371h141l176 -219l174 219h139z" />
    <glyph glyph-name="dcroat" unicode="&#x111;" horiz-adv-x="1194" 
d="M575 254q84 0 129.5 91t45.5 261t-45.5 262.5t-129.5 92.5q-83 0 -129.5 -93t-46.5 -262t46 -260.5t130 -91.5zM1053 0h-280q2 65 8.5 135.5t17.5 154.5q-51 -154 -135 -232t-199 -78q-176 0 -287.5 175.5t-111.5 460.5q0 283 105.5 451t281.5 168q97 0 174 -63.5
t121 -180.5q-13 64 -19 129.5t-6 136.5v74h-354v152h354v129h330v-129h141v-152h-141v-1331z" />
    <glyph glyph-name="Gbreve" unicode="&#x11e;" horiz-adv-x="1626" 
d="M1525 854q3 -43 4 -64.5t1 -37.5q0 -111 -17 -203t-51 -162q-100 -212 -255 -316t-373 -104q-159 0 -294.5 59.5t-236.5 172.5q-104 118 -155.5 266t-51.5 330t52 332.5t155 267.5q98 112 234.5 169.5t304.5 57.5q187 0 329.5 -77t251.5 -236l-260 -201
q-60 105 -139.5 155t-185.5 50q-176 0 -280.5 -140.5t-104.5 -377.5q0 -238 108 -379.5t287 -141.5q136 0 228.5 85t99.5 214h-369v281h718zM502 2033h123q6 -76 50.5 -111.5t135.5 -35.5q90 0 134 35t50 112h123q-11 -156 -85 -229.5t-222 -73.5q-147 0 -222.5 74
t-86.5 229z" />
    <glyph glyph-name="gbreve" unicode="&#x11f;" horiz-adv-x="1180" 
d="M1047 1237v-1057q0 -278 -129.5 -417.5t-387.5 -139.5q-185 0 -300 72t-134 199h336q8 -33 36 -49.5t75 -16.5q96 0 133 58t37 257v140q-41 -103 -107 -154t-155 -51q-169 0 -277 160.5t-108 418.5q0 269 110 431.5t287 162.5q103 0 183.5 -71.5t125.5 -202.5
q-12 69 -18 134t-6 126h299zM565 356q78 0 124 84t46 228q0 143 -46 228t-122 85q-77 0 -123.5 -84.5t-46.5 -228.5t46 -228t122 -84zM281 1716h123q6 -76 50.5 -111.5t135.5 -35.5q90 0 134 35t50 112h123q-11 -156 -85 -229.5t-222 -73.5q-147 0 -222.5 74t-86.5 229z" />
    <glyph glyph-name="Idotaccent" unicode="&#x130;" horiz-adv-x="842" 
d="M244 0v1587h354v-1587h-354zM289 1880q0 53 38.5 92t92.5 39t91.5 -38.5t37.5 -92.5q0 -56 -37 -92.5t-92 -36.5q-56 0 -93.5 37t-37.5 92z" />
    <glyph glyph-name="dotlessi" unicode="&#x131;" horiz-adv-x="592" 
d="M131 0v1165h328v-1165h-328z" />
    <glyph glyph-name="Lslash" unicode="&#x141;" horiz-adv-x="1384" 
d="M254 0v563l-256 -180v266l256 178v760h352v-583l369 258v-269l-369 -256v-424h805v-313h-1157z" />
    <glyph glyph-name="lslash" unicode="&#x142;" horiz-adv-x="612" 
d="M141 0v647l-141 -102v184l141 94v789h328v-608l143 100v-182l-143 -101v-821h-328z" />
    <glyph glyph-name="OE" unicode="&#x152;" horiz-adv-x="2148" 
d="M739 281q137 0 217 137.5t80 376.5q0 237 -80.5 375.5t-216.5 138.5q-137 0 -217 -138t-80 -378q0 -238 80 -375t217 -137zM1075 205q-64 -116 -166 -177t-233 -61q-123 0 -229.5 56.5t-180.5 160.5q-85 123 -127.5 275.5t-42.5 335.5q0 182 43 334.5t129 275.5
q74 106 180.5 161.5t235.5 55.5q125 0 226 -61.5t165 -176.5v203h928v-313h-612v-322h561v-295h-561v-344h612v-313h-928v205z" />
    <glyph glyph-name="oe" unicode="&#x153;" horiz-adv-x="1780" 
d="M1049 727h368q-9 157 -57 242.5t-127 85.5t-127 -85.5t-57 -242.5zM389 616q0 -180 44.5 -284.5t119.5 -104.5q74 0 118 105t44 284q0 182 -43.5 286t-118.5 104t-119.5 -104.5t-44.5 -285.5zM895 1044q69 115 158 170.5t202 55.5q233 0 350 -174.5t117 -522.5v-34h-675
v-15q0 -143 56 -226t152 -83q61 0 106.5 35.5t76.5 105.5l245 -116q-59 -132 -166.5 -203.5t-246.5 -71.5q-124 0 -221 57.5t-154 163.5q-63 -109 -154.5 -164t-210.5 -55q-212 0 -337 176.5t-125 479.5q0 299 125 473t337 174q118 0 207 -55t158 -171z" />
    <glyph glyph-name="Scedilla" unicode="&#x15e;" horiz-adv-x="1200" 
d="M764 909q174 -84 248.5 -185.5t74.5 -252.5q0 -225 -142 -364.5t-372 -139.5q-144 0 -264.5 56.5t-226.5 173.5l172 223q70 -82 148.5 -125t158.5 -43q89 0 144 52.5t55 137.5q0 60 -32.5 100t-129.5 89l-166 84q-173 88 -245 188t-72 248q0 202 138.5 336.5t348.5 134.5
q147 0 261 -55t196 -166l-197 -201q-59 71 -120 104t-134 33q-71 0 -117.5 -45.5t-46.5 -115.5q0 -58 34 -102t104 -79zM381 -397v116q86 -21 146 -29.5t112 -8.5q40 0 61 17t21 50q0 34 -25.5 48t-89.5 14q-8 0 -25 -1.5t-28 -1.5v193h96v-82h14q110 0 167 -44.5t57 -129.5
q0 -88 -62 -134t-180 -46q-55 0 -121.5 9.5t-142.5 29.5z" />
    <glyph glyph-name="scedilla" unicode="&#x15f;" horiz-adv-x="1034" 
d="M686 932q-38 51 -81 76.5t-93 25.5q-64 0 -99.5 -31.5t-35.5 -87.5q0 -82 190 -151q14 -5 22 -8q216 -76 290.5 -162t74.5 -238q0 -177 -120.5 -283t-323.5 -106q-163 0 -283.5 63t-163.5 169l228 135q44 -60 96.5 -89.5t114.5 -29.5q69 0 111 34t42 89q0 83 -164 148
q-45 18 -69 28q-204 86 -275 169.5t-71 217.5q0 166 118 267.5t312 101.5q143 0 249 -58t167 -170zM299 -397v116q86 -21 146 -29.5t112 -8.5q40 0 61 17t21 50q0 34 -25.5 48t-89.5 14q-8 0 -25 -1.5t-28 -1.5v193h96v-82h14q110 0 167 -44.5t57 -129.5q0 -88 -62 -134
t-180 -46q-55 0 -121.5 9.5t-142.5 29.5z" />
    <glyph glyph-name="Scaron" unicode="&#x160;" horiz-adv-x="1200" 
d="M764 909q174 -84 248.5 -185.5t74.5 -252.5q0 -225 -142 -364.5t-372 -139.5q-144 0 -264.5 56.5t-226.5 173.5l172 223q70 -82 148.5 -125t158.5 -43q89 0 144 52.5t55 137.5q0 60 -32.5 100t-129.5 89l-166 84q-173 88 -245 188t-72 248q0 202 138.5 336.5t348.5 134.5
q147 0 261 -55t196 -166l-197 -201q-59 71 -120 104t-134 33q-71 0 -117.5 -45.5t-46.5 -115.5q0 -58 34 -102t104 -79zM911 2068l-196 -371h-238l-196 371h141l176 -219l174 219h139z" />
    <glyph glyph-name="scaron" unicode="&#x161;" horiz-adv-x="1034" 
d="M686 932q-38 51 -81 76.5t-93 25.5q-64 0 -99.5 -31.5t-35.5 -87.5q0 -82 190 -151q14 -5 22 -8q216 -76 290.5 -162t74.5 -238q0 -177 -120.5 -283t-323.5 -106q-163 0 -283.5 63t-163.5 169l228 135q44 -60 96.5 -89.5t114.5 -29.5q69 0 111 34t42 89q0 83 -164 148
q-45 18 -69 28q-204 86 -275 169.5t-71 217.5q0 166 118 267.5t312 101.5q143 0 249 -58t167 -170zM831 1751l-196 -371h-238l-196 371h141l176 -219l174 219h139z" />
    <glyph glyph-name="Ydieresis" unicode="&#x178;" horiz-adv-x="1518" 
d="M580 0v725l-596 862h401l375 -598l381 598h391l-598 -862v-725h-354zM807 1884q0 51 39.5 90t91.5 39q54 0 92.5 -38t38.5 -91q0 -58 -36.5 -94.5t-94.5 -36.5q-55 0 -93 37.5t-38 93.5zM443 1884q0 51 39.5 90t91.5 39q53 0 91 -38t38 -91q0 -58 -36 -94.5t-93 -36.5
q-56 0 -93.5 37.5t-37.5 93.5z" />
    <glyph glyph-name="Zcaron" unicode="&#x17d;" horiz-adv-x="1290" 
d="M41 0l645 1284h-549v303h1086l-643 -1284h612v-303h-1151zM956 2068l-196 -371h-238l-196 371h141l176 -219l174 219h139z" />
    <glyph glyph-name="zcaron" unicode="&#x17e;" horiz-adv-x="969" 
d="M6 0l453 985h-414v252h875l-453 -985h453v-252h-914zM798 1751l-196 -371h-238l-196 371h141l176 -219l174 219h139z" />
    <glyph glyph-name="florin" unicode="&#x192;" horiz-adv-x="1110" 
d="M1075 1337q-22 17 -45.5 25t-48.5 8q-50 0 -84 -35t-49 -102l-43 -193h207v-247h-260l-177 -834q-38 -181 -118.5 -253.5t-239.5 -72.5q-54 0 -100.5 9t-87.5 26v240q22 -15 45.5 -22t50.5 -7q51 0 84 29.5t45 85.5l168 799h-191v247h244l55 254q40 185 120.5 256.5
t244.5 71.5q50 0 96.5 -10.5t91.5 -32.5z" />
    <glyph glyph-name="circumflex" unicode="&#x2c6;" 
d="M197 1380l196 371h238l196 -371h-141l-174 219l-176 -219h-139z" />
    <glyph glyph-name="caron" unicode="&#x2c7;" 
d="M825 1751l-196 -371h-238l-196 371h141l176 -219l174 219h139z" />
    <glyph glyph-name="breve" unicode="&#x2d8;" 
d="M203 1716h123q6 -76 50.5 -111.5t135.5 -35.5q90 0 134 35t50 112h123q-11 -156 -85 -229.5t-222 -73.5q-147 0 -222.5 74t-86.5 229z" />
    <glyph glyph-name="dotaccent" unicode="&#x2d9;" 
d="M383 1563q0 53 38.5 92t92.5 39t91.5 -38.5t37.5 -92.5q0 -56 -37 -92.5t-92 -36.5q-56 0 -93.5 37t-37.5 92z" />
    <glyph glyph-name="ring" unicode="&#x2da;" 
d="M391 1628q0 -52 34.5 -86.5t86.5 -34.5t87.5 35t35.5 86t-36 87t-87 36q-52 0 -86.5 -35t-34.5 -88zM248 1628q0 112 76.5 189t187.5 77q112 0 189 -77.5t77 -188.5q0 -112 -77 -189t-189 -77t-188 77t-76 189z" />
    <glyph glyph-name="ogonek" unicode="&#x2db;" 
d="M651 0q-59 -46 -91 -95t-32 -95q0 -35 20.5 -53.5t59.5 -18.5h99v-160h-103q-112 0 -169.5 43t-57.5 127q0 66 42.5 126t137.5 126h94z" />
    <glyph glyph-name="tilde" unicode="&#x2dc;" 
d="M829 1702q-26 -125 -77 -184.5t-131 -59.5q-17 0 -35.5 3t-38.5 9l-88 25q-29 8 -41.5 10t-24.5 2q-33 0 -54 -19t-34 -61h-110q24 122 74 179t130 57q25 0 45.5 -3t40.5 -9l92 -27q10 -3 21.5 -4.5t34.5 -1.5q33 0 54 21t32 63h110z" />
    <glyph glyph-name="hungarumlaut" unicode="&#x2dd;" 
d="M563 1382l154 369h229l-270 -369h-113zM295 1382l115 369h221l-232 -369h-104z" />
    <glyph glyph-name="Omega" unicode="&#x3a9;" horiz-adv-x="1575" 
d="M1227 256h291v-256h-609v291q126 86 192 217.5t66 296.5q0 203 -101.5 319.5t-279.5 116.5q-177 0 -278.5 -116.5t-101.5 -319.5q0 -164 66 -296.5t192 -217.5v-291h-609v256h291q-126 121 -187 260t-61 303q0 313 188 501.5t500 188.5q313 0 501 -188.5t188 -501.5
q0 -164 -61 -303t-187 -260z" />
    <glyph glyph-name="pi" unicode="&#x3c0;" horiz-adv-x="1319" 
d="M1354 1092l-39 -224h-176l-154 -868h-287l152 868h-238l-151 -868h-287l152 868h-25q-55 0 -84 -31t-39 -99l-213 -1q29 199 123 277t311 78h955z" />
    <glyph glyph-name="endash" unicode="&#x2013;" 
d="M0 508v235h1024v-235h-1024z" />
    <glyph glyph-name="emdash" unicode="&#x2014;" horiz-adv-x="2048" 
d="M0 743h2048v-235h-2048v235z" />
    <glyph glyph-name="quoteleft" unicode="&#x2018;" horiz-adv-x="649" 
d="M639 1587l-238 -672h-340l314 672h264z" />
    <glyph glyph-name="quoteright" unicode="&#x2019;" horiz-adv-x="649" 
d="M76 915l239 672h338l-313 -672h-264z" />
    <glyph glyph-name="quotesinglbase" unicode="&#x201a;" horiz-adv-x="649" 
d="M-6 -180l239 674h338l-313 -674h-264z" />
    <glyph glyph-name="quotedblleft" unicode="&#x201c;" horiz-adv-x="1186" 
d="M1176 1587l-240 -672h-338l313 672h265zM639 1587l-238 -672h-340l314 672h264z" />
    <glyph glyph-name="quotedblright" unicode="&#x201d;" horiz-adv-x="1186" 
d="M612 915l238 672h340l-313 -672h-265zM76 915l239 672h338l-313 -672h-264z" />
    <glyph glyph-name="quotedblbase" unicode="&#x201e;" horiz-adv-x="1186" 
d="M530 -180l238 674h340l-313 -674h-265zM-6 -180l239 674h338l-313 -674h-264z" />
    <glyph glyph-name="dagger" unicode="&#x2020;" horiz-adv-x="967" 
d="M442 -188q-11 334 -31.5 529.5t-56.5 338.5q33 108 55.5 195.5t36.5 162.5l-389 -98v291l392 -98l-103 489h272l-100 -489l393 98v-291l-389 98q20 -97 42.5 -185.5t47.5 -172.5q-33 -134 -53 -319.5t-35 -548.5h-82z" />
    <glyph glyph-name="daggerdbl" unicode="&#x2021;" horiz-adv-x="967" 
d="M612 717q-32 -105 -55 -191t-37 -153l389 94v-281l-391 95l100 -469h-272l103 469l-392 -95v281l389 -94q-16 78 -39.5 164t-52.5 180q29 93 52.5 179.5t39.5 164.5l-389 -94v280l392 -94l-103 469h272l-100 -469l391 94v-280l-389 94q14 -68 37 -154t55 -190z" />
    <glyph glyph-name="bullet" unicode="&#x2022;" horiz-adv-x="1208" 
d="M307 762q0 123 87 209t210 86q122 0 208.5 -86.5t86.5 -208.5t-87.5 -209.5t-209.5 -87.5q-123 0 -209 87t-86 210z" />
    <glyph glyph-name="ellipsis" unicode="&#x2026;" horiz-adv-x="2048" 
d="M339 -16q-85 0 -143.5 58.5t-58.5 143.5t59 145t143 60q85 0 145 -60t60 -145q0 -84 -59.5 -143t-145.5 -59zM1021 -16q-85 0 -143.5 58.5t-58.5 143.5t59 145t143 60q85 0 145 -60t60 -145q0 -84 -59.5 -143t-145.5 -59zM1706 -16q-85 0 -143.5 58.5t-58.5 143.5t59 145
t143 60q85 0 145 -60t60 -145q0 -84 -59.5 -143t-145.5 -59z" />
    <glyph glyph-name="perthousand" unicode="&#x2030;" horiz-adv-x="3250" 
d="M2261 412q0 90 33.5 170.5t97.5 144.5q63 63 145 97t170 34q89 0 170 -33.5t146 -97.5q63 -63 96 -144t33 -171q0 -91 -33 -170.5t-96 -143.5q-65 -63 -146 -97t-170 -34t-171 33.5t-144 95.5q-64 65 -97.5 145t-33.5 171zM2462 412q0 -103 72 -174.5t173 -71.5
q102 0 173 71.5t71 174.5t-70.5 174t-173.5 71q-101 0 -173 -71.5t-72 -173.5zM1442 412q0 -103 71 -174.5t173 -71.5q101 0 173 71.5t72 174.5t-71.5 174t-173.5 71q-103 0 -173.5 -71t-70.5 -174zM1241 412q0 90 33.5 170.5t97.5 144.5t144.5 97.5t169.5 33.5
q88 0 169 -33.5t146 -97.5q64 -64 97.5 -145t33.5 -170q0 -90 -33.5 -170t-97.5 -144q-65 -63 -146 -97t-169 -34q-90 0 -170.5 33.5t-143.5 95.5q-64 65 -97.5 145t-33.5 171zM575 -33l910 1626h166l-912 -1626h-164zM295 1147q0 -102 71.5 -173t174.5 -71q102 0 173.5 71
t71.5 173q0 103 -71 174.5t-174 71.5t-174.5 -71.5t-71.5 -174.5zM94 1147q0 91 33.5 171t97.5 144q63 63 145 97t171 34q88 0 169 -33.5t146 -97.5q63 -63 96 -143.5t33 -171.5q0 -90 -33 -170t-96 -143q-65 -64 -146 -98t-169 -34q-90 0 -171.5 33.5t-144.5 95.5
q-64 65 -97.5 145t-33.5 171z" />
    <glyph glyph-name="guilsinglleft" unicode="&#x2039;" horiz-adv-x="649" 
d="M641 1081l-317 -479l317 -479h-258l-317 479l317 479h258z" />
    <glyph glyph-name="guilsinglright" unicode="&#x203a;" horiz-adv-x="649" 
d="M12 121l318 479l-318 479h258l318 -479l-318 -479h-258z" />
    <glyph glyph-name="franc" unicode="&#x20a3;" horiz-adv-x="2329" 
d="M244 0v1587h1136v-313h-782v-307h725v-295h-725v-672h-354zM1603 0v1237h288q0 -68 -5 -144t-15 -169q62 169 150 250t209 81q10 0 21.5 -0.5t37.5 -3.5v-370q-38 18 -75.5 27.5t-73.5 9.5q-113 0 -161 -69.5t-48 -238.5v-610h-328z" />
    <glyph glyph-name="trademark" unicode="&#x2122;" horiz-adv-x="1706" 
d="M803 1462h196l127 -332l123 332h197v-547h-135v410l-154 -410h-61l-158 410v-410h-135v547zM207 1462h485v-112h-168v-435h-149v435h-168v112z" />
    <glyph glyph-name="partialdiff" unicode="&#x2202;" horiz-adv-x="1094" 
d="M762 662q19 99 29 188.5t10 155.5q0 100 -26 157.5t-70 57.5t-146 -73t-160 -73q-42 0 -71 30t-29 73q0 64 86.5 118t210.5 54q192 0 309 -161.5t117 -432.5q0 -339 -156.5 -560t-396.5 -221q-171 0 -282 114.5t-111 291.5q0 198 116 329.5t287 131.5q102 0 170 -43.5
t113 -136.5zM700 518q0 116 -38.5 178t-110.5 62q-101 0 -167.5 -134t-66.5 -341q0 -117 38.5 -177.5t111.5 -60.5q101 0 167 133.5t66 339.5z" />
    <glyph glyph-name="Delta" unicode="&#x2206;" horiz-adv-x="1427" 
d="M713 1110l-326 -854h653zM563 1473h301l563 -1473h-1427z" />
    <glyph glyph-name="product" unicode="&#x220f;" horiz-adv-x="1612" 
d="M150 1473h1308v-1866h-344v1577h-620v-1577h-344v1866z" />
    <glyph glyph-name="summation" unicode="&#x2211;" horiz-adv-x="1470" 
d="M66 1473h1308v-265h-878l620 -645l-622 -690h933v-266h-1386v172l698 772l-673 690v232z" />
    <glyph glyph-name="minus" unicode="&#x2212;" horiz-adv-x="1706" 
d="M254 713h1198v-203h-1198v203z" />
    <glyph glyph-name="fraction" unicode="&#x2215;" horiz-adv-x="342" 
d="M-182 -33h-160l866 1626h158z" />
    <glyph glyph-name="periodcentered" unicode="&#x2219;" horiz-adv-x="555" 
d="M276 588q-78 0 -134 57t-56 135q0 79 55.5 135t134.5 56q80 0 135.5 -55.5t55.5 -135.5q0 -79 -56 -135.5t-135 -56.5z" />
    <glyph glyph-name="radical" unicode="&#x221a;" horiz-adv-x="1346" 
d="M1141 1694h207v-129h-103l-592 -1606h-100l-311 858l-140 -51l-30 113l331 116l236 -661z" />
    <glyph glyph-name="infinity" unicode="&#x221e;" horiz-adv-x="1706" 
d="M942 561q45 -75 106.5 -113t139.5 -38q94 0 152.5 55.5t58.5 144.5q0 87 -54 143t-135 56q-75 0 -138 -57.5t-130 -190.5zM766 659q-44 75 -105.5 112.5t-140.5 37.5q-94 0 -152.5 -56t-58.5 -145q0 -85 54 -141.5t135 -56.5q75 0 138 58t130 191zM858 457
q-68 -132 -146.5 -195t-174.5 -63q-140 0 -236 117.5t-96 293.5q0 184 85.5 297t223.5 113q92 0 170 -60t164 -198q68 132 148 196t175 64q139 0 235.5 -118.5t96.5 -293.5q0 -183 -86 -296t-223 -113q-93 0 -170.5 58.5t-165.5 197.5z" />
    <glyph glyph-name="integral" unicode="&#x222b;" horiz-adv-x="1186" 
d="M342 -252q102 0 121 639q3 136 6 211q16 508 123 732t328 224q98 0 157.5 -49t59.5 -129q0 -60 -38 -96.5t-100 -36.5q-46 0 -77 24t-41 68q-5 20 -7 54q-3 46 -30 47q-99 0 -119 -633q-4 -116 -6 -178q-11 -296 -31 -444.5t-59 -250.5q-56 -148 -148.5 -225.5
t-214.5 -77.5q-96 0 -156.5 49t-60.5 127q0 62 39 99t105 37q50 0 85 -31.5t35 -71.5q0 -58 6 -73t23 -15z" />
    <glyph glyph-name="approxequal" unicode="&#x2248;" horiz-adv-x="1706" 
d="M1530 596v-219q-106 -72 -198 -105.5t-181 -33.5q-95 0 -286.5 66.5t-301.5 66.5q-84 0 -174.5 -37t-210.5 -121v219q111 73 206.5 108t180.5 35q124 0 315.5 -65.5t274.5 -65.5q86 0 174 35.5t201 116.5zM1530 1008v-220q-106 -71 -196.5 -104t-180.5 -33
q-94 0 -286 65.5t-304 65.5q-82 0 -170 -35t-215 -122v219q107 71 204 107t183 36q125 0 316.5 -65.5t273.5 -65.5q84 0 171 35t204 117z" />
    <glyph glyph-name="notequal" unicode="&#x2260;" horiz-adv-x="1706" 
d="M1198 1233l148 -119l-154 -192h260v-191h-389l-191 -239h580v-193h-707l-245 -309l-148 119l154 190h-252v193h377l190 239h-567v191h696z" />
    <glyph glyph-name="lessequal" unicode="&#x2264;" horiz-adv-x="1706" 
d="M258 195h1192v-197h-1192v197zM1448 1241v-209l-834 -264l834 -262v-209l-1190 385v174z" />
    <glyph glyph-name="greaterequal" unicode="&#x2265;" horiz-adv-x="1706" 
d="M258 195h1192v-197h-1192v197zM260 1241l1188 -385v-174l-1188 -385v209l832 262l-832 264v209z" />
    <glyph glyph-name="lozenge" unicode="&#x25ca;" horiz-adv-x="1012" 
d="M506 1409l-385 -817l385 -825l385 825zM506 1653l500 -1061l-500 -1069l-500 1069z" />
    <glyph glyph-name="apple" unicode="&#xf000;" horiz-adv-x="1618" 
d="M836 1216q-1 6 -1.5 14t-0.5 23q0 124 95 229.5t236 131.5q1 -10 1.5 -23t0.5 -39q0 -131 -103.5 -234.5t-203.5 -103.5h-8q-3 0 -7.5 1t-8.5 1zM1505 403q-114 -247 -205 -342.5t-204 -95.5q-50 0 -131.5 33t-122.5 33q-45 0 -131 -33t-127 -33q-64 0 -128.5 44
t-129.5 132q-102 140 -157.5 295.5t-55.5 300.5q0 219 125 356.5t323 137.5q68 0 155 -34t124 -34q34 0 121.5 35t152.5 35q110 0 198 -40t161 -124q-102 -65 -151.5 -145.5t-49.5 -182.5q0 -113 60 -200t173 -138z" />
    <glyph glyph-name="fi" unicode="&#xf001;" horiz-adv-x="1274" 
d="M1165 1468q0 -70 -48.5 -107.5t-139.5 -37.5t-140 37.5t-49 107.5t48.5 107t140.5 37q91 0 139.5 -37t48.5 -107zM813 0v1053h328v-1053h-328zM711 1341q-24 17 -47 24t-48 7q-54 0 -84 -35t-30 -100v-184h209v-238h-209v-815h-328v815h-166v238h166v186q0 192 85 282.5
t265 90.5q57 0 102.5 -7.5t84.5 -23.5v-240z" />
    <glyph glyph-name="fi" unicode="&#xfb01;" horiz-adv-x="1274" 
d="M1165 1468q0 -70 -48.5 -107.5t-139.5 -37.5t-140 37.5t-49 107.5t48.5 107t140.5 37q91 0 139.5 -37t48.5 -107zM813 0v1053h328v-1053h-328zM711 1341q-24 17 -47 24t-48 7q-54 0 -84 -35t-30 -100v-184h209v-238h-209v-815h-328v815h-166v238h166v186q0 192 85 282.5
t265 90.5q57 0 102.5 -7.5t84.5 -23.5v-240z" />
    <glyph glyph-name="fl" unicode="&#xf002;" horiz-adv-x="1274" 
d="M813 0v1612h328v-1612h-328zM711 1341q-24 17 -47 24t-48 7q-54 0 -84 -35t-30 -100v-184h209v-238h-209v-815h-328v815h-166v238h166v186q0 192 85 282.5t265 90.5q57 0 102.5 -7.5t84.5 -23.5v-240z" />
    <glyph glyph-name="fl" unicode="&#xfb02;" horiz-adv-x="1274" 
d="M813 0v1612h328v-1612h-328zM711 1341q-24 17 -47 24t-48 7q-54 0 -84 -35t-30 -100v-184h209v-238h-209v-815h-328v815h-166v238h166v186q0 192 85 282.5t265 90.5q57 0 102.5 -7.5t84.5 -23.5v-240z" />
    </font>
</defs>
</svg>
