<svg xmlns="http://www.w3.org/2000/svg" viewBox="0 0 343.35 249.8"><defs><style>.cls-1{fill:#d60613;}.cls-2{fill:#0090d4;}.cls-3{fill:#f9e64e;}</style></defs><g id="Capa_2" data-name="Capa 2"><g id="Layer_1" data-name="Layer 1"><path class="cls-1" d="M227.05,3.28c.64,26.5,7.46,54.39-10.49,78.6-1.25,1.68-2.09,4-3.73,5-15.55,9.86-14.54,25-14.3,40.68.56,36,.18,72.09.19,108.14V249.8H177.8c-1.83-23.23-3.61-45.94-5.4-68.64l-2.58-.12c-1.78,22.6-3.56,45.19-5.4,68.53h-21V236.34c0-41.91.29-83.83-.32-125.74-.08-5.69-3.45-12.34-7.32-16.78C125.07,81.54,115.6,68.76,114.87,52s-.16-33.86-.16-52c4.4,13.94,8.22,27.07,12.68,40,6.71,19.43,20.76,29.59,40.07,29.62,27.09,0,40.32-7.85,47.87-29.3C219.62,28.09,223.17,15.63,227.05,3.28Z"/><path class="cls-1" d="M196,33.19A24.82,24.82,0,0,1,171.36,58a25.27,25.27,0,0,1-25.31-25.55,24.78,24.78,0,0,1,24.78-24.6C185.24,7.74,196.17,18.76,196,33.19Z"/><path class="cls-2" d="M341.55,3.28c.64,26.5,7.46,54.39-10.49,78.6-1.25,1.68-2.08,4-3.72,5-15.56,9.86-14.55,25-14.31,40.68.56,36,.19,72.09.19,108.14V249.8H292.3c-1.83-23.23-3.61-45.94-5.4-68.64l-2.58-.12c-1.78,22.6-3.55,45.19-5.39,68.53h-21V236.34c0-41.91.28-83.83-.32-125.74-.08-5.69-3.46-12.34-7.33-16.78C239.57,81.54,230.1,68.76,229.38,52s-.16-33.86-.16-52c4.39,13.94,8.22,27.07,12.67,40C248.6,59.41,262.65,69.57,282,69.6c27.1,0,40.32-7.85,47.87-29.3C334.12,28.09,337.67,15.63,341.55,3.28Z"/><path class="cls-2" d="M310.47,33.19A24.82,24.82,0,0,1,285.86,58a25.27,25.27,0,0,1-25.31-25.55,24.78,24.78,0,0,1,24.78-24.6C299.75,7.74,310.68,18.76,310.47,33.19Z"/><path class="cls-3" d="M112.55,3.28c.64,26.5,7.46,54.39-10.5,78.6-1.24,1.68-2.08,4-3.72,5-15.56,9.86-14.55,25-14.3,40.68.56,36,.18,72.09.18,108.14V249.8H63.3c-1.83-23.23-3.62-45.94-5.4-68.64L55.32,181c-1.78,22.6-3.56,45.19-5.4,68.53h-21V236.34c0-41.91.29-83.83-.32-125.74-.08-5.69-3.45-12.34-7.32-16.78C10.57,81.54,1.1,68.76.37,52S.21,18.11.21,0c4.4,13.94,8.22,27.07,12.68,40C19.6,59.41,33.64,69.57,53,69.6c27.1,0,40.33-7.85,47.87-29.3C105.12,28.09,108.66,15.63,112.55,3.28Z"/><path class="cls-3" d="M81.47,33.19A24.83,24.83,0,0,1,56.86,58,25.28,25.28,0,0,1,31.54,32.44,24.78,24.78,0,0,1,56.33,7.84C70.74,7.74,81.67,18.76,81.47,33.19Z"/></g></g></svg>