<svg xmlns="http://www.w3.org/2000/svg" viewBox="0 0 227.92 252"><defs><style>.cls-1{fill:#0090d4;}</style></defs><g id="Capa_2" data-name="Capa 2"><g id="Layer_1" data-name="Layer 1"><g id="byT8dH"><path class="cls-1" d="M180.54,0c2.28,5.22,5.38,6.59,11.68,5.92,9.47-1,19.23.68,28.87,1.22l-2.26,2.93c1.3,5.68,2.67,11.35,3.9,17.05,1.79,8.27,3.46,16.57,5.19,24.85l-3.46-1.72c-4.94,3.15-9.81,6.42-14.85,9.41-7.09,4.2-14.31,8.18-22,12.56-1.82-3.91-2.9-6.25-4.82-10.41a27.36,27.36,0,0,1-2,4c-12.3,15.83-24.69,31.6-37,47.45-7.7,10-6.41,32.93,2.19,41.9s17,17.74,25.4,26.65c.35.37.34,1.08.49,1.61-25.3,25.57-86.23,25.86-116.61-.3,9.26-9.63,18.26-19.47,27.82-28.75,4.89-4.75,6.24-9.63,6.39-16.48.29-14-4.3-25.18-13.46-35.63C65.17,89.94,55.6,76.49,44.9,62.77l-3.4,7.57c-.71,0-1.7.3-2.38,0-6.89-3.45-13.84-6.8-20.55-10.58-5.1-2.87-9.87-6.33-14.78-9.53L0,51.91Q2.85,39.14,5.72,26.38c1.16-5.17,2.36-10.33,2.36-16.1A34.39,34.39,0,0,1,35.83,5.74c6.35,1.58,9.43-.5,11.69-5.74h3.6c3.47,7.48,7.07,14.91,10.37,22.47,2.45,5.62,4.5,11.41,6.74,17.12l3-.48L61.44,51.88c10.8,12.58,21.18,24.93,32,36.93,1.62,1.8,5,2.65,7.67,2.75,8.64.33,17.3.26,25.94,0,2.42-.07,5.66-.51,7.07-2.08,11.1-12.43,21.84-25.17,32.59-37.7l-9.77-12.65c3.27-2.84,7.38-4.76,8.7-7.87,4.33-10.19,7.65-20.82,11.35-31.28Z"/><path class="cls-1" d="M135.55,205l25.62-7c7.13,11.31,14.9,22.88,21.85,34.92,3.57,6.18,1.88,12.44-4.32,16.35-6.57,4.13-12.95,2.76-17.2-3.59C152.74,232.57,144.51,219.11,135.55,205Z"/><path class="cls-1" d="M91.19,205c-8.3,14-16.17,28-24.81,41.47-3.88,6-10.32,7.09-16.56,3.26s-8-10-4.64-16.3c5.71-10.8,12.13-21.24,18.59-31.6.86-1.37,3.94-2.3,5.71-2C76.47,201.2,83.35,203.11,91.19,205Z"/><path class="cls-1" d="M113.83,81.56a28.36,28.36,0,1,1,28.8-28.16A28.34,28.34,0,0,1,113.83,81.56Z"/></g></g></g></svg>