<svg xmlns="http://www.w3.org/2000/svg" viewBox="0 0 140.09 134.5"><defs><style>.cls-1{fill:#fff;}</style></defs><g id="Capa_2" data-name="Capa 2"><g id="Layer_1" data-name="Layer 1"><path class="cls-1" d="M81.21,22.29l3.88-4.07a8.53,8.53,0,0,0,3.66.82,9.29,9.29,0,0,0,9-9.53,9.06,9.06,0,1,0-18.09,0,9.91,9.91,0,0,0,.79,3.87l-8.43,8.89,0,0Z"/><path class="cls-1" d="M72.06,22.27l-8.43-8.89a10.09,10.09,0,0,0,.78-3.87,9.05,9.05,0,1,0-18.08,0,9.29,9.29,0,0,0,9,9.53A8.61,8.61,0,0,0,59,18.22l3.87,4.07H72Z"/><path class="cls-1" d="M54.72,78.59c1.27-1.49,1.87-3.85,1.87-7.09a13.12,13.12,0,0,0-1-5.66A6.28,6.28,0,0,0,53.2,63,4.74,4.74,0,0,0,48,63a6.5,6.5,0,0,0-2.4,2.88,13.46,13.46,0,0,0-1,5.66c0,3.24.62,5.6,1.89,7.09a5.44,5.44,0,0,0,4.13,2.22A5.44,5.44,0,0,0,54.72,78.59Z"/><path class="cls-1" d="M139.85,109.54,127.12,34.6H13.86l-13.59,75c-2,13.07,7.53,24.91,20.11,24.91H119.5C132.12,134.5,141.76,122.68,139.85,109.54ZM41.23,83.62a13.17,13.17,0,0,1-3.46-4.84,18.17,18.17,0,0,1-1.3-7.31c0-4.13.83-7.36,2.55-9.67a12.5,12.5,0,0,1,5.72-4.6,16.93,16.93,0,0,1,5.85-1.14,15.23,15.23,0,0,1,9.81,3.61c2.91,2.41,4.38,6.34,4.38,11.8a20.39,20.39,0,0,1-1.27,7,12.93,12.93,0,0,1-12.92,8.49,16.43,16.43,0,0,1-4.83-.76A13.21,13.21,0,0,1,41.23,83.62ZM48,111.05l34.39-54H94.72l-34.43,54Zm57.16-5.29a12.56,12.56,0,0,1-5.49,4.88,15.91,15.91,0,0,1-6.43,1.41,16.08,16.08,0,0,1-6.48-1.42,12.64,12.64,0,0,1-5.5-4.88A16.55,16.55,0,0,1,79,96.62c0-5.41,1.48-9.35,4.42-11.78a14.95,14.95,0,0,1,19.55,0c2.94,2.43,4.41,6.37,4.41,11.78A16.58,16.58,0,0,1,105.12,105.76Z"/><path class="cls-1" d="M93.2,87.28a5.14,5.14,0,0,0-4.29,2.44,11.72,11.72,0,0,0-1.75,6.9c0,3.12.6,5.44,1.8,7a4.89,4.89,0,0,0,6.85,1.54,6.28,6.28,0,0,0,2.37-2.86,13.25,13.25,0,0,0,1-5.67c0-3.28-.62-5.65-1.86-7.13A5.49,5.49,0,0,0,93.2,87.28Z"/><path class="cls-1" d="M126.36,30.11l.76,4.49a6.17,6.17,0,0,0-.18-12.31H81.21L76.64,27.1l-4.56-4.81h0L67.47,27.1l-4.56-4.81h-49a6,6,0,0,0-5.85,6.17,6,6,0,0,0,5.79,6.15l.82-4.5Z"/></g></g></svg>